G75*
%MOIN*%
%OFA0B0*%
%FSLAX24Y24*%
%IPPOS*%
%LPD*%
%AMOC8*
5,1,8,0,0,1.08239X$1,22.5*
%
%ADD10R,0.1160X0.0350*%
%ADD11R,0.0375X0.0454*%
%ADD12R,0.0984X0.0669*%
%ADD13R,0.0984X0.0512*%
%ADD14R,0.0454X0.0375*%
%ADD15R,0.0454X0.0631*%
%ADD16R,0.0690X0.0336*%
%ADD17R,0.0690X0.0473*%
%ADD18R,0.0611X0.0336*%
%ADD19R,0.0532X0.0532*%
%ADD20R,0.0375X0.0532*%
%ADD21R,0.1320X0.0532*%
%ADD22R,0.0808X0.0847*%
%ADD23OC8,0.0660*%
%ADD24R,0.0296X0.0217*%
%ADD25R,0.1123X0.0690*%
%ADD26R,0.0611X0.0454*%
%ADD27R,0.0552X0.0158*%
%ADD28R,0.0729X0.0572*%
%ADD29C,0.0810*%
%ADD30R,0.0572X0.0729*%
%ADD31R,0.1044X0.0729*%
%ADD32R,0.0410X0.0168*%
%ADD33R,0.0710X0.1180*%
%ADD34R,0.0217X0.0532*%
%ADD35R,0.0454X0.0139*%
%ADD36R,0.0139X0.0454*%
%ADD37R,0.0493X0.0808*%
%ADD38R,0.0316X0.0454*%
%ADD39R,0.0591X0.0217*%
%ADD40R,0.0808X0.0651*%
%ADD41C,0.0267*%
%ADD42C,0.0828*%
%ADD43C,0.0631*%
%ADD44C,0.0480*%
%ADD45R,0.0473X0.0277*%
%ADD46R,0.0454X0.0611*%
%ADD47R,0.1270X0.0660*%
%ADD48R,0.0847X0.0296*%
%ADD49C,0.2225*%
%ADD50R,0.0380X0.0410*%
%ADD51C,0.0285*%
%ADD52R,0.0560X0.0300*%
%ADD53R,0.0460X0.0310*%
%ADD54R,0.1560X0.1600*%
%ADD55C,0.0660*%
%ADD56R,0.0158X0.0336*%
%ADD57R,0.1340X0.0710*%
%ADD58R,0.0611X0.0532*%
%ADD59C,0.2619*%
%ADD60C,0.0420*%
%ADD61R,0.0532X0.0611*%
%ADD62C,0.0310*%
%ADD63C,0.0417*%
%ADD64C,0.0515*%
D10*
X005039Y010516D03*
X005039Y011016D03*
X005039Y011516D03*
X005039Y012016D03*
X005039Y012516D03*
X006639Y012516D03*
X006639Y012016D03*
X006639Y011516D03*
X006639Y011016D03*
X006639Y010516D03*
D11*
X007827Y012501D03*
X008378Y012501D03*
X008378Y013288D03*
X008378Y014075D03*
X007827Y014075D03*
X007827Y013288D03*
X007827Y014863D03*
X008378Y014863D03*
X008378Y015650D03*
X008378Y016438D03*
X007827Y016438D03*
X007827Y015650D03*
X006902Y014075D03*
X006350Y014075D03*
X009894Y019981D03*
X010445Y019981D03*
X010445Y020768D03*
X009894Y020768D03*
X009894Y021556D03*
X009894Y022343D03*
X010445Y022343D03*
X010445Y021556D03*
X010445Y023131D03*
X009894Y023131D03*
X009894Y023918D03*
X009894Y024705D03*
X010445Y024705D03*
X010445Y023918D03*
X010642Y025591D03*
X010091Y025591D03*
X010091Y026477D03*
X010642Y026477D03*
X010642Y027264D03*
X010091Y027264D03*
X010091Y027953D03*
X010091Y028741D03*
X010642Y028741D03*
X010642Y027953D03*
X011075Y031595D03*
X011626Y031595D03*
X012354Y031595D03*
X012906Y031595D03*
X013634Y031595D03*
X014185Y031595D03*
X014913Y031595D03*
X015465Y031595D03*
X019638Y031201D03*
X019638Y030414D03*
X019638Y029430D03*
X019638Y028642D03*
X019638Y027658D03*
X019638Y026871D03*
X019638Y025886D03*
X019638Y025099D03*
X019638Y024115D03*
X019638Y023327D03*
X019638Y022343D03*
X019638Y021556D03*
X020189Y021556D03*
X020189Y022343D03*
X020189Y023327D03*
X020189Y024115D03*
X020189Y025099D03*
X020189Y025886D03*
X020189Y026871D03*
X020189Y027658D03*
X020189Y028642D03*
X020189Y029430D03*
X020189Y030414D03*
X020189Y031201D03*
X020189Y032186D03*
X020189Y032973D03*
X019638Y032973D03*
X019638Y032186D03*
X019638Y033957D03*
X019638Y034745D03*
X020189Y034745D03*
X020189Y033957D03*
X020189Y035729D03*
X020189Y036516D03*
X020189Y037501D03*
X020189Y038288D03*
X020189Y039272D03*
X020189Y040060D03*
X020189Y041044D03*
X020189Y041831D03*
X019638Y041831D03*
X019638Y041044D03*
X019638Y040060D03*
X019638Y039272D03*
X019638Y038288D03*
X019638Y037501D03*
X019638Y036516D03*
X019638Y035729D03*
X022886Y035729D03*
X023437Y035729D03*
X023437Y037501D03*
X022886Y037501D03*
X022886Y039272D03*
X023437Y039272D03*
X023437Y041044D03*
X022886Y041044D03*
X022886Y033957D03*
X023437Y033957D03*
X023437Y032186D03*
X022886Y032186D03*
X022886Y030414D03*
X023437Y030414D03*
X023437Y028642D03*
X022886Y028642D03*
X022886Y026871D03*
X023437Y026871D03*
X023437Y025099D03*
X022886Y025099D03*
X022886Y023327D03*
X023437Y023327D03*
X023437Y021654D03*
X022886Y021654D03*
X020878Y017816D03*
X020327Y017816D03*
X019303Y017816D03*
X018752Y017816D03*
X018752Y018701D03*
X019303Y018701D03*
X017236Y016339D03*
X016685Y016339D03*
X015858Y016339D03*
X015307Y016339D03*
X015307Y017127D03*
X015858Y017127D03*
X015858Y017914D03*
X015307Y017914D03*
X015563Y015552D03*
X015760Y014764D03*
X015209Y014764D03*
X015012Y015552D03*
X015898Y012304D03*
X016449Y012304D03*
X016252Y011123D03*
X015701Y011123D03*
X015701Y010335D03*
X016252Y010335D03*
X016252Y009548D03*
X016252Y008760D03*
X015701Y008760D03*
X015701Y009548D03*
X014874Y009548D03*
X014874Y008760D03*
X014323Y008760D03*
X014323Y009548D03*
X014323Y010335D03*
X014874Y010335D03*
X014874Y011123D03*
X014323Y011123D03*
X014323Y007973D03*
X014874Y007973D03*
X015701Y007973D03*
X016252Y007973D03*
X013496Y007973D03*
X012945Y007973D03*
X011528Y010532D03*
X010976Y010532D03*
X011469Y005020D03*
X012020Y005020D03*
X010740Y004627D03*
X010189Y004627D03*
X009362Y004627D03*
X008811Y004627D03*
X008083Y004627D03*
X007532Y004627D03*
X007532Y003839D03*
X008083Y003839D03*
X013142Y020670D03*
X013142Y021457D03*
X013693Y021457D03*
X013693Y020670D03*
X013693Y022343D03*
X013142Y022343D03*
X013142Y023131D03*
X013693Y023131D03*
X013693Y024016D03*
X013142Y024016D03*
X012315Y024016D03*
X011764Y024016D03*
X011764Y023131D03*
X012315Y023131D03*
X012315Y022343D03*
X011764Y022343D03*
X009067Y021556D03*
X008516Y021556D03*
X008319Y022934D03*
X008319Y023623D03*
X008870Y023623D03*
X008870Y022934D03*
X008870Y024607D03*
X008319Y024607D03*
X007689Y026280D03*
X007138Y026280D03*
X007925Y027363D03*
X008476Y027363D03*
X008476Y028052D03*
X007925Y028052D03*
X007827Y029036D03*
X008378Y029036D03*
X006016Y025788D03*
X005819Y026477D03*
X005465Y025788D03*
X005268Y026477D03*
X005662Y025099D03*
X006213Y025099D03*
X005032Y033662D03*
X004480Y033662D03*
X004480Y035827D03*
X005032Y035827D03*
X020524Y013780D03*
X021075Y013780D03*
X019992Y002560D03*
X019441Y002560D03*
X018516Y002560D03*
X017965Y002560D03*
D12*
X006528Y014823D03*
X006528Y016477D03*
X004165Y016477D03*
X004165Y014823D03*
D13*
X004165Y015650D03*
X006528Y015650D03*
D14*
X007413Y018721D03*
X007413Y019272D03*
X008496Y019272D03*
X008496Y018721D03*
X009087Y017501D03*
X009087Y016949D03*
X009677Y016949D03*
X009677Y017501D03*
X010110Y018426D03*
X010110Y018977D03*
X011055Y018977D03*
X011055Y018426D03*
X011055Y017461D03*
X011055Y016910D03*
X011744Y016910D03*
X011744Y017461D03*
X012039Y018426D03*
X012039Y018977D03*
X012433Y017461D03*
X012433Y016910D03*
X013122Y016910D03*
X013122Y017461D03*
X013811Y017461D03*
X013811Y016910D03*
X014500Y016910D03*
X014500Y017461D03*
X014500Y018327D03*
X014500Y018879D03*
X013811Y018879D03*
X013811Y018327D03*
X015780Y013957D03*
X015780Y013406D03*
X013516Y011103D03*
X013516Y010552D03*
X012827Y010552D03*
X012827Y011103D03*
X012138Y011103D03*
X012138Y010552D03*
X012138Y008544D03*
X012138Y007993D03*
X011350Y007993D03*
X011350Y008544D03*
X010563Y008544D03*
X010563Y007993D03*
X010366Y010552D03*
X010366Y011103D03*
X009382Y011103D03*
X009382Y010552D03*
X008693Y010552D03*
X008693Y011103D03*
X006725Y004410D03*
X006725Y003859D03*
X006725Y003131D03*
X006725Y002579D03*
X008004Y002579D03*
X008004Y003131D03*
X011547Y003131D03*
X011547Y002579D03*
X011547Y003760D03*
X011547Y004312D03*
X016961Y005138D03*
X016961Y005690D03*
X017945Y005690D03*
X017945Y005138D03*
X018929Y005138D03*
X018929Y005690D03*
X021095Y012127D03*
X021095Y012678D03*
X021882Y015965D03*
X021882Y016516D03*
X021882Y017343D03*
X021882Y017894D03*
X021882Y018721D03*
X021882Y019272D03*
X021882Y020099D03*
X021882Y020650D03*
X018732Y020394D03*
X018732Y020946D03*
X017847Y020946D03*
X017847Y020394D03*
X017847Y021772D03*
X017847Y022323D03*
X016764Y026103D03*
X016764Y026654D03*
X016764Y027284D03*
X016764Y027835D03*
X016764Y028465D03*
X016764Y029016D03*
X016764Y029646D03*
X016764Y030198D03*
X016764Y030827D03*
X016764Y031379D03*
X017551Y029607D03*
X017551Y029056D03*
X017551Y028426D03*
X017551Y027875D03*
X017551Y027245D03*
X017551Y026694D03*
X015681Y034272D03*
X015681Y034823D03*
X016469Y037028D03*
X016469Y037579D03*
X016469Y038898D03*
X016469Y039449D03*
X015780Y039449D03*
X015780Y038898D03*
X015091Y038898D03*
X015091Y039449D03*
X013910Y037579D03*
X013910Y037028D03*
X013122Y037028D03*
X013122Y037579D03*
X012039Y037481D03*
X012039Y036930D03*
X011154Y036930D03*
X011154Y037481D03*
X013024Y035119D03*
X013024Y034568D03*
X010366Y030198D03*
X010366Y029646D03*
X009382Y029646D03*
X009382Y030198D03*
X008496Y030198D03*
X008496Y029646D03*
X007709Y029646D03*
X007709Y030198D03*
X009185Y027540D03*
X009185Y026989D03*
X007413Y025572D03*
X007413Y025020D03*
X008398Y020749D03*
X008398Y020198D03*
X005740Y020198D03*
X005740Y020749D03*
X004067Y009331D03*
X004067Y008780D03*
X003673Y007068D03*
X003673Y006516D03*
X003673Y005690D03*
X003673Y005138D03*
X003575Y034469D03*
X003575Y035020D03*
D15*
X020268Y020699D03*
X020937Y020699D03*
X020937Y018672D03*
X020268Y018672D03*
X020268Y016959D03*
X020937Y016959D03*
X020937Y014932D03*
X020268Y014932D03*
X022925Y015916D03*
X023595Y015916D03*
X023595Y017944D03*
X023595Y018770D03*
X022925Y018770D03*
X022925Y017944D03*
X022925Y020798D03*
X023595Y020798D03*
D16*
X017384Y010552D03*
X017384Y010119D03*
X017384Y009686D03*
X017384Y009253D03*
X017384Y008820D03*
X017384Y008386D03*
X017384Y007953D03*
X017384Y007520D03*
D17*
X017384Y006772D03*
D18*
X017345Y010985D03*
D19*
X019077Y011260D03*
D20*
X021518Y011260D03*
D21*
X022935Y011260D03*
D22*
X023329Y006123D03*
D23*
X023457Y005020D03*
X018634Y014174D03*
X018634Y014961D03*
X016862Y021556D03*
X016862Y022343D03*
X016862Y023131D03*
X016862Y023918D03*
X016862Y024705D03*
X011941Y009646D03*
X011154Y009646D03*
X010366Y009646D03*
X009579Y009646D03*
X008791Y009646D03*
X008004Y009646D03*
X008102Y017323D03*
X007315Y017323D03*
X004165Y044686D03*
D24*
X004284Y008111D03*
X004284Y007835D03*
X003850Y007835D03*
X003850Y008111D03*
D25*
X005543Y003859D03*
X005543Y002835D03*
X004599Y019883D03*
X004599Y020906D03*
X004264Y025670D03*
X004264Y026694D03*
X004264Y027934D03*
X004264Y028957D03*
X006823Y031280D03*
X006823Y032304D03*
X006823Y033446D03*
X006823Y034469D03*
X006823Y035808D03*
X006823Y036831D03*
X006823Y038367D03*
X006823Y039390D03*
X008201Y039390D03*
X008201Y038367D03*
X008201Y036831D03*
X008201Y035808D03*
X008201Y034469D03*
X008201Y033446D03*
X008102Y032304D03*
X008102Y031280D03*
X009677Y031280D03*
X009677Y032304D03*
X009579Y033446D03*
X009579Y034469D03*
X009579Y035808D03*
X009579Y036831D03*
D26*
X005189Y034745D03*
X004323Y035119D03*
X004323Y034371D03*
X007453Y020847D03*
X007453Y020099D03*
X006587Y020473D03*
X015150Y020276D03*
X016016Y019902D03*
X016016Y019371D03*
X016016Y018623D03*
X015150Y018997D03*
X016016Y020650D03*
X019185Y012402D03*
X020051Y012028D03*
X020051Y012776D03*
X020957Y021575D03*
X020957Y022323D03*
X020957Y023347D03*
X020957Y024095D03*
X020957Y025119D03*
X020957Y025867D03*
X020957Y026890D03*
X020957Y027638D03*
X020957Y028662D03*
X020957Y029410D03*
X020957Y030434D03*
X020957Y031182D03*
X020957Y032205D03*
X020957Y032953D03*
X021823Y032579D03*
X020957Y033977D03*
X020957Y034725D03*
X021823Y034351D03*
X020957Y035749D03*
X020957Y036497D03*
X020957Y037520D03*
X020957Y038268D03*
X020957Y039292D03*
X020957Y040040D03*
X020957Y041064D03*
X020957Y041812D03*
X021823Y041438D03*
X021823Y039666D03*
X021823Y037894D03*
X021823Y036123D03*
X021823Y030808D03*
X021823Y029036D03*
X021823Y027264D03*
X021823Y025493D03*
X021823Y023721D03*
X021823Y021949D03*
D27*
X014845Y026280D03*
X014845Y026477D03*
X014845Y026674D03*
X014845Y026871D03*
X014845Y027068D03*
X014845Y027264D03*
X014845Y027461D03*
X014845Y027658D03*
X014845Y027855D03*
X014845Y028052D03*
X014845Y028249D03*
X014845Y028446D03*
X014845Y028642D03*
X014845Y028839D03*
X014845Y029036D03*
X014845Y029233D03*
X014845Y029430D03*
X014845Y029627D03*
X014845Y029823D03*
X014845Y030020D03*
X014845Y030217D03*
X014845Y030414D03*
X012187Y030414D03*
X012187Y030217D03*
X012187Y030020D03*
X012187Y029823D03*
X012187Y029627D03*
X012187Y029430D03*
X012187Y029233D03*
X012187Y029036D03*
X012187Y028839D03*
X012187Y028642D03*
X012187Y028446D03*
X012187Y028249D03*
X012187Y028052D03*
X012187Y027855D03*
X012187Y027658D03*
X012187Y027461D03*
X012187Y027264D03*
X012187Y027068D03*
X012187Y026871D03*
X012187Y026674D03*
X012187Y026477D03*
X012187Y026280D03*
D28*
X012532Y040611D03*
X012532Y041871D03*
X013713Y041871D03*
X013713Y040611D03*
X014894Y040611D03*
X014894Y041871D03*
X016075Y041871D03*
X016075Y040611D03*
X017256Y040611D03*
X017256Y041871D03*
X011350Y041871D03*
X011350Y040611D03*
X010169Y040611D03*
X010169Y041871D03*
X008988Y041871D03*
X008988Y040611D03*
X007807Y040611D03*
X007807Y041871D03*
X006626Y041871D03*
X006626Y040611D03*
X005445Y040611D03*
X005445Y041871D03*
X004264Y041871D03*
X004264Y040611D03*
X020012Y004863D03*
X020012Y003603D03*
X016764Y004174D03*
X016764Y002914D03*
X015681Y002914D03*
X015681Y004174D03*
D29*
X013516Y004741D03*
X013516Y002741D03*
D30*
X013280Y006005D03*
X013280Y006989D03*
X012374Y006989D03*
X012374Y006005D03*
X011114Y006005D03*
X011114Y006989D03*
X014539Y006989D03*
X014539Y006005D03*
D31*
X015780Y006792D03*
X015780Y005217D03*
D32*
X010630Y003938D03*
X010630Y003741D03*
X010630Y003544D03*
X010630Y003347D03*
X010630Y003150D03*
X010630Y002953D03*
X010630Y002757D03*
X010630Y002560D03*
X008921Y002560D03*
X008921Y002757D03*
X008921Y002953D03*
X008921Y003150D03*
X008921Y003347D03*
X008921Y003544D03*
X008921Y003741D03*
X008921Y003938D03*
D33*
X009776Y003249D03*
D34*
X007502Y022028D03*
X007246Y022028D03*
X006990Y022028D03*
X006734Y022028D03*
X006734Y023642D03*
X006990Y023642D03*
X007246Y023642D03*
X007502Y023642D03*
X011557Y034135D03*
X011813Y034135D03*
X012069Y034135D03*
X012325Y034135D03*
X012325Y035749D03*
X012069Y035749D03*
X011813Y035749D03*
X011557Y035749D03*
D35*
X013122Y015158D03*
X013122Y014961D03*
X013122Y014764D03*
X013122Y014568D03*
X013122Y014371D03*
X013122Y014174D03*
X013122Y013977D03*
X013122Y013780D03*
X013122Y013583D03*
X013122Y013386D03*
X013122Y013190D03*
X013122Y012993D03*
X009579Y012993D03*
X009579Y013190D03*
X009579Y013386D03*
X009579Y013583D03*
X009579Y013780D03*
X009579Y013977D03*
X009579Y014174D03*
X009579Y014371D03*
X009579Y014568D03*
X009579Y014764D03*
X009579Y014961D03*
X009579Y015158D03*
D36*
X010268Y015847D03*
X010465Y015847D03*
X010662Y015847D03*
X010858Y015847D03*
X011055Y015847D03*
X011252Y015847D03*
X011449Y015847D03*
X011646Y015847D03*
X011843Y015847D03*
X012039Y015847D03*
X012236Y015847D03*
X012433Y015847D03*
X012433Y012304D03*
X012236Y012304D03*
X012039Y012304D03*
X011843Y012304D03*
X011646Y012304D03*
X011449Y012304D03*
X011252Y012304D03*
X011055Y012304D03*
X010858Y012304D03*
X010662Y012304D03*
X010465Y012304D03*
X010268Y012304D03*
D37*
X014205Y012304D03*
X015189Y012304D03*
D38*
X022856Y022343D03*
X023467Y022343D03*
X023467Y024115D03*
X022856Y024115D03*
X022856Y025886D03*
X023467Y025886D03*
X023467Y027658D03*
X022856Y027658D03*
X022856Y029430D03*
X023467Y029430D03*
X023467Y031201D03*
X022856Y031201D03*
X022856Y032973D03*
X023467Y032973D03*
X023467Y034745D03*
X022856Y034745D03*
X022856Y036516D03*
X023467Y036516D03*
X023467Y038288D03*
X022856Y038288D03*
X022856Y040060D03*
X023467Y040060D03*
X023467Y041831D03*
X022856Y041831D03*
D39*
X022502Y014095D03*
X022502Y013839D03*
X022502Y013583D03*
X022502Y013327D03*
X022502Y013072D03*
D40*
X023555Y013190D03*
X023555Y013977D03*
D41*
X023826Y014593D02*
X023826Y015173D01*
X023826Y014593D02*
X023284Y014593D01*
X023284Y015173D01*
X023826Y015173D01*
X023826Y014859D02*
X023284Y014859D01*
X023284Y015125D02*
X023826Y015125D01*
X023826Y012574D02*
X023826Y011994D01*
X023284Y011994D01*
X023284Y012574D01*
X023826Y012574D01*
X023826Y012260D02*
X023284Y012260D01*
X023284Y012526D02*
X023826Y012526D01*
D42*
X023555Y012205D03*
X023555Y014961D03*
D43*
X022492Y014568D03*
X022492Y012599D03*
D44*
X017059Y019981D03*
X013077Y024705D03*
X012577Y024705D03*
X013319Y012455D03*
X013319Y011955D03*
D45*
X017886Y004213D03*
X017886Y003839D03*
X017886Y003465D03*
X018988Y003465D03*
X018988Y003839D03*
X018988Y004213D03*
D46*
X013693Y008820D03*
X012945Y008820D03*
X013319Y009686D03*
X014421Y021320D03*
X014795Y022186D03*
X014520Y022894D03*
X014894Y023760D03*
X015268Y024469D03*
X014894Y025335D03*
X014520Y024469D03*
X015268Y022894D03*
X015169Y021320D03*
X009165Y026320D03*
X008791Y025453D03*
X008417Y026320D03*
X004658Y006044D03*
X005032Y005178D03*
X004284Y005178D03*
D47*
X004658Y022004D03*
X004658Y024454D03*
X004756Y030075D03*
X004756Y032525D03*
X004756Y036965D03*
X004756Y039415D03*
D48*
X005858Y008837D03*
X005858Y008337D03*
X005858Y007837D03*
X005858Y007337D03*
X005858Y006837D03*
X005858Y006337D03*
X005858Y005837D03*
X005858Y005337D03*
X009559Y005337D03*
X009559Y005837D03*
X009559Y006337D03*
X009559Y006837D03*
X009559Y007337D03*
X009559Y007837D03*
X009559Y008337D03*
X009559Y008837D03*
D49*
X002000Y022442D03*
X002000Y025985D03*
X002000Y029725D03*
X002000Y033268D03*
X002000Y036812D03*
X002000Y040355D03*
D50*
X014506Y014105D03*
X014506Y013455D03*
X015006Y013455D03*
D51*
X014958Y014042D02*
X014958Y014168D01*
X015054Y014168D01*
X015054Y014042D01*
X014958Y014042D01*
D52*
X006102Y017361D03*
X006102Y017861D03*
X006102Y018361D03*
X006102Y018861D03*
D53*
X003951Y018861D03*
X003951Y018361D03*
X003951Y017861D03*
X003951Y017361D03*
D54*
X004776Y018111D03*
D55*
X002202Y017312D02*
X001602Y017312D01*
X001602Y016312D02*
X002202Y016312D01*
X002202Y015312D02*
X001602Y015312D01*
X001602Y014312D02*
X002202Y014312D01*
X002202Y013312D02*
X001602Y013312D01*
X001602Y012312D02*
X002202Y012312D01*
X002202Y011312D02*
X001602Y011312D01*
X001602Y010312D02*
X002202Y010312D01*
X002202Y009312D02*
X001602Y009312D01*
X001602Y008312D02*
X002202Y008312D01*
X002202Y007312D02*
X001602Y007312D01*
X001602Y006312D02*
X002202Y006312D01*
X005835Y043598D02*
X005835Y044198D01*
X006835Y044198D02*
X006835Y043598D01*
X007835Y043598D02*
X007835Y044198D01*
X008835Y044198D02*
X008835Y043598D01*
X009835Y043598D02*
X009835Y044198D01*
X010835Y044198D02*
X010835Y043598D01*
X011835Y043598D02*
X011835Y044198D01*
X012835Y044198D02*
X012835Y043598D01*
X013835Y043598D02*
X013835Y044198D01*
X014835Y044198D02*
X014835Y043598D01*
X015835Y043598D02*
X015835Y044198D01*
X016835Y044198D02*
X016835Y043598D01*
X017835Y043598D02*
X017835Y044198D01*
X018835Y044198D02*
X018835Y043598D01*
D56*
X015681Y037865D03*
X015484Y037865D03*
X015287Y037865D03*
X015091Y037865D03*
X014894Y037865D03*
X014697Y037865D03*
X014697Y036743D03*
X014894Y036743D03*
X015091Y036743D03*
X015287Y036743D03*
X015484Y036743D03*
X015681Y036743D03*
X006725Y028711D03*
X006528Y028711D03*
X006331Y028711D03*
X006134Y028711D03*
X005937Y028711D03*
X005740Y028711D03*
X005740Y027589D03*
X005937Y027589D03*
X006134Y027589D03*
X006331Y027589D03*
X006528Y027589D03*
X006725Y027589D03*
D57*
X006232Y028150D03*
X015189Y037304D03*
D58*
X014146Y038741D03*
X014146Y039607D03*
X013221Y039607D03*
X013221Y038741D03*
D59*
X002492Y003544D03*
X022177Y003544D03*
X022177Y043701D03*
X002492Y043701D03*
D60*
X011154Y035926D03*
X012138Y036418D03*
X015780Y038386D03*
X008890Y024115D03*
X007610Y024312D03*
X006331Y023623D03*
D61*
X014264Y035631D03*
X015130Y035631D03*
D62*
X015091Y036225D03*
X006331Y029135D03*
D63*
X006232Y021359D03*
X004165Y006989D03*
X004658Y003150D03*
X019323Y003052D03*
D64*
X018536Y012402D03*
M02*
