G75*
%MOIN*%
%OFA0B0*%
%FSLAX24Y24*%
%IPPOS*%
%LPD*%
%AMOC8*
5,1,8,0,0,1.08239X$1,22.5*
%
%ADD10C,0.0600*%
%ADD11C,0.0750*%
%ADD12C,0.0768*%
%ADD13C,0.0571*%
%ADD14C,0.0420*%
%ADD15C,0.2165*%
%ADD16C,0.2559*%
%ADD17C,0.0258*%
%ADD18C,0.0157*%
%ADD19C,0.0357*%
%ADD20C,0.0455*%
%ADD21C,0.0591*%
%ADD22C,0.0787*%
%ADD23C,0.0492*%
%ADD24C,0.0394*%
D10*
X001902Y006312D03*
X001902Y007312D03*
X001902Y008312D03*
X001902Y009312D03*
X001902Y010312D03*
X001902Y011312D03*
X001902Y012312D03*
X001902Y013312D03*
X001902Y014312D03*
X001902Y015312D03*
X001902Y016312D03*
X001902Y017312D03*
X007315Y017323D03*
X008102Y017323D03*
X008004Y009646D03*
X008791Y009646D03*
X009579Y009646D03*
X010366Y009646D03*
X011154Y009646D03*
X011941Y009646D03*
X018634Y014174D03*
X018634Y014961D03*
X016862Y021556D03*
X016862Y022343D03*
X016862Y023131D03*
X016862Y023918D03*
X016862Y024705D03*
X016835Y043898D03*
X017835Y043898D03*
X018835Y043898D03*
X015835Y043898D03*
X014835Y043898D03*
X013835Y043898D03*
X012835Y043898D03*
X011835Y043898D03*
X010835Y043898D03*
X009835Y043898D03*
X008835Y043898D03*
X007835Y043898D03*
X006835Y043898D03*
X005835Y043898D03*
X004165Y044686D03*
X023457Y005020D03*
D11*
X013516Y004741D03*
X013516Y002741D03*
D12*
X023555Y012205D03*
X023555Y014961D03*
D13*
X022492Y014568D03*
X022492Y012599D03*
D14*
X017059Y019981D03*
X013077Y024705D03*
X012577Y024705D03*
X013319Y012455D03*
X013319Y011955D03*
D15*
X002000Y022442D03*
X002000Y025985D03*
X002000Y029725D03*
X002000Y033268D03*
X002000Y036812D03*
X002000Y040355D03*
D16*
X002492Y043701D03*
X022177Y043701D03*
X022177Y003544D03*
X002492Y003544D03*
D17*
X005051Y008837D03*
X004067Y009843D03*
X005839Y013091D03*
X006331Y013583D03*
X006921Y013583D03*
X007413Y013288D03*
X007413Y014075D03*
X007847Y012068D03*
X008201Y011516D03*
X008299Y012068D03*
X008890Y012205D03*
X009362Y012599D03*
X009382Y011516D03*
X010268Y013190D03*
X011055Y014272D03*
X011350Y013977D03*
X011449Y013288D03*
X012236Y013288D03*
X012236Y014371D03*
X011331Y016300D03*
X010937Y017835D03*
X010583Y018406D03*
X011606Y018544D03*
X011587Y018898D03*
X011803Y018012D03*
X013122Y018012D03*
X014106Y019390D03*
X014795Y019587D03*
X014894Y017914D03*
X014106Y016438D03*
X014303Y015257D03*
X014402Y014568D03*
X015327Y013800D03*
X015976Y015552D03*
X016272Y016339D03*
X016665Y015355D03*
X016862Y014961D03*
X017256Y015060D03*
X017158Y014666D03*
X017256Y014272D03*
X016469Y014764D03*
X016370Y012796D03*
X015780Y011615D03*
X015287Y010335D03*
X015287Y009745D03*
X014874Y008367D03*
X015130Y007383D03*
X014539Y006497D03*
X014539Y005414D03*
X015681Y002363D03*
X016213Y002363D03*
X016764Y002363D03*
X016961Y006103D03*
X016764Y006792D03*
X016665Y007481D03*
X016764Y008662D03*
X016764Y009056D03*
X016843Y010552D03*
X017689Y012304D03*
X020012Y013780D03*
X020051Y015946D03*
X019323Y017323D03*
X018240Y017816D03*
X018240Y018701D03*
X019421Y020040D03*
X019618Y021064D03*
X018831Y021654D03*
X018831Y023426D03*
X018831Y025394D03*
X018929Y027264D03*
X018831Y028741D03*
X018831Y030512D03*
X018831Y032284D03*
X018831Y034056D03*
X018890Y035729D03*
X018831Y037599D03*
X018831Y039371D03*
X018890Y041064D03*
X017059Y038914D03*
X016124Y039804D03*
X013516Y036158D03*
X013910Y034449D03*
X014402Y034056D03*
X014701Y034552D03*
X013221Y032776D03*
X012827Y033564D03*
X013024Y034056D03*
X012433Y034942D03*
X011252Y033564D03*
X010957Y034056D03*
X010819Y033800D03*
X010524Y033800D03*
X010662Y034056D03*
X010366Y034056D03*
X011154Y032678D03*
X011449Y032875D03*
X010760Y032087D03*
X010494Y031448D03*
X009343Y029272D03*
X009343Y028839D03*
X009343Y028150D03*
X008043Y026812D03*
X009225Y026103D03*
X009480Y022638D03*
X009382Y022245D03*
X009480Y021556D03*
X008890Y022442D03*
X008102Y021556D03*
X007945Y021162D03*
X007906Y022442D03*
X007413Y022638D03*
X006823Y022638D03*
X006921Y021260D03*
X006786Y019255D03*
X006646Y018721D03*
X006646Y018426D03*
X006646Y018131D03*
X006961Y018131D03*
X006961Y018426D03*
X006961Y018721D03*
X009126Y018111D03*
X009284Y016438D03*
X009677Y016438D03*
X010563Y014863D03*
X010760Y014568D03*
X010662Y011516D03*
X010957Y011024D03*
X011252Y011516D03*
X011547Y011024D03*
X012728Y011910D03*
X012807Y010001D03*
X012945Y008367D03*
X011350Y008957D03*
X010563Y006989D03*
X011095Y006497D03*
X010563Y006005D03*
X010169Y005808D03*
X010169Y006300D03*
X011055Y005119D03*
X009776Y003642D03*
X009776Y003249D03*
X009776Y002855D03*
X007158Y002658D03*
X006961Y004922D03*
X006469Y004922D03*
X005780Y004627D03*
X006626Y007186D03*
X006626Y007973D03*
X007217Y009548D03*
X007512Y010434D03*
X007906Y010729D03*
X008595Y008367D03*
X006331Y009843D03*
X009480Y019981D03*
X009480Y020572D03*
X010957Y021949D03*
X010957Y022442D03*
X011449Y020768D03*
X012039Y021064D03*
X012138Y020178D03*
X012728Y022343D03*
X012728Y023131D03*
X012728Y024016D03*
X011744Y026083D03*
X011744Y026477D03*
X011646Y027068D03*
X011646Y027638D03*
X011646Y028741D03*
X012728Y028938D03*
X013221Y029883D03*
X014047Y030316D03*
X013654Y028052D03*
X014441Y025886D03*
X014047Y025001D03*
X014402Y023623D03*
X016075Y021064D03*
X016665Y019390D03*
X016567Y018603D03*
X016272Y017914D03*
X013221Y019981D03*
X006725Y025001D03*
X006488Y027048D03*
X006134Y027048D03*
X005386Y029233D03*
X005051Y029233D03*
X003102Y027698D03*
X003575Y033072D03*
X003575Y033465D03*
X003083Y035040D03*
X001114Y034764D03*
X005366Y037973D03*
X005602Y038111D03*
X005366Y038249D03*
X005602Y038386D03*
X005366Y038524D03*
X005839Y038524D03*
X005839Y038249D03*
X005839Y037973D03*
X007512Y034154D03*
X008890Y034154D03*
X009874Y037796D03*
X010071Y037993D03*
X010268Y037796D03*
X010465Y037993D03*
X010721Y037658D03*
X005543Y033859D03*
X021390Y018308D03*
X021390Y017816D03*
X022374Y021359D03*
X022374Y022343D03*
X022374Y022934D03*
X022374Y024115D03*
X022374Y024705D03*
X022374Y025886D03*
X022374Y026477D03*
X022374Y027658D03*
X022374Y028249D03*
X022374Y029430D03*
X022374Y030020D03*
X022374Y031201D03*
X022374Y031792D03*
X022374Y032973D03*
X022374Y033564D03*
X022374Y034745D03*
X022374Y035335D03*
X022374Y036516D03*
X022374Y037107D03*
X022374Y038288D03*
X022374Y038879D03*
X022374Y040060D03*
X022374Y040749D03*
X022374Y041831D03*
X023791Y019784D03*
X023791Y016930D03*
X021488Y013780D03*
X021587Y013288D03*
X020012Y005414D03*
X020504Y002560D03*
D18*
X000802Y002248D02*
X000802Y021968D01*
X000808Y021948D01*
X000976Y021656D01*
X001214Y021418D01*
X001506Y021249D01*
X001832Y021162D01*
X002169Y021162D01*
X002494Y021249D01*
X002786Y021418D01*
X003024Y021656D01*
X003192Y021948D01*
X003280Y022273D01*
X003280Y022610D01*
X003192Y022935D01*
X003024Y023227D01*
X002786Y023465D01*
X002494Y023634D01*
X002169Y023721D01*
X001832Y023721D01*
X001506Y023634D01*
X001214Y023465D01*
X000976Y023227D01*
X000808Y022935D01*
X000802Y022916D01*
X000802Y025511D01*
X000808Y025491D01*
X000976Y025199D01*
X001214Y024961D01*
X001506Y024793D01*
X001832Y024705D01*
X002169Y024705D01*
X002494Y024793D01*
X002786Y024961D01*
X003024Y025199D01*
X003192Y025491D01*
X003280Y025816D01*
X003280Y026153D01*
X003192Y026479D01*
X003024Y026771D01*
X002786Y027009D01*
X002494Y027177D01*
X002169Y027264D01*
X001832Y027264D01*
X001506Y027177D01*
X001214Y027009D01*
X000976Y026771D01*
X000808Y026479D01*
X000802Y026459D01*
X000802Y029251D01*
X000808Y029231D01*
X000976Y028939D01*
X001214Y028701D01*
X001506Y028533D01*
X001832Y028446D01*
X002169Y028446D01*
X002494Y028533D01*
X002786Y028701D01*
X002832Y028747D01*
X003476Y028102D01*
X003476Y020749D01*
X003566Y020532D01*
X003732Y020366D01*
X005878Y018220D01*
X005986Y018176D01*
X005986Y018023D01*
X006054Y017860D01*
X006178Y017735D01*
X006341Y017668D01*
X006957Y017668D01*
X006894Y017605D01*
X006818Y017422D01*
X006818Y017225D01*
X006894Y017042D01*
X007034Y016902D01*
X007216Y016827D01*
X007414Y016827D01*
X007596Y016902D01*
X007709Y017015D01*
X007821Y016902D01*
X008004Y016827D01*
X008201Y016827D01*
X008384Y016902D01*
X008524Y017042D01*
X008599Y017225D01*
X008599Y017422D01*
X008524Y017605D01*
X008384Y017745D01*
X008201Y017820D01*
X008004Y017820D01*
X007821Y017745D01*
X007709Y017632D01*
X007596Y017745D01*
X007414Y017820D01*
X007257Y017820D01*
X007297Y017860D01*
X007364Y018023D01*
X007364Y018790D01*
X007297Y018952D01*
X007172Y019077D01*
X007081Y019115D01*
X007112Y019190D01*
X007112Y019319D01*
X007062Y019439D01*
X013780Y019439D01*
X013780Y019455D02*
X013780Y019326D01*
X013830Y019206D01*
X013922Y019114D01*
X014042Y019064D01*
X014171Y019064D01*
X014291Y019114D01*
X014383Y019206D01*
X014432Y019326D01*
X014432Y019455D01*
X014383Y019575D01*
X014291Y019667D01*
X014171Y019716D01*
X014042Y019716D01*
X013922Y019667D01*
X013830Y019575D01*
X013780Y019455D01*
X013850Y019595D02*
X006174Y019595D01*
X006018Y019751D02*
X012989Y019751D01*
X012944Y019796D02*
X013036Y019705D01*
X013156Y019655D01*
X013285Y019655D01*
X013405Y019705D01*
X013497Y019796D01*
X013547Y019916D01*
X013547Y020046D01*
X013497Y020166D01*
X013405Y020257D01*
X013285Y020307D01*
X013156Y020307D01*
X013036Y020257D01*
X012944Y020166D01*
X012895Y020046D01*
X012895Y019916D01*
X012944Y019796D01*
X012898Y019907D02*
X012328Y019907D01*
X012323Y019901D02*
X012414Y019993D01*
X012464Y020113D01*
X012464Y020243D01*
X012414Y020363D01*
X012323Y020454D01*
X012203Y020504D01*
X012073Y020504D01*
X011953Y020454D01*
X011861Y020363D01*
X011812Y020243D01*
X011812Y020113D01*
X011861Y019993D01*
X011953Y019901D01*
X012073Y019852D01*
X012203Y019852D01*
X012323Y019901D01*
X012443Y020063D02*
X012902Y020063D01*
X012997Y020219D02*
X012464Y020219D01*
X012402Y020375D02*
X016947Y020375D01*
X016978Y020388D02*
X016829Y020326D01*
X016714Y020211D01*
X016652Y020062D01*
X016652Y019900D01*
X016714Y019751D01*
X015080Y019751D01*
X015072Y019772D02*
X014980Y019864D01*
X014860Y019913D01*
X014731Y019913D01*
X014611Y019864D01*
X014519Y019772D01*
X014469Y019652D01*
X014469Y019522D01*
X014519Y019403D01*
X014611Y019311D01*
X014731Y019261D01*
X014860Y019261D01*
X014980Y019311D01*
X015072Y019403D01*
X015121Y019522D01*
X015121Y019652D01*
X015072Y019772D01*
X015121Y019595D02*
X016928Y019595D01*
X016978Y019574D02*
X017140Y019574D01*
X017290Y019636D01*
X017404Y019751D01*
X019267Y019751D01*
X019237Y019764D02*
X019356Y019714D01*
X019486Y019714D01*
X019606Y019764D01*
X019698Y019855D01*
X019747Y019975D01*
X019747Y020105D01*
X019698Y020225D01*
X019606Y020316D01*
X019486Y020366D01*
X019356Y020366D01*
X019237Y020316D01*
X019145Y020225D01*
X019095Y020105D01*
X019095Y019975D01*
X019145Y019855D01*
X019237Y019764D01*
X019124Y019907D02*
X017466Y019907D01*
X017466Y019900D02*
X017404Y019751D01*
X017466Y019900D02*
X017466Y020062D01*
X017404Y020211D01*
X017290Y020326D01*
X017140Y020388D01*
X016978Y020388D01*
X017171Y020375D02*
X023867Y020375D01*
X023867Y020531D02*
X011673Y020531D01*
X011634Y020492D02*
X011725Y020584D01*
X011775Y020704D01*
X011775Y020833D01*
X011725Y020953D01*
X011634Y021045D01*
X011514Y021094D01*
X011384Y021094D01*
X011264Y021045D01*
X011172Y020953D01*
X011123Y020833D01*
X011123Y020704D01*
X011172Y020584D01*
X011264Y020492D01*
X011384Y020442D01*
X011514Y020442D01*
X011634Y020492D01*
X011768Y020687D02*
X023867Y020687D01*
X023867Y020843D02*
X019858Y020843D01*
X019895Y020879D02*
X019944Y020999D01*
X023867Y020999D01*
X023867Y021155D02*
X022631Y021155D01*
X022651Y021174D02*
X022700Y021294D01*
X022700Y021424D01*
X022651Y021544D01*
X022559Y021635D01*
X022439Y021685D01*
X022309Y021685D01*
X022189Y021635D01*
X022098Y021544D01*
X022048Y021424D01*
X022048Y021294D01*
X022098Y021174D01*
X022189Y021082D01*
X022309Y021033D01*
X022439Y021033D01*
X022559Y021082D01*
X022651Y021174D01*
X022700Y021311D02*
X023867Y021311D01*
X023867Y021467D02*
X022682Y021467D01*
X022571Y021623D02*
X023867Y021623D01*
X023867Y021779D02*
X019132Y021779D01*
X019107Y021839D02*
X019015Y021931D01*
X018896Y021980D01*
X018766Y021980D01*
X018646Y021931D01*
X018554Y021839D01*
X018505Y021719D01*
X018505Y021589D01*
X018554Y021469D01*
X018646Y021378D01*
X018766Y021328D01*
X018896Y021328D01*
X019015Y021378D01*
X019107Y021469D01*
X019157Y021589D01*
X019157Y021719D01*
X019107Y021839D01*
X019006Y021935D02*
X023867Y021935D01*
X023867Y022091D02*
X022583Y022091D01*
X022559Y022067D02*
X022651Y022158D01*
X022700Y022278D01*
X022700Y022408D01*
X022651Y022528D01*
X022559Y022620D01*
X022513Y022638D01*
X022559Y022657D01*
X022651Y022749D01*
X022700Y022869D01*
X022700Y022999D01*
X022651Y023118D01*
X022559Y023210D01*
X022439Y023260D01*
X022309Y023260D01*
X022189Y023210D01*
X022098Y023118D01*
X022048Y022999D01*
X022048Y022869D01*
X022098Y022749D01*
X022189Y022657D01*
X022235Y022638D01*
X022189Y022620D01*
X022098Y022528D01*
X022048Y022408D01*
X022048Y022278D01*
X022098Y022158D01*
X022189Y022067D01*
X022309Y022017D01*
X022439Y022017D01*
X022559Y022067D01*
X022687Y022247D02*
X023867Y022247D01*
X023867Y022403D02*
X022700Y022403D01*
X022620Y022559D02*
X023867Y022559D01*
X023867Y022715D02*
X022616Y022715D01*
X022700Y022871D02*
X023867Y022871D01*
X023867Y023027D02*
X022689Y023027D01*
X022586Y023183D02*
X023867Y023183D01*
X023867Y023338D02*
X019148Y023338D01*
X019157Y023361D02*
X019107Y023241D01*
X019015Y023149D01*
X018896Y023100D01*
X018766Y023100D01*
X018646Y023149D01*
X018554Y023241D01*
X018505Y023361D01*
X018505Y023491D01*
X018554Y023611D01*
X018646Y023702D01*
X018766Y023752D01*
X018896Y023752D01*
X019015Y023702D01*
X019107Y023611D01*
X019157Y023491D01*
X019157Y023361D01*
X019155Y023494D02*
X023867Y023494D01*
X023867Y023650D02*
X019067Y023650D01*
X019049Y023183D02*
X022162Y023183D01*
X022060Y023027D02*
X017357Y023027D01*
X017359Y023032D02*
X017359Y023229D01*
X017284Y023412D01*
X017171Y023524D01*
X017284Y023637D01*
X017359Y023819D01*
X017359Y024017D01*
X017284Y024199D01*
X017171Y024312D01*
X017284Y024424D01*
X017359Y024607D01*
X017359Y024804D01*
X017284Y024987D01*
X017144Y025127D01*
X016961Y025202D01*
X016763Y025202D01*
X016581Y025127D01*
X016441Y024987D01*
X016365Y024804D01*
X016365Y024607D01*
X016441Y024424D01*
X016553Y024312D01*
X016441Y024199D01*
X016365Y024017D01*
X016365Y023819D01*
X016441Y023637D01*
X016553Y023524D01*
X016441Y023412D01*
X016365Y023229D01*
X016365Y023032D01*
X016441Y022849D01*
X016553Y022737D01*
X016441Y022625D01*
X016365Y022442D01*
X016365Y022244D01*
X016441Y022062D01*
X016553Y021949D01*
X016441Y021837D01*
X016365Y021655D01*
X016365Y021457D01*
X016441Y021274D01*
X016581Y021135D01*
X016763Y021059D01*
X016961Y021059D01*
X017144Y021135D01*
X017284Y021274D01*
X017359Y021457D01*
X017359Y021655D01*
X017284Y021837D01*
X017171Y021949D01*
X017284Y022062D01*
X017359Y022244D01*
X017359Y022442D01*
X017284Y022625D01*
X017171Y022737D01*
X017284Y022849D01*
X017359Y023032D01*
X017359Y023183D02*
X018613Y023183D01*
X018514Y023338D02*
X017314Y023338D01*
X017201Y023494D02*
X018506Y023494D01*
X018594Y023650D02*
X017289Y023650D01*
X017354Y023806D02*
X022267Y023806D01*
X022309Y023789D02*
X022439Y023789D01*
X022559Y023838D01*
X022651Y023930D01*
X022700Y024050D01*
X022700Y024180D01*
X022651Y024300D01*
X022559Y024391D01*
X022513Y024410D01*
X022559Y024429D01*
X022651Y024521D01*
X022700Y024641D01*
X022700Y024770D01*
X022651Y024890D01*
X022559Y024982D01*
X022439Y025031D01*
X022309Y025031D01*
X022189Y024982D01*
X022098Y024890D01*
X022048Y024770D01*
X022048Y024641D01*
X022098Y024521D01*
X022189Y024429D01*
X022235Y024410D01*
X022189Y024391D01*
X022098Y024300D01*
X022048Y024180D01*
X022048Y024050D01*
X022098Y023930D01*
X022189Y023838D01*
X022309Y023789D01*
X022482Y023806D02*
X023867Y023806D01*
X023867Y023962D02*
X022664Y023962D01*
X022700Y024118D02*
X023867Y024118D01*
X023867Y024274D02*
X022661Y024274D01*
X022560Y024430D02*
X023867Y024430D01*
X023867Y024586D02*
X022678Y024586D01*
X022700Y024742D02*
X023867Y024742D01*
X023867Y024898D02*
X022642Y024898D01*
X022439Y025560D02*
X022559Y025610D01*
X022651Y025702D01*
X022700Y025822D01*
X022700Y025951D01*
X022651Y026071D01*
X022559Y026163D01*
X022513Y026182D01*
X022559Y026201D01*
X022651Y026292D01*
X022700Y026412D01*
X022700Y026542D01*
X022651Y026662D01*
X022559Y026753D01*
X022439Y026803D01*
X022309Y026803D01*
X022189Y026753D01*
X022098Y026662D01*
X022048Y026542D01*
X022048Y026412D01*
X022098Y026292D01*
X022189Y026201D01*
X022235Y026182D01*
X022189Y026163D01*
X022098Y026071D01*
X022048Y025951D01*
X022048Y025822D01*
X022098Y025702D01*
X022189Y025610D01*
X022309Y025560D01*
X022439Y025560D01*
X022627Y025678D02*
X023867Y025678D01*
X023867Y025522D02*
X019131Y025522D01*
X019107Y025579D02*
X019015Y025671D01*
X018896Y025720D01*
X018766Y025720D01*
X018646Y025671D01*
X018554Y025579D01*
X018505Y025459D01*
X018505Y025329D01*
X018554Y025210D01*
X014299Y025210D01*
X014324Y025185D02*
X014232Y025277D01*
X014112Y025327D01*
X013982Y025327D01*
X013863Y025277D01*
X013771Y025185D01*
X013721Y025066D01*
X013721Y024936D01*
X013771Y024816D01*
X013863Y024724D01*
X013982Y024675D01*
X014112Y024675D01*
X014232Y024724D01*
X014324Y024816D01*
X014373Y024936D01*
X014373Y025066D01*
X014324Y025185D01*
X014373Y025054D02*
X016509Y025054D01*
X016404Y024898D02*
X014358Y024898D01*
X014250Y024742D02*
X016365Y024742D01*
X016374Y024586D02*
X013468Y024586D01*
X013484Y024624D02*
X013484Y024786D01*
X013422Y024936D01*
X013307Y025050D01*
X013158Y025112D01*
X012996Y025112D01*
X012846Y025050D01*
X012827Y025031D01*
X012807Y025050D01*
X012658Y025112D01*
X012496Y025112D01*
X012346Y025050D01*
X012232Y024936D01*
X012170Y024786D01*
X012170Y024624D01*
X012232Y024475D01*
X012346Y024360D01*
X012496Y024299D01*
X012558Y024299D01*
X012544Y024293D01*
X012452Y024201D01*
X012402Y024081D01*
X012402Y023952D01*
X012452Y023832D01*
X012544Y023740D01*
X012664Y023690D01*
X012793Y023690D01*
X012913Y023740D01*
X013005Y023832D01*
X013054Y023952D01*
X013054Y024081D01*
X013005Y024201D01*
X012913Y024293D01*
X012793Y024342D01*
X012764Y024342D01*
X012807Y024360D01*
X012827Y024380D01*
X012846Y024360D01*
X012996Y024299D01*
X013158Y024299D01*
X013307Y024360D01*
X013422Y024475D01*
X013484Y024624D01*
X013484Y024742D02*
X013845Y024742D01*
X013737Y024898D02*
X013437Y024898D01*
X013298Y025054D02*
X013721Y025054D01*
X013796Y025210D02*
X006976Y025210D01*
X007001Y025185D02*
X006909Y025277D01*
X006789Y025327D01*
X006660Y025327D01*
X006540Y025277D01*
X006448Y025185D01*
X006398Y025066D01*
X006398Y024936D01*
X006448Y024816D01*
X006540Y024724D01*
X006660Y024675D01*
X006789Y024675D01*
X006909Y024724D01*
X007001Y024816D01*
X007051Y024936D01*
X007051Y025066D01*
X007001Y025185D01*
X007051Y025054D02*
X012356Y025054D01*
X012216Y024898D02*
X007035Y024898D01*
X006927Y024742D02*
X012170Y024742D01*
X012186Y024586D02*
X005976Y024586D01*
X005976Y024430D02*
X012277Y024430D01*
X012525Y024274D02*
X005976Y024274D01*
X005976Y024118D02*
X012418Y024118D01*
X012402Y023962D02*
X005976Y023962D01*
X005976Y023806D02*
X012477Y023806D01*
X012664Y023457D02*
X012544Y023407D01*
X012452Y023315D01*
X012402Y023195D01*
X012402Y023066D01*
X012452Y022946D01*
X012544Y022854D01*
X012664Y022805D01*
X012793Y022805D01*
X012913Y022854D01*
X013005Y022946D01*
X013054Y023066D01*
X013054Y023195D01*
X013005Y023315D01*
X012913Y023407D01*
X012793Y023457D01*
X012664Y023457D01*
X012475Y023338D02*
X005976Y023338D01*
X005976Y023183D02*
X012402Y023183D01*
X012419Y023027D02*
X005976Y023027D01*
X005976Y022871D02*
X006594Y022871D01*
X006638Y022915D02*
X006547Y022823D01*
X006497Y022703D01*
X006497Y022574D01*
X006547Y022454D01*
X006638Y022362D01*
X006758Y022312D01*
X006888Y022312D01*
X007008Y022362D01*
X007099Y022454D01*
X007118Y022499D01*
X007137Y022454D01*
X007229Y022362D01*
X007349Y022312D01*
X007478Y022312D01*
X007587Y022358D01*
X007629Y022257D01*
X007721Y022165D01*
X007841Y022116D01*
X007970Y022116D01*
X008090Y022165D01*
X008182Y022257D01*
X008232Y022377D01*
X008232Y022506D01*
X008182Y022626D01*
X008090Y022718D01*
X007970Y022768D01*
X007841Y022768D01*
X007732Y022722D01*
X007690Y022823D01*
X007598Y022915D01*
X007478Y022965D01*
X007349Y022965D01*
X007229Y022915D01*
X007137Y022823D01*
X007118Y022778D01*
X007099Y022823D01*
X007008Y022915D01*
X006888Y022965D01*
X006758Y022965D01*
X006638Y022915D01*
X006502Y022715D02*
X005976Y022715D01*
X005976Y022559D02*
X006503Y022559D01*
X006598Y022403D02*
X006083Y022403D01*
X005976Y022520D02*
X005976Y026760D01*
X006069Y026722D01*
X006199Y026722D01*
X006311Y026768D01*
X006423Y026722D01*
X006553Y026722D01*
X006673Y026771D01*
X006765Y026863D01*
X006814Y026983D01*
X006814Y027113D01*
X006765Y027233D01*
X006673Y027324D01*
X006553Y027374D01*
X006423Y027374D01*
X006311Y027327D01*
X006199Y027374D01*
X006069Y027374D01*
X005976Y027336D01*
X005976Y029350D01*
X005887Y029567D01*
X005720Y029734D01*
X012929Y029734D01*
X012944Y029698D02*
X013036Y029606D01*
X013156Y029556D01*
X013285Y029556D01*
X013405Y029606D01*
X013497Y029698D01*
X013547Y029818D01*
X013547Y029947D01*
X013497Y030067D01*
X013405Y030159D01*
X013285Y030209D01*
X013156Y030209D01*
X013036Y030159D01*
X012944Y030067D01*
X012895Y029947D01*
X012895Y029818D01*
X012944Y029698D01*
X012895Y029890D02*
X003360Y029890D01*
X003252Y029998D02*
X003192Y030219D01*
X003024Y030511D01*
X002786Y030749D01*
X002494Y030917D01*
X002169Y031005D01*
X001832Y031005D01*
X001506Y030917D01*
X001214Y030749D01*
X000976Y030511D01*
X000808Y030219D01*
X000802Y030199D01*
X000802Y032794D01*
X000808Y032774D01*
X000976Y032483D01*
X001214Y032244D01*
X001506Y032076D01*
X001832Y031989D01*
X002169Y031989D01*
X002494Y032076D01*
X002786Y032244D01*
X003024Y032483D01*
X003192Y032774D01*
X003252Y032998D01*
X003298Y032887D01*
X003390Y032795D01*
X003510Y032745D01*
X003640Y032745D01*
X003760Y032795D01*
X003851Y032887D01*
X003901Y033007D01*
X003901Y033136D01*
X003851Y033256D01*
X003839Y033268D01*
X003851Y033281D01*
X003901Y033400D01*
X003901Y033530D01*
X003851Y033650D01*
X003760Y033742D01*
X003640Y033791D01*
X003510Y033791D01*
X003390Y033742D01*
X003298Y033650D01*
X003252Y033539D01*
X003192Y033762D01*
X003024Y034054D01*
X002786Y034292D01*
X002494Y034461D01*
X002169Y034548D01*
X001832Y034548D01*
X001506Y034461D01*
X001214Y034292D01*
X000976Y034054D01*
X000808Y033762D01*
X000802Y033742D01*
X000802Y034665D01*
X000838Y034580D01*
X000930Y034488D01*
X001049Y034438D01*
X001179Y034438D01*
X001299Y034488D01*
X001391Y034580D01*
X001440Y034700D01*
X001440Y034829D01*
X001391Y034949D01*
X001299Y035041D01*
X001179Y035090D01*
X001049Y035090D01*
X000930Y035041D01*
X000838Y034949D01*
X000802Y034864D01*
X000802Y036338D01*
X000808Y036318D01*
X000976Y036026D01*
X001214Y035788D01*
X001506Y035619D01*
X001832Y035532D01*
X002169Y035532D01*
X002494Y035619D01*
X002786Y035788D01*
X003024Y036026D01*
X003192Y036318D01*
X003280Y036643D01*
X003280Y036980D01*
X003192Y037306D01*
X003024Y037597D01*
X002786Y037836D01*
X002494Y038004D01*
X002169Y038091D01*
X001832Y038091D01*
X001506Y038004D01*
X001214Y037836D01*
X000976Y037597D01*
X000808Y037306D01*
X000802Y037286D01*
X000802Y039881D01*
X000808Y039861D01*
X000976Y039569D01*
X001214Y039331D01*
X001506Y039163D01*
X001832Y039075D01*
X002169Y039075D01*
X002494Y039163D01*
X002786Y039331D01*
X003024Y039569D01*
X003192Y039861D01*
X003280Y040187D01*
X003280Y040523D01*
X003192Y040849D01*
X003024Y041141D01*
X002786Y041379D01*
X002494Y041547D01*
X002169Y041635D01*
X001832Y041635D01*
X001506Y041547D01*
X001214Y041379D01*
X000976Y041141D01*
X000808Y040849D01*
X000802Y040829D01*
X000802Y044998D01*
X001784Y044998D01*
X001586Y044883D01*
X001311Y044608D01*
X001116Y044271D01*
X001016Y043896D01*
X001016Y043507D01*
X001116Y043132D01*
X001311Y042795D01*
X001586Y042520D01*
X001922Y042326D01*
X002298Y042225D01*
X002687Y042225D01*
X003062Y042326D01*
X003399Y042520D01*
X003674Y042795D01*
X003868Y043132D01*
X003969Y043507D01*
X003969Y043896D01*
X003868Y044271D01*
X003855Y044293D01*
X003884Y044264D01*
X004067Y044189D01*
X004264Y044189D01*
X004447Y044264D01*
X004587Y044404D01*
X004662Y044587D01*
X004662Y044785D01*
X004587Y044967D01*
X004556Y044998D01*
X021469Y044998D01*
X021271Y044883D01*
X020996Y044608D01*
X020801Y044271D01*
X020701Y043896D01*
X020701Y043507D01*
X020801Y043132D01*
X020996Y042795D01*
X021271Y042520D01*
X021607Y042326D01*
X021983Y042225D01*
X022372Y042225D01*
X022747Y042326D01*
X023084Y042520D01*
X023359Y042795D01*
X023553Y043132D01*
X023654Y043507D01*
X023654Y043896D01*
X023553Y044271D01*
X023359Y044608D01*
X023084Y044883D01*
X022885Y044998D01*
X023867Y044998D01*
X023867Y020106D01*
X023856Y020110D01*
X023727Y020110D01*
X023607Y020061D01*
X023515Y019969D01*
X023465Y019849D01*
X023465Y019719D01*
X023515Y019599D01*
X023607Y019508D01*
X023727Y019458D01*
X023856Y019458D01*
X023867Y019463D01*
X023867Y017251D01*
X023856Y017256D01*
X023727Y017256D01*
X023607Y017206D01*
X023515Y017114D01*
X023465Y016995D01*
X023465Y016865D01*
X023515Y016745D01*
X023607Y016653D01*
X023727Y016604D01*
X023856Y016604D01*
X023867Y016608D01*
X023867Y015461D01*
X023671Y015542D01*
X023440Y015542D01*
X023226Y015454D01*
X023063Y015290D01*
X022975Y015077D01*
X022975Y014846D01*
X023063Y014632D01*
X023226Y014469D01*
X023440Y014381D01*
X023671Y014381D01*
X023867Y014462D01*
X023867Y012705D01*
X023671Y012786D01*
X023440Y012786D01*
X023226Y012698D01*
X023063Y012534D01*
X022975Y012321D01*
X022975Y012090D01*
X023063Y011876D01*
X023226Y011713D01*
X023440Y011625D01*
X023671Y011625D01*
X023867Y011706D01*
X023867Y005313D01*
X023738Y005442D01*
X023556Y005517D01*
X023358Y005517D01*
X023175Y005442D01*
X023036Y005302D01*
X022960Y005119D01*
X022960Y004922D01*
X023028Y004758D01*
X022747Y004920D01*
X022372Y005020D01*
X021983Y005020D01*
X021607Y004920D01*
X021271Y004725D01*
X020996Y004450D01*
X020801Y004114D01*
X020701Y003738D01*
X020701Y003350D01*
X020801Y002974D01*
X020996Y002637D01*
X021271Y002363D01*
X021469Y002248D01*
X020603Y002248D01*
X020689Y002283D01*
X020780Y002375D01*
X020830Y002495D01*
X020830Y002625D01*
X020780Y002744D01*
X020689Y002836D01*
X020569Y002886D01*
X020439Y002886D01*
X020319Y002836D01*
X020228Y002744D01*
X020178Y002625D01*
X020178Y002495D01*
X020228Y002375D01*
X020319Y002283D01*
X020405Y002248D01*
X017069Y002248D01*
X017090Y002298D01*
X017090Y002428D01*
X017040Y002548D01*
X016949Y002639D01*
X016829Y002689D01*
X016699Y002689D01*
X016579Y002639D01*
X016488Y002548D01*
X016397Y002639D01*
X016278Y002689D01*
X016148Y002689D01*
X016028Y002639D01*
X015947Y002558D01*
X015866Y002639D01*
X015746Y002689D01*
X015616Y002689D01*
X015496Y002639D01*
X015405Y002548D01*
X015355Y002428D01*
X015355Y002298D01*
X015376Y002248D01*
X013820Y002248D01*
X013840Y002256D01*
X014001Y002417D01*
X014088Y002627D01*
X014088Y002855D01*
X014001Y003065D01*
X013840Y003226D01*
X013630Y003313D01*
X013402Y003313D01*
X013192Y003226D01*
X013031Y003065D01*
X012944Y002855D01*
X012944Y002627D01*
X013031Y002417D01*
X013192Y002256D01*
X013212Y002248D01*
X003200Y002248D01*
X003399Y002363D01*
X003674Y002637D01*
X003868Y002974D01*
X003969Y003350D01*
X003969Y003738D01*
X003868Y004114D01*
X003674Y004450D01*
X003399Y004725D01*
X003062Y004920D01*
X002687Y005020D01*
X002298Y005020D01*
X001922Y004920D01*
X001586Y004725D01*
X001311Y004450D01*
X001116Y004114D01*
X001016Y003738D01*
X001016Y003350D01*
X001116Y002974D01*
X001311Y002637D01*
X001586Y002363D01*
X001784Y002248D01*
X000802Y002248D01*
X000802Y002281D02*
X001727Y002281D01*
X001511Y002437D02*
X000802Y002437D01*
X000802Y002593D02*
X001355Y002593D01*
X001246Y002749D02*
X000802Y002749D01*
X000802Y002905D02*
X001156Y002905D01*
X001093Y003061D02*
X000802Y003061D01*
X000802Y003217D02*
X001051Y003217D01*
X001016Y003373D02*
X000802Y003373D01*
X000802Y003529D02*
X001016Y003529D01*
X001016Y003685D02*
X000802Y003685D01*
X000802Y003841D02*
X001043Y003841D01*
X001085Y003997D02*
X000802Y003997D01*
X000802Y004153D02*
X001139Y004153D01*
X001229Y004309D02*
X000802Y004309D01*
X000802Y004465D02*
X001325Y004465D01*
X001481Y004621D02*
X000802Y004621D01*
X000802Y004777D02*
X001675Y004777D01*
X001971Y004933D02*
X000802Y004933D01*
X000802Y005089D02*
X006185Y005089D01*
X006192Y005107D02*
X006143Y004987D01*
X006143Y004857D01*
X006192Y004737D01*
X006284Y004645D01*
X006404Y004596D01*
X006533Y004596D01*
X006653Y004645D01*
X006715Y004707D01*
X006776Y004645D01*
X006896Y004596D01*
X007026Y004596D01*
X007145Y004645D01*
X007237Y004737D01*
X007287Y004857D01*
X007287Y004987D01*
X007237Y005107D01*
X007145Y005198D01*
X007026Y005248D01*
X006896Y005248D01*
X006776Y005198D01*
X006715Y005137D01*
X006653Y005198D01*
X006533Y005248D01*
X006404Y005248D01*
X006284Y005198D01*
X006192Y005107D01*
X006143Y004933D02*
X005893Y004933D01*
X005844Y004953D02*
X005715Y004953D01*
X005595Y004903D01*
X005503Y004811D01*
X005454Y004691D01*
X005454Y004562D01*
X005503Y004442D01*
X005595Y004350D01*
X005715Y004301D01*
X005844Y004301D01*
X005964Y004350D01*
X006056Y004442D01*
X006106Y004562D01*
X006106Y004691D01*
X006056Y004811D01*
X005964Y004903D01*
X005844Y004953D01*
X005667Y004933D02*
X003013Y004933D01*
X003310Y004777D02*
X005489Y004777D01*
X005454Y004621D02*
X003503Y004621D01*
X003659Y004465D02*
X005494Y004465D01*
X005695Y004309D02*
X003755Y004309D01*
X003845Y004153D02*
X020824Y004153D01*
X020770Y003997D02*
X003899Y003997D01*
X003941Y003841D02*
X009513Y003841D01*
X009499Y003827D02*
X009450Y003707D01*
X009450Y003578D01*
X009499Y003458D01*
X009511Y003446D01*
X009499Y003433D01*
X009450Y003314D01*
X009450Y003184D01*
X009499Y003064D01*
X009511Y003052D01*
X009499Y003040D01*
X009450Y002920D01*
X009450Y002790D01*
X009499Y002670D01*
X009591Y002579D01*
X009711Y002529D01*
X009841Y002529D01*
X009960Y002579D01*
X010052Y002670D01*
X010102Y002790D01*
X010102Y002920D01*
X010052Y003040D01*
X010040Y003052D01*
X010052Y003064D01*
X010102Y003184D01*
X010102Y003314D01*
X010052Y003433D01*
X010040Y003446D01*
X010052Y003458D01*
X010102Y003578D01*
X010102Y003707D01*
X010052Y003827D01*
X009960Y003919D01*
X009841Y003968D01*
X009711Y003968D01*
X009591Y003919D01*
X009499Y003827D01*
X009450Y003685D02*
X003969Y003685D01*
X003969Y003529D02*
X009470Y003529D01*
X009474Y003373D02*
X004966Y003373D01*
X004976Y003363D02*
X004870Y003468D01*
X004732Y003526D01*
X004583Y003526D01*
X004445Y003468D01*
X004339Y003363D01*
X004282Y003225D01*
X004282Y003076D01*
X004339Y002938D01*
X004445Y002832D01*
X004583Y002775D01*
X004732Y002775D01*
X004870Y002832D01*
X004976Y002938D01*
X005033Y003076D01*
X005033Y003225D01*
X004976Y003363D01*
X005033Y003217D02*
X009450Y003217D01*
X009502Y003061D02*
X005027Y003061D01*
X004943Y002905D02*
X006943Y002905D01*
X006973Y002935D02*
X006881Y002843D01*
X006832Y002723D01*
X006832Y002593D01*
X003629Y002593D01*
X003738Y002749D02*
X006842Y002749D01*
X006832Y002593D02*
X006881Y002473D01*
X006973Y002382D01*
X007093Y002332D01*
X007222Y002332D01*
X007342Y002382D01*
X007434Y002473D01*
X007484Y002593D01*
X009576Y002593D01*
X009467Y002749D02*
X007473Y002749D01*
X007484Y002723D02*
X007434Y002843D01*
X007342Y002935D01*
X007222Y002984D01*
X007093Y002984D01*
X006973Y002935D01*
X006917Y002437D02*
X003473Y002437D01*
X003258Y002281D02*
X013167Y002281D01*
X013023Y002437D02*
X007398Y002437D01*
X007484Y002593D02*
X007484Y002723D01*
X007372Y002905D02*
X009450Y002905D01*
X009975Y002593D02*
X012958Y002593D01*
X012944Y002749D02*
X010085Y002749D01*
X010102Y002905D02*
X012965Y002905D01*
X013030Y003061D02*
X010049Y003061D01*
X010102Y003217D02*
X013183Y003217D01*
X013386Y004201D02*
X013472Y004187D01*
X013507Y004187D01*
X013507Y004732D01*
X012962Y004732D01*
X012962Y004697D01*
X012976Y004611D01*
X013003Y004528D01*
X013042Y004451D01*
X013093Y004380D01*
X013155Y004318D01*
X013226Y004267D01*
X013303Y004228D01*
X013386Y004201D01*
X013525Y004187D02*
X013525Y004732D01*
X013525Y004750D01*
X013507Y004750D01*
X013507Y005295D01*
X013472Y005295D01*
X013386Y005281D01*
X013303Y005254D01*
X013226Y005214D01*
X013155Y005163D01*
X013093Y005102D01*
X013042Y005031D01*
X013003Y004953D01*
X012976Y004870D01*
X012962Y004784D01*
X012962Y004750D01*
X013507Y004750D01*
X013507Y004732D01*
X013525Y004732D01*
X014070Y004732D01*
X014070Y004697D01*
X014056Y004611D01*
X014029Y004528D01*
X013989Y004451D01*
X013938Y004380D01*
X013877Y004318D01*
X013806Y004267D01*
X013728Y004228D01*
X013646Y004201D01*
X013559Y004187D01*
X013525Y004187D01*
X013525Y004309D02*
X013507Y004309D01*
X013507Y004465D02*
X013525Y004465D01*
X013525Y004621D02*
X013507Y004621D01*
X013525Y004750D02*
X014070Y004750D01*
X014070Y004784D01*
X014056Y004870D01*
X014029Y004953D01*
X013989Y005031D01*
X013938Y005102D01*
X013877Y005163D01*
X013806Y005214D01*
X013728Y005254D01*
X013646Y005281D01*
X013559Y005295D01*
X013525Y005295D01*
X013525Y004750D01*
X013525Y004777D02*
X013507Y004777D01*
X013507Y004933D02*
X013525Y004933D01*
X013525Y005089D02*
X013507Y005089D01*
X013507Y005245D02*
X013525Y005245D01*
X013747Y005245D02*
X014257Y005245D01*
X014263Y005229D02*
X014355Y005138D01*
X014475Y005088D01*
X014604Y005088D01*
X014724Y005138D01*
X014816Y005229D01*
X014866Y005349D01*
X014866Y005479D01*
X014816Y005599D01*
X014724Y005690D01*
X014604Y005740D01*
X014475Y005740D01*
X014355Y005690D01*
X014263Y005599D01*
X014213Y005479D01*
X014213Y005349D01*
X014263Y005229D01*
X014213Y005401D02*
X011227Y005401D01*
X011240Y005395D02*
X011120Y005445D01*
X010990Y005445D01*
X010871Y005395D01*
X010779Y005303D01*
X010729Y005184D01*
X010729Y005054D01*
X010779Y004934D01*
X010871Y004842D01*
X010990Y004793D01*
X011120Y004793D01*
X011240Y004842D01*
X011332Y004934D01*
X011381Y005054D01*
X011381Y005184D01*
X011332Y005303D01*
X011240Y005395D01*
X011356Y005245D02*
X013285Y005245D01*
X013084Y005089D02*
X011381Y005089D01*
X011330Y004933D02*
X012996Y004933D01*
X012962Y004777D02*
X007254Y004777D01*
X007287Y004933D02*
X010780Y004933D01*
X010729Y005089D02*
X007245Y005089D01*
X007033Y005245D02*
X010754Y005245D01*
X010884Y005401D02*
X000802Y005401D01*
X000802Y005557D02*
X009959Y005557D01*
X009985Y005531D02*
X010105Y005482D01*
X010234Y005482D01*
X010354Y005531D01*
X010446Y005623D01*
X010473Y005689D01*
X010498Y005679D01*
X010628Y005679D01*
X010748Y005728D01*
X010840Y005820D01*
X010889Y005940D01*
X010889Y006069D01*
X010840Y006189D01*
X010748Y006281D01*
X010628Y006331D01*
X010498Y006331D01*
X010495Y006329D01*
X010495Y006365D01*
X010446Y006485D01*
X010354Y006576D01*
X010234Y006626D01*
X010105Y006626D01*
X009985Y006576D01*
X009893Y006485D01*
X009843Y006365D01*
X009843Y006235D01*
X009893Y006115D01*
X009954Y006054D01*
X009893Y005992D01*
X009843Y005873D01*
X009843Y005743D01*
X009893Y005623D01*
X009985Y005531D01*
X009856Y005713D02*
X000802Y005713D01*
X000802Y005869D02*
X001673Y005869D01*
X001620Y005890D02*
X001803Y005815D01*
X002000Y005815D01*
X002183Y005890D01*
X002323Y006030D01*
X002399Y006213D01*
X002399Y006411D01*
X002323Y006593D01*
X002183Y006733D01*
X002000Y006809D01*
X001803Y006809D01*
X001620Y006733D01*
X001480Y006593D01*
X001405Y006411D01*
X001405Y006213D01*
X001480Y006030D01*
X001620Y005890D01*
X001486Y006025D02*
X000802Y006025D01*
X000802Y006181D02*
X001418Y006181D01*
X001405Y006337D02*
X000802Y006337D01*
X000802Y006493D02*
X001439Y006493D01*
X001536Y006649D02*
X000802Y006649D01*
X000802Y006805D02*
X001793Y006805D01*
X001803Y006815D02*
X002000Y006815D01*
X002183Y006890D01*
X002323Y007030D01*
X002399Y007213D01*
X002399Y007411D01*
X002323Y007593D01*
X002183Y007733D01*
X002000Y007809D01*
X001803Y007809D01*
X001620Y007733D01*
X001480Y007593D01*
X001405Y007411D01*
X001405Y007213D01*
X001480Y007030D01*
X001620Y006890D01*
X001803Y006815D01*
X002010Y006805D02*
X003836Y006805D01*
X003847Y006776D02*
X003953Y006671D01*
X004091Y006614D01*
X004240Y006614D01*
X004378Y006671D01*
X004484Y006776D01*
X004541Y006914D01*
X004541Y007063D01*
X004484Y007201D01*
X004378Y007307D01*
X004240Y007364D01*
X004091Y007364D01*
X003953Y007307D01*
X003847Y007201D01*
X003790Y007063D01*
X003790Y006914D01*
X003847Y006776D01*
X003790Y006961D02*
X002253Y006961D01*
X002359Y007117D02*
X003812Y007117D01*
X003918Y007272D02*
X002399Y007272D01*
X002391Y007428D02*
X006408Y007428D01*
X006441Y007462D02*
X006350Y007370D01*
X006300Y007251D01*
X006300Y007121D01*
X006350Y007001D01*
X006441Y006909D01*
X006561Y006860D01*
X006691Y006860D01*
X006811Y006909D01*
X006902Y007001D01*
X006952Y007121D01*
X006952Y007251D01*
X006902Y007370D01*
X006811Y007462D01*
X006691Y007512D01*
X006561Y007512D01*
X006441Y007462D01*
X006561Y007647D02*
X006441Y007697D01*
X006350Y007788D01*
X006300Y007908D01*
X006300Y008038D01*
X006350Y008158D01*
X006441Y008250D01*
X006561Y008299D01*
X006691Y008299D01*
X006811Y008250D01*
X006902Y008158D01*
X006952Y008038D01*
X006952Y007908D01*
X006902Y007788D01*
X006811Y007697D01*
X006691Y007647D01*
X006561Y007647D01*
X006398Y007740D02*
X002165Y007740D01*
X002183Y007890D02*
X002000Y007815D01*
X001803Y007815D01*
X001620Y007890D01*
X001480Y008030D01*
X001405Y008213D01*
X001405Y008411D01*
X001480Y008593D01*
X001620Y008733D01*
X001803Y008809D01*
X002000Y008809D01*
X002183Y008733D01*
X002323Y008593D01*
X002399Y008411D01*
X002399Y008213D01*
X002323Y008030D01*
X002183Y007890D01*
X002189Y007896D02*
X006305Y007896D01*
X006306Y008052D02*
X002332Y008052D01*
X002397Y008208D02*
X006400Y008208D01*
X006852Y008208D02*
X008307Y008208D01*
X008318Y008182D02*
X008410Y008090D01*
X008530Y008041D01*
X008659Y008041D01*
X008779Y008090D01*
X008871Y008182D01*
X008921Y008302D01*
X008921Y008432D01*
X008871Y008551D01*
X008779Y008643D01*
X008659Y008693D01*
X008530Y008693D01*
X008410Y008643D01*
X008318Y008551D01*
X008269Y008432D01*
X008269Y008302D01*
X008318Y008182D01*
X008269Y008364D02*
X002399Y008364D01*
X002353Y008520D02*
X004964Y008520D01*
X004986Y008511D02*
X005116Y008511D01*
X005236Y008561D01*
X005328Y008653D01*
X005377Y008772D01*
X005377Y008902D01*
X005328Y009022D01*
X005236Y009114D01*
X005116Y009163D01*
X004986Y009163D01*
X004867Y009114D01*
X004775Y009022D01*
X004725Y008902D01*
X004725Y008772D01*
X004775Y008653D01*
X004867Y008561D01*
X004986Y008511D01*
X005138Y008520D02*
X008305Y008520D01*
X008490Y008676D02*
X005338Y008676D01*
X005377Y008832D02*
X011049Y008832D01*
X011074Y008773D02*
X011166Y008681D01*
X011286Y008631D01*
X011415Y008631D01*
X011535Y008681D01*
X011627Y008773D01*
X011677Y008892D01*
X011677Y009022D01*
X011627Y009142D01*
X011535Y009234D01*
X011471Y009261D01*
X011547Y009337D01*
X011660Y009225D01*
X011842Y009149D01*
X012040Y009149D01*
X012222Y009225D01*
X012362Y009365D01*
X012438Y009547D01*
X012438Y009745D01*
X012362Y009928D01*
X012222Y010068D01*
X012040Y010143D01*
X011842Y010143D01*
X011660Y010068D01*
X011547Y009955D01*
X011435Y010068D01*
X011252Y010143D01*
X011055Y010143D01*
X010872Y010068D01*
X010760Y009955D01*
X010648Y010068D01*
X010465Y010143D01*
X010267Y010143D01*
X010085Y010068D01*
X009973Y009955D01*
X009860Y010068D01*
X009678Y010143D01*
X009480Y010143D01*
X009297Y010068D01*
X009185Y009955D01*
X009073Y010068D01*
X008890Y010143D01*
X008693Y010143D01*
X008510Y010068D01*
X008382Y009940D01*
X008369Y009958D01*
X008316Y010011D01*
X008255Y010056D01*
X008188Y010090D01*
X008116Y010113D01*
X008042Y010125D01*
X008015Y010125D01*
X008015Y009658D01*
X007993Y009658D01*
X007993Y010125D01*
X007966Y010125D01*
X007892Y010113D01*
X007820Y010090D01*
X007753Y010056D01*
X007692Y010011D01*
X007639Y009958D01*
X007595Y009897D01*
X007560Y009830D01*
X007537Y009758D01*
X007525Y009684D01*
X007525Y009658D01*
X007993Y009658D01*
X007993Y009635D01*
X008015Y009635D01*
X008015Y009168D01*
X008042Y009168D01*
X008116Y009179D01*
X008188Y009203D01*
X008255Y009237D01*
X008316Y009281D01*
X008369Y009334D01*
X008382Y009353D01*
X008510Y009225D01*
X008693Y009149D01*
X008890Y009149D01*
X009073Y009225D01*
X009185Y009337D01*
X009297Y009225D01*
X009480Y009149D01*
X009678Y009149D01*
X009860Y009225D01*
X009973Y009337D01*
X010085Y009225D01*
X010267Y009149D01*
X010465Y009149D01*
X010648Y009225D01*
X010760Y009337D01*
X010872Y009225D01*
X011055Y009149D01*
X011081Y009149D01*
X011074Y009142D01*
X011024Y009022D01*
X011024Y008892D01*
X011074Y008773D01*
X011177Y008676D02*
X008699Y008676D01*
X008884Y008520D02*
X012656Y008520D01*
X012669Y008551D02*
X012619Y008432D01*
X012619Y008302D01*
X012669Y008182D01*
X012760Y008090D01*
X012880Y008041D01*
X013010Y008041D01*
X013130Y008090D01*
X013221Y008182D01*
X013271Y008302D01*
X013271Y008432D01*
X013221Y008551D01*
X013130Y008643D01*
X013010Y008693D01*
X012880Y008693D01*
X012760Y008643D01*
X012669Y008551D01*
X012619Y008364D02*
X008921Y008364D01*
X008882Y008208D02*
X012658Y008208D01*
X012852Y008052D02*
X008688Y008052D01*
X008502Y008052D02*
X006946Y008052D01*
X006947Y007896D02*
X023867Y007896D01*
X023867Y007740D02*
X016867Y007740D01*
X016850Y007757D02*
X016730Y007807D01*
X016601Y007807D01*
X016481Y007757D01*
X016389Y007666D01*
X016339Y007546D01*
X016339Y007416D01*
X016389Y007296D01*
X016481Y007205D01*
X016601Y007155D01*
X016730Y007155D01*
X016850Y007205D01*
X016942Y007296D01*
X016992Y007416D01*
X016992Y007546D01*
X016942Y007666D01*
X016850Y007757D01*
X016976Y007584D02*
X023867Y007584D01*
X023867Y007428D02*
X016992Y007428D01*
X016918Y007272D02*
X023867Y007272D01*
X023867Y007117D02*
X016832Y007117D01*
X016829Y007118D02*
X016699Y007118D01*
X016579Y007068D01*
X016487Y006977D01*
X016438Y006857D01*
X016438Y006727D01*
X016487Y006607D01*
X016579Y006516D01*
X016699Y006466D01*
X016829Y006466D01*
X016949Y006516D01*
X017040Y006607D01*
X017090Y006727D01*
X017090Y006857D01*
X017040Y006977D01*
X016949Y007068D01*
X016829Y007118D01*
X016695Y007117D02*
X015325Y007117D01*
X015315Y007106D02*
X015406Y007198D01*
X015456Y007318D01*
X015456Y007447D01*
X015406Y007567D01*
X015315Y007659D01*
X015195Y007709D01*
X015065Y007709D01*
X014945Y007659D01*
X014854Y007567D01*
X014804Y007447D01*
X014804Y007318D01*
X014854Y007198D01*
X014945Y007106D01*
X015065Y007056D01*
X015195Y007056D01*
X015315Y007106D01*
X015437Y007272D02*
X016413Y007272D01*
X016339Y007428D02*
X015456Y007428D01*
X015389Y007584D02*
X016355Y007584D01*
X016464Y007740D02*
X006855Y007740D01*
X006844Y007428D02*
X014804Y007428D01*
X014823Y007272D02*
X010730Y007272D01*
X010748Y007265D02*
X010628Y007315D01*
X010498Y007315D01*
X010378Y007265D01*
X010287Y007174D01*
X010237Y007054D01*
X010237Y006924D01*
X010287Y006804D01*
X010378Y006712D01*
X010498Y006663D01*
X010628Y006663D01*
X010748Y006712D01*
X010840Y006804D01*
X010889Y006924D01*
X010889Y007054D01*
X010840Y007174D01*
X010748Y007265D01*
X010863Y007117D02*
X014935Y007117D01*
X014724Y006773D02*
X014604Y006823D01*
X014475Y006823D01*
X014355Y006773D01*
X014263Y006681D01*
X014213Y006562D01*
X014213Y006432D01*
X014263Y006312D01*
X014355Y006220D01*
X014475Y006171D01*
X014604Y006171D01*
X014724Y006220D01*
X014816Y006312D01*
X014866Y006432D01*
X014866Y006562D01*
X014816Y006681D01*
X014724Y006773D01*
X014648Y006805D02*
X016438Y006805D01*
X016470Y006649D02*
X014829Y006649D01*
X014866Y006493D02*
X016635Y006493D01*
X016776Y006379D02*
X016684Y006288D01*
X016635Y006168D01*
X016635Y006038D01*
X016684Y005918D01*
X016776Y005827D01*
X016896Y005777D01*
X017026Y005777D01*
X017145Y005827D01*
X017237Y005918D01*
X017287Y006038D01*
X017287Y006168D01*
X017237Y006288D01*
X017145Y006379D01*
X017026Y006429D01*
X016896Y006429D01*
X016776Y006379D01*
X016733Y006337D02*
X014826Y006337D01*
X014628Y006181D02*
X016640Y006181D01*
X016640Y006025D02*
X010889Y006025D01*
X010860Y005869D02*
X016734Y005869D01*
X017187Y005869D02*
X023867Y005869D01*
X023867Y006025D02*
X017281Y006025D01*
X017281Y006181D02*
X023867Y006181D01*
X023867Y006337D02*
X017188Y006337D01*
X016893Y006493D02*
X023867Y006493D01*
X023867Y006649D02*
X017057Y006649D01*
X017090Y006805D02*
X023867Y006805D01*
X023867Y006961D02*
X017047Y006961D01*
X016481Y006961D02*
X010889Y006961D01*
X010840Y006805D02*
X010986Y006805D01*
X011030Y006823D02*
X010910Y006773D01*
X010818Y006681D01*
X010769Y006562D01*
X010769Y006432D01*
X010818Y006312D01*
X010910Y006220D01*
X011030Y006171D01*
X011159Y006171D01*
X011279Y006220D01*
X011371Y006312D01*
X011421Y006432D01*
X011421Y006562D01*
X011371Y006681D01*
X011279Y006773D01*
X011159Y006823D01*
X011030Y006823D01*
X011203Y006805D02*
X014431Y006805D01*
X014249Y006649D02*
X011385Y006649D01*
X011421Y006493D02*
X014213Y006493D01*
X014253Y006337D02*
X011381Y006337D01*
X011184Y006181D02*
X014451Y006181D01*
X014408Y005713D02*
X010710Y005713D01*
X010379Y005557D02*
X014246Y005557D01*
X014670Y005713D02*
X019881Y005713D01*
X019827Y005690D02*
X019735Y005599D01*
X019686Y005479D01*
X019686Y005349D01*
X019735Y005229D01*
X019827Y005138D01*
X019947Y005088D01*
X020077Y005088D01*
X020197Y005138D01*
X020288Y005229D01*
X020338Y005349D01*
X020338Y005479D01*
X020288Y005599D01*
X020197Y005690D01*
X020077Y005740D01*
X019947Y005740D01*
X019827Y005690D01*
X019718Y005557D02*
X014833Y005557D01*
X014866Y005401D02*
X019686Y005401D01*
X019729Y005245D02*
X014822Y005245D01*
X014606Y005089D02*
X019945Y005089D01*
X020079Y005089D02*
X022960Y005089D01*
X022960Y004933D02*
X022698Y004933D01*
X022995Y004777D02*
X023020Y004777D01*
X023012Y005245D02*
X020295Y005245D01*
X020338Y005401D02*
X023135Y005401D01*
X023779Y005401D02*
X023867Y005401D01*
X023867Y005557D02*
X020306Y005557D01*
X020143Y005713D02*
X023867Y005713D01*
X023867Y008052D02*
X014967Y008052D01*
X014939Y008041D02*
X015059Y008090D01*
X015151Y008182D01*
X015200Y008302D01*
X015200Y008432D01*
X015151Y008551D01*
X015059Y008643D01*
X014939Y008693D01*
X014809Y008693D01*
X014689Y008643D01*
X014598Y008551D01*
X014548Y008432D01*
X014548Y008302D01*
X014598Y008182D01*
X014689Y008090D01*
X014809Y008041D01*
X014939Y008041D01*
X014781Y008052D02*
X013038Y008052D01*
X013232Y008208D02*
X014587Y008208D01*
X014548Y008364D02*
X013271Y008364D01*
X013234Y008520D02*
X014585Y008520D01*
X014769Y008676D02*
X013050Y008676D01*
X012840Y008676D02*
X011524Y008676D01*
X011652Y008832D02*
X016526Y008832D01*
X016487Y008871D02*
X016579Y008779D01*
X016699Y008730D01*
X016829Y008730D01*
X016949Y008779D01*
X017040Y008871D01*
X017090Y008991D01*
X017090Y009121D01*
X017040Y009240D01*
X016949Y009332D01*
X016829Y009382D01*
X016699Y009382D01*
X016579Y009332D01*
X016487Y009240D01*
X016438Y009121D01*
X016438Y008991D01*
X016487Y008871D01*
X016439Y008988D02*
X011677Y008988D01*
X011625Y009144D02*
X016448Y009144D01*
X016547Y009300D02*
X012298Y009300D01*
X012400Y009456D02*
X015132Y009456D01*
X015103Y009468D02*
X015223Y009419D01*
X015352Y009419D01*
X015472Y009468D01*
X015564Y009560D01*
X015614Y009680D01*
X015614Y009810D01*
X015564Y009929D01*
X015472Y010021D01*
X015427Y010040D01*
X015472Y010059D01*
X015564Y010151D01*
X015614Y010270D01*
X015614Y010400D01*
X015564Y010520D01*
X015472Y010612D01*
X015352Y010661D01*
X015223Y010661D01*
X015103Y010612D01*
X015011Y010520D01*
X014961Y010400D01*
X014961Y010270D01*
X015011Y010151D01*
X015103Y010059D01*
X015148Y010040D01*
X015103Y010021D01*
X015011Y009929D01*
X014961Y009810D01*
X014961Y009680D01*
X015011Y009560D01*
X015103Y009468D01*
X014989Y009612D02*
X012438Y009612D01*
X012428Y009768D02*
X012579Y009768D01*
X012622Y009724D02*
X012742Y009675D01*
X012872Y009675D01*
X012992Y009724D01*
X013084Y009816D01*
X013133Y009936D01*
X013133Y010066D01*
X013084Y010185D01*
X012992Y010277D01*
X012872Y010327D01*
X012742Y010327D01*
X012622Y010277D01*
X012531Y010185D01*
X012481Y010066D01*
X012481Y009936D01*
X012531Y009816D01*
X012622Y009724D01*
X012486Y009924D02*
X012364Y009924D01*
X012487Y010080D02*
X012192Y010080D01*
X012582Y010236D02*
X007775Y010236D01*
X007788Y010249D02*
X007838Y010369D01*
X007838Y010404D01*
X007841Y010403D01*
X007970Y010403D01*
X008090Y010453D01*
X008182Y010544D01*
X008232Y010664D01*
X008232Y010794D01*
X008182Y010914D01*
X008090Y011005D01*
X007970Y011055D01*
X007841Y011055D01*
X007721Y011005D01*
X007629Y010914D01*
X007580Y010794D01*
X007580Y010759D01*
X007577Y010760D01*
X007447Y010760D01*
X007327Y010710D01*
X007235Y010618D01*
X007186Y010499D01*
X007186Y010369D01*
X007235Y010249D01*
X007327Y010157D01*
X007447Y010108D01*
X007577Y010108D01*
X007697Y010157D01*
X007788Y010249D01*
X007838Y010392D02*
X014961Y010392D01*
X014976Y010236D02*
X013033Y010236D01*
X013127Y010080D02*
X015082Y010080D01*
X015009Y009924D02*
X013128Y009924D01*
X013036Y009768D02*
X014961Y009768D01*
X015443Y009456D02*
X023867Y009456D01*
X023867Y009300D02*
X016981Y009300D01*
X017080Y009144D02*
X023867Y009144D01*
X023867Y008988D02*
X017089Y008988D01*
X017002Y008832D02*
X023867Y008832D01*
X023867Y008676D02*
X014979Y008676D01*
X015163Y008520D02*
X023867Y008520D01*
X023867Y008364D02*
X015200Y008364D01*
X015161Y008208D02*
X023867Y008208D01*
X023867Y009612D02*
X015586Y009612D01*
X015614Y009768D02*
X023867Y009768D01*
X023867Y009924D02*
X015566Y009924D01*
X015493Y010080D02*
X023867Y010080D01*
X023867Y010236D02*
X016932Y010236D01*
X016907Y010226D02*
X017027Y010275D01*
X017119Y010367D01*
X017169Y010487D01*
X017169Y010617D01*
X017119Y010737D01*
X017027Y010828D01*
X016907Y010878D01*
X016778Y010878D01*
X016658Y010828D01*
X016566Y010737D01*
X016517Y010617D01*
X016517Y010487D01*
X016566Y010367D01*
X016658Y010275D01*
X016778Y010226D01*
X016907Y010226D01*
X016753Y010236D02*
X015599Y010236D01*
X015614Y010392D02*
X016556Y010392D01*
X016517Y010548D02*
X015536Y010548D01*
X015039Y010548D02*
X008184Y010548D01*
X008232Y010704D02*
X010878Y010704D01*
X010892Y010698D02*
X011022Y010698D01*
X011141Y010748D01*
X011233Y010840D01*
X011252Y010885D01*
X011271Y010840D01*
X011363Y010748D01*
X011482Y010698D01*
X011612Y010698D01*
X011732Y010748D01*
X011824Y010840D01*
X011873Y010959D01*
X011873Y011089D01*
X011824Y011209D01*
X011732Y011301D01*
X011612Y011350D01*
X011536Y011350D01*
X011578Y011452D01*
X011578Y011581D01*
X011528Y011701D01*
X011437Y011793D01*
X011317Y011842D01*
X011187Y011842D01*
X011067Y011793D01*
X010976Y011701D01*
X010957Y011656D01*
X010938Y011701D01*
X010846Y011793D01*
X010726Y011842D01*
X010597Y011842D01*
X010477Y011793D01*
X010385Y011701D01*
X010335Y011581D01*
X010335Y011452D01*
X010385Y011332D01*
X010477Y011240D01*
X010597Y011190D01*
X010673Y011190D01*
X010631Y011089D01*
X010631Y010959D01*
X010680Y010840D01*
X010772Y010748D01*
X010892Y010698D01*
X011036Y010704D02*
X011468Y010704D01*
X011626Y010704D02*
X016553Y010704D01*
X016735Y010860D02*
X011832Y010860D01*
X011873Y011016D02*
X023867Y011016D01*
X023867Y010860D02*
X016951Y010860D01*
X017132Y010704D02*
X023867Y010704D01*
X023867Y010548D02*
X017169Y010548D01*
X017129Y010392D02*
X023867Y010392D01*
X023867Y011172D02*
X011839Y011172D01*
X011666Y011328D02*
X023867Y011328D01*
X023867Y011484D02*
X011578Y011484D01*
X011554Y011640D02*
X013059Y011640D01*
X013089Y011610D02*
X013238Y011549D01*
X013400Y011549D01*
X013549Y011610D01*
X013664Y011725D01*
X013726Y011874D01*
X013726Y012036D01*
X013664Y012186D01*
X013644Y012205D01*
X013664Y012225D01*
X013726Y012374D01*
X013726Y012536D01*
X013664Y012686D01*
X013549Y012800D01*
X013400Y012862D01*
X013238Y012862D01*
X013089Y012800D01*
X012974Y012686D01*
X012912Y012536D01*
X012912Y012374D01*
X012974Y012225D01*
X012994Y012205D01*
X012974Y012186D01*
X012912Y012036D01*
X012912Y011874D01*
X012974Y011725D01*
X013089Y011610D01*
X012945Y011796D02*
X011429Y011796D01*
X011075Y011796D02*
X010839Y011796D01*
X010484Y011796D02*
X009559Y011796D01*
X009567Y011793D02*
X009447Y011842D01*
X009317Y011842D01*
X009197Y011793D01*
X009106Y011701D01*
X009056Y011581D01*
X009056Y011452D01*
X009106Y011332D01*
X009197Y011240D01*
X009317Y011190D01*
X009447Y011190D01*
X009567Y011240D01*
X009658Y011332D01*
X009708Y011452D01*
X009708Y011581D01*
X009658Y011701D01*
X009567Y011793D01*
X009684Y011640D02*
X010360Y011640D01*
X010335Y011484D02*
X009708Y011484D01*
X009655Y011328D02*
X010389Y011328D01*
X010665Y011172D02*
X002382Y011172D01*
X002399Y011213D02*
X002323Y011030D01*
X002183Y010890D01*
X002000Y010815D01*
X001803Y010815D01*
X001620Y010890D01*
X001480Y011030D01*
X001405Y011213D01*
X001405Y011411D01*
X001480Y011593D01*
X001620Y011733D01*
X001803Y011809D01*
X002000Y011809D01*
X002183Y011733D01*
X002323Y011593D01*
X002399Y011411D01*
X002399Y011213D01*
X002399Y011328D02*
X007928Y011328D01*
X007924Y011332D02*
X008016Y011240D01*
X008136Y011190D01*
X008266Y011190D01*
X008386Y011240D01*
X008477Y011332D01*
X008527Y011452D01*
X008527Y011581D01*
X008477Y011701D01*
X008386Y011793D01*
X008266Y011842D01*
X008136Y011842D01*
X008045Y011805D01*
X008123Y011883D01*
X008173Y012003D01*
X008173Y012132D01*
X008123Y012252D01*
X008031Y012344D01*
X007911Y012394D01*
X007782Y012394D01*
X007662Y012344D01*
X007570Y012252D01*
X007520Y012132D01*
X007520Y012003D01*
X007570Y011883D01*
X007662Y011791D01*
X007782Y011742D01*
X007911Y011742D01*
X008003Y011779D01*
X007924Y011701D01*
X007875Y011581D01*
X007875Y011452D01*
X007924Y011332D01*
X007875Y011484D02*
X002368Y011484D01*
X002276Y011640D02*
X007899Y011640D01*
X007657Y011796D02*
X002031Y011796D01*
X002000Y011815D02*
X002183Y011890D01*
X002323Y012030D01*
X002399Y012213D01*
X002399Y012411D01*
X002323Y012593D01*
X002183Y012733D01*
X002000Y012809D01*
X001803Y012809D01*
X001620Y012733D01*
X001480Y012593D01*
X001405Y012411D01*
X001405Y012213D01*
X001480Y012030D01*
X001620Y011890D01*
X001803Y011815D01*
X002000Y011815D01*
X001772Y011796D02*
X000802Y011796D01*
X000802Y011952D02*
X001559Y011952D01*
X001448Y012108D02*
X000802Y012108D01*
X000802Y012264D02*
X001405Y012264D01*
X001409Y012420D02*
X000802Y012420D01*
X000802Y012576D02*
X001473Y012576D01*
X001619Y012732D02*
X000802Y012732D01*
X000802Y012888D02*
X001627Y012888D01*
X001620Y012890D02*
X001803Y012815D01*
X002000Y012815D01*
X002183Y012890D01*
X002323Y013030D01*
X002399Y013213D01*
X002399Y013411D01*
X002323Y013593D01*
X002183Y013733D01*
X002000Y013809D01*
X001803Y013809D01*
X001620Y013733D01*
X001480Y013593D01*
X001405Y013411D01*
X001405Y013213D01*
X001480Y013030D01*
X001620Y012890D01*
X001475Y013044D02*
X000802Y013044D01*
X000802Y013200D02*
X001410Y013200D01*
X001405Y013356D02*
X000802Y013356D01*
X000802Y013512D02*
X001447Y013512D01*
X001555Y013668D02*
X000802Y013668D01*
X000802Y013824D02*
X001781Y013824D01*
X001803Y013815D02*
X002000Y013815D01*
X002183Y013890D01*
X002323Y014030D01*
X002399Y014213D01*
X002399Y014411D01*
X002323Y014593D01*
X002183Y014733D01*
X002000Y014809D01*
X001803Y014809D01*
X001620Y014733D01*
X001480Y014593D01*
X001405Y014411D01*
X001405Y014213D01*
X001480Y014030D01*
X001620Y013890D01*
X001803Y013815D01*
X002022Y013824D02*
X006701Y013824D01*
X006737Y013860D02*
X006645Y013768D01*
X006595Y013648D01*
X006595Y013518D01*
X006645Y013399D01*
X006737Y013307D01*
X006856Y013257D01*
X006986Y013257D01*
X007087Y013299D01*
X007087Y013223D01*
X007137Y013103D01*
X007229Y013012D01*
X007349Y012962D01*
X007478Y012962D01*
X007598Y013012D01*
X007690Y013103D01*
X007740Y013223D01*
X007740Y013353D01*
X007690Y013473D01*
X007598Y013564D01*
X007478Y013614D01*
X007349Y013614D01*
X007247Y013572D01*
X007247Y013648D01*
X007198Y013768D01*
X007106Y013860D01*
X006986Y013909D01*
X006856Y013909D01*
X006737Y013860D01*
X006603Y013668D02*
X002248Y013668D01*
X002357Y013512D02*
X006598Y013512D01*
X006688Y013356D02*
X006035Y013356D01*
X006023Y013368D02*
X005904Y013417D01*
X005774Y013417D01*
X005654Y013368D01*
X005562Y013276D01*
X005513Y013156D01*
X005513Y013026D01*
X005562Y012907D01*
X005654Y012815D01*
X005774Y012765D01*
X005904Y012765D01*
X006023Y012815D01*
X006115Y012907D01*
X006165Y013026D01*
X006165Y013156D01*
X006115Y013276D01*
X006023Y013368D01*
X006147Y013200D02*
X007097Y013200D01*
X007197Y013044D02*
X006165Y013044D01*
X006096Y012888D02*
X009207Y012888D01*
X009178Y012876D02*
X009086Y012784D01*
X009036Y012664D01*
X009036Y012534D01*
X009055Y012490D01*
X008955Y012531D01*
X008825Y012531D01*
X008705Y012482D01*
X008613Y012390D01*
X008564Y012270D01*
X008564Y012141D01*
X008613Y012021D01*
X008705Y011929D01*
X008825Y011879D01*
X008955Y011879D01*
X009075Y011929D01*
X009166Y012021D01*
X009216Y012141D01*
X009216Y012270D01*
X009198Y012314D01*
X009297Y012273D01*
X009427Y012273D01*
X009547Y012323D01*
X009639Y012414D01*
X009688Y012534D01*
X009688Y012664D01*
X009639Y012784D01*
X009547Y012876D01*
X009427Y012925D01*
X009297Y012925D01*
X009178Y012876D01*
X009064Y012732D02*
X002184Y012732D01*
X002177Y012888D02*
X005581Y012888D01*
X005513Y013044D02*
X002328Y013044D01*
X002393Y013200D02*
X005531Y013200D01*
X005642Y013356D02*
X002399Y013356D01*
X002272Y013980D02*
X007100Y013980D01*
X007087Y014011D02*
X007137Y013891D01*
X007229Y013799D01*
X007349Y013749D01*
X007478Y013749D01*
X007598Y013799D01*
X007690Y013891D01*
X007740Y014011D01*
X007740Y014140D01*
X007690Y014260D01*
X007598Y014352D01*
X007478Y014402D01*
X007349Y014402D01*
X007229Y014352D01*
X007137Y014260D01*
X007087Y014140D01*
X007087Y014011D01*
X007087Y014136D02*
X002367Y014136D01*
X002399Y014292D02*
X007169Y014292D01*
X007142Y013824D02*
X007204Y013824D01*
X007239Y013668D02*
X011245Y013668D01*
X011286Y013651D02*
X011415Y013651D01*
X011535Y013701D01*
X011627Y013792D01*
X011677Y013912D01*
X011677Y014042D01*
X011627Y014162D01*
X011535Y014253D01*
X011415Y014303D01*
X011381Y014303D01*
X011381Y014337D01*
X011332Y014457D01*
X011240Y014549D01*
X011120Y014598D01*
X011086Y014598D01*
X011086Y014632D01*
X011036Y014752D01*
X010945Y014844D01*
X010889Y014867D01*
X010889Y014928D01*
X010840Y015048D01*
X010748Y015139D01*
X010628Y015189D01*
X010498Y015189D01*
X010378Y015139D01*
X010287Y015048D01*
X010237Y014928D01*
X010237Y014798D01*
X010287Y014678D01*
X010378Y014586D01*
X010434Y014563D01*
X010434Y014503D01*
X010484Y014383D01*
X010575Y014291D01*
X010695Y014242D01*
X010729Y014242D01*
X010729Y014207D01*
X010779Y014088D01*
X010871Y013996D01*
X010990Y013946D01*
X011024Y013946D01*
X011024Y013912D01*
X011074Y013792D01*
X011166Y013701D01*
X011286Y013651D01*
X011264Y013564D02*
X011172Y013473D01*
X011123Y013353D01*
X011123Y013223D01*
X011172Y013103D01*
X011264Y013012D01*
X011384Y012962D01*
X011514Y012962D01*
X011634Y013012D01*
X011725Y013103D01*
X011775Y013223D01*
X011775Y013353D01*
X011725Y013473D01*
X011634Y013564D01*
X011514Y013614D01*
X011384Y013614D01*
X011264Y013564D01*
X011211Y013512D02*
X010342Y013512D01*
X010333Y013516D02*
X010203Y013516D01*
X010083Y013466D01*
X009991Y013374D01*
X009942Y013254D01*
X009942Y013125D01*
X009991Y013005D01*
X010083Y012913D01*
X010203Y012864D01*
X010333Y012864D01*
X010453Y012913D01*
X010544Y013005D01*
X010594Y013125D01*
X010594Y013254D01*
X010544Y013374D01*
X010453Y013466D01*
X010333Y013516D01*
X010193Y013512D02*
X007651Y013512D01*
X007738Y013356D02*
X009984Y013356D01*
X009942Y013200D02*
X007730Y013200D01*
X007630Y013044D02*
X009975Y013044D01*
X010144Y012888D02*
X009517Y012888D01*
X009660Y012732D02*
X013020Y012732D01*
X012929Y012576D02*
X009688Y012576D01*
X009641Y012420D02*
X012912Y012420D01*
X012958Y012264D02*
X009216Y012264D01*
X009202Y012108D02*
X012942Y012108D01*
X012912Y011952D02*
X009098Y011952D01*
X009205Y011796D02*
X008378Y011796D01*
X008503Y011640D02*
X009080Y011640D01*
X009056Y011484D02*
X008527Y011484D01*
X008474Y011328D02*
X009109Y011328D01*
X008682Y011952D02*
X008152Y011952D01*
X008173Y012108D02*
X008577Y012108D01*
X008564Y012264D02*
X008111Y012264D01*
X007582Y012264D02*
X002399Y012264D01*
X002395Y012420D02*
X008643Y012420D01*
X009036Y012576D02*
X002330Y012576D01*
X002355Y012108D02*
X007520Y012108D01*
X007542Y011952D02*
X002245Y011952D01*
X002309Y011016D02*
X007747Y011016D01*
X007607Y010860D02*
X002110Y010860D01*
X002000Y010809D02*
X002183Y010733D01*
X002323Y010593D01*
X002399Y010411D01*
X002399Y010213D01*
X002323Y010030D01*
X002183Y009890D01*
X002000Y009815D01*
X001803Y009815D01*
X001620Y009890D01*
X001480Y010030D01*
X001405Y010213D01*
X001405Y010411D01*
X001480Y010593D01*
X001620Y010733D01*
X001803Y010809D01*
X002000Y010809D01*
X002212Y010704D02*
X007321Y010704D01*
X007206Y010548D02*
X002342Y010548D01*
X002399Y010392D02*
X007186Y010392D01*
X007248Y010236D02*
X002399Y010236D01*
X002344Y010080D02*
X003843Y010080D01*
X003882Y010120D02*
X003791Y010028D01*
X003741Y009908D01*
X003741Y009778D01*
X003791Y009658D01*
X003882Y009567D01*
X004002Y009517D01*
X004132Y009517D01*
X004252Y009567D01*
X004343Y009658D01*
X004393Y009778D01*
X004393Y009908D01*
X004343Y010028D01*
X004252Y010120D01*
X004132Y010169D01*
X004002Y010169D01*
X003882Y010120D01*
X003748Y009924D02*
X002217Y009924D01*
X002183Y009733D02*
X002000Y009809D01*
X001803Y009809D01*
X001620Y009733D01*
X001480Y009593D01*
X001405Y009411D01*
X001405Y009213D01*
X001480Y009030D01*
X001620Y008890D01*
X001803Y008815D01*
X002000Y008815D01*
X002183Y008890D01*
X002323Y009030D01*
X002399Y009213D01*
X002399Y009411D01*
X002323Y009593D01*
X002183Y009733D01*
X002098Y009768D02*
X003745Y009768D01*
X003837Y009612D02*
X002304Y009612D01*
X002380Y009456D02*
X006902Y009456D01*
X006891Y009483D02*
X006940Y009363D01*
X007032Y009271D01*
X007152Y009222D01*
X007281Y009222D01*
X007401Y009271D01*
X007493Y009363D01*
X007543Y009483D01*
X007543Y009517D01*
X007560Y009463D01*
X007595Y009395D01*
X007639Y009334D01*
X007692Y009281D01*
X007753Y009237D01*
X007820Y009203D01*
X007892Y009179D01*
X007966Y009168D01*
X007993Y009168D01*
X007993Y009635D01*
X007533Y009635D01*
X007493Y009733D01*
X007401Y009824D01*
X007281Y009874D01*
X007152Y009874D01*
X007032Y009824D01*
X006940Y009733D01*
X006891Y009613D01*
X006891Y009483D01*
X006891Y009612D02*
X006561Y009612D01*
X006515Y009567D02*
X006607Y009658D01*
X006657Y009778D01*
X006657Y009908D01*
X006607Y010028D01*
X006515Y010120D01*
X006396Y010169D01*
X006266Y010169D01*
X006146Y010120D01*
X006054Y010028D01*
X006005Y009908D01*
X006005Y009778D01*
X006054Y009658D01*
X006146Y009567D01*
X006266Y009517D01*
X006396Y009517D01*
X006515Y009567D01*
X006653Y009768D02*
X006976Y009768D01*
X006650Y009924D02*
X007614Y009924D01*
X007540Y009768D02*
X007457Y009768D01*
X007532Y009456D02*
X007564Y009456D01*
X007673Y009300D02*
X007430Y009300D01*
X007003Y009300D02*
X002399Y009300D01*
X002370Y009144D02*
X004940Y009144D01*
X005162Y009144D02*
X011076Y009144D01*
X011024Y008988D02*
X005342Y008988D01*
X004761Y008988D02*
X002281Y008988D01*
X002043Y008832D02*
X004725Y008832D01*
X004765Y008676D02*
X002240Y008676D01*
X001761Y008832D02*
X000802Y008832D01*
X000802Y008676D02*
X001564Y008676D01*
X001450Y008520D02*
X000802Y008520D01*
X000802Y008364D02*
X001405Y008364D01*
X001407Y008208D02*
X000802Y008208D01*
X000802Y008052D02*
X001471Y008052D01*
X001614Y007896D02*
X000802Y007896D01*
X000802Y007740D02*
X001638Y007740D01*
X001477Y007584D02*
X000802Y007584D01*
X000802Y007428D02*
X001412Y007428D01*
X001405Y007272D02*
X000802Y007272D01*
X000802Y007117D02*
X001445Y007117D01*
X001550Y006961D02*
X000802Y006961D01*
X000802Y005245D02*
X006396Y005245D01*
X006541Y005245D02*
X006888Y005245D01*
X006836Y004621D02*
X006594Y004621D01*
X006343Y004621D02*
X006106Y004621D01*
X006070Y004777D02*
X006176Y004777D01*
X006066Y004465D02*
X013035Y004465D01*
X012974Y004621D02*
X007086Y004621D01*
X005864Y004309D02*
X013168Y004309D01*
X013863Y004309D02*
X020914Y004309D01*
X021010Y004465D02*
X013997Y004465D01*
X014057Y004621D02*
X021166Y004621D01*
X021360Y004777D02*
X014070Y004777D01*
X014036Y004933D02*
X021656Y004933D01*
X020728Y003841D02*
X010038Y003841D01*
X010102Y003685D02*
X020701Y003685D01*
X020701Y003529D02*
X010082Y003529D01*
X010077Y003373D02*
X019118Y003373D01*
X019110Y003370D02*
X019005Y003264D01*
X018948Y003126D01*
X018948Y002977D01*
X019005Y002839D01*
X019110Y002734D01*
X019248Y002677D01*
X019398Y002677D01*
X019536Y002734D01*
X019641Y002839D01*
X019698Y002977D01*
X019698Y003126D01*
X019641Y003264D01*
X019536Y003370D01*
X019398Y003427D01*
X019248Y003427D01*
X019110Y003370D01*
X018985Y003217D02*
X013848Y003217D01*
X014002Y003061D02*
X018948Y003061D01*
X018978Y002905D02*
X014067Y002905D01*
X014088Y002749D02*
X019095Y002749D01*
X019551Y002749D02*
X020232Y002749D01*
X020178Y002593D02*
X016995Y002593D01*
X017086Y002437D02*
X020202Y002437D01*
X020325Y002281D02*
X017083Y002281D01*
X016533Y002593D02*
X016444Y002593D01*
X015982Y002593D02*
X015912Y002593D01*
X015450Y002593D02*
X014074Y002593D01*
X014009Y002437D02*
X015359Y002437D01*
X015362Y002281D02*
X013865Y002281D01*
X013947Y005089D02*
X014473Y005089D01*
X014871Y007584D02*
X002326Y007584D01*
X002267Y006649D02*
X004006Y006649D01*
X004325Y006649D02*
X010805Y006649D01*
X010769Y006493D02*
X010438Y006493D01*
X010495Y006337D02*
X010808Y006337D01*
X010843Y006181D02*
X011006Y006181D01*
X010396Y007272D02*
X006943Y007272D01*
X006950Y007117D02*
X010263Y007117D01*
X010237Y006961D02*
X006862Y006961D01*
X006390Y006961D02*
X004541Y006961D01*
X004519Y007117D02*
X006302Y007117D01*
X006309Y007272D02*
X004413Y007272D01*
X004495Y006805D02*
X010286Y006805D01*
X009901Y006493D02*
X002365Y006493D01*
X002399Y006337D02*
X009843Y006337D01*
X009866Y006181D02*
X002385Y006181D01*
X002317Y006025D02*
X009925Y006025D01*
X009843Y005869D02*
X002130Y005869D01*
X003828Y002905D02*
X004372Y002905D01*
X004288Y003061D02*
X003891Y003061D01*
X003933Y003217D02*
X004282Y003217D01*
X004350Y003373D02*
X003969Y003373D01*
X001522Y008988D02*
X000802Y008988D01*
X000802Y009144D02*
X001433Y009144D01*
X001405Y009300D02*
X000802Y009300D01*
X000802Y009456D02*
X001424Y009456D01*
X001500Y009612D02*
X000802Y009612D01*
X000802Y009768D02*
X001705Y009768D01*
X001587Y009924D02*
X000802Y009924D01*
X000802Y010080D02*
X001460Y010080D01*
X001405Y010236D02*
X000802Y010236D01*
X000802Y010392D02*
X001405Y010392D01*
X001462Y010548D02*
X000802Y010548D01*
X000802Y010704D02*
X001591Y010704D01*
X001694Y010860D02*
X000802Y010860D01*
X000802Y011016D02*
X001495Y011016D01*
X001422Y011172D02*
X000802Y011172D01*
X000802Y011328D02*
X001405Y011328D01*
X001435Y011484D02*
X000802Y011484D01*
X000802Y011640D02*
X001527Y011640D01*
X001531Y013980D02*
X000802Y013980D01*
X000802Y014136D02*
X001437Y014136D01*
X001405Y014292D02*
X000802Y014292D01*
X000802Y014448D02*
X001420Y014448D01*
X001491Y014604D02*
X000802Y014604D01*
X000802Y014760D02*
X001685Y014760D01*
X001718Y014868D02*
X001790Y014845D01*
X001864Y014833D01*
X001880Y014833D01*
X001880Y015290D01*
X001923Y015290D01*
X001923Y014833D01*
X001939Y014833D01*
X002014Y014845D01*
X002085Y014868D01*
X002153Y014902D01*
X002214Y014947D01*
X002267Y015000D01*
X002311Y015061D01*
X002345Y015128D01*
X002369Y015200D01*
X002380Y015274D01*
X002380Y015290D01*
X001923Y015290D01*
X001923Y015333D01*
X002380Y015333D01*
X002380Y015349D01*
X002369Y015424D01*
X002345Y015495D01*
X002311Y015563D01*
X002267Y015624D01*
X002214Y015677D01*
X002153Y015721D01*
X002085Y015755D01*
X002014Y015779D01*
X001939Y015790D01*
X001923Y015790D01*
X001923Y015333D01*
X001880Y015333D01*
X001880Y015290D01*
X001423Y015290D01*
X001423Y015274D01*
X001435Y015200D01*
X001458Y015128D01*
X001492Y015061D01*
X001537Y015000D01*
X001590Y014947D01*
X001651Y014902D01*
X001718Y014868D01*
X001632Y014916D02*
X000802Y014916D01*
X000802Y015072D02*
X001487Y015072D01*
X001430Y015228D02*
X000802Y015228D01*
X000802Y015383D02*
X001428Y015383D01*
X001423Y015349D02*
X001423Y015333D01*
X001880Y015333D01*
X001880Y015790D01*
X001864Y015790D01*
X001790Y015779D01*
X001718Y015755D01*
X001651Y015721D01*
X001590Y015677D01*
X001537Y015624D01*
X001492Y015563D01*
X001458Y015495D01*
X001435Y015424D01*
X001423Y015349D01*
X001480Y015539D02*
X000802Y015539D01*
X000802Y015695D02*
X001615Y015695D01*
X001714Y015851D02*
X000802Y015851D01*
X000802Y016007D02*
X001503Y016007D01*
X001480Y016030D02*
X001620Y015890D01*
X001803Y015815D01*
X002000Y015815D01*
X002183Y015890D01*
X002323Y016030D01*
X002399Y016213D01*
X002399Y016411D01*
X002323Y016593D01*
X002183Y016733D01*
X002000Y016809D01*
X001803Y016809D01*
X001620Y016733D01*
X001480Y016593D01*
X001405Y016411D01*
X001405Y016213D01*
X001480Y016030D01*
X001425Y016163D02*
X000802Y016163D01*
X000802Y016319D02*
X001405Y016319D01*
X001432Y016475D02*
X000802Y016475D01*
X000802Y016631D02*
X001519Y016631D01*
X001620Y016890D02*
X001480Y017030D01*
X001405Y017213D01*
X001405Y017411D01*
X000802Y017411D01*
X000802Y017255D02*
X001405Y017255D01*
X001405Y017411D02*
X001480Y017593D01*
X001620Y017733D01*
X001803Y017809D01*
X002000Y017809D01*
X002183Y017733D01*
X002323Y017593D01*
X002399Y017411D01*
X002399Y017213D01*
X002323Y017030D01*
X002183Y016890D01*
X002000Y016815D01*
X001803Y016815D01*
X001620Y016890D01*
X001567Y016943D02*
X000802Y016943D01*
X000802Y016787D02*
X001752Y016787D01*
X002052Y016787D02*
X023498Y016787D01*
X023465Y016943D02*
X008425Y016943D01*
X008547Y017099D02*
X019086Y017099D01*
X019047Y017139D02*
X019138Y017047D01*
X019258Y016997D01*
X019388Y016997D01*
X019508Y017047D01*
X019599Y017139D01*
X019649Y017259D01*
X019649Y017388D01*
X019599Y017508D01*
X019508Y017600D01*
X019388Y017650D01*
X019258Y017650D01*
X019138Y017600D01*
X019047Y017508D01*
X018997Y017388D01*
X018997Y017259D01*
X019047Y017139D01*
X018998Y017255D02*
X008599Y017255D01*
X008599Y017411D02*
X019006Y017411D01*
X019106Y017567D02*
X018453Y017567D01*
X018425Y017539D02*
X018517Y017631D01*
X018566Y017751D01*
X018566Y017880D01*
X018517Y018000D01*
X018425Y018092D01*
X018305Y018142D01*
X018175Y018142D01*
X018056Y018092D01*
X017964Y018000D01*
X017914Y017880D01*
X017914Y017751D01*
X017964Y017631D01*
X018056Y017539D01*
X018175Y017490D01*
X018305Y017490D01*
X018425Y017539D01*
X018555Y017723D02*
X023867Y017723D01*
X023867Y017567D02*
X019540Y017567D01*
X019640Y017411D02*
X023867Y017411D01*
X023858Y017255D02*
X023867Y017255D01*
X023725Y017255D02*
X019648Y017255D01*
X019560Y017099D02*
X023509Y017099D01*
X023660Y016631D02*
X016419Y016631D01*
X016456Y016616D02*
X016337Y016665D01*
X016207Y016665D01*
X016087Y016616D01*
X015995Y016524D01*
X015946Y016404D01*
X015946Y016274D01*
X015995Y016155D01*
X016087Y016063D01*
X016207Y016013D01*
X016337Y016013D01*
X016456Y016063D01*
X016548Y016155D01*
X016598Y016274D01*
X016598Y016404D01*
X016548Y016524D01*
X016456Y016616D01*
X016568Y016475D02*
X023867Y016475D01*
X023867Y016319D02*
X016598Y016319D01*
X016552Y016163D02*
X019808Y016163D01*
X019775Y016130D02*
X019725Y016010D01*
X019725Y015881D01*
X019775Y015761D01*
X019867Y015669D01*
X019986Y015619D01*
X020116Y015619D01*
X020236Y015669D01*
X020328Y015761D01*
X020377Y015881D01*
X020377Y016010D01*
X020328Y016130D01*
X020236Y016222D01*
X020116Y016272D01*
X019986Y016272D01*
X019867Y016222D01*
X019775Y016130D01*
X019725Y016007D02*
X011477Y016007D01*
X011515Y016023D02*
X011607Y016115D01*
X011657Y016235D01*
X011657Y016365D01*
X011607Y016485D01*
X011515Y016576D01*
X011396Y016626D01*
X011266Y016626D01*
X011146Y016576D01*
X011054Y016485D01*
X011005Y016365D01*
X011005Y016235D01*
X011054Y016115D01*
X011146Y016023D01*
X011266Y015974D01*
X011396Y015974D01*
X011515Y016023D01*
X011627Y016163D02*
X013920Y016163D01*
X013922Y016161D02*
X014042Y016112D01*
X014171Y016112D01*
X014291Y016161D01*
X014383Y016253D01*
X014432Y016373D01*
X014432Y016503D01*
X014383Y016622D01*
X014291Y016714D01*
X014171Y016764D01*
X014042Y016764D01*
X013922Y016714D01*
X013830Y016622D01*
X013780Y016503D01*
X013780Y016373D01*
X013830Y016253D01*
X013922Y016161D01*
X013802Y016319D02*
X011657Y016319D01*
X011611Y016475D02*
X013780Y016475D01*
X013839Y016631D02*
X009551Y016631D01*
X009560Y016622D02*
X009468Y016714D01*
X009348Y016764D01*
X009219Y016764D01*
X009099Y016714D01*
X009007Y016622D01*
X008957Y016503D01*
X008957Y016373D01*
X009007Y016253D01*
X009099Y016161D01*
X009219Y016112D01*
X009348Y016112D01*
X009468Y016161D01*
X009560Y016253D01*
X009610Y016373D01*
X009610Y016503D01*
X009560Y016622D01*
X009610Y016475D02*
X011051Y016475D01*
X011005Y016319D02*
X009587Y016319D01*
X009470Y016163D02*
X011034Y016163D01*
X011185Y016007D02*
X002300Y016007D01*
X002378Y016163D02*
X009097Y016163D01*
X008980Y016319D02*
X002399Y016319D01*
X002372Y016475D02*
X008957Y016475D01*
X009016Y016631D02*
X002285Y016631D01*
X002236Y016943D02*
X006993Y016943D01*
X006870Y017099D02*
X002351Y017099D01*
X002399Y017255D02*
X006818Y017255D01*
X006818Y017411D02*
X002398Y017411D01*
X002334Y017567D02*
X006878Y017567D01*
X006941Y018131D02*
X006921Y018150D01*
X006941Y018131D02*
X006961Y018131D01*
X007364Y018191D02*
X008806Y018191D01*
X008800Y018176D02*
X008800Y018046D01*
X008850Y017926D01*
X008941Y017834D01*
X009061Y017785D01*
X009191Y017785D01*
X009311Y017834D01*
X009402Y017926D01*
X009452Y018046D01*
X009452Y018176D01*
X009402Y018296D01*
X009311Y018387D01*
X009191Y018437D01*
X009061Y018437D01*
X008941Y018387D01*
X008850Y018296D01*
X008800Y018176D01*
X008805Y018035D02*
X007364Y018035D01*
X007305Y017879D02*
X008897Y017879D01*
X008901Y018347D02*
X007364Y018347D01*
X007364Y018503D02*
X010270Y018503D01*
X010257Y018471D02*
X010257Y018341D01*
X010306Y018221D01*
X010398Y018130D01*
X010518Y018080D01*
X010648Y018080D01*
X010767Y018130D01*
X010859Y018221D01*
X010909Y018341D01*
X010909Y018471D01*
X010859Y018591D01*
X010767Y018683D01*
X010648Y018732D01*
X010518Y018732D01*
X010398Y018683D01*
X010306Y018591D01*
X010257Y018471D01*
X010257Y018347D02*
X009351Y018347D01*
X009446Y018191D02*
X010337Y018191D01*
X010375Y018659D02*
X007364Y018659D01*
X007354Y018815D02*
X011268Y018815D01*
X011261Y018833D02*
X011310Y018714D01*
X011320Y018704D01*
X011280Y018609D01*
X011280Y018479D01*
X011330Y018359D01*
X011422Y018268D01*
X011542Y018218D01*
X011548Y018218D01*
X011527Y018197D01*
X011477Y018077D01*
X011477Y017948D01*
X011527Y017828D01*
X011619Y017736D01*
X011738Y017686D01*
X011868Y017686D01*
X011988Y017736D01*
X012080Y017828D01*
X012129Y017948D01*
X012129Y018077D01*
X012080Y018197D01*
X011988Y018289D01*
X011868Y018339D01*
X011862Y018339D01*
X011883Y018359D01*
X011932Y018479D01*
X011932Y018609D01*
X011883Y018729D01*
X011873Y018738D01*
X011913Y018833D01*
X011913Y018963D01*
X011863Y019083D01*
X011771Y019175D01*
X011652Y019224D01*
X011522Y019224D01*
X011402Y019175D01*
X011310Y019083D01*
X011261Y018963D01*
X011261Y018833D01*
X011264Y018971D02*
X007278Y018971D01*
X007086Y019127D02*
X011354Y019127D01*
X011301Y018659D02*
X010791Y018659D01*
X010896Y018503D02*
X011280Y018503D01*
X011342Y018347D02*
X010909Y018347D01*
X010829Y018191D02*
X011524Y018191D01*
X011477Y018035D02*
X011198Y018035D01*
X011214Y018020D02*
X011122Y018112D01*
X011002Y018161D01*
X010872Y018161D01*
X010752Y018112D01*
X010661Y018020D01*
X010611Y017900D01*
X010611Y017770D01*
X010661Y017651D01*
X010752Y017559D01*
X010872Y017509D01*
X011002Y017509D01*
X011122Y017559D01*
X011214Y017651D01*
X011263Y017770D01*
X011263Y017900D01*
X011214Y018020D01*
X011263Y017879D02*
X011506Y017879D01*
X011650Y017723D02*
X011244Y017723D01*
X011130Y017567D02*
X018028Y017567D01*
X017926Y017723D02*
X016542Y017723D01*
X016548Y017729D02*
X016456Y017638D01*
X016337Y017588D01*
X016207Y017588D01*
X016087Y017638D01*
X015995Y017729D01*
X015946Y017849D01*
X015946Y017979D01*
X015995Y018099D01*
X016087Y018190D01*
X016207Y018240D01*
X016337Y018240D01*
X016456Y018190D01*
X016548Y018099D01*
X016598Y017979D01*
X016598Y017849D01*
X016548Y017729D01*
X016598Y017879D02*
X017914Y017879D01*
X017999Y018035D02*
X016575Y018035D01*
X016455Y018191D02*
X021085Y018191D01*
X021064Y018243D02*
X021113Y018123D01*
X021205Y018031D01*
X021325Y017982D01*
X021455Y017982D01*
X021575Y018031D01*
X021666Y018123D01*
X021716Y018243D01*
X021716Y018373D01*
X021666Y018492D01*
X021575Y018584D01*
X021455Y018634D01*
X021325Y018634D01*
X021205Y018584D01*
X021113Y018492D01*
X021064Y018373D01*
X021064Y018243D01*
X021064Y018347D02*
X016772Y018347D01*
X016752Y018327D02*
X016843Y018418D01*
X016893Y018538D01*
X016893Y018668D01*
X016843Y018788D01*
X016752Y018879D01*
X016632Y018929D01*
X016502Y018929D01*
X016382Y018879D01*
X016291Y018788D01*
X016241Y018668D01*
X016241Y018538D01*
X016291Y018418D01*
X016382Y018327D01*
X016502Y018277D01*
X016632Y018277D01*
X016752Y018327D01*
X016879Y018503D02*
X017977Y018503D01*
X017964Y018517D02*
X018056Y018425D01*
X018175Y018375D01*
X018305Y018375D01*
X018425Y018425D01*
X018517Y018517D01*
X018566Y018637D01*
X018566Y018766D01*
X018517Y018886D01*
X018425Y018978D01*
X018305Y019028D01*
X018175Y019028D01*
X018056Y018978D01*
X017964Y018886D01*
X017914Y018766D01*
X017914Y018637D01*
X017964Y018517D01*
X017914Y018659D02*
X016893Y018659D01*
X016816Y018815D02*
X017934Y018815D01*
X018049Y018971D02*
X011909Y018971D01*
X011905Y018815D02*
X016318Y018815D01*
X016241Y018659D02*
X011912Y018659D01*
X011932Y018503D02*
X016255Y018503D01*
X016362Y018347D02*
X011871Y018347D01*
X012082Y018191D02*
X012843Y018191D01*
X012846Y018197D02*
X012796Y018077D01*
X012796Y017948D01*
X012846Y017828D01*
X012937Y017736D01*
X013057Y017686D01*
X013187Y017686D01*
X013307Y017736D01*
X013399Y017828D01*
X013448Y017948D01*
X013448Y018077D01*
X013399Y018197D01*
X013307Y018289D01*
X013187Y018339D01*
X013057Y018339D01*
X012937Y018289D01*
X012846Y018197D01*
X012796Y018035D02*
X012129Y018035D01*
X012101Y017879D02*
X012824Y017879D01*
X012968Y017723D02*
X011957Y017723D01*
X011819Y019127D02*
X013909Y019127D01*
X013798Y019283D02*
X007112Y019283D01*
X007062Y019439D02*
X006970Y019531D01*
X006850Y019581D01*
X006721Y019581D01*
X006601Y019531D01*
X006509Y019439D01*
X006330Y019439D01*
X006459Y019319D02*
X006459Y019310D01*
X004658Y021111D01*
X004658Y028465D01*
X004568Y028682D01*
X003252Y029998D01*
X003239Y030046D02*
X012935Y030046D01*
X013139Y030202D02*
X003197Y030202D01*
X003112Y030358D02*
X013721Y030358D01*
X013721Y030380D02*
X013721Y030251D01*
X013771Y030131D01*
X013863Y030039D01*
X013982Y029990D01*
X014112Y029990D01*
X014232Y030039D01*
X014324Y030131D01*
X014373Y030251D01*
X014373Y030380D01*
X014324Y030500D01*
X014232Y030592D01*
X014112Y030642D01*
X013982Y030642D01*
X013863Y030592D01*
X013771Y030500D01*
X013721Y030380D01*
X013784Y030514D02*
X003021Y030514D01*
X002865Y030670D02*
X018543Y030670D01*
X018554Y030697D02*
X018505Y030577D01*
X018505Y030448D01*
X018554Y030328D01*
X018646Y030236D01*
X018766Y030186D01*
X018896Y030186D01*
X019015Y030236D01*
X019107Y030328D01*
X019157Y030448D01*
X019157Y030577D01*
X019107Y030697D01*
X019015Y030789D01*
X018896Y030839D01*
X018766Y030839D01*
X018646Y030789D01*
X018554Y030697D01*
X018505Y030514D02*
X014310Y030514D01*
X014373Y030358D02*
X018542Y030358D01*
X018729Y030202D02*
X014353Y030202D01*
X014239Y030046D02*
X022048Y030046D01*
X022048Y030085D02*
X022048Y029955D01*
X022098Y029836D01*
X022189Y029744D01*
X022235Y029725D01*
X022189Y029706D01*
X022098Y029614D01*
X022048Y029495D01*
X022048Y029365D01*
X022098Y029245D01*
X022189Y029153D01*
X022309Y029104D01*
X022439Y029104D01*
X022559Y029153D01*
X022651Y029245D01*
X022700Y029365D01*
X022700Y029495D01*
X022651Y029614D01*
X022559Y029706D01*
X022513Y029725D01*
X022559Y029744D01*
X022651Y029836D01*
X022700Y029955D01*
X022700Y030085D01*
X022651Y030205D01*
X022559Y030297D01*
X022439Y030346D01*
X022309Y030346D01*
X022189Y030297D01*
X022098Y030205D01*
X022048Y030085D01*
X022096Y030202D02*
X018932Y030202D01*
X019120Y030358D02*
X023867Y030358D01*
X023867Y030514D02*
X019157Y030514D01*
X019119Y030670D02*
X023867Y030670D01*
X023867Y030826D02*
X018927Y030826D01*
X018735Y030826D02*
X002653Y030826D01*
X002255Y030982D02*
X022133Y030982D01*
X022098Y031017D02*
X022189Y030925D01*
X022309Y030875D01*
X022439Y030875D01*
X022559Y030925D01*
X022651Y031017D01*
X022700Y031137D01*
X022700Y031266D01*
X022651Y031386D01*
X022559Y031478D01*
X022513Y031497D01*
X022559Y031516D01*
X022651Y031607D01*
X022700Y031727D01*
X022700Y031857D01*
X022651Y031977D01*
X022559Y032068D01*
X022439Y032118D01*
X022309Y032118D01*
X022189Y032068D01*
X022098Y031977D01*
X022048Y031857D01*
X022048Y031727D01*
X022098Y031607D01*
X022189Y031516D01*
X022235Y031497D01*
X022189Y031478D01*
X022098Y031386D01*
X022048Y031266D01*
X022048Y031137D01*
X022098Y031017D01*
X022048Y031138D02*
X010598Y031138D01*
X010559Y031121D02*
X010679Y031171D01*
X010771Y031263D01*
X010820Y031383D01*
X010820Y031512D01*
X010771Y031632D01*
X010679Y031724D01*
X010559Y031774D01*
X010429Y031774D01*
X010309Y031724D01*
X010218Y031632D01*
X010168Y031512D01*
X010168Y031383D01*
X010218Y031263D01*
X010309Y031171D01*
X010429Y031121D01*
X010559Y031121D01*
X010391Y031138D02*
X000802Y031138D01*
X000802Y031294D02*
X010205Y031294D01*
X010168Y031449D02*
X000802Y031449D01*
X000802Y031605D02*
X010207Y031605D01*
X010400Y031761D02*
X000802Y031761D01*
X000802Y031917D02*
X010477Y031917D01*
X010484Y031903D02*
X010575Y031811D01*
X010695Y031761D01*
X010825Y031761D01*
X010945Y031811D01*
X011036Y031903D01*
X011086Y032022D01*
X011086Y032152D01*
X011036Y032272D01*
X010945Y032364D01*
X010825Y032413D01*
X010695Y032413D01*
X010575Y032364D01*
X010484Y032272D01*
X010434Y032152D01*
X010434Y032022D01*
X010484Y031903D01*
X010588Y031761D02*
X010694Y031761D01*
X010825Y031761D02*
X022048Y031761D01*
X022073Y031917D02*
X011043Y031917D01*
X011086Y032073D02*
X018580Y032073D01*
X018554Y032099D02*
X018646Y032008D01*
X018766Y031958D01*
X018896Y031958D01*
X019015Y032008D01*
X019107Y032099D01*
X019157Y032219D01*
X019157Y032349D01*
X019107Y032469D01*
X019015Y032561D01*
X018896Y032610D01*
X018766Y032610D01*
X018646Y032561D01*
X018554Y032469D01*
X018505Y032349D01*
X018505Y032219D01*
X018554Y032099D01*
X018505Y032229D02*
X011054Y032229D01*
X011089Y032352D02*
X011218Y032352D01*
X011338Y032401D01*
X011430Y032493D01*
X011453Y032549D01*
X011514Y032549D01*
X011634Y032598D01*
X011725Y032690D01*
X011775Y032810D01*
X011775Y032940D01*
X011725Y033059D01*
X011634Y033151D01*
X011514Y033201D01*
X011384Y033201D01*
X011264Y033151D01*
X011172Y033059D01*
X011150Y033004D01*
X011089Y033004D01*
X010969Y032954D01*
X010877Y032863D01*
X010828Y032743D01*
X010828Y032613D01*
X010877Y032493D01*
X010969Y032401D01*
X011089Y032352D01*
X011008Y032385D02*
X010892Y032385D01*
X010857Y032541D02*
X003058Y032541D01*
X003148Y032697D02*
X010828Y032697D01*
X010873Y032853D02*
X003818Y032853D01*
X003901Y033009D02*
X011152Y033009D01*
X011298Y033165D02*
X003889Y033165D01*
X003868Y033321D02*
X011033Y033321D01*
X011067Y033287D02*
X011187Y033238D01*
X011317Y033238D01*
X011437Y033287D01*
X011528Y033379D01*
X011578Y033499D01*
X011578Y033629D01*
X011528Y033748D01*
X011437Y033840D01*
X011317Y033890D01*
X011241Y033890D01*
X011283Y033991D01*
X011283Y034121D01*
X011233Y034240D01*
X011141Y034332D01*
X011022Y034382D01*
X010892Y034382D01*
X010809Y034348D01*
X010726Y034382D01*
X010597Y034382D01*
X010514Y034348D01*
X010431Y034382D01*
X010301Y034382D01*
X010182Y034332D01*
X010090Y034240D01*
X010040Y034121D01*
X010040Y033991D01*
X010090Y033871D01*
X010182Y033779D01*
X010198Y033773D01*
X010198Y033735D01*
X010247Y033615D01*
X010339Y033523D01*
X010459Y033474D01*
X010589Y033474D01*
X010671Y033508D01*
X010754Y033474D01*
X010884Y033474D01*
X010929Y033492D01*
X010976Y033379D01*
X011067Y033287D01*
X010935Y033477D02*
X010892Y033477D01*
X010746Y033477D02*
X010597Y033477D01*
X010451Y033477D02*
X003901Y033477D01*
X003858Y033633D02*
X005308Y033633D01*
X005267Y033674D02*
X005359Y033582D01*
X005479Y033533D01*
X005608Y033533D01*
X005728Y033582D01*
X005820Y033674D01*
X005869Y033794D01*
X005869Y033924D01*
X005820Y034044D01*
X005728Y034135D01*
X005608Y034185D01*
X005479Y034185D01*
X005359Y034135D01*
X005267Y034044D01*
X005217Y033924D01*
X005217Y033794D01*
X005267Y033674D01*
X005219Y033789D02*
X003645Y033789D01*
X003505Y033789D02*
X003177Y033789D01*
X003227Y033633D02*
X003292Y033633D01*
X003087Y033945D02*
X005226Y033945D01*
X005325Y034101D02*
X002977Y034101D01*
X002821Y034257D02*
X007202Y034257D01*
X007186Y034219D02*
X007186Y034089D01*
X007235Y033969D01*
X007327Y033878D01*
X007447Y033828D01*
X007577Y033828D01*
X007697Y033878D01*
X007788Y033969D01*
X007838Y034089D01*
X007838Y034219D01*
X007788Y034339D01*
X007697Y034431D01*
X007577Y034480D01*
X007447Y034480D01*
X007327Y034431D01*
X007235Y034339D01*
X007186Y034219D01*
X007186Y034101D02*
X005762Y034101D01*
X005861Y033945D02*
X007260Y033945D01*
X007310Y034413D02*
X002576Y034413D01*
X002898Y034764D02*
X002806Y034855D01*
X002757Y034975D01*
X002757Y035105D01*
X002806Y035225D01*
X002898Y035316D01*
X003018Y035366D01*
X003148Y035366D01*
X003267Y035316D01*
X003359Y035225D01*
X003409Y035105D01*
X003409Y034975D01*
X003359Y034855D01*
X003267Y034764D01*
X003148Y034714D01*
X003018Y034714D01*
X002898Y034764D01*
X002991Y034725D02*
X001440Y034725D01*
X001419Y034881D02*
X002796Y034881D01*
X002757Y035037D02*
X001303Y035037D01*
X001380Y034569D02*
X013606Y034569D01*
X013583Y034514D02*
X013583Y034385D01*
X013633Y034265D01*
X013725Y034173D01*
X013845Y034123D01*
X013974Y034123D01*
X014094Y034173D01*
X014099Y034178D01*
X014076Y034121D01*
X014076Y033991D01*
X014125Y033871D01*
X014217Y033779D01*
X014337Y033730D01*
X014467Y033730D01*
X014586Y033779D01*
X014678Y033871D01*
X014728Y033991D01*
X014728Y034121D01*
X014684Y034226D01*
X014766Y034226D01*
X014886Y034275D01*
X014977Y034367D01*
X015027Y034487D01*
X015027Y034617D01*
X014977Y034737D01*
X014886Y034828D01*
X014766Y034878D01*
X014636Y034878D01*
X014516Y034828D01*
X014424Y034737D01*
X014375Y034617D01*
X014375Y034487D01*
X014418Y034382D01*
X014337Y034382D01*
X014217Y034332D01*
X014212Y034327D01*
X014236Y034385D01*
X014236Y034514D01*
X014186Y034634D01*
X014094Y034726D01*
X013974Y034776D01*
X013845Y034776D01*
X013725Y034726D01*
X013633Y034634D01*
X013583Y034514D01*
X013583Y034413D02*
X009092Y034413D01*
X009075Y034431D02*
X008955Y034480D01*
X008825Y034480D01*
X008705Y034431D01*
X008613Y034339D01*
X008564Y034219D01*
X008564Y034089D01*
X008613Y033969D01*
X008705Y033878D01*
X008825Y033828D01*
X008955Y033828D01*
X009075Y033878D01*
X009166Y033969D01*
X009216Y034089D01*
X009216Y034219D01*
X009166Y034339D01*
X009075Y034431D01*
X009200Y034257D02*
X010106Y034257D01*
X010040Y034101D02*
X009216Y034101D01*
X009142Y033945D02*
X010059Y033945D01*
X010172Y033789D02*
X005867Y033789D01*
X005779Y033633D02*
X010240Y033633D01*
X010628Y032385D02*
X002927Y032385D01*
X002760Y032229D02*
X010466Y032229D01*
X010434Y032073D02*
X002484Y032073D01*
X003214Y032853D02*
X003332Y032853D01*
X003174Y034725D02*
X012189Y034725D01*
X012157Y034757D02*
X012248Y034665D01*
X012368Y034616D01*
X012498Y034616D01*
X012618Y034665D01*
X012710Y034757D01*
X012759Y034877D01*
X012759Y035006D01*
X012710Y035126D01*
X012618Y035218D01*
X012498Y035268D01*
X012368Y035268D01*
X012248Y035218D01*
X012157Y035126D01*
X012107Y035006D01*
X012107Y034877D01*
X012157Y034757D01*
X012107Y034881D02*
X003370Y034881D01*
X003409Y035037D02*
X012120Y035037D01*
X012223Y035193D02*
X003372Y035193D01*
X003189Y035349D02*
X022048Y035349D01*
X022048Y035400D02*
X022048Y035270D01*
X022098Y035151D01*
X022189Y035059D01*
X022235Y035040D01*
X022189Y035021D01*
X022098Y034929D01*
X022048Y034810D01*
X022048Y034680D01*
X022098Y034560D01*
X022189Y034468D01*
X022309Y034419D01*
X022439Y034419D01*
X022559Y034468D01*
X022651Y034560D01*
X022700Y034680D01*
X022700Y034810D01*
X022651Y034929D01*
X022559Y035021D01*
X022513Y035040D01*
X022559Y035059D01*
X022651Y035151D01*
X022700Y035270D01*
X022700Y035400D01*
X022651Y035520D01*
X022559Y035612D01*
X022439Y035661D01*
X022309Y035661D01*
X022189Y035612D01*
X022098Y035520D01*
X022048Y035400D01*
X022091Y035505D02*
X019127Y035505D01*
X019166Y035544D02*
X019075Y035453D01*
X018955Y035403D01*
X018825Y035403D01*
X018705Y035453D01*
X018613Y035544D01*
X018564Y035664D01*
X018564Y035794D01*
X018613Y035914D01*
X018705Y036005D01*
X018825Y036055D01*
X018955Y036055D01*
X019075Y036005D01*
X019166Y035914D01*
X019216Y035794D01*
X019216Y035664D01*
X019166Y035544D01*
X019215Y035661D02*
X022308Y035661D01*
X022440Y035661D02*
X023867Y035661D01*
X023867Y035817D02*
X019206Y035817D01*
X019107Y035973D02*
X023867Y035973D01*
X023867Y036129D02*
X013842Y036129D01*
X013842Y036093D02*
X013792Y035973D01*
X018673Y035973D01*
X018573Y035817D02*
X002815Y035817D01*
X002971Y035973D02*
X013240Y035973D01*
X013239Y035973D02*
X013331Y035882D01*
X013451Y035832D01*
X013581Y035832D01*
X013701Y035882D01*
X013792Y035973D01*
X013842Y036093D02*
X013842Y036223D01*
X013792Y036343D01*
X013701Y036435D01*
X013581Y036484D01*
X013451Y036484D01*
X013331Y036435D01*
X013239Y036343D01*
X013190Y036223D01*
X013190Y036093D01*
X013239Y035973D01*
X013190Y036129D02*
X003083Y036129D01*
X003173Y036285D02*
X013215Y036285D01*
X013346Y036441D02*
X003225Y036441D01*
X003267Y036597D02*
X022054Y036597D01*
X022048Y036581D02*
X022048Y036452D01*
X022098Y036332D01*
X022189Y036240D01*
X022309Y036190D01*
X022439Y036190D01*
X022559Y036240D01*
X022651Y036332D01*
X022700Y036452D01*
X022700Y036581D01*
X022651Y036701D01*
X022559Y036793D01*
X022513Y036812D01*
X022559Y036831D01*
X022651Y036922D01*
X022700Y037042D01*
X022700Y037172D01*
X022651Y037292D01*
X022559Y037383D01*
X022439Y037433D01*
X022309Y037433D01*
X022189Y037383D01*
X022098Y037292D01*
X022048Y037172D01*
X022048Y037042D01*
X022098Y036922D01*
X022189Y036831D01*
X022235Y036812D01*
X022189Y036793D01*
X022098Y036701D01*
X022048Y036581D01*
X022052Y036441D02*
X013685Y036441D01*
X013816Y036285D02*
X022145Y036285D01*
X022149Y036753D02*
X003280Y036753D01*
X003280Y036909D02*
X022111Y036909D01*
X022048Y037065D02*
X003257Y037065D01*
X003215Y037221D02*
X022068Y037221D01*
X022183Y037377D02*
X019070Y037377D01*
X019107Y037414D02*
X019157Y037534D01*
X019157Y037664D01*
X019107Y037784D01*
X019015Y037876D01*
X018896Y037925D01*
X018766Y037925D01*
X018646Y037876D01*
X018554Y037784D01*
X018505Y037664D01*
X018505Y037534D01*
X018554Y037414D01*
X018646Y037323D01*
X018766Y037273D01*
X018896Y037273D01*
X019015Y037323D01*
X019107Y037414D01*
X019156Y037533D02*
X023867Y037533D01*
X023867Y037689D02*
X019147Y037689D01*
X019046Y037845D02*
X023867Y037845D01*
X023867Y038001D02*
X022532Y038001D01*
X022559Y038012D02*
X022651Y038103D01*
X022700Y038223D01*
X022700Y038353D01*
X022651Y038473D01*
X022559Y038564D01*
X022513Y038583D01*
X022559Y038602D01*
X022651Y038694D01*
X022700Y038814D01*
X022700Y038943D01*
X022651Y039063D01*
X022559Y039155D01*
X022439Y039205D01*
X022309Y039205D01*
X022189Y039155D01*
X022098Y039063D01*
X022048Y038943D01*
X022048Y038814D01*
X022098Y038694D01*
X022189Y038602D01*
X022235Y038583D01*
X022189Y038564D01*
X022098Y038473D01*
X022048Y038353D01*
X022048Y038223D01*
X022098Y038103D01*
X022189Y038012D01*
X022309Y037962D01*
X022439Y037962D01*
X022559Y038012D01*
X022673Y038157D02*
X023867Y038157D01*
X023867Y038313D02*
X022700Y038313D01*
X022652Y038469D02*
X023867Y038469D01*
X023867Y038625D02*
X022581Y038625D01*
X022686Y038781D02*
X023867Y038781D01*
X023867Y038937D02*
X022700Y038937D01*
X022621Y039093D02*
X023867Y039093D01*
X023867Y039249D02*
X019133Y039249D01*
X019157Y039306D02*
X019107Y039186D01*
X019015Y039094D01*
X018896Y039045D01*
X018766Y039045D01*
X018646Y039094D01*
X018554Y039186D01*
X018505Y039306D01*
X018505Y039436D01*
X018554Y039555D01*
X018646Y039647D01*
X018766Y039697D01*
X018896Y039697D01*
X019015Y039647D01*
X019107Y039555D01*
X019157Y039436D01*
X019157Y039306D01*
X019157Y039404D02*
X023867Y039404D01*
X023867Y039560D02*
X019102Y039560D01*
X019011Y039093D02*
X022127Y039093D01*
X022048Y038937D02*
X017385Y038937D01*
X017385Y038979D02*
X017336Y039099D01*
X017244Y039190D01*
X017124Y039240D01*
X016994Y039240D01*
X016874Y039190D01*
X016783Y039099D01*
X016733Y038979D01*
X016733Y038849D01*
X016783Y038729D01*
X016874Y038638D01*
X016994Y038588D01*
X017124Y038588D01*
X017244Y038638D01*
X017336Y038729D01*
X017385Y038849D01*
X017385Y038979D01*
X017338Y039093D02*
X018650Y039093D01*
X018528Y039249D02*
X002643Y039249D01*
X002859Y039404D02*
X018505Y039404D01*
X018559Y039560D02*
X016342Y039560D01*
X016309Y039527D02*
X016401Y039619D01*
X016450Y039739D01*
X016450Y039869D01*
X016401Y039989D01*
X016309Y040080D01*
X016189Y040130D01*
X016059Y040130D01*
X015939Y040080D01*
X015848Y039989D01*
X015798Y039869D01*
X015798Y039739D01*
X015848Y039619D01*
X015939Y039527D01*
X016059Y039478D01*
X016189Y039478D01*
X016309Y039527D01*
X016441Y039716D02*
X023867Y039716D01*
X023867Y039872D02*
X022648Y039872D01*
X022651Y039875D02*
X022700Y039995D01*
X022700Y040125D01*
X022651Y040244D01*
X022559Y040336D01*
X022439Y040386D01*
X022309Y040386D01*
X022189Y040336D01*
X022098Y040244D01*
X022048Y040125D01*
X022048Y039995D01*
X022098Y039875D01*
X022189Y039783D01*
X022309Y039734D01*
X022439Y039734D01*
X022559Y039783D01*
X022651Y039875D01*
X022700Y040028D02*
X023867Y040028D01*
X023867Y040184D02*
X022675Y040184D01*
X022549Y040340D02*
X023867Y040340D01*
X023867Y040496D02*
X022583Y040496D01*
X022559Y040472D02*
X022651Y040564D01*
X022700Y040684D01*
X022700Y040814D01*
X022651Y040933D01*
X022559Y041025D01*
X022439Y041075D01*
X022309Y041075D01*
X022189Y041025D01*
X022098Y040933D01*
X022048Y040814D01*
X022048Y040684D01*
X022098Y040564D01*
X022189Y040472D01*
X022309Y040423D01*
X022439Y040423D01*
X022559Y040472D01*
X022687Y040652D02*
X023867Y040652D01*
X023867Y040808D02*
X022700Y040808D01*
X022620Y040964D02*
X023867Y040964D01*
X023867Y041120D02*
X019216Y041120D01*
X019216Y041129D02*
X019166Y041248D01*
X019075Y041340D01*
X018955Y041390D01*
X018825Y041390D01*
X018705Y041340D01*
X018613Y041248D01*
X018564Y041129D01*
X018564Y040999D01*
X018613Y040879D01*
X018705Y040787D01*
X018825Y040738D01*
X018955Y040738D01*
X019075Y040787D01*
X019166Y040879D01*
X019216Y040999D01*
X019216Y041129D01*
X019202Y040964D02*
X022129Y040964D01*
X022048Y040808D02*
X019096Y040808D01*
X018684Y040808D02*
X003203Y040808D01*
X003245Y040652D02*
X022061Y040652D01*
X022165Y040496D02*
X003280Y040496D01*
X003280Y040340D02*
X022200Y040340D01*
X022073Y040184D02*
X003279Y040184D01*
X003237Y040028D02*
X015888Y040028D01*
X015800Y039872D02*
X003195Y039872D01*
X003109Y039716D02*
X015807Y039716D01*
X015906Y039560D02*
X003015Y039560D01*
X002232Y039093D02*
X016780Y039093D01*
X016733Y038937D02*
X000802Y038937D01*
X000802Y039093D02*
X001768Y039093D01*
X001358Y039249D02*
X000802Y039249D01*
X000802Y039404D02*
X001141Y039404D01*
X000985Y039560D02*
X000802Y039560D01*
X000802Y039716D02*
X000891Y039716D01*
X000805Y039872D02*
X000802Y039872D01*
X000802Y040964D02*
X000874Y040964D01*
X000802Y041120D02*
X000964Y041120D01*
X001112Y041276D02*
X000802Y041276D01*
X000802Y041432D02*
X001307Y041432D01*
X001659Y041588D02*
X000802Y041588D01*
X000802Y041744D02*
X022057Y041744D01*
X022048Y041767D02*
X022098Y041647D01*
X022189Y041555D01*
X022309Y041505D01*
X022439Y041505D01*
X022559Y041555D01*
X022651Y041647D01*
X022700Y041767D01*
X022700Y041896D01*
X022651Y042016D01*
X022559Y042108D01*
X022439Y042157D01*
X022309Y042157D01*
X022189Y042108D01*
X022098Y042016D01*
X022048Y041896D01*
X022048Y041767D01*
X022050Y041900D02*
X000802Y041900D01*
X000802Y042056D02*
X022138Y042056D01*
X022156Y041588D02*
X002341Y041588D01*
X002693Y041432D02*
X023867Y041432D01*
X023867Y041276D02*
X019138Y041276D01*
X018641Y041276D02*
X002888Y041276D01*
X003036Y041120D02*
X018564Y041120D01*
X018578Y040964D02*
X003126Y040964D01*
X003136Y042368D02*
X021534Y042368D01*
X021267Y042524D02*
X003403Y042524D01*
X003559Y042680D02*
X021111Y042680D01*
X020972Y042836D02*
X003697Y042836D01*
X003787Y042992D02*
X020882Y042992D01*
X020797Y043148D02*
X003872Y043148D01*
X003914Y043304D02*
X020755Y043304D01*
X020713Y043460D02*
X019075Y043460D01*
X019116Y043477D02*
X019256Y043617D01*
X019332Y043799D01*
X019332Y043997D01*
X019256Y044180D01*
X019116Y044319D01*
X018934Y044395D01*
X018736Y044395D01*
X018553Y044319D01*
X018414Y044180D01*
X018338Y043997D01*
X018338Y043799D01*
X018414Y043617D01*
X018553Y043477D01*
X018736Y043401D01*
X018934Y043401D01*
X019116Y043477D01*
X019255Y043616D02*
X020701Y043616D01*
X020701Y043772D02*
X019320Y043772D01*
X019332Y043928D02*
X020709Y043928D01*
X020751Y044084D02*
X019296Y044084D01*
X019196Y044240D02*
X020793Y044240D01*
X020873Y044396D02*
X004578Y044396D01*
X004648Y044552D02*
X020963Y044552D01*
X021096Y044708D02*
X004662Y044708D01*
X004629Y044864D02*
X021252Y044864D01*
X022821Y042368D02*
X023867Y042368D01*
X023867Y042212D02*
X000802Y042212D01*
X000802Y042368D02*
X001849Y042368D01*
X001582Y042524D02*
X000802Y042524D01*
X000802Y042680D02*
X001426Y042680D01*
X001287Y042836D02*
X000802Y042836D01*
X000802Y042992D02*
X001197Y042992D01*
X001112Y043148D02*
X000802Y043148D01*
X000802Y043304D02*
X001070Y043304D01*
X001028Y043460D02*
X000802Y043460D01*
X000802Y043616D02*
X001016Y043616D01*
X001016Y043772D02*
X000802Y043772D01*
X000802Y043928D02*
X001024Y043928D01*
X001066Y044084D02*
X000802Y044084D01*
X000802Y044240D02*
X001108Y044240D01*
X001188Y044396D02*
X000802Y044396D01*
X000802Y044552D02*
X001278Y044552D01*
X001411Y044708D02*
X000802Y044708D01*
X000802Y044864D02*
X001567Y044864D01*
X003876Y044240D02*
X003943Y044240D01*
X003918Y044084D02*
X005374Y044084D01*
X005338Y043997D02*
X005338Y043799D01*
X005414Y043617D01*
X005553Y043477D01*
X005736Y043401D01*
X005934Y043401D01*
X006116Y043477D01*
X006256Y043617D01*
X006332Y043799D01*
X006332Y043997D01*
X006256Y044180D01*
X006116Y044319D01*
X005934Y044395D01*
X005736Y044395D01*
X005553Y044319D01*
X005414Y044180D01*
X005338Y043997D01*
X005338Y043928D02*
X003960Y043928D01*
X003969Y043772D02*
X005349Y043772D01*
X005414Y043616D02*
X003969Y043616D01*
X003956Y043460D02*
X005595Y043460D01*
X006075Y043460D02*
X006595Y043460D01*
X006553Y043477D02*
X006736Y043401D01*
X006934Y043401D01*
X007116Y043477D01*
X007256Y043617D01*
X007332Y043799D01*
X007332Y043997D01*
X007256Y044180D01*
X007116Y044319D01*
X006934Y044395D01*
X006736Y044395D01*
X006553Y044319D01*
X006414Y044180D01*
X006338Y043997D01*
X006338Y043799D01*
X006414Y043617D01*
X006553Y043477D01*
X006414Y043616D02*
X006255Y043616D01*
X006320Y043772D02*
X006349Y043772D01*
X006332Y043928D02*
X006338Y043928D01*
X006374Y044084D02*
X006296Y044084D01*
X006196Y044240D02*
X006474Y044240D01*
X007196Y044240D02*
X007474Y044240D01*
X007414Y044180D02*
X007338Y043997D01*
X007338Y043799D01*
X007414Y043617D01*
X007553Y043477D01*
X007736Y043401D01*
X007934Y043401D01*
X008116Y043477D01*
X008256Y043617D01*
X008332Y043799D01*
X008332Y043997D01*
X008256Y044180D01*
X008116Y044319D01*
X007934Y044395D01*
X007736Y044395D01*
X007553Y044319D01*
X007414Y044180D01*
X007374Y044084D02*
X007296Y044084D01*
X007332Y043928D02*
X007338Y043928D01*
X007349Y043772D02*
X007320Y043772D01*
X007255Y043616D02*
X007414Y043616D01*
X007595Y043460D02*
X007075Y043460D01*
X008075Y043460D02*
X008595Y043460D01*
X008553Y043477D02*
X008736Y043401D01*
X008934Y043401D01*
X009116Y043477D01*
X009256Y043617D01*
X009332Y043799D01*
X009332Y043997D01*
X009256Y044180D01*
X009116Y044319D01*
X008934Y044395D01*
X008736Y044395D01*
X008553Y044319D01*
X008414Y044180D01*
X008338Y043997D01*
X008338Y043799D01*
X008414Y043617D01*
X008553Y043477D01*
X008414Y043616D02*
X008255Y043616D01*
X008320Y043772D02*
X008349Y043772D01*
X008332Y043928D02*
X008338Y043928D01*
X008374Y044084D02*
X008296Y044084D01*
X008196Y044240D02*
X008474Y044240D01*
X009196Y044240D02*
X009474Y044240D01*
X009414Y044180D02*
X009338Y043997D01*
X009338Y043799D01*
X009414Y043617D01*
X009553Y043477D01*
X009736Y043401D01*
X009934Y043401D01*
X010116Y043477D01*
X010256Y043617D01*
X010332Y043799D01*
X010332Y043997D01*
X010256Y044180D01*
X010116Y044319D01*
X009934Y044395D01*
X009736Y044395D01*
X009553Y044319D01*
X009414Y044180D01*
X009374Y044084D02*
X009296Y044084D01*
X009332Y043928D02*
X009338Y043928D01*
X009349Y043772D02*
X009320Y043772D01*
X009255Y043616D02*
X009414Y043616D01*
X009595Y043460D02*
X009075Y043460D01*
X010075Y043460D02*
X010595Y043460D01*
X010553Y043477D02*
X010736Y043401D01*
X010934Y043401D01*
X011116Y043477D01*
X011256Y043617D01*
X011332Y043799D01*
X011332Y043997D01*
X011256Y044180D01*
X011116Y044319D01*
X010934Y044395D01*
X010736Y044395D01*
X010553Y044319D01*
X010414Y044180D01*
X010338Y043997D01*
X010338Y043799D01*
X010414Y043617D01*
X010553Y043477D01*
X010414Y043616D02*
X010255Y043616D01*
X010320Y043772D02*
X010349Y043772D01*
X010332Y043928D02*
X010338Y043928D01*
X010374Y044084D02*
X010296Y044084D01*
X010196Y044240D02*
X010474Y044240D01*
X011075Y043460D02*
X011595Y043460D01*
X011553Y043477D02*
X011736Y043401D01*
X011934Y043401D01*
X012116Y043477D01*
X012256Y043617D01*
X012332Y043799D01*
X012332Y043997D01*
X012256Y044180D01*
X012116Y044319D01*
X011934Y044395D01*
X011736Y044395D01*
X011553Y044319D01*
X011414Y044180D01*
X011338Y043997D01*
X011338Y043799D01*
X011414Y043617D01*
X011553Y043477D01*
X011414Y043616D02*
X011255Y043616D01*
X011320Y043772D02*
X011349Y043772D01*
X011332Y043928D02*
X011338Y043928D01*
X011374Y044084D02*
X011296Y044084D01*
X011196Y044240D02*
X011474Y044240D01*
X012075Y043460D02*
X012595Y043460D01*
X012553Y043477D02*
X012736Y043401D01*
X012934Y043401D01*
X013116Y043477D01*
X013256Y043617D01*
X013332Y043799D01*
X013332Y043997D01*
X013256Y044180D01*
X013116Y044319D01*
X012934Y044395D01*
X012736Y044395D01*
X012553Y044319D01*
X012414Y044180D01*
X012338Y043997D01*
X012338Y043799D01*
X012414Y043617D01*
X012553Y043477D01*
X012414Y043616D02*
X012255Y043616D01*
X012320Y043772D02*
X012349Y043772D01*
X012332Y043928D02*
X012338Y043928D01*
X012374Y044084D02*
X012296Y044084D01*
X012196Y044240D02*
X012474Y044240D01*
X013075Y043460D02*
X013595Y043460D01*
X013553Y043477D02*
X013736Y043401D01*
X013934Y043401D01*
X014116Y043477D01*
X014256Y043617D01*
X014332Y043799D01*
X014332Y043997D01*
X014256Y044180D01*
X014116Y044319D01*
X013934Y044395D01*
X013736Y044395D01*
X013553Y044319D01*
X013414Y044180D01*
X013338Y043997D01*
X013338Y043799D01*
X013414Y043617D01*
X013553Y043477D01*
X013414Y043616D02*
X013255Y043616D01*
X013320Y043772D02*
X013349Y043772D01*
X013332Y043928D02*
X013338Y043928D01*
X013374Y044084D02*
X013296Y044084D01*
X013196Y044240D02*
X013474Y044240D01*
X014196Y044240D02*
X014474Y044240D01*
X014414Y044180D02*
X014338Y043997D01*
X014338Y043799D01*
X014414Y043617D01*
X014553Y043477D01*
X014736Y043401D01*
X014934Y043401D01*
X015116Y043477D01*
X015256Y043617D01*
X015332Y043799D01*
X015332Y043997D01*
X015256Y044180D01*
X015116Y044319D01*
X014934Y044395D01*
X014736Y044395D01*
X014553Y044319D01*
X014414Y044180D01*
X014374Y044084D02*
X014296Y044084D01*
X014332Y043928D02*
X014338Y043928D01*
X014349Y043772D02*
X014320Y043772D01*
X014255Y043616D02*
X014414Y043616D01*
X014595Y043460D02*
X014075Y043460D01*
X015075Y043460D02*
X015595Y043460D01*
X015553Y043477D02*
X015736Y043401D01*
X015934Y043401D01*
X016116Y043477D01*
X016256Y043617D01*
X016332Y043799D01*
X016332Y043997D01*
X016256Y044180D01*
X016116Y044319D01*
X015934Y044395D01*
X015736Y044395D01*
X015553Y044319D01*
X015414Y044180D01*
X015338Y043997D01*
X015338Y043799D01*
X015414Y043617D01*
X015553Y043477D01*
X015414Y043616D02*
X015255Y043616D01*
X015320Y043772D02*
X015349Y043772D01*
X015332Y043928D02*
X015338Y043928D01*
X015374Y044084D02*
X015296Y044084D01*
X015196Y044240D02*
X015474Y044240D01*
X016196Y044240D02*
X016474Y044240D01*
X016414Y044180D02*
X016338Y043997D01*
X016338Y043799D01*
X016414Y043617D01*
X016553Y043477D01*
X016736Y043401D01*
X016934Y043401D01*
X017116Y043477D01*
X017256Y043617D01*
X017332Y043799D01*
X017332Y043997D01*
X017256Y044180D01*
X017116Y044319D01*
X016934Y044395D01*
X016736Y044395D01*
X016553Y044319D01*
X016414Y044180D01*
X016374Y044084D02*
X016296Y044084D01*
X016332Y043928D02*
X016338Y043928D01*
X016349Y043772D02*
X016320Y043772D01*
X016255Y043616D02*
X016414Y043616D01*
X016595Y043460D02*
X016075Y043460D01*
X017075Y043460D02*
X017595Y043460D01*
X017553Y043477D02*
X017736Y043401D01*
X017934Y043401D01*
X018116Y043477D01*
X018256Y043617D01*
X018332Y043799D01*
X018332Y043997D01*
X018256Y044180D01*
X018116Y044319D01*
X017934Y044395D01*
X017736Y044395D01*
X017553Y044319D01*
X017414Y044180D01*
X017338Y043997D01*
X017338Y043799D01*
X017414Y043617D01*
X017553Y043477D01*
X017414Y043616D02*
X017255Y043616D01*
X017320Y043772D02*
X017349Y043772D01*
X017332Y043928D02*
X017338Y043928D01*
X017374Y044084D02*
X017296Y044084D01*
X017196Y044240D02*
X017474Y044240D01*
X018075Y043460D02*
X018595Y043460D01*
X018414Y043616D02*
X018255Y043616D01*
X018320Y043772D02*
X018349Y043772D01*
X018332Y043928D02*
X018338Y043928D01*
X018374Y044084D02*
X018296Y044084D01*
X018196Y044240D02*
X018474Y044240D01*
X016361Y040028D02*
X022048Y040028D01*
X022100Y039872D02*
X016449Y039872D01*
X016762Y038781D02*
X006044Y038781D01*
X006023Y038801D02*
X005904Y038850D01*
X005774Y038850D01*
X005654Y038801D01*
X005602Y038749D01*
X005551Y038801D01*
X005431Y038850D01*
X005301Y038850D01*
X005182Y038801D01*
X005090Y038709D01*
X005040Y038589D01*
X005040Y038459D01*
X005070Y038386D01*
X005040Y038314D01*
X005040Y038184D01*
X005070Y038111D01*
X005040Y038038D01*
X005040Y037908D01*
X005090Y037788D01*
X005182Y037697D01*
X005301Y037647D01*
X005431Y037647D01*
X005551Y037697D01*
X005602Y037748D01*
X005654Y037697D01*
X005774Y037647D01*
X005904Y037647D01*
X006023Y037697D01*
X006115Y037788D01*
X006165Y037908D01*
X006165Y038038D01*
X006135Y038111D01*
X006165Y038184D01*
X006165Y038314D01*
X006135Y038386D01*
X006165Y038459D01*
X006165Y038589D01*
X006115Y038709D01*
X006023Y038801D01*
X006150Y038625D02*
X016906Y038625D01*
X017212Y038625D02*
X022167Y038625D01*
X022096Y038469D02*
X006165Y038469D01*
X006165Y038313D02*
X009991Y038313D01*
X010006Y038319D02*
X009886Y038269D01*
X009795Y038177D01*
X009764Y038103D01*
X009689Y038072D01*
X009598Y037981D01*
X009548Y037861D01*
X009548Y037731D01*
X009598Y037611D01*
X009689Y037520D01*
X009809Y037470D01*
X009939Y037470D01*
X010059Y037520D01*
X010071Y037532D01*
X010083Y037520D01*
X010203Y037470D01*
X010333Y037470D01*
X010429Y037510D01*
X010444Y037473D01*
X010536Y037382D01*
X010656Y037332D01*
X010785Y037332D01*
X010905Y037382D01*
X010997Y037473D01*
X011047Y037593D01*
X011047Y037723D01*
X010997Y037843D01*
X010905Y037935D01*
X010791Y037982D01*
X010791Y038058D01*
X010741Y038177D01*
X010649Y038269D01*
X010530Y038319D01*
X010400Y038319D01*
X010280Y038269D01*
X010268Y038257D01*
X010256Y038269D01*
X010136Y038319D01*
X010006Y038319D01*
X010151Y038313D02*
X010385Y038313D01*
X010545Y038313D02*
X022048Y038313D01*
X022076Y038157D02*
X010750Y038157D01*
X010791Y038001D02*
X022216Y038001D01*
X022565Y037377D02*
X023867Y037377D01*
X023867Y037221D02*
X022680Y037221D01*
X022700Y037065D02*
X023867Y037065D01*
X023867Y036909D02*
X022637Y036909D01*
X022599Y036753D02*
X023867Y036753D01*
X023867Y036597D02*
X022694Y036597D01*
X022696Y036441D02*
X023867Y036441D01*
X023867Y036285D02*
X022604Y036285D01*
X022657Y035505D02*
X023867Y035505D01*
X023867Y035349D02*
X022700Y035349D01*
X022668Y035193D02*
X023867Y035193D01*
X023867Y035037D02*
X022521Y035037D01*
X022671Y034881D02*
X023867Y034881D01*
X023867Y034725D02*
X022700Y034725D01*
X022654Y034569D02*
X023867Y034569D01*
X023867Y034413D02*
X014996Y034413D01*
X015027Y034569D02*
X022094Y034569D01*
X022048Y034725D02*
X014982Y034725D01*
X014841Y034257D02*
X018571Y034257D01*
X018554Y034240D02*
X018505Y034121D01*
X018505Y033991D01*
X018554Y033871D01*
X018646Y033779D01*
X018766Y033730D01*
X018896Y033730D01*
X019015Y033779D01*
X019107Y033871D01*
X019157Y033991D01*
X019157Y034121D01*
X019107Y034240D01*
X019015Y034332D01*
X018896Y034382D01*
X018766Y034382D01*
X018646Y034332D01*
X018554Y034240D01*
X018505Y034101D02*
X014728Y034101D01*
X014709Y033945D02*
X018524Y033945D01*
X018636Y033789D02*
X014596Y033789D01*
X014207Y033789D02*
X013218Y033789D01*
X013208Y033779D02*
X013300Y033871D01*
X013350Y033991D01*
X013350Y034121D01*
X013300Y034240D01*
X013208Y034332D01*
X013089Y034382D01*
X012959Y034382D01*
X012839Y034332D01*
X012747Y034240D01*
X012698Y034121D01*
X012698Y033991D01*
X012743Y033882D01*
X012642Y033840D01*
X012550Y033748D01*
X012501Y033629D01*
X012501Y033499D01*
X012550Y033379D01*
X012642Y033287D01*
X012762Y033238D01*
X012892Y033238D01*
X013012Y033287D01*
X013103Y033379D01*
X013153Y033499D01*
X013153Y033629D01*
X013108Y033738D01*
X013208Y033779D01*
X013151Y033633D02*
X022050Y033633D01*
X022048Y033629D02*
X022048Y033499D01*
X022098Y033379D01*
X022189Y033287D01*
X022235Y033268D01*
X022189Y033250D01*
X022098Y033158D01*
X022048Y033038D01*
X022048Y032908D01*
X022098Y032788D01*
X022189Y032697D01*
X013541Y032697D01*
X013547Y032711D02*
X013497Y032592D01*
X013405Y032500D01*
X013285Y032450D01*
X013156Y032450D01*
X013036Y032500D01*
X012944Y032592D01*
X012895Y032711D01*
X012895Y032841D01*
X012944Y032961D01*
X013036Y033053D01*
X013156Y033102D01*
X013285Y033102D01*
X013405Y033053D01*
X013497Y032961D01*
X013547Y032841D01*
X013547Y032711D01*
X013542Y032853D02*
X022071Y032853D01*
X022048Y033009D02*
X013449Y033009D01*
X013447Y032541D02*
X018627Y032541D01*
X018520Y032385D02*
X011300Y032385D01*
X011450Y032541D02*
X012994Y032541D01*
X012900Y032697D02*
X011728Y032697D01*
X011775Y032853D02*
X012900Y032853D01*
X012992Y033009D02*
X011746Y033009D01*
X011599Y033165D02*
X022105Y033165D01*
X022155Y033321D02*
X013046Y033321D01*
X013144Y033477D02*
X022057Y033477D01*
X022048Y033629D02*
X022098Y033748D01*
X022189Y033840D01*
X022309Y033890D01*
X022439Y033890D01*
X022559Y033840D01*
X022651Y033748D01*
X022700Y033629D01*
X022700Y033499D01*
X022651Y033379D01*
X022559Y033287D01*
X022513Y033268D01*
X022559Y033250D01*
X022651Y033158D01*
X022700Y033038D01*
X022700Y032908D01*
X022651Y032788D01*
X022559Y032697D01*
X022439Y032647D01*
X022309Y032647D01*
X022189Y032697D01*
X022201Y032073D02*
X019081Y032073D01*
X019157Y032229D02*
X023867Y032229D01*
X023867Y032073D02*
X022547Y032073D01*
X022675Y031917D02*
X023867Y031917D01*
X023867Y031761D02*
X022700Y031761D01*
X022649Y031605D02*
X023867Y031605D01*
X023867Y031449D02*
X022587Y031449D01*
X022689Y031294D02*
X023867Y031294D01*
X023867Y031138D02*
X022700Y031138D01*
X022615Y030982D02*
X023867Y030982D01*
X023867Y030202D02*
X022652Y030202D01*
X022700Y030046D02*
X023867Y030046D01*
X023867Y029890D02*
X022673Y029890D01*
X022534Y029734D02*
X023867Y029734D01*
X023867Y029578D02*
X022666Y029578D01*
X022700Y029422D02*
X023867Y029422D01*
X023867Y029266D02*
X022659Y029266D01*
X022454Y029110D02*
X023867Y029110D01*
X023867Y028954D02*
X019079Y028954D01*
X019107Y028926D02*
X019015Y029017D01*
X018896Y029067D01*
X018766Y029067D01*
X018646Y029017D01*
X018554Y028926D01*
X018505Y028806D01*
X018505Y028676D01*
X018554Y028556D01*
X018646Y028464D01*
X018766Y028415D01*
X018896Y028415D01*
X019015Y028464D01*
X019107Y028556D01*
X019157Y028676D01*
X019157Y028806D01*
X019107Y028926D01*
X019157Y028798D02*
X023867Y028798D01*
X023867Y028642D02*
X019143Y028642D01*
X019037Y028486D02*
X022150Y028486D01*
X022189Y028525D02*
X022098Y028433D01*
X022048Y028314D01*
X022048Y028184D01*
X022098Y028064D01*
X022189Y027972D01*
X022235Y027953D01*
X022189Y027935D01*
X022098Y027843D01*
X022048Y027723D01*
X022048Y027593D01*
X022098Y027473D01*
X022189Y027382D01*
X022309Y027332D01*
X022439Y027332D01*
X022559Y027382D01*
X022651Y027473D01*
X022700Y027593D01*
X022700Y027723D01*
X022651Y027843D01*
X022559Y027935D01*
X022513Y027953D01*
X022559Y027972D01*
X022651Y028064D01*
X022700Y028184D01*
X022700Y028314D01*
X022651Y028433D01*
X022559Y028525D01*
X022439Y028575D01*
X022309Y028575D01*
X022189Y028525D01*
X022055Y028330D02*
X013834Y028330D01*
X013838Y028328D02*
X013718Y028378D01*
X013589Y028378D01*
X013469Y028328D01*
X013377Y028237D01*
X013328Y028117D01*
X013328Y027987D01*
X013377Y027867D01*
X013469Y027775D01*
X013589Y027726D01*
X013718Y027726D01*
X013838Y027775D01*
X013930Y027867D01*
X013980Y027987D01*
X013980Y028117D01*
X013930Y028237D01*
X013838Y028328D01*
X013956Y028174D02*
X022052Y028174D01*
X022144Y028018D02*
X013980Y028018D01*
X013925Y027862D02*
X022117Y027862D01*
X022048Y027706D02*
X011971Y027706D01*
X011972Y027703D02*
X011922Y027823D01*
X011830Y027915D01*
X011711Y027965D01*
X011581Y027965D01*
X011461Y027915D01*
X011369Y027823D01*
X011320Y027703D01*
X011320Y027574D01*
X011369Y027454D01*
X011461Y027362D01*
X011483Y027353D01*
X011461Y027344D01*
X011369Y027252D01*
X011320Y027132D01*
X011320Y027003D01*
X011369Y026883D01*
X011461Y026791D01*
X011557Y026751D01*
X011468Y026662D01*
X011418Y026542D01*
X011418Y026412D01*
X011468Y026292D01*
X011480Y026280D01*
X011468Y026268D01*
X011418Y026148D01*
X011418Y026018D01*
X011468Y025899D01*
X011559Y025807D01*
X011679Y025757D01*
X011809Y025757D01*
X011929Y025807D01*
X012021Y025899D01*
X012070Y026018D01*
X012070Y026148D01*
X012021Y026268D01*
X012008Y026280D01*
X012021Y026292D01*
X012070Y026412D01*
X012070Y026542D01*
X012021Y026662D01*
X011929Y026753D01*
X011833Y026793D01*
X011922Y026883D01*
X011972Y027003D01*
X011972Y027132D01*
X011922Y027252D01*
X011830Y027344D01*
X011809Y027353D01*
X011830Y027362D01*
X011922Y027454D01*
X011972Y027574D01*
X011972Y027703D01*
X011962Y027550D02*
X018767Y027550D01*
X018745Y027541D02*
X018653Y027449D01*
X018603Y027329D01*
X018603Y027200D01*
X018653Y027080D01*
X018745Y026988D01*
X018864Y026938D01*
X018994Y026938D01*
X019114Y026988D01*
X019206Y027080D01*
X019255Y027200D01*
X019255Y027329D01*
X019206Y027449D01*
X019114Y027541D01*
X018994Y027590D01*
X018864Y027590D01*
X018745Y027541D01*
X018630Y027394D02*
X011862Y027394D01*
X011928Y027238D02*
X018603Y027238D01*
X018652Y027082D02*
X011972Y027082D01*
X011940Y026926D02*
X023867Y026926D01*
X023867Y026770D02*
X022519Y026770D01*
X022670Y026614D02*
X023867Y026614D01*
X023867Y026458D02*
X022700Y026458D01*
X022655Y026302D02*
X023867Y026302D01*
X023867Y026146D02*
X022576Y026146D01*
X022684Y025990D02*
X023867Y025990D01*
X023867Y025834D02*
X022700Y025834D01*
X022121Y025678D02*
X018998Y025678D01*
X019107Y025579D02*
X019157Y025459D01*
X019157Y025329D01*
X019107Y025210D01*
X019015Y025118D01*
X018896Y025068D01*
X018766Y025068D01*
X018646Y025118D01*
X018554Y025210D01*
X018505Y025366D02*
X005976Y025366D01*
X005976Y025210D02*
X006473Y025210D01*
X006398Y025054D02*
X005976Y025054D01*
X005976Y024898D02*
X006414Y024898D01*
X006522Y024742D02*
X005976Y024742D01*
X005976Y025522D02*
X018531Y025522D01*
X018664Y025678D02*
X014694Y025678D01*
X014717Y025702D02*
X014767Y025822D01*
X014767Y025951D01*
X014717Y026071D01*
X014626Y026163D01*
X014506Y026213D01*
X014376Y026213D01*
X014256Y026163D01*
X014165Y026071D01*
X014115Y025951D01*
X014115Y025822D01*
X014165Y025702D01*
X014256Y025610D01*
X014376Y025560D01*
X014506Y025560D01*
X014626Y025610D01*
X014717Y025702D01*
X014767Y025834D02*
X022048Y025834D01*
X022064Y025990D02*
X014751Y025990D01*
X014642Y026146D02*
X022173Y026146D01*
X022094Y026302D02*
X012025Y026302D01*
X012070Y026146D02*
X014240Y026146D01*
X014131Y025990D02*
X012059Y025990D01*
X011956Y025834D02*
X014115Y025834D01*
X014188Y025678D02*
X005976Y025678D01*
X005976Y025834D02*
X009032Y025834D01*
X009040Y025827D02*
X009160Y025777D01*
X009289Y025777D01*
X009409Y025827D01*
X009501Y025918D01*
X009551Y026038D01*
X009551Y026168D01*
X009501Y026288D01*
X009409Y026379D01*
X009289Y026429D01*
X009160Y026429D01*
X009040Y026379D01*
X008948Y026288D01*
X008898Y026168D01*
X008898Y026038D01*
X008948Y025918D01*
X009040Y025827D01*
X008918Y025990D02*
X005976Y025990D01*
X005976Y026146D02*
X008898Y026146D01*
X008962Y026302D02*
X005976Y026302D01*
X005976Y026458D02*
X011418Y026458D01*
X011448Y026614D02*
X008307Y026614D01*
X008320Y026627D02*
X008369Y026747D01*
X008369Y026877D01*
X008320Y026996D01*
X008228Y027088D01*
X008108Y027138D01*
X007979Y027138D01*
X007859Y027088D01*
X007767Y026996D01*
X007717Y026877D01*
X007717Y026747D01*
X007767Y026627D01*
X007859Y026535D01*
X007979Y026486D01*
X008108Y026486D01*
X008228Y026535D01*
X008320Y026627D01*
X008369Y026770D02*
X011512Y026770D01*
X011351Y026926D02*
X008349Y026926D01*
X008234Y027082D02*
X011320Y027082D01*
X011363Y027238D02*
X006759Y027238D01*
X006814Y027082D02*
X007853Y027082D01*
X007738Y026926D02*
X006791Y026926D01*
X006670Y026770D02*
X007717Y026770D01*
X007780Y026614D02*
X005976Y026614D01*
X005976Y027394D02*
X011429Y027394D01*
X011329Y027550D02*
X005976Y027550D01*
X005976Y027706D02*
X011321Y027706D01*
X011408Y027862D02*
X009499Y027862D01*
X009527Y027874D02*
X009619Y027966D01*
X009669Y028085D01*
X009669Y028215D01*
X009619Y028335D01*
X009527Y028427D01*
X009407Y028476D01*
X009278Y028476D01*
X009158Y028427D01*
X009066Y028335D01*
X009017Y028215D01*
X009017Y028085D01*
X009066Y027966D01*
X009158Y027874D01*
X009278Y027824D01*
X009407Y027824D01*
X009527Y027874D01*
X009641Y028018D02*
X013328Y028018D01*
X013351Y028174D02*
X009669Y028174D01*
X009621Y028330D02*
X013473Y028330D01*
X013382Y027862D02*
X011883Y027862D01*
X011711Y028415D02*
X011581Y028415D01*
X011461Y028464D01*
X011369Y028556D01*
X011320Y028676D01*
X011320Y028806D01*
X011369Y028926D01*
X011461Y029017D01*
X011581Y029067D01*
X011711Y029067D01*
X011830Y029017D01*
X011922Y028926D01*
X011972Y028806D01*
X011972Y028676D01*
X011922Y028556D01*
X011830Y028464D01*
X011711Y028415D01*
X011852Y028486D02*
X018625Y028486D01*
X018519Y028642D02*
X012866Y028642D01*
X012913Y028661D02*
X013005Y028753D01*
X013054Y028873D01*
X013054Y029003D01*
X013005Y029122D01*
X012913Y029214D01*
X012793Y029264D01*
X012664Y029264D01*
X012544Y029214D01*
X012452Y029122D01*
X012402Y029003D01*
X012402Y028873D01*
X012452Y028753D01*
X012544Y028661D01*
X012664Y028612D01*
X012793Y028612D01*
X012913Y028661D01*
X013023Y028798D02*
X018505Y028798D01*
X018583Y028954D02*
X013054Y028954D01*
X013010Y029110D02*
X022295Y029110D01*
X022089Y029266D02*
X009669Y029266D01*
X009669Y029207D02*
X009619Y029088D01*
X009587Y029056D01*
X009619Y029024D01*
X009669Y028904D01*
X009669Y028774D01*
X009619Y028655D01*
X009527Y028563D01*
X009407Y028513D01*
X009278Y028513D01*
X009158Y028563D01*
X009066Y028655D01*
X009017Y028774D01*
X009017Y028904D01*
X009066Y029024D01*
X009098Y029056D01*
X009066Y029088D01*
X009017Y029207D01*
X009017Y029337D01*
X009066Y029457D01*
X009158Y029549D01*
X009278Y029598D01*
X009407Y029598D01*
X009527Y029549D01*
X009619Y029457D01*
X009669Y029337D01*
X009669Y029207D01*
X009628Y029110D02*
X012447Y029110D01*
X012402Y028954D02*
X011894Y028954D01*
X011972Y028798D02*
X012433Y028798D01*
X012591Y028642D02*
X011958Y028642D01*
X011440Y028486D02*
X005976Y028486D01*
X005976Y028642D02*
X009079Y028642D01*
X009017Y028798D02*
X005976Y028798D01*
X005976Y028954D02*
X009037Y028954D01*
X009057Y029110D02*
X005976Y029110D01*
X005976Y029266D02*
X009017Y029266D01*
X009052Y029422D02*
X005947Y029422D01*
X005876Y029578D02*
X009228Y029578D01*
X009457Y029578D02*
X013104Y029578D01*
X013337Y029578D02*
X022082Y029578D01*
X022048Y029422D02*
X009634Y029422D01*
X009648Y028954D02*
X011398Y028954D01*
X011320Y028798D02*
X009669Y028798D01*
X009606Y028642D02*
X011334Y028642D01*
X011889Y026770D02*
X022230Y026770D01*
X022078Y026614D02*
X012040Y026614D01*
X012070Y026458D02*
X022048Y026458D01*
X022177Y027394D02*
X019228Y027394D01*
X019255Y027238D02*
X023867Y027238D01*
X023867Y027082D02*
X019207Y027082D01*
X019092Y027550D02*
X022066Y027550D01*
X022571Y027394D02*
X023867Y027394D01*
X023867Y027550D02*
X022682Y027550D01*
X022700Y027706D02*
X023867Y027706D01*
X023867Y027862D02*
X022631Y027862D01*
X022604Y028018D02*
X023867Y028018D01*
X023867Y028174D02*
X022696Y028174D01*
X022693Y028330D02*
X023867Y028330D01*
X023867Y028486D02*
X022598Y028486D01*
X022214Y029734D02*
X013512Y029734D01*
X013547Y029890D02*
X022075Y029890D01*
X022059Y031294D02*
X010783Y031294D01*
X010820Y031449D02*
X022161Y031449D01*
X022100Y031605D02*
X010782Y031605D01*
X011471Y033321D02*
X012608Y033321D01*
X012510Y033477D02*
X011569Y033477D01*
X011576Y033633D02*
X012503Y033633D01*
X012591Y033789D02*
X011488Y033789D01*
X011264Y033945D02*
X012717Y033945D01*
X012698Y034101D02*
X011283Y034101D01*
X011217Y034257D02*
X012764Y034257D01*
X012678Y034725D02*
X013724Y034725D01*
X014095Y034725D02*
X014420Y034725D01*
X014375Y034569D02*
X014213Y034569D01*
X014236Y034413D02*
X014405Y034413D01*
X014076Y034101D02*
X013350Y034101D01*
X013331Y033945D02*
X014095Y033945D01*
X013641Y034257D02*
X013283Y034257D01*
X012759Y034881D02*
X022078Y034881D01*
X022228Y035037D02*
X012747Y035037D01*
X012643Y035193D02*
X022080Y035193D01*
X022139Y033789D02*
X019025Y033789D01*
X019138Y033945D02*
X023867Y033945D01*
X023867Y033789D02*
X022610Y033789D01*
X022698Y033633D02*
X023867Y033633D01*
X023867Y033477D02*
X022691Y033477D01*
X022593Y033321D02*
X023867Y033321D01*
X023867Y033165D02*
X022643Y033165D01*
X022700Y033009D02*
X023867Y033009D01*
X023867Y032853D02*
X022677Y032853D01*
X022559Y032697D02*
X023867Y032697D01*
X023867Y032541D02*
X019035Y032541D01*
X019142Y032385D02*
X023867Y032385D01*
X023867Y034101D02*
X019157Y034101D01*
X019091Y034257D02*
X023867Y034257D01*
X022062Y038781D02*
X017357Y038781D01*
X018615Y037845D02*
X010995Y037845D01*
X011047Y037689D02*
X018515Y037689D01*
X018505Y037533D02*
X011022Y037533D01*
X010893Y037377D02*
X018592Y037377D01*
X018565Y035661D02*
X002566Y035661D01*
X002793Y035193D02*
X000802Y035193D01*
X000802Y035037D02*
X000926Y035037D01*
X000810Y034881D02*
X000802Y034881D01*
X000802Y034569D02*
X000848Y034569D01*
X000802Y034413D02*
X001424Y034413D01*
X001179Y034257D02*
X000802Y034257D01*
X000802Y034101D02*
X001023Y034101D01*
X000913Y033945D02*
X000802Y033945D01*
X000802Y033789D02*
X000823Y033789D01*
X000802Y032697D02*
X000852Y032697D01*
X000802Y032541D02*
X000942Y032541D01*
X001074Y032385D02*
X000802Y032385D01*
X000802Y032229D02*
X001241Y032229D01*
X001516Y032073D02*
X000802Y032073D01*
X000802Y030982D02*
X001746Y030982D01*
X001347Y030826D02*
X000802Y030826D01*
X000802Y030670D02*
X001135Y030670D01*
X000979Y030514D02*
X000802Y030514D01*
X000802Y030358D02*
X000888Y030358D01*
X000803Y030202D02*
X000802Y030202D01*
X000802Y029110D02*
X000878Y029110D01*
X000802Y028954D02*
X000968Y028954D01*
X001118Y028798D02*
X000802Y028798D01*
X000802Y028642D02*
X001317Y028642D01*
X001681Y028486D02*
X000802Y028486D01*
X000802Y028330D02*
X003249Y028330D01*
X003093Y028486D02*
X002319Y028486D01*
X002683Y028642D02*
X002937Y028642D01*
X003038Y028024D02*
X002918Y027974D01*
X002826Y027882D01*
X002776Y027762D01*
X002776Y027633D01*
X002826Y027513D01*
X002918Y027421D01*
X003038Y027371D01*
X003167Y027371D01*
X003287Y027421D01*
X003379Y027513D01*
X003429Y027633D01*
X003429Y027762D01*
X003379Y027882D01*
X003287Y027974D01*
X003167Y028024D01*
X003038Y028024D01*
X003024Y028018D02*
X000802Y028018D01*
X000802Y028174D02*
X003405Y028174D01*
X003476Y028018D02*
X003181Y028018D01*
X003387Y027862D02*
X003476Y027862D01*
X003476Y027706D02*
X003429Y027706D01*
X003394Y027550D02*
X003476Y027550D01*
X003476Y027394D02*
X003222Y027394D01*
X002983Y027394D02*
X000802Y027394D01*
X000802Y027550D02*
X002811Y027550D01*
X002776Y027706D02*
X000802Y027706D01*
X000802Y027862D02*
X002818Y027862D01*
X002659Y027082D02*
X003476Y027082D01*
X003476Y026926D02*
X002868Y026926D01*
X003024Y026770D02*
X003476Y026770D01*
X003476Y026614D02*
X003114Y026614D01*
X003198Y026458D02*
X003476Y026458D01*
X003476Y026302D02*
X003240Y026302D01*
X003280Y026146D02*
X003476Y026146D01*
X003476Y025990D02*
X003280Y025990D01*
X003280Y025834D02*
X003476Y025834D01*
X003476Y025678D02*
X003243Y025678D01*
X003201Y025522D02*
X003476Y025522D01*
X003476Y025366D02*
X003120Y025366D01*
X003030Y025210D02*
X003476Y025210D01*
X003476Y025054D02*
X002879Y025054D01*
X002677Y024898D02*
X003476Y024898D01*
X003476Y024742D02*
X002306Y024742D01*
X001694Y024742D02*
X000802Y024742D01*
X000802Y024586D02*
X003476Y024586D01*
X003476Y024430D02*
X000802Y024430D01*
X000802Y024274D02*
X003476Y024274D01*
X003476Y024118D02*
X000802Y024118D01*
X000802Y023962D02*
X003476Y023962D01*
X003476Y023806D02*
X000802Y023806D01*
X000802Y023650D02*
X001568Y023650D01*
X001265Y023494D02*
X000802Y023494D01*
X000802Y023338D02*
X001087Y023338D01*
X000950Y023183D02*
X000802Y023183D01*
X000802Y023027D02*
X000860Y023027D01*
X000815Y021935D02*
X000802Y021935D01*
X000802Y021779D02*
X000905Y021779D01*
X000802Y021623D02*
X001009Y021623D01*
X001165Y021467D02*
X000802Y021467D01*
X000802Y021311D02*
X001400Y021311D01*
X000802Y021155D02*
X003476Y021155D01*
X003476Y021311D02*
X002600Y021311D01*
X002835Y021467D02*
X003476Y021467D01*
X003476Y021623D02*
X002991Y021623D01*
X003095Y021779D02*
X003476Y021779D01*
X003476Y021935D02*
X003185Y021935D01*
X003231Y022091D02*
X003476Y022091D01*
X003476Y022247D02*
X003273Y022247D01*
X003280Y022403D02*
X003476Y022403D01*
X003476Y022559D02*
X003280Y022559D01*
X003252Y022715D02*
X003476Y022715D01*
X003476Y022871D02*
X003210Y022871D01*
X003140Y023027D02*
X003476Y023027D01*
X003476Y023183D02*
X003050Y023183D01*
X002913Y023338D02*
X003476Y023338D01*
X003476Y023494D02*
X002736Y023494D01*
X002432Y023650D02*
X003476Y023650D01*
X004658Y023650D02*
X004795Y023650D01*
X004795Y023494D02*
X004658Y023494D01*
X004658Y023338D02*
X004795Y023338D01*
X004795Y023183D02*
X004658Y023183D01*
X004658Y023027D02*
X004795Y023027D01*
X004795Y022871D02*
X004658Y022871D01*
X004658Y022715D02*
X004795Y022715D01*
X004795Y022559D02*
X004658Y022559D01*
X004658Y022403D02*
X004795Y022403D01*
X004795Y022247D02*
X004658Y022247D01*
X004795Y022186D02*
X004863Y022024D01*
X004863Y022024D01*
X004863Y022024D01*
X004885Y021969D01*
X004942Y021912D01*
X004948Y021896D01*
X005009Y021829D01*
X005063Y021757D01*
X005087Y021743D01*
X005874Y020875D01*
X006086Y020775D01*
X006321Y020763D01*
X006542Y020843D01*
X007864Y020843D01*
X007880Y020836D02*
X008010Y020836D01*
X008130Y020886D01*
X008221Y020977D01*
X008271Y021097D01*
X008271Y021227D01*
X008255Y021266D01*
X008287Y021279D01*
X008379Y021371D01*
X008429Y021491D01*
X008429Y021621D01*
X008379Y021740D01*
X008287Y021832D01*
X008167Y021882D01*
X008038Y021882D01*
X007918Y021832D01*
X007826Y021740D01*
X007776Y021621D01*
X007776Y021491D01*
X007793Y021452D01*
X007760Y021438D01*
X007669Y021347D01*
X007619Y021227D01*
X007619Y021097D01*
X007669Y020977D01*
X007760Y020886D01*
X007880Y020836D01*
X008026Y020843D02*
X009291Y020843D01*
X009296Y020848D02*
X009204Y020756D01*
X009154Y020636D01*
X009154Y020507D01*
X009204Y020387D01*
X009296Y020295D01*
X009416Y020245D01*
X009545Y020245D01*
X009665Y020295D01*
X009757Y020387D01*
X009806Y020507D01*
X009806Y020636D01*
X009757Y020756D01*
X009665Y020848D01*
X009545Y020898D01*
X009416Y020898D01*
X009296Y020848D01*
X009175Y020687D02*
X005082Y020687D01*
X004926Y020843D02*
X005942Y020843D01*
X005762Y020999D02*
X004770Y020999D01*
X004658Y021155D02*
X005620Y021155D01*
X005479Y021311D02*
X004658Y021311D01*
X004658Y021467D02*
X005337Y021467D01*
X005196Y021623D02*
X004658Y021623D01*
X004658Y021779D02*
X005046Y021779D01*
X004920Y021935D02*
X004658Y021935D01*
X004658Y022091D02*
X004835Y022091D01*
X004795Y022186D02*
X004795Y028932D01*
X004718Y029010D01*
X004658Y029155D01*
X004658Y029311D01*
X004718Y029456D01*
X004828Y029567D01*
X004924Y029606D01*
X005051Y029734D01*
X005268Y029823D01*
X005503Y029823D01*
X005720Y029734D01*
X005052Y029734D02*
X003516Y029734D01*
X003672Y029578D02*
X004855Y029578D01*
X004703Y029422D02*
X003828Y029422D01*
X003984Y029266D02*
X004658Y029266D01*
X004676Y029110D02*
X004140Y029110D01*
X004296Y028954D02*
X004774Y028954D01*
X004795Y028798D02*
X004451Y028798D01*
X004584Y028642D02*
X004795Y028642D01*
X004795Y028486D02*
X004649Y028486D01*
X004658Y028330D02*
X004795Y028330D01*
X004795Y028174D02*
X004658Y028174D01*
X004658Y028018D02*
X004795Y028018D01*
X004795Y027862D02*
X004658Y027862D01*
X004658Y027706D02*
X004795Y027706D01*
X004795Y027550D02*
X004658Y027550D01*
X004658Y027394D02*
X004795Y027394D01*
X004795Y027238D02*
X004658Y027238D01*
X004658Y027082D02*
X004795Y027082D01*
X004795Y026926D02*
X004658Y026926D01*
X004658Y026770D02*
X004795Y026770D01*
X004795Y026614D02*
X004658Y026614D01*
X004658Y026458D02*
X004795Y026458D01*
X004795Y026302D02*
X004658Y026302D01*
X004658Y026146D02*
X004795Y026146D01*
X004795Y025990D02*
X004658Y025990D01*
X004658Y025834D02*
X004795Y025834D01*
X004795Y025678D02*
X004658Y025678D01*
X004658Y025522D02*
X004795Y025522D01*
X004795Y025366D02*
X004658Y025366D01*
X004658Y025210D02*
X004795Y025210D01*
X004795Y025054D02*
X004658Y025054D01*
X004658Y024898D02*
X004795Y024898D01*
X004795Y024742D02*
X004658Y024742D01*
X004658Y024586D02*
X004795Y024586D01*
X004795Y024430D02*
X004658Y024430D01*
X004658Y024274D02*
X004795Y024274D01*
X004795Y024118D02*
X004658Y024118D01*
X004658Y023962D02*
X004795Y023962D01*
X004795Y023806D02*
X004658Y023806D01*
X005976Y023650D02*
X014076Y023650D01*
X014076Y023688D02*
X014076Y023558D01*
X014125Y023438D01*
X014217Y023346D01*
X014337Y023297D01*
X014467Y023297D01*
X014586Y023346D01*
X014678Y023438D01*
X014728Y023558D01*
X014728Y023688D01*
X014678Y023807D01*
X014586Y023899D01*
X014467Y023949D01*
X014337Y023949D01*
X014217Y023899D01*
X014125Y023807D01*
X014076Y023688D01*
X014125Y023806D02*
X012980Y023806D01*
X013054Y023962D02*
X016365Y023962D01*
X016371Y023806D02*
X014678Y023806D01*
X014728Y023650D02*
X016435Y023650D01*
X016524Y023494D02*
X014701Y023494D01*
X014568Y023338D02*
X016411Y023338D01*
X016365Y023183D02*
X013054Y023183D01*
X013038Y023027D02*
X016368Y023027D01*
X016432Y022871D02*
X012930Y022871D01*
X012793Y022669D02*
X012664Y022669D01*
X012544Y022620D01*
X012452Y022528D01*
X012402Y022408D01*
X012402Y022278D01*
X012452Y022158D01*
X012544Y022067D01*
X012664Y022017D01*
X012793Y022017D01*
X012913Y022067D01*
X013005Y022158D01*
X013054Y022278D01*
X013054Y022408D01*
X013005Y022528D01*
X012913Y022620D01*
X012793Y022669D01*
X012974Y022559D02*
X016414Y022559D01*
X016365Y022403D02*
X013054Y022403D01*
X013041Y022247D02*
X016365Y022247D01*
X016429Y022091D02*
X012937Y022091D01*
X012520Y022091D02*
X011251Y022091D01*
X011233Y022134D02*
X011172Y022196D01*
X011233Y022257D01*
X011283Y022377D01*
X011283Y022506D01*
X011233Y022626D01*
X011141Y022718D01*
X011022Y022768D01*
X010892Y022768D01*
X010772Y022718D01*
X010680Y022626D01*
X010631Y022506D01*
X010631Y022377D01*
X010680Y022257D01*
X010742Y022196D01*
X010680Y022134D01*
X010631Y022014D01*
X010631Y021885D01*
X010680Y021765D01*
X010772Y021673D01*
X010892Y021623D01*
X011022Y021623D01*
X011141Y021673D01*
X011233Y021765D01*
X011283Y021885D01*
X011283Y022014D01*
X011233Y022134D01*
X011223Y022247D02*
X012415Y022247D01*
X012402Y022403D02*
X011283Y022403D01*
X011261Y022559D02*
X012483Y022559D01*
X012527Y022871D02*
X009709Y022871D01*
X009665Y022915D02*
X009757Y022823D01*
X009806Y022703D01*
X009806Y022574D01*
X009757Y022454D01*
X009680Y022377D01*
X009708Y022310D01*
X009708Y022180D01*
X009658Y022060D01*
X009567Y021968D01*
X009447Y021919D01*
X009317Y021919D01*
X009197Y021968D01*
X009106Y022060D01*
X009064Y022161D01*
X008955Y022116D01*
X008825Y022116D01*
X008705Y022165D01*
X008613Y022257D01*
X008564Y022377D01*
X008564Y022506D01*
X008613Y022626D01*
X008705Y022718D01*
X008825Y022768D01*
X008955Y022768D01*
X009075Y022718D01*
X009154Y022638D01*
X009154Y022703D01*
X009204Y022823D01*
X009296Y022915D01*
X009416Y022965D01*
X009545Y022965D01*
X009665Y022915D01*
X009802Y022715D02*
X010769Y022715D01*
X010652Y022559D02*
X009800Y022559D01*
X009706Y022403D02*
X010631Y022403D01*
X010691Y022247D02*
X009708Y022247D01*
X009671Y022091D02*
X010662Y022091D01*
X010631Y021935D02*
X009485Y021935D01*
X009545Y021882D02*
X009416Y021882D01*
X009296Y021832D01*
X009204Y021740D01*
X009154Y021621D01*
X009154Y021491D01*
X009204Y021371D01*
X009296Y021279D01*
X009416Y021230D01*
X009545Y021230D01*
X009665Y021279D01*
X009757Y021371D01*
X009806Y021491D01*
X009806Y021621D01*
X009757Y021740D01*
X009665Y021832D01*
X009545Y021882D01*
X009719Y021779D02*
X010675Y021779D01*
X011239Y021779D02*
X016417Y021779D01*
X016365Y021623D02*
X009806Y021623D01*
X009796Y021467D02*
X016365Y021467D01*
X016260Y021340D02*
X016351Y021248D01*
X016401Y021129D01*
X016401Y020999D01*
X016351Y020879D01*
X016260Y020787D01*
X016140Y020738D01*
X016010Y020738D01*
X015890Y020787D01*
X015798Y020879D01*
X015749Y020999D01*
X015749Y021129D01*
X015798Y021248D01*
X015890Y021340D01*
X016010Y021390D01*
X016140Y021390D01*
X016260Y021340D01*
X016289Y021311D02*
X016426Y021311D01*
X016390Y021155D02*
X016561Y021155D01*
X016401Y020999D02*
X019292Y020999D01*
X019342Y020879D01*
X019434Y020787D01*
X019553Y020738D01*
X019683Y020738D01*
X019803Y020787D01*
X019895Y020879D01*
X019944Y020999D02*
X019944Y021129D01*
X019895Y021248D01*
X019803Y021340D01*
X019683Y021390D01*
X019553Y021390D01*
X019434Y021340D01*
X019342Y021248D01*
X019292Y021129D01*
X019292Y020999D01*
X019303Y021155D02*
X017164Y021155D01*
X017299Y021311D02*
X019404Y021311D01*
X019157Y021623D02*
X022177Y021623D01*
X022066Y021467D02*
X019104Y021467D01*
X018656Y021935D02*
X017186Y021935D01*
X017295Y022091D02*
X022166Y022091D01*
X022061Y022247D02*
X017359Y022247D01*
X017359Y022403D02*
X022048Y022403D01*
X022128Y022559D02*
X017311Y022559D01*
X017194Y022715D02*
X022132Y022715D01*
X022048Y022871D02*
X017292Y022871D01*
X017308Y021779D02*
X018529Y021779D01*
X018505Y021623D02*
X017359Y021623D01*
X017359Y021467D02*
X018557Y021467D01*
X019378Y020843D02*
X016315Y020843D01*
X016722Y020219D02*
X013444Y020219D01*
X013540Y020063D02*
X016653Y020063D01*
X016652Y019907D02*
X014876Y019907D01*
X014715Y019907D02*
X013543Y019907D01*
X013452Y019751D02*
X014510Y019751D01*
X014469Y019595D02*
X014363Y019595D01*
X014432Y019439D02*
X014504Y019439D01*
X014415Y019283D02*
X014678Y019283D01*
X014913Y019283D02*
X023867Y019283D01*
X023867Y019439D02*
X015087Y019439D01*
X014304Y019127D02*
X023867Y019127D01*
X023867Y018971D02*
X018432Y018971D01*
X018546Y018815D02*
X023867Y018815D01*
X023867Y018659D02*
X018566Y018659D01*
X018503Y018503D02*
X021124Y018503D01*
X021201Y018035D02*
X018482Y018035D01*
X018566Y017879D02*
X023867Y017879D01*
X023867Y018035D02*
X021578Y018035D01*
X021694Y018191D02*
X023867Y018191D01*
X023867Y018347D02*
X021716Y018347D01*
X021656Y018503D02*
X023867Y018503D01*
X023519Y019595D02*
X017190Y019595D01*
X016978Y019574D02*
X016829Y019636D01*
X016714Y019751D01*
X017466Y020063D02*
X019095Y020063D01*
X019143Y020219D02*
X017397Y020219D01*
X016539Y021935D02*
X011283Y021935D01*
X011145Y022715D02*
X016531Y022715D01*
X016408Y024118D02*
X013039Y024118D01*
X012932Y024274D02*
X016516Y024274D01*
X016438Y024430D02*
X013377Y024430D01*
X012856Y025054D02*
X012798Y025054D01*
X012982Y023338D02*
X014236Y023338D01*
X014102Y023494D02*
X005976Y023494D01*
X005976Y022520D02*
X006749Y021669D01*
X006788Y021558D01*
X006856Y021587D01*
X006986Y021587D01*
X007106Y021537D01*
X007198Y021445D01*
X007247Y021325D01*
X007247Y021196D01*
X007198Y021076D01*
X007106Y020984D01*
X006986Y020934D01*
X006856Y020934D01*
X006737Y020984D01*
X006717Y021003D01*
X006716Y021000D01*
X006542Y020843D01*
X006714Y020999D02*
X006722Y020999D01*
X007121Y020999D02*
X007660Y020999D01*
X007619Y021155D02*
X007230Y021155D01*
X007247Y021311D02*
X007654Y021311D01*
X007786Y021467D02*
X007176Y021467D01*
X006765Y021623D02*
X007777Y021623D01*
X007864Y021779D02*
X006649Y021779D01*
X006507Y021935D02*
X009279Y021935D01*
X009242Y021779D02*
X008341Y021779D01*
X008428Y021623D02*
X009155Y021623D01*
X009164Y021467D02*
X008418Y021467D01*
X008319Y021311D02*
X009264Y021311D01*
X009697Y021311D02*
X011825Y021311D01*
X011855Y021340D02*
X011763Y021248D01*
X011713Y021129D01*
X011713Y020999D01*
X011680Y020999D01*
X011713Y020999D02*
X011763Y020879D01*
X011855Y020787D01*
X011975Y020738D01*
X012104Y020738D01*
X012224Y020787D01*
X012316Y020879D01*
X012366Y020999D01*
X012366Y021129D01*
X012316Y021248D01*
X012224Y021340D01*
X012104Y021390D01*
X011975Y021390D01*
X011855Y021340D01*
X011724Y021155D02*
X008271Y021155D01*
X008230Y020999D02*
X011218Y020999D01*
X011127Y020843D02*
X009670Y020843D01*
X009786Y020687D02*
X011130Y020687D01*
X011225Y020531D02*
X009806Y020531D01*
X009745Y020375D02*
X011874Y020375D01*
X011812Y020219D02*
X005550Y020219D01*
X005394Y020375D02*
X009216Y020375D01*
X009154Y020531D02*
X005238Y020531D01*
X005706Y020063D02*
X011833Y020063D01*
X011948Y019907D02*
X005862Y019907D01*
X006509Y019439D02*
X006459Y019319D01*
X005752Y018347D02*
X000802Y018347D01*
X000802Y018191D02*
X005949Y018191D01*
X005986Y018035D02*
X000802Y018035D01*
X000802Y017879D02*
X006046Y017879D01*
X006208Y017723D02*
X002193Y017723D01*
X001611Y017723D02*
X000802Y017723D01*
X000802Y017567D02*
X001470Y017567D01*
X001452Y017099D02*
X000802Y017099D01*
X000802Y018503D02*
X005596Y018503D01*
X005440Y018659D02*
X000802Y018659D01*
X000802Y018815D02*
X005284Y018815D01*
X005128Y018971D02*
X000802Y018971D01*
X000802Y019127D02*
X004972Y019127D01*
X004816Y019283D02*
X000802Y019283D01*
X000802Y019439D02*
X004660Y019439D01*
X004504Y019595D02*
X000802Y019595D01*
X000802Y019751D02*
X004348Y019751D01*
X004192Y019907D02*
X000802Y019907D01*
X000802Y020063D02*
X004036Y020063D01*
X003880Y020219D02*
X000802Y020219D01*
X000802Y020375D02*
X003724Y020375D01*
X003568Y020531D02*
X000802Y020531D01*
X000802Y020687D02*
X003502Y020687D01*
X003476Y020843D02*
X000802Y020843D01*
X000802Y020999D02*
X003476Y020999D01*
X001323Y024898D02*
X000802Y024898D01*
X000802Y025054D02*
X001121Y025054D01*
X000970Y025210D02*
X000802Y025210D01*
X000802Y025366D02*
X000880Y025366D01*
X000886Y026614D02*
X000802Y026614D01*
X000802Y026770D02*
X000976Y026770D01*
X001132Y026926D02*
X000802Y026926D01*
X000802Y027082D02*
X001341Y027082D01*
X001733Y027238D02*
X000802Y027238D01*
X002267Y027238D02*
X003476Y027238D01*
X005976Y027862D02*
X009187Y027862D01*
X009045Y028018D02*
X005976Y028018D01*
X005976Y028174D02*
X009017Y028174D01*
X009064Y028330D02*
X005976Y028330D01*
X007052Y022871D02*
X007184Y022871D01*
X007188Y022403D02*
X007048Y022403D01*
X007639Y022247D02*
X006225Y022247D01*
X006366Y022091D02*
X009093Y022091D01*
X009078Y022715D02*
X009159Y022715D01*
X009251Y022871D02*
X007642Y022871D01*
X008094Y022715D02*
X008702Y022715D01*
X008585Y022559D02*
X008210Y022559D01*
X008232Y022403D02*
X008564Y022403D01*
X008624Y022247D02*
X008172Y022247D01*
X009417Y025834D02*
X011532Y025834D01*
X011430Y025990D02*
X009531Y025990D01*
X009551Y026146D02*
X011418Y026146D01*
X011464Y026302D02*
X009487Y026302D01*
X012253Y021311D02*
X015861Y021311D01*
X015760Y021155D02*
X012355Y021155D01*
X012366Y020999D02*
X015749Y020999D01*
X015835Y020843D02*
X012280Y020843D01*
X011799Y020843D02*
X011771Y020843D01*
X010676Y018035D02*
X009448Y018035D01*
X009355Y017879D02*
X010611Y017879D01*
X010631Y017723D02*
X008405Y017723D01*
X008539Y017567D02*
X010744Y017567D01*
X010816Y015072D02*
X014027Y015072D01*
X014119Y014980D01*
X014238Y014930D01*
X014368Y014930D01*
X014488Y014980D01*
X014580Y015072D01*
X014629Y015192D01*
X014629Y015321D01*
X014580Y015441D01*
X014488Y015533D01*
X014368Y015583D01*
X014238Y015583D01*
X014119Y015533D01*
X014027Y015441D01*
X013977Y015321D01*
X013977Y015192D01*
X014027Y015072D01*
X013977Y015228D02*
X002373Y015228D01*
X002375Y015383D02*
X014003Y015383D01*
X014134Y015539D02*
X002323Y015539D01*
X002188Y015695D02*
X019840Y015695D01*
X019737Y015851D02*
X002089Y015851D01*
X001923Y015695D02*
X001880Y015695D01*
X001880Y015539D02*
X001923Y015539D01*
X001923Y015383D02*
X001880Y015383D01*
X001880Y015228D02*
X001923Y015228D01*
X001923Y015072D02*
X001880Y015072D01*
X001880Y014916D02*
X001923Y014916D01*
X002171Y014916D02*
X010237Y014916D01*
X010253Y014760D02*
X002119Y014760D01*
X002312Y014604D02*
X010361Y014604D01*
X010457Y014448D02*
X002383Y014448D01*
X002317Y015072D02*
X010311Y015072D01*
X010575Y014292D02*
X007658Y014292D01*
X007740Y014136D02*
X010759Y014136D01*
X010910Y013980D02*
X007727Y013980D01*
X007623Y013824D02*
X011061Y013824D01*
X011124Y013356D02*
X010552Y013356D01*
X010594Y013200D02*
X011133Y013200D01*
X011232Y013044D02*
X010560Y013044D01*
X010391Y012888D02*
X016055Y012888D01*
X016044Y012861D02*
X016044Y012731D01*
X016094Y012611D01*
X016185Y012520D01*
X016305Y012470D01*
X016435Y012470D01*
X016555Y012520D01*
X016647Y012611D01*
X016696Y012731D01*
X016696Y012861D01*
X016647Y012981D01*
X016555Y013072D01*
X016435Y013122D01*
X016305Y013122D01*
X016185Y013072D01*
X016094Y012981D01*
X016044Y012861D01*
X016044Y012732D02*
X013618Y012732D01*
X013709Y012576D02*
X016129Y012576D01*
X016157Y013044D02*
X012453Y013044D01*
X012421Y013012D02*
X012513Y013103D01*
X012562Y013223D01*
X012562Y013353D01*
X012513Y013473D01*
X012421Y013564D01*
X012301Y013614D01*
X012171Y013614D01*
X012052Y013564D01*
X011960Y013473D01*
X011910Y013353D01*
X011910Y013223D01*
X011960Y013103D01*
X012052Y013012D01*
X012171Y012962D01*
X012301Y012962D01*
X012421Y013012D01*
X012553Y013200D02*
X021270Y013200D01*
X021261Y013223D02*
X021310Y013103D01*
X021402Y013012D01*
X021522Y012962D01*
X021652Y012962D01*
X021771Y013012D01*
X021863Y013103D01*
X021913Y013223D01*
X021913Y013353D01*
X021863Y013473D01*
X021771Y013564D01*
X021745Y013576D01*
X021765Y013595D01*
X021814Y013715D01*
X021814Y013845D01*
X021765Y013965D01*
X021673Y014057D01*
X021553Y014106D01*
X021423Y014106D01*
X021304Y014057D01*
X021212Y013965D01*
X021162Y013845D01*
X021162Y013715D01*
X021212Y013595D01*
X021304Y013504D01*
X021330Y013493D01*
X021310Y013473D01*
X021261Y013353D01*
X021261Y013223D01*
X021262Y013356D02*
X012561Y013356D01*
X012474Y013512D02*
X015170Y013512D01*
X015142Y013523D02*
X015262Y013474D01*
X015392Y013474D01*
X015512Y013523D01*
X015603Y013615D01*
X015653Y013735D01*
X015653Y013865D01*
X015603Y013985D01*
X015512Y014076D01*
X015392Y014126D01*
X015262Y014126D01*
X015142Y014076D01*
X015050Y013985D01*
X015001Y013865D01*
X015001Y013735D01*
X015050Y013615D01*
X015142Y013523D01*
X015029Y013668D02*
X011456Y013668D01*
X011640Y013824D02*
X015001Y013824D01*
X015048Y013980D02*
X011677Y013980D01*
X011638Y014136D02*
X012010Y014136D01*
X012052Y014094D02*
X012171Y014045D01*
X012301Y014045D01*
X012421Y014094D01*
X012513Y014186D01*
X012562Y014306D01*
X012562Y014436D01*
X012513Y014555D01*
X012421Y014647D01*
X012301Y014697D01*
X012171Y014697D01*
X012052Y014647D01*
X011960Y014555D01*
X011910Y014436D01*
X011910Y014306D01*
X011960Y014186D01*
X012052Y014094D01*
X011916Y014292D02*
X011443Y014292D01*
X011336Y014448D02*
X011915Y014448D01*
X012008Y014604D02*
X011086Y014604D01*
X011029Y014760D02*
X014133Y014760D01*
X014125Y014752D02*
X014076Y014632D01*
X014076Y014503D01*
X014125Y014383D01*
X014217Y014291D01*
X014337Y014242D01*
X014467Y014242D01*
X014586Y014291D01*
X014678Y014383D01*
X014728Y014503D01*
X014728Y014632D01*
X014678Y014752D01*
X014586Y014844D01*
X014467Y014894D01*
X014337Y014894D01*
X014217Y014844D01*
X014125Y014752D01*
X014076Y014604D02*
X012465Y014604D01*
X012557Y014448D02*
X014098Y014448D01*
X014217Y014292D02*
X012556Y014292D01*
X012462Y014136D02*
X016960Y014136D01*
X016980Y014088D02*
X017071Y013996D01*
X017191Y013946D01*
X017321Y013946D01*
X017441Y013996D01*
X017532Y014088D01*
X017582Y014207D01*
X017582Y014337D01*
X017532Y014457D01*
X017456Y014534D01*
X017484Y014601D01*
X017484Y014731D01*
X017456Y014798D01*
X017532Y014875D01*
X017582Y014995D01*
X017582Y015125D01*
X017532Y015244D01*
X017441Y015336D01*
X017321Y015386D01*
X017191Y015386D01*
X017071Y015336D01*
X016995Y015259D01*
X016981Y015265D01*
X016992Y015290D01*
X016992Y015420D01*
X016942Y015540D01*
X016850Y015631D01*
X016730Y015681D01*
X016601Y015681D01*
X016481Y015631D01*
X016389Y015540D01*
X016339Y015420D01*
X016339Y015290D01*
X016389Y015170D01*
X016469Y015090D01*
X016404Y015090D01*
X016284Y015041D01*
X016192Y014949D01*
X016143Y014829D01*
X016143Y014700D01*
X016192Y014580D01*
X016284Y014488D01*
X016404Y014438D01*
X016533Y014438D01*
X016653Y014488D01*
X016745Y014580D01*
X016772Y014646D01*
X016797Y014635D01*
X016832Y014635D01*
X016832Y014601D01*
X016881Y014481D01*
X016958Y014405D01*
X016930Y014337D01*
X016930Y014207D01*
X016980Y014088D01*
X017110Y013980D02*
X015605Y013980D01*
X015653Y013824D02*
X018281Y013824D01*
X018213Y013892D02*
X018353Y013753D01*
X018535Y013677D01*
X018733Y013677D01*
X018915Y013753D01*
X019055Y013892D01*
X019131Y014075D01*
X019131Y014273D01*
X019055Y014455D01*
X018943Y014568D01*
X019055Y014680D01*
X019131Y014862D01*
X019131Y015060D01*
X019055Y015243D01*
X018915Y015382D01*
X018733Y015458D01*
X018535Y015458D01*
X018353Y015382D01*
X018213Y015243D01*
X018137Y015060D01*
X018137Y014862D01*
X018213Y014680D01*
X018325Y014568D01*
X018213Y014455D01*
X018137Y014273D01*
X018137Y014075D01*
X018213Y013892D01*
X018177Y013980D02*
X017402Y013980D01*
X017552Y014136D02*
X018137Y014136D01*
X018145Y014292D02*
X017582Y014292D01*
X017536Y014448D02*
X018210Y014448D01*
X018289Y014604D02*
X017484Y014604D01*
X017472Y014760D02*
X018180Y014760D01*
X018137Y014916D02*
X017549Y014916D01*
X017582Y015072D02*
X018142Y015072D01*
X018206Y015228D02*
X017539Y015228D01*
X017326Y015383D02*
X018355Y015383D01*
X018913Y015383D02*
X023156Y015383D01*
X023037Y015228D02*
X019061Y015228D01*
X019126Y015072D02*
X022975Y015072D01*
X022975Y014916D02*
X022826Y014916D01*
X022765Y014976D02*
X022588Y015050D01*
X022396Y015050D01*
X022219Y014976D01*
X022083Y014841D01*
X022010Y014664D01*
X022010Y014472D01*
X022083Y014294D01*
X022219Y014159D01*
X022396Y014085D01*
X022588Y014085D01*
X022765Y014159D01*
X022901Y014294D01*
X022974Y014472D01*
X022974Y014664D01*
X022901Y014841D01*
X022765Y014976D01*
X022935Y014760D02*
X023010Y014760D01*
X022974Y014604D02*
X023092Y014604D01*
X022965Y014448D02*
X023278Y014448D01*
X022898Y014292D02*
X023867Y014292D01*
X023867Y014448D02*
X023833Y014448D01*
X023867Y014136D02*
X022710Y014136D01*
X022275Y014136D02*
X019131Y014136D01*
X019123Y014292D02*
X022086Y014292D01*
X022020Y014448D02*
X019058Y014448D01*
X018979Y014604D02*
X022010Y014604D01*
X022050Y014760D02*
X019088Y014760D01*
X019131Y014916D02*
X022158Y014916D01*
X021750Y013980D02*
X023867Y013980D01*
X023867Y013824D02*
X021814Y013824D01*
X021795Y013668D02*
X023867Y013668D01*
X023867Y013512D02*
X021824Y013512D01*
X021912Y013356D02*
X023867Y013356D01*
X023867Y013200D02*
X021903Y013200D01*
X021804Y013044D02*
X022306Y013044D01*
X022219Y013008D02*
X022396Y013081D01*
X022588Y013081D01*
X022765Y013008D01*
X022901Y012872D01*
X022974Y012695D01*
X022974Y012503D01*
X022901Y012326D01*
X022765Y012190D01*
X022588Y012117D01*
X022396Y012117D01*
X022219Y012190D01*
X022083Y012326D01*
X022010Y012503D01*
X022010Y012695D01*
X022083Y012872D01*
X022219Y013008D01*
X022099Y012888D02*
X016685Y012888D01*
X016696Y012732D02*
X018265Y012732D01*
X018295Y012762D02*
X018176Y012643D01*
X018111Y012487D01*
X018111Y012318D01*
X018176Y012162D01*
X018295Y012042D01*
X018451Y011978D01*
X018620Y011978D01*
X018776Y012042D01*
X018895Y012162D01*
X018960Y012318D01*
X018960Y012487D01*
X018895Y012643D01*
X018776Y012762D01*
X018620Y012827D01*
X018451Y012827D01*
X018295Y012762D01*
X018148Y012576D02*
X017878Y012576D01*
X017874Y012580D02*
X017754Y012630D01*
X017624Y012630D01*
X017504Y012580D01*
X017413Y012489D01*
X017363Y012369D01*
X017363Y012239D01*
X017413Y012119D01*
X017504Y012027D01*
X017624Y011978D01*
X017754Y011978D01*
X017874Y012027D01*
X017965Y012119D01*
X018015Y012239D01*
X018015Y012369D01*
X017965Y012489D01*
X017874Y012580D01*
X017994Y012420D02*
X018111Y012420D01*
X018133Y012264D02*
X018015Y012264D01*
X017954Y012108D02*
X018230Y012108D01*
X018842Y012108D02*
X022975Y012108D01*
X022975Y012264D02*
X022839Y012264D01*
X022940Y012420D02*
X023015Y012420D01*
X022974Y012576D02*
X023104Y012576D01*
X022959Y012732D02*
X023309Y012732D01*
X023032Y011952D02*
X013726Y011952D01*
X013696Y012108D02*
X017424Y012108D01*
X017363Y012264D02*
X013680Y012264D01*
X013726Y012420D02*
X017384Y012420D01*
X017500Y012576D02*
X016611Y012576D01*
X016583Y013044D02*
X021370Y013044D01*
X021296Y013512D02*
X015483Y013512D01*
X015625Y013668D02*
X021182Y013668D01*
X021162Y013824D02*
X018986Y013824D01*
X019091Y013980D02*
X021227Y013980D01*
X022025Y012732D02*
X018806Y012732D01*
X018923Y012576D02*
X022010Y012576D01*
X022044Y012420D02*
X018960Y012420D01*
X018938Y012264D02*
X022145Y012264D01*
X022679Y013044D02*
X023867Y013044D01*
X023867Y012888D02*
X022886Y012888D01*
X023143Y011796D02*
X013693Y011796D01*
X013579Y011640D02*
X023403Y011640D01*
X023708Y011640D02*
X023867Y011640D01*
X023867Y012732D02*
X023802Y012732D01*
X023867Y015539D02*
X023677Y015539D01*
X023434Y015539D02*
X016942Y015539D01*
X016992Y015383D02*
X017186Y015383D01*
X016832Y014604D02*
X016755Y014604D01*
X016915Y014448D02*
X016556Y014448D01*
X016381Y014448D02*
X014705Y014448D01*
X014728Y014604D02*
X016182Y014604D01*
X016143Y014760D02*
X014671Y014760D01*
X014579Y015072D02*
X016358Y015072D01*
X016365Y015228D02*
X014629Y015228D01*
X014604Y015383D02*
X016339Y015383D01*
X016389Y015539D02*
X014472Y015539D01*
X014293Y016163D02*
X015992Y016163D01*
X015946Y016319D02*
X014410Y016319D01*
X014432Y016475D02*
X015975Y016475D01*
X016125Y016631D02*
X014374Y016631D01*
X014829Y017588D02*
X014709Y017638D01*
X014617Y017729D01*
X014568Y017849D01*
X014568Y017979D01*
X014617Y018099D01*
X014709Y018190D01*
X014829Y018240D01*
X014959Y018240D01*
X015078Y018190D01*
X015170Y018099D01*
X015220Y017979D01*
X015220Y017849D01*
X015170Y017729D01*
X015078Y017638D01*
X014959Y017588D01*
X014829Y017588D01*
X014624Y017723D02*
X013276Y017723D01*
X013420Y017879D02*
X014568Y017879D01*
X014591Y018035D02*
X013448Y018035D01*
X013401Y018191D02*
X014711Y018191D01*
X015077Y018191D02*
X016089Y018191D01*
X015969Y018035D02*
X015197Y018035D01*
X015220Y017879D02*
X015946Y017879D01*
X016001Y017723D02*
X015164Y017723D01*
X016178Y014916D02*
X010889Y014916D01*
X011686Y013512D02*
X011999Y013512D01*
X011911Y013356D02*
X011774Y013356D01*
X011765Y013200D02*
X011920Y013200D01*
X012019Y013044D02*
X011666Y013044D01*
X010631Y011016D02*
X008065Y011016D01*
X008204Y010860D02*
X010672Y010860D01*
X010617Y010080D02*
X010903Y010080D01*
X011242Y010860D02*
X011262Y010860D01*
X011405Y010080D02*
X011690Y010080D01*
X011584Y009300D02*
X011510Y009300D01*
X010797Y009300D02*
X010723Y009300D01*
X010115Y010080D02*
X009830Y010080D01*
X009328Y010080D02*
X009042Y010080D01*
X008540Y010080D02*
X008207Y010080D01*
X008015Y010080D02*
X007993Y010080D01*
X007993Y009924D02*
X008015Y009924D01*
X008015Y009768D02*
X007993Y009768D01*
X007993Y009612D02*
X008015Y009612D01*
X008015Y009456D02*
X007993Y009456D01*
X007993Y009300D02*
X008015Y009300D01*
X008335Y009300D02*
X008435Y009300D01*
X007801Y010080D02*
X006555Y010080D01*
X006107Y010080D02*
X004291Y010080D01*
X004386Y009924D02*
X006011Y009924D01*
X006009Y009768D02*
X004389Y009768D01*
X004297Y009612D02*
X006101Y009612D01*
X009148Y009300D02*
X009222Y009300D01*
X009935Y009300D02*
X010010Y009300D01*
X007780Y016943D02*
X007638Y016943D01*
X007618Y017723D02*
X007800Y017723D01*
X014587Y014292D02*
X016930Y014292D01*
X019575Y019751D02*
X023465Y019751D01*
X023489Y019907D02*
X019719Y019907D01*
X019747Y020063D02*
X023612Y020063D01*
X023867Y020219D02*
X019700Y020219D01*
X019933Y021155D02*
X022117Y021155D01*
X022048Y021311D02*
X019832Y021311D01*
X022084Y023962D02*
X017359Y023962D01*
X017317Y024118D02*
X022048Y024118D01*
X022087Y024274D02*
X017209Y024274D01*
X017286Y024430D02*
X022188Y024430D01*
X022070Y024586D02*
X017351Y024586D01*
X017359Y024742D02*
X022048Y024742D01*
X022106Y024898D02*
X017320Y024898D01*
X017216Y025054D02*
X023867Y025054D01*
X023867Y025210D02*
X019107Y025210D01*
X019157Y025366D02*
X023867Y025366D01*
X023867Y016163D02*
X020295Y016163D01*
X020377Y016007D02*
X023867Y016007D01*
X023867Y015851D02*
X020365Y015851D01*
X020262Y015695D02*
X023867Y015695D01*
X020701Y003373D02*
X019528Y003373D01*
X019661Y003217D02*
X020736Y003217D01*
X020778Y003061D02*
X019698Y003061D01*
X019668Y002905D02*
X020841Y002905D01*
X020776Y002749D02*
X020931Y002749D01*
X020830Y002593D02*
X021040Y002593D01*
X021196Y002437D02*
X020806Y002437D01*
X020683Y002281D02*
X021412Y002281D01*
X013856Y030046D02*
X013506Y030046D01*
X013302Y030202D02*
X013742Y030202D01*
X010548Y037377D02*
X003151Y037377D01*
X003061Y037533D02*
X009676Y037533D01*
X009566Y037689D02*
X006004Y037689D01*
X006138Y037845D02*
X009548Y037845D01*
X009618Y038001D02*
X006165Y038001D01*
X006153Y038157D02*
X009786Y038157D01*
X008688Y034413D02*
X007714Y034413D01*
X007822Y034257D02*
X008580Y034257D01*
X008564Y034101D02*
X007838Y034101D01*
X007764Y033945D02*
X008638Y033945D01*
X005673Y037689D02*
X005532Y037689D01*
X005201Y037689D02*
X002933Y037689D01*
X002770Y037845D02*
X005066Y037845D01*
X005040Y038001D02*
X002500Y038001D01*
X001500Y038001D02*
X000802Y038001D01*
X000802Y038157D02*
X005051Y038157D01*
X005040Y038313D02*
X000802Y038313D01*
X000802Y038469D02*
X005040Y038469D01*
X005055Y038625D02*
X000802Y038625D01*
X000802Y038781D02*
X005161Y038781D01*
X005571Y038781D02*
X005634Y038781D01*
X002977Y035349D02*
X000802Y035349D01*
X000802Y035505D02*
X018653Y035505D01*
X022592Y041588D02*
X023867Y041588D01*
X023867Y041744D02*
X022691Y041744D01*
X022699Y041900D02*
X023867Y041900D01*
X023867Y042056D02*
X022610Y042056D01*
X023088Y042524D02*
X023867Y042524D01*
X023867Y042680D02*
X023244Y042680D01*
X023382Y042836D02*
X023867Y042836D01*
X023867Y042992D02*
X023472Y042992D01*
X023557Y043148D02*
X023867Y043148D01*
X023867Y043304D02*
X023599Y043304D01*
X023641Y043460D02*
X023867Y043460D01*
X023867Y043616D02*
X023654Y043616D01*
X023654Y043772D02*
X023867Y043772D01*
X023867Y043928D02*
X023645Y043928D01*
X023603Y044084D02*
X023867Y044084D01*
X023867Y044240D02*
X023561Y044240D01*
X023481Y044396D02*
X023867Y044396D01*
X023867Y044552D02*
X023391Y044552D01*
X023259Y044708D02*
X023867Y044708D01*
X023867Y044864D02*
X023103Y044864D01*
X005474Y044240D02*
X004388Y044240D01*
X001230Y037845D02*
X000802Y037845D01*
X000802Y037689D02*
X001068Y037689D01*
X000939Y037533D02*
X000802Y037533D01*
X000802Y037377D02*
X000849Y037377D01*
X000827Y036285D02*
X000802Y036285D01*
X000802Y036129D02*
X000917Y036129D01*
X001029Y035973D02*
X000802Y035973D01*
X000802Y035817D02*
X001185Y035817D01*
X001434Y035661D02*
X000802Y035661D01*
D19*
X006232Y021359D03*
X004165Y006989D03*
X004658Y003150D03*
X019323Y003052D03*
D20*
X018536Y012402D03*
D21*
X006646Y018721D02*
X006213Y018721D01*
D22*
X004067Y020867D01*
X004067Y028347D01*
X002689Y029725D01*
X002000Y029725D01*
X005386Y029233D02*
X005386Y022304D01*
X005406Y022284D01*
X005465Y022205D01*
X006232Y021359D01*
D23*
X006429Y018701D02*
X006921Y018701D01*
X006921Y018150D01*
X006921Y018111D01*
X006429Y018111D01*
X006429Y018701D01*
D24*
X005386Y029233D02*
X005051Y029233D01*
M02*
