G75*
%MOIN*%
%OFA0B0*%
%FSLAX24Y24*%
%IPPOS*%
%LPD*%
%AMOC8*
5,1,8,0,0,1.08239X$1,22.5*
%
%ADD10R,0.0375X0.0454*%
%ADD11R,0.0454X0.0375*%
%ADD12OC8,0.0660*%
%ADD13R,0.0611X0.0454*%
%ADD14R,0.0769X0.1359*%
%ADD15C,0.0810*%
%ADD16R,0.0300X0.0560*%
%ADD17R,0.0310X0.0460*%
%ADD18R,0.1600X0.1560*%
%ADD19C,0.0828*%
%ADD20C,0.0631*%
%ADD21C,0.0480*%
%ADD22R,0.0454X0.0611*%
%ADD23C,0.2225*%
%ADD24C,0.0660*%
%ADD25R,0.0560X0.0300*%
%ADD26R,0.0460X0.0310*%
%ADD27R,0.1560X0.1600*%
%ADD28C,0.2619*%
%ADD29R,0.2761X0.1312*%
%ADD30R,0.1312X0.2761*%
%ADD31C,0.0417*%
%ADD32C,0.0515*%
D10*
X012158Y026969D03*
X012709Y026969D03*
X012709Y027658D03*
X012709Y028347D03*
X012158Y028347D03*
X012158Y027658D03*
X013614Y029883D03*
X014165Y029883D03*
X015799Y011123D03*
X016350Y011123D03*
X016980Y011123D03*
X017532Y011123D03*
D11*
X016075Y008642D03*
X016075Y008091D03*
X016075Y007363D03*
X016075Y006812D03*
D12*
X011941Y009646D03*
X011154Y009646D03*
X010366Y009646D03*
X009579Y009646D03*
X008791Y009646D03*
X008004Y009646D03*
X008102Y017323D03*
X007315Y017323D03*
X016862Y021556D03*
X016862Y022343D03*
X016862Y023131D03*
X016862Y023918D03*
X016862Y024705D03*
X018634Y014961D03*
X018634Y014174D03*
X023457Y005020D03*
X004165Y044686D03*
D13*
X005996Y042323D03*
X005780Y041516D03*
X005780Y040768D03*
X004913Y041142D03*
X006862Y041949D03*
X006862Y042698D03*
X007177Y041142D03*
X008043Y040768D03*
X008043Y041516D03*
X008358Y042323D03*
X009225Y041949D03*
X009225Y042698D03*
X009539Y041142D03*
X010406Y040768D03*
X010406Y041516D03*
X010721Y042323D03*
X011587Y041949D03*
X011587Y042698D03*
X011902Y041142D03*
X012768Y040768D03*
X012768Y041516D03*
X013083Y042323D03*
X013949Y041949D03*
X013949Y042698D03*
X014165Y041142D03*
X015032Y040768D03*
X015032Y041516D03*
X015347Y042323D03*
X016213Y041949D03*
X016213Y042698D03*
X016725Y041044D03*
X017512Y042323D03*
X017591Y041418D03*
X017591Y040670D03*
X018378Y041949D03*
X018378Y042698D03*
X019382Y041812D03*
X019382Y041064D03*
X019382Y040040D03*
X019382Y039292D03*
X019382Y038268D03*
X019382Y037520D03*
X019382Y036497D03*
X019382Y035749D03*
X019382Y034725D03*
X019382Y033977D03*
X019382Y032953D03*
X019382Y032205D03*
X019382Y031182D03*
X019382Y030434D03*
X019382Y029410D03*
X019382Y028662D03*
X019382Y027638D03*
X019382Y026890D03*
X019382Y025867D03*
X019382Y025119D03*
X019382Y024095D03*
X019382Y023347D03*
X019382Y022323D03*
X019382Y021575D03*
X019579Y020473D03*
X020248Y021949D03*
X020445Y020847D03*
X020445Y020099D03*
X020248Y023721D03*
X020248Y025493D03*
X020248Y027264D03*
X020248Y029036D03*
X020248Y030808D03*
X020248Y032579D03*
X020248Y034351D03*
X020248Y036123D03*
X020248Y037894D03*
X020248Y039666D03*
X020248Y041438D03*
X009244Y017599D03*
X009244Y016851D03*
X010110Y017225D03*
X005976Y007953D03*
X005976Y007205D03*
X005110Y007579D03*
X006095Y003524D03*
X006095Y002776D03*
X005228Y003150D03*
X011705Y004351D03*
X011705Y005099D03*
X012571Y004725D03*
X019284Y003839D03*
X020150Y003465D03*
X020150Y004213D03*
D14*
X021075Y021949D03*
X021075Y023721D03*
X021075Y025493D03*
X021075Y027264D03*
X021075Y029036D03*
X021075Y030808D03*
X021075Y032579D03*
X021075Y034351D03*
X021075Y036123D03*
X021075Y037894D03*
X021075Y039666D03*
X021075Y041438D03*
X023280Y041438D03*
X023280Y039666D03*
X023280Y037894D03*
X023280Y036123D03*
X023280Y034351D03*
X023280Y032579D03*
X023280Y030808D03*
X023280Y029036D03*
X023280Y027264D03*
X023280Y025493D03*
X023280Y023721D03*
X023280Y021949D03*
D15*
X013516Y004741D03*
X013516Y002741D03*
D16*
X011215Y026347D03*
X010715Y026347D03*
X010215Y026347D03*
X009715Y026347D03*
X008951Y026347D03*
X008451Y026347D03*
X007951Y026347D03*
X007451Y026347D03*
X007451Y029595D03*
X007951Y029595D03*
X008451Y029595D03*
X008951Y029595D03*
X009715Y029595D03*
X010215Y029595D03*
X010715Y029595D03*
X011215Y029595D03*
X011305Y034579D03*
X010805Y034579D03*
X010305Y034579D03*
X009640Y034579D03*
X009140Y034579D03*
X008640Y034579D03*
X008140Y034579D03*
X007475Y034579D03*
X006975Y034579D03*
X006475Y034579D03*
X005975Y034579D03*
X005309Y034579D03*
X004809Y034579D03*
X004309Y034579D03*
X003809Y034579D03*
X011805Y034579D03*
D17*
X011805Y036731D03*
X011305Y036731D03*
X010805Y036731D03*
X010305Y036731D03*
X009640Y036731D03*
X009140Y036731D03*
X008640Y036731D03*
X008140Y036731D03*
X007475Y036731D03*
X006975Y036731D03*
X006475Y036731D03*
X005975Y036731D03*
X005309Y036731D03*
X004809Y036731D03*
X004309Y036731D03*
X003809Y036731D03*
X007451Y027444D03*
X007951Y027444D03*
X008451Y027444D03*
X008951Y027444D03*
X009715Y027444D03*
X010215Y027444D03*
X010715Y027444D03*
X011215Y027444D03*
X011215Y024196D03*
X010715Y024196D03*
X010215Y024196D03*
X009715Y024196D03*
X008951Y024196D03*
X008451Y024196D03*
X007951Y024196D03*
X007451Y024196D03*
D18*
X008201Y025020D03*
X008201Y028268D03*
X010465Y028268D03*
X010465Y025020D03*
X011055Y035906D03*
X008890Y035906D03*
X006725Y035906D03*
X004559Y035906D03*
D19*
X023555Y014961D03*
X023555Y012205D03*
D20*
X022492Y012599D03*
X022492Y014568D03*
D21*
X017059Y019981D03*
X013077Y024705D03*
X012577Y024705D03*
X013319Y012455D03*
X013319Y011955D03*
D22*
X013437Y017087D03*
X012807Y017087D03*
X012433Y017953D03*
X012059Y017087D03*
X011134Y020138D03*
X010760Y021005D03*
X010386Y020138D03*
X008181Y019331D03*
X007807Y018465D03*
X007433Y019331D03*
X013811Y017953D03*
X014185Y017087D03*
X012925Y034607D03*
X012551Y035473D03*
X013299Y035473D03*
D23*
X002000Y036812D03*
X002000Y040355D03*
X002000Y033268D03*
X002000Y029725D03*
X002000Y025985D03*
X002000Y022442D03*
D24*
X002202Y017312D02*
X001602Y017312D01*
X001602Y016312D02*
X002202Y016312D01*
X002202Y015312D02*
X001602Y015312D01*
X001602Y014312D02*
X002202Y014312D01*
X002202Y013312D02*
X001602Y013312D01*
X001602Y012312D02*
X002202Y012312D01*
X002202Y011312D02*
X001602Y011312D01*
X001602Y010312D02*
X002202Y010312D01*
X002202Y009312D02*
X001602Y009312D01*
X001602Y008312D02*
X002202Y008312D01*
X002202Y007312D02*
X001602Y007312D01*
X001602Y006312D02*
X002202Y006312D01*
X005835Y043598D02*
X005835Y044198D01*
X006835Y044198D02*
X006835Y043598D01*
X007835Y043598D02*
X007835Y044198D01*
X008835Y044198D02*
X008835Y043598D01*
X009835Y043598D02*
X009835Y044198D01*
X010835Y044198D02*
X010835Y043598D01*
X011835Y043598D02*
X011835Y044198D01*
X012835Y044198D02*
X012835Y043598D01*
X013835Y043598D02*
X013835Y044198D01*
X014835Y044198D02*
X014835Y043598D01*
X015835Y043598D02*
X015835Y044198D01*
X016835Y044198D02*
X016835Y043598D01*
X017835Y043598D02*
X017835Y044198D01*
X018835Y044198D02*
X018835Y043598D01*
D25*
X004099Y033329D03*
X004099Y032829D03*
X004099Y032329D03*
X004099Y031829D03*
X004099Y031164D03*
X004099Y030664D03*
X004099Y030164D03*
X004099Y029664D03*
X004099Y028999D03*
X004099Y028499D03*
X004099Y027999D03*
X004099Y027499D03*
D26*
X006250Y027499D03*
X006250Y027999D03*
X006250Y028499D03*
X006250Y028999D03*
X006250Y029664D03*
X006250Y030164D03*
X006250Y030664D03*
X006250Y031164D03*
X006250Y031829D03*
X006250Y032329D03*
X006250Y032829D03*
X006250Y033329D03*
D27*
X005425Y032579D03*
X005425Y030414D03*
X005425Y028249D03*
D28*
X002492Y003544D03*
X022177Y003544D03*
X022177Y043701D03*
X002492Y043701D03*
D29*
X008791Y032973D03*
X008791Y031201D03*
D30*
X005937Y025001D03*
X004165Y025001D03*
D31*
X006232Y021359D03*
X004165Y006989D03*
X004658Y003150D03*
X019323Y003052D03*
D32*
X018536Y012402D03*
M02*
