%
M48
M72
T01C0.0098
T02C0.0197
T03C0.0200
T04C0.0250
T05C0.0295
T06C0.0335
T07C0.0350
T08C0.0360
T09C0.0400
T10C0.0512
T11C0.1181
T12C0.1378
%
T01
X5051Y8837
X4067Y9843
X5839Y13091
X6331Y13583
X6921Y13583
X7413Y13288
X7413Y14075
X7847Y12068
X8201Y11516
X8299Y12068
X8890Y12205
X9362Y12599
X9382Y11516
X10268Y13190
X11055Y14272
X11350Y13977
X11449Y13288
X12236Y13288
X12236Y14371
X11331Y16300
X10937Y17835
X10583Y18406
X11606Y18544
X11587Y18898
X11803Y18012
X13122Y18012
X14106Y19390
X14795Y19587
X14894Y17914
X14106Y16438
X14303Y15257
X14402Y14568
X15327Y13800
X15976Y15552
X16272Y16339
X16665Y15355
X16862Y14961
X17256Y15060
X17158Y14666
X17256Y14272
X16469Y14764
X16370Y12796
X15780Y11615
X15287Y10335
X15287Y9745
X14874Y8367
X15130Y7383
X14539Y6497
X14539Y5414
X15681Y2363
X16213Y2363
X16764Y2363
X16961Y6103
X16764Y6792
X16665Y7481
X16764Y8662
X16764Y9056
X16843Y10552
X17689Y12304
X20012Y13780
X20051Y15946
X19323Y17323
X18240Y17816
X18240Y18701
X19421Y20040
X19618Y21064
X18831Y21654
X18831Y23426
X18831Y25394
X18929Y27264
X18831Y28741
X18831Y30512
X18831Y32284
X18831Y34056
X18890Y35729
X18831Y37599
X18831Y39371
X18890Y41064
X17059Y38914
X16124Y39804
X13516Y36158
X13910Y34449
X14402Y34056
X14701Y34552
X13221Y32776
X12827Y33564
X13024Y34056
X12433Y34942
X11252Y33564
X10957Y34056
X10819Y33800
X10524Y33800
X10662Y34056
X10366Y34056
X11154Y32678
X11449Y32875
X10760Y32087
X10494Y31448
X9343Y29272
X9343Y28839
X9343Y28150
X8043Y26812
X9225Y26103
X9480Y22638
X9382Y22245
X9480Y21556
X8890Y22442
X8102Y21556
X7945Y21162
X7906Y22442
X7413Y22638
X6823Y22638
X6921Y21260
X6786Y19255
X6646Y18721
X6646Y18426
X6646Y18131
X6961Y18131
X6961Y18426
X6961Y18721
X9126Y18111
X9284Y16438
X9677Y16438
X10563Y14863
X10760Y14568
X10662Y11516
X10957Y11024
X11252Y11516
X11547Y11024
X12728Y11910
X12807Y10001
X12945Y8367
X11350Y8957
X10563Y6989
X11095Y6497
X10563Y6005
X10169Y5808
X10169Y6300
X11055Y5119
X9776Y3642
X9776Y3249
X9776Y2855
X7158Y2658
X6961Y4922
X6469Y4922
X5780Y4627
X6626Y7186
X6626Y7973
X7217Y9548
X7512Y10434
X7906Y10729
X8595Y8367
X6331Y9843
X9480Y19981
X9480Y20572
X10957Y21949
X10957Y22442
X11449Y20768
X12039Y21064
X12138Y20178
X12728Y22343
X12728Y23131
X12728Y24016
X11744Y26083
X11744Y26477
X11646Y27068
X11646Y27638
X11646Y28741
X12728Y28938
X13221Y29883
X14047Y30316
X13654Y28052
X14441Y25886
X14047Y25001
X14402Y23623
X16075Y21064
X16665Y19390
X16567Y18603
X16272Y17914
X13221Y19981
X6725Y25001
X6488Y27048
X6134Y27048
X5386Y29233
X5051Y29233
X3102Y27698
X3575Y33072
X3575Y33465
X3083Y35040
X1114Y34764
X5366Y37973
X5602Y38111
X5366Y38249
X5602Y38386
X5366Y38524
X5839Y38524
X5839Y38249
X5839Y37973
X7512Y34154
X8890Y34154
X9874Y37796
X10071Y37993
X10268Y37796
X10465Y37993
X10721Y37658
X5543Y33859
X21390Y18308
X21390Y17816
X22374Y21359
X22374Y22343
X22374Y22934
X22374Y24115
X22374Y24705
X22374Y25886
X22374Y26477
X22374Y27658
X22374Y28249
X22374Y29430
X22374Y30020
X22374Y31201
X22374Y31792
X22374Y32973
X22374Y33564
X22374Y34745
X22374Y35335
X22374Y36516
X22374Y37107
X22374Y38288
X22374Y38879
X22374Y40060
X22374Y40749
X22374Y41831
X23791Y19784
X23791Y16930
X21488Y13780
X21587Y13288
X20012Y5414
X20504Y2560
T02
X19323Y3052
X6232Y21359
X4165Y6989
X4658Y3150
T03
X17059Y19981
T04
X13077Y24705
X12577Y24705
X13319Y12455
X13319Y11955
T05
X18536Y12402
T06
X22492Y12599
X22492Y14568
T07
X13516Y4741
X13516Y2741
T08
X11941Y9646
X11154Y9646
X10366Y9646
X9579Y9646
X8791Y9646
X8004Y9646
X8102Y17323
X7315Y17323
X16862Y21556
X16862Y22343
X16862Y23131
X16862Y23918
X16862Y24705
X18634Y14961
X18634Y14174
X23457Y5020
X4165Y44686
T09
X5835Y43898
X6835Y43898
X7835Y43898
X8835Y43898
X9835Y43898
X10835Y43898
X11835Y43898
X12835Y43898
X13835Y43898
X14835Y43898
X15835Y43898
X16835Y43898
X17835Y43898
X18835Y43898
X1902Y17312
X1902Y16312
X1902Y15312
X1902Y14312
X1902Y13312
X1902Y12312
X1902Y11312
X1902Y10312
X1902Y9312
X1902Y8312
X1902Y7312
X1902Y6312
T10
X23555Y12205
X23555Y14961
T11
X2000Y22442
X2000Y25985
X2000Y29725
X2000Y33268
X2000Y36812
X2000Y40355
T12
X2492Y3544
X22177Y3544
X22177Y43701
X2492Y43701
M30
