G75*
%MOIN*%
%OFA0B0*%
%FSLAX24Y24*%
%IPPOS*%
%LPD*%
%AMOC8*
5,1,8,0,0,1.08239X$1,22.5*
%
%ADD10C,0.0600*%
%ADD11C,0.0750*%
%ADD12C,0.0768*%
%ADD13C,0.0571*%
%ADD14C,0.0420*%
%ADD15C,0.2165*%
%ADD16C,0.2559*%
%ADD17C,0.0258*%
%ADD18C,0.0157*%
%ADD19C,0.0357*%
%ADD20C,0.0455*%
D10*
X001902Y006312D03*
X001902Y007312D03*
X001902Y008312D03*
X001902Y009312D03*
X001902Y010312D03*
X001902Y011312D03*
X001902Y012312D03*
X001902Y013312D03*
X001902Y014312D03*
X001902Y015312D03*
X001902Y016312D03*
X001902Y017312D03*
X007315Y017323D03*
X008102Y017323D03*
X008004Y009646D03*
X008791Y009646D03*
X009579Y009646D03*
X010366Y009646D03*
X011154Y009646D03*
X011941Y009646D03*
X018634Y014174D03*
X018634Y014961D03*
X016862Y021556D03*
X016862Y022343D03*
X016862Y023131D03*
X016862Y023918D03*
X016862Y024705D03*
X016835Y043898D03*
X017835Y043898D03*
X018835Y043898D03*
X015835Y043898D03*
X014835Y043898D03*
X013835Y043898D03*
X012835Y043898D03*
X011835Y043898D03*
X010835Y043898D03*
X009835Y043898D03*
X008835Y043898D03*
X007835Y043898D03*
X006835Y043898D03*
X005835Y043898D03*
X004165Y044686D03*
X023457Y005020D03*
D11*
X013516Y004741D03*
X013516Y002741D03*
D12*
X023555Y012205D03*
X023555Y014961D03*
D13*
X022492Y014568D03*
X022492Y012599D03*
D14*
X017059Y019981D03*
X013077Y024705D03*
X012577Y024705D03*
X013319Y012455D03*
X013319Y011955D03*
D15*
X002000Y022442D03*
X002000Y025985D03*
X002000Y029725D03*
X002000Y033268D03*
X002000Y036812D03*
X002000Y040355D03*
D16*
X002492Y043701D03*
X022177Y043701D03*
X022177Y003544D03*
X002492Y003544D03*
D17*
X005051Y008837D03*
X004067Y009843D03*
X005839Y013091D03*
X006331Y013583D03*
X006921Y013583D03*
X007413Y013288D03*
X007413Y014075D03*
X007847Y012068D03*
X008201Y011516D03*
X008299Y012068D03*
X008890Y012205D03*
X009362Y012599D03*
X009382Y011516D03*
X010268Y013190D03*
X011055Y014272D03*
X011350Y013977D03*
X011449Y013288D03*
X012236Y013288D03*
X012236Y014371D03*
X011331Y016300D03*
X010937Y017835D03*
X010583Y018406D03*
X011606Y018544D03*
X011587Y018898D03*
X011803Y018012D03*
X013122Y018012D03*
X014106Y019390D03*
X014795Y019587D03*
X014894Y017914D03*
X014106Y016438D03*
X014303Y015257D03*
X014402Y014568D03*
X015327Y013800D03*
X015976Y015552D03*
X016272Y016339D03*
X016665Y015355D03*
X016862Y014961D03*
X017256Y015060D03*
X017158Y014666D03*
X017256Y014272D03*
X016469Y014764D03*
X016370Y012796D03*
X015780Y011615D03*
X015287Y010335D03*
X015287Y009745D03*
X014874Y008367D03*
X015130Y007383D03*
X014539Y006497D03*
X014539Y005414D03*
X015681Y002363D03*
X016213Y002363D03*
X016764Y002363D03*
X016961Y006103D03*
X016764Y006792D03*
X016665Y007481D03*
X016764Y008662D03*
X016764Y009056D03*
X016843Y010552D03*
X017689Y012304D03*
X020012Y013780D03*
X020051Y015946D03*
X019323Y017323D03*
X018240Y017816D03*
X018240Y018701D03*
X019421Y020040D03*
X019618Y021064D03*
X018831Y021654D03*
X018831Y023426D03*
X018831Y025394D03*
X018929Y027264D03*
X018831Y028741D03*
X018831Y030512D03*
X018831Y032284D03*
X018831Y034056D03*
X018890Y035729D03*
X018831Y037599D03*
X018831Y039371D03*
X018890Y041064D03*
X017059Y038914D03*
X016124Y039804D03*
X013516Y036158D03*
X013910Y034449D03*
X014402Y034056D03*
X014701Y034552D03*
X013221Y032776D03*
X012827Y033564D03*
X013024Y034056D03*
X012433Y034942D03*
X011252Y033564D03*
X010957Y034056D03*
X010819Y033800D03*
X010524Y033800D03*
X010662Y034056D03*
X010366Y034056D03*
X011154Y032678D03*
X011449Y032875D03*
X010760Y032087D03*
X010494Y031448D03*
X009343Y029272D03*
X009343Y028839D03*
X009343Y028150D03*
X008043Y026812D03*
X009225Y026103D03*
X009480Y022638D03*
X009382Y022245D03*
X009480Y021556D03*
X008890Y022442D03*
X008102Y021556D03*
X007945Y021162D03*
X007906Y022442D03*
X007413Y022638D03*
X006823Y022638D03*
X006921Y021260D03*
X006786Y019255D03*
X006646Y018721D03*
X006646Y018426D03*
X006646Y018131D03*
X006961Y018131D03*
X006961Y018426D03*
X006961Y018721D03*
X009126Y018111D03*
X009284Y016438D03*
X009677Y016438D03*
X010563Y014863D03*
X010760Y014568D03*
X010662Y011516D03*
X010957Y011024D03*
X011252Y011516D03*
X011547Y011024D03*
X012728Y011910D03*
X012807Y010001D03*
X012945Y008367D03*
X011350Y008957D03*
X010563Y006989D03*
X011095Y006497D03*
X010563Y006005D03*
X010169Y005808D03*
X010169Y006300D03*
X011055Y005119D03*
X009776Y003642D03*
X009776Y003249D03*
X009776Y002855D03*
X007158Y002658D03*
X006961Y004922D03*
X006469Y004922D03*
X005780Y004627D03*
X006626Y007186D03*
X006626Y007973D03*
X007217Y009548D03*
X007512Y010434D03*
X007906Y010729D03*
X008595Y008367D03*
X006331Y009843D03*
X009480Y019981D03*
X009480Y020572D03*
X010957Y021949D03*
X010957Y022442D03*
X011449Y020768D03*
X012039Y021064D03*
X012138Y020178D03*
X012728Y022343D03*
X012728Y023131D03*
X012728Y024016D03*
X011744Y026083D03*
X011744Y026477D03*
X011646Y027068D03*
X011646Y027638D03*
X011646Y028741D03*
X012728Y028938D03*
X013221Y029883D03*
X014047Y030316D03*
X013654Y028052D03*
X014441Y025886D03*
X014047Y025001D03*
X014402Y023623D03*
X016075Y021064D03*
X016665Y019390D03*
X016567Y018603D03*
X016272Y017914D03*
X013221Y019981D03*
X006725Y025001D03*
X006488Y027048D03*
X006134Y027048D03*
X005386Y029233D03*
X005051Y029233D03*
X003102Y027698D03*
X003575Y033072D03*
X003575Y033465D03*
X003083Y035040D03*
X001114Y034764D03*
X005366Y037973D03*
X005602Y038111D03*
X005366Y038249D03*
X005602Y038386D03*
X005366Y038524D03*
X005839Y038524D03*
X005839Y038249D03*
X005839Y037973D03*
X007512Y034154D03*
X008890Y034154D03*
X009874Y037796D03*
X010071Y037993D03*
X010268Y037796D03*
X010465Y037993D03*
X010721Y037658D03*
X005543Y033859D03*
X021390Y018308D03*
X021390Y017816D03*
X022374Y021359D03*
X022374Y022343D03*
X022374Y022934D03*
X022374Y024115D03*
X022374Y024705D03*
X022374Y025886D03*
X022374Y026477D03*
X022374Y027658D03*
X022374Y028249D03*
X022374Y029430D03*
X022374Y030020D03*
X022374Y031201D03*
X022374Y031792D03*
X022374Y032973D03*
X022374Y033564D03*
X022374Y034745D03*
X022374Y035335D03*
X022374Y036516D03*
X022374Y037107D03*
X022374Y038288D03*
X022374Y038879D03*
X022374Y040060D03*
X022374Y040749D03*
X022374Y041831D03*
X023791Y019784D03*
X023791Y016930D03*
X021488Y013780D03*
X021587Y013288D03*
X020012Y005414D03*
X020504Y002560D03*
D18*
X000917Y002363D02*
X000917Y021791D01*
X000986Y021689D01*
X001064Y021593D01*
X001152Y021506D01*
X001248Y021427D01*
X001351Y021358D01*
X001460Y021300D01*
X001575Y021252D01*
X001693Y021217D01*
X001815Y021192D01*
X001921Y021182D01*
X001921Y022363D01*
X002079Y022363D01*
X002079Y022520D01*
X003260Y022520D01*
X003249Y022627D01*
X003225Y022748D01*
X003189Y022867D01*
X003142Y022982D01*
X003083Y023091D01*
X003014Y023194D01*
X002936Y023290D01*
X002848Y023377D01*
X002752Y023456D01*
X002649Y023525D01*
X002540Y023583D01*
X002426Y023631D01*
X002307Y023667D01*
X002185Y023691D01*
X002079Y023701D01*
X002079Y022520D01*
X001921Y022520D01*
X001921Y023701D01*
X001815Y023691D01*
X001693Y023667D01*
X001575Y023631D01*
X001460Y023583D01*
X001351Y023525D01*
X001248Y023456D01*
X001152Y023377D01*
X001064Y023290D01*
X000986Y023194D01*
X000917Y023092D01*
X000917Y025301D01*
X000976Y025199D01*
X001214Y024961D01*
X001506Y024793D01*
X001832Y024705D01*
X002169Y024705D01*
X002494Y024793D01*
X002786Y024961D01*
X003024Y025199D01*
X003192Y025491D01*
X003280Y025816D01*
X003280Y026153D01*
X003192Y026479D01*
X003024Y026771D01*
X002786Y027009D01*
X002494Y027177D01*
X002169Y027264D01*
X001832Y027264D01*
X001506Y027177D01*
X001214Y027009D01*
X000976Y026771D01*
X000917Y026669D01*
X000917Y029041D01*
X000976Y028939D01*
X001214Y028701D01*
X001506Y028533D01*
X001832Y028446D01*
X002169Y028446D01*
X002494Y028533D01*
X002786Y028701D01*
X003024Y028939D01*
X003192Y029231D01*
X003280Y029557D01*
X003280Y029894D01*
X003192Y030219D01*
X003024Y030511D01*
X002786Y030749D01*
X002494Y030917D01*
X002169Y031005D01*
X001832Y031005D01*
X001506Y030917D01*
X001214Y030749D01*
X000976Y030511D01*
X000917Y030409D01*
X000917Y032618D01*
X000986Y032516D01*
X001064Y032420D01*
X001152Y032333D01*
X001248Y032254D01*
X001351Y032185D01*
X001460Y032127D01*
X001575Y032079D01*
X001693Y032043D01*
X001815Y032019D01*
X001921Y032009D01*
X001921Y033190D01*
X002079Y033190D01*
X002079Y033347D01*
X003260Y033347D01*
X003256Y033382D01*
X003298Y033281D01*
X003311Y033268D01*
X003298Y033256D01*
X003256Y033155D01*
X003260Y033190D01*
X002079Y033190D01*
X002079Y032009D01*
X002185Y032019D01*
X002307Y032043D01*
X002426Y032079D01*
X002540Y032127D01*
X002649Y032185D01*
X002752Y032254D01*
X002848Y032333D01*
X002936Y032420D01*
X003014Y032516D01*
X003083Y032619D01*
X003142Y032728D01*
X003189Y032843D01*
X003225Y032961D01*
X003249Y033080D01*
X003249Y033007D01*
X003298Y032887D01*
X003390Y032795D01*
X003510Y032745D01*
X003640Y032745D01*
X003760Y032795D01*
X003851Y032887D01*
X003901Y033007D01*
X003901Y033136D01*
X003851Y033256D01*
X003839Y033268D01*
X003851Y033281D01*
X003901Y033400D01*
X003901Y033530D01*
X003851Y033650D01*
X003760Y033742D01*
X003640Y033791D01*
X003510Y033791D01*
X003390Y033742D01*
X003298Y033650D01*
X003249Y033530D01*
X003249Y033456D01*
X003225Y033575D01*
X003189Y033694D01*
X003142Y033808D01*
X003083Y033918D01*
X003014Y034021D01*
X002936Y034117D01*
X002848Y034204D01*
X002752Y034283D01*
X002649Y034352D01*
X002540Y034410D01*
X002426Y034457D01*
X002307Y034493D01*
X002185Y034518D01*
X002079Y034528D01*
X002079Y033347D01*
X001921Y033347D01*
X001921Y034528D01*
X001815Y034518D01*
X001693Y034493D01*
X001575Y034457D01*
X001460Y034410D01*
X001351Y034352D01*
X001248Y034283D01*
X001152Y034204D01*
X001064Y034117D01*
X000986Y034021D01*
X000917Y033919D01*
X000917Y036128D01*
X000976Y036026D01*
X001214Y035788D01*
X001506Y035619D01*
X001832Y035532D01*
X002169Y035532D01*
X002494Y035619D01*
X002786Y035788D01*
X003024Y036026D01*
X003192Y036318D01*
X003280Y036643D01*
X003280Y036980D01*
X003192Y037306D01*
X003024Y037597D01*
X002786Y037836D01*
X002494Y038004D01*
X002169Y038091D01*
X001832Y038091D01*
X001506Y038004D01*
X001214Y037836D01*
X000976Y037597D01*
X000917Y037495D01*
X000917Y039705D01*
X000986Y039603D01*
X001064Y039507D01*
X001152Y039419D01*
X001248Y039341D01*
X001351Y039272D01*
X001460Y039213D01*
X001575Y039166D01*
X001693Y039130D01*
X001815Y039106D01*
X001921Y039095D01*
X001921Y040276D01*
X002079Y040276D01*
X002079Y039095D01*
X002185Y039106D01*
X002307Y039130D01*
X002426Y039166D01*
X002540Y039213D01*
X002649Y039272D01*
X002752Y039341D01*
X002848Y039419D01*
X002936Y039507D01*
X003014Y039603D01*
X003083Y039706D01*
X003142Y039815D01*
X003189Y039930D01*
X003225Y040048D01*
X003249Y040170D01*
X003260Y040276D01*
X002079Y040276D01*
X002079Y040434D01*
X001921Y040434D01*
X001921Y041615D01*
X001815Y041604D01*
X001693Y041580D01*
X001575Y041544D01*
X001460Y041497D01*
X001351Y041438D01*
X001248Y041369D01*
X001152Y041291D01*
X001064Y041203D01*
X000986Y041107D01*
X000917Y041005D01*
X000917Y044998D01*
X001823Y044998D01*
X001742Y044954D01*
X001622Y044874D01*
X001512Y044783D01*
X001410Y044682D01*
X001320Y044571D01*
X001240Y044452D01*
X001172Y044326D01*
X001118Y044193D01*
X001076Y044056D01*
X001048Y043916D01*
X001035Y043780D01*
X002413Y043780D01*
X002413Y043623D01*
X001035Y043623D01*
X001048Y043487D01*
X001076Y043347D01*
X001118Y043210D01*
X001172Y043077D01*
X001240Y042951D01*
X001320Y042832D01*
X001410Y042721D01*
X001512Y042620D01*
X001622Y042529D01*
X001742Y042449D01*
X001868Y042382D01*
X002000Y042327D01*
X002137Y042285D01*
X002278Y042257D01*
X002413Y042244D01*
X002413Y043623D01*
X002571Y043623D01*
X002571Y043780D01*
X003950Y043780D01*
X003936Y043916D01*
X003908Y044056D01*
X003867Y044193D01*
X003812Y044326D01*
X003745Y044452D01*
X003665Y044571D01*
X003574Y044682D01*
X003473Y044783D01*
X003362Y044874D01*
X003243Y044954D01*
X003161Y044998D01*
X003800Y044998D01*
X003756Y044937D01*
X003722Y044869D01*
X003698Y044798D01*
X003687Y044723D01*
X003687Y044697D01*
X004154Y044697D01*
X004154Y044674D01*
X004177Y044674D01*
X004177Y044207D01*
X004203Y044207D01*
X004278Y044219D01*
X004349Y044242D01*
X004416Y044276D01*
X004477Y044321D01*
X004531Y044374D01*
X004575Y044435D01*
X004609Y044502D01*
X004632Y044574D01*
X004644Y044648D01*
X004644Y044674D01*
X004177Y044674D01*
X004177Y044697D01*
X004644Y044697D01*
X004644Y044723D01*
X004632Y044798D01*
X004609Y044869D01*
X004575Y044937D01*
X004531Y044998D01*
X021509Y044998D01*
X021427Y044954D01*
X021308Y044874D01*
X021197Y044783D01*
X021095Y044682D01*
X021005Y044571D01*
X020925Y044452D01*
X020857Y044326D01*
X020803Y044193D01*
X020761Y044056D01*
X020733Y043916D01*
X020720Y043780D01*
X022099Y043780D01*
X022099Y043623D01*
X022256Y043623D01*
X022256Y043780D01*
X023635Y043780D01*
X023621Y043916D01*
X023594Y044056D01*
X023552Y044193D01*
X023497Y044326D01*
X023430Y044452D01*
X023350Y044571D01*
X023259Y044682D01*
X023158Y044783D01*
X023047Y044874D01*
X022928Y044954D01*
X022846Y044998D01*
X023867Y044998D01*
X023867Y015430D01*
X023850Y015442D01*
X023771Y015483D01*
X023687Y015510D01*
X023604Y015523D01*
X023604Y015011D01*
X023506Y015011D01*
X023506Y015523D01*
X023423Y015510D01*
X023339Y015483D01*
X023260Y015442D01*
X023189Y015390D01*
X023126Y015328D01*
X023074Y015256D01*
X023034Y015177D01*
X023006Y015093D01*
X022993Y015010D01*
X023506Y015010D01*
X023506Y014912D01*
X023604Y014912D01*
X023604Y014399D01*
X023687Y014413D01*
X023771Y014440D01*
X023850Y014480D01*
X023867Y014492D01*
X023867Y012674D01*
X023850Y012687D01*
X023771Y012727D01*
X023687Y012754D01*
X023604Y012767D01*
X023604Y012255D01*
X023506Y012255D01*
X023506Y012767D01*
X023423Y012754D01*
X023339Y012727D01*
X023260Y012687D01*
X023189Y012635D01*
X023126Y012572D01*
X023074Y012500D01*
X023034Y012421D01*
X023006Y012337D01*
X022993Y012255D01*
X023506Y012255D01*
X023506Y012156D01*
X023604Y012156D01*
X023604Y011644D01*
X023687Y011657D01*
X023771Y011684D01*
X023850Y011724D01*
X023867Y011737D01*
X023867Y005270D01*
X023866Y005271D01*
X023822Y005332D01*
X023769Y005385D01*
X023708Y005430D01*
X023641Y005464D01*
X023569Y005487D01*
X023494Y005499D01*
X023468Y005499D01*
X023468Y005032D01*
X023446Y005032D01*
X023446Y005499D01*
X023419Y005499D01*
X023345Y005487D01*
X023273Y005464D01*
X023206Y005430D01*
X023145Y005385D01*
X023092Y005332D01*
X023047Y005271D01*
X023013Y005204D01*
X022990Y005132D01*
X022978Y005058D01*
X022978Y005032D01*
X023446Y005032D01*
X023446Y005009D01*
X023468Y005009D01*
X023468Y004542D01*
X023494Y004542D01*
X023569Y004553D01*
X023641Y004577D01*
X023708Y004611D01*
X023769Y004655D01*
X023822Y004708D01*
X023866Y004769D01*
X023867Y004771D01*
X023867Y002363D01*
X023034Y002363D01*
X023047Y002371D01*
X023158Y002462D01*
X023259Y002563D01*
X023350Y002674D01*
X023430Y002793D01*
X023497Y002920D01*
X023552Y003052D01*
X023594Y003189D01*
X023621Y003330D01*
X023635Y003465D01*
X022256Y003465D01*
X022256Y003623D01*
X022099Y003623D01*
X022099Y005002D01*
X021963Y004988D01*
X021822Y004960D01*
X021685Y004919D01*
X021553Y004864D01*
X021427Y004796D01*
X021308Y004717D01*
X021197Y004626D01*
X021095Y004524D01*
X021005Y004414D01*
X020925Y004295D01*
X020857Y004168D01*
X020803Y004036D01*
X020761Y003899D01*
X020733Y003758D01*
X020720Y003623D01*
X022099Y003623D01*
X022099Y003465D01*
X020720Y003465D01*
X020733Y003330D01*
X020761Y003189D01*
X020803Y003052D01*
X020857Y002920D01*
X020925Y002793D01*
X021005Y002674D01*
X021095Y002563D01*
X021197Y002462D01*
X021308Y002371D01*
X021320Y002363D01*
X013947Y002363D01*
X014001Y002417D01*
X014088Y002627D01*
X014088Y002855D01*
X014001Y003065D01*
X013840Y003226D01*
X013630Y003313D01*
X013402Y003313D01*
X013192Y003226D01*
X013031Y003065D01*
X012944Y002855D01*
X012944Y002627D01*
X013031Y002417D01*
X013085Y002363D01*
X003349Y002363D01*
X003362Y002371D01*
X003473Y002462D01*
X003574Y002563D01*
X003665Y002674D01*
X003745Y002793D01*
X003812Y002920D01*
X003867Y003052D01*
X003908Y003189D01*
X003936Y003330D01*
X003950Y003465D01*
X002571Y003465D01*
X002571Y003623D01*
X002413Y003623D01*
X002413Y003465D01*
X001035Y003465D01*
X001048Y003330D01*
X001076Y003189D01*
X001118Y003052D01*
X001172Y002920D01*
X001240Y002793D01*
X001320Y002674D01*
X001410Y002563D01*
X001512Y002462D01*
X001622Y002371D01*
X001635Y002363D01*
X000917Y002363D01*
X000917Y002437D02*
X001542Y002437D01*
X001386Y002593D02*
X000917Y002593D01*
X000917Y002749D02*
X001270Y002749D01*
X001180Y002905D02*
X000917Y002905D01*
X000917Y003061D02*
X001115Y003061D01*
X001070Y003217D02*
X000917Y003217D01*
X000917Y003373D02*
X001044Y003373D01*
X000917Y003529D02*
X002413Y003529D01*
X002413Y003623D02*
X001035Y003623D01*
X001048Y003758D01*
X001076Y003899D01*
X001118Y004036D01*
X001172Y004168D01*
X001240Y004295D01*
X001320Y004414D01*
X001410Y004524D01*
X001512Y004626D01*
X001622Y004717D01*
X001742Y004796D01*
X001868Y004864D01*
X002000Y004919D01*
X002137Y004960D01*
X002278Y004988D01*
X002413Y005002D01*
X002413Y003623D01*
X002413Y003685D02*
X002571Y003685D01*
X002571Y003623D02*
X002571Y005002D01*
X002706Y004988D01*
X002847Y004960D01*
X002984Y004919D01*
X003116Y004864D01*
X003243Y004796D01*
X003362Y004717D01*
X003473Y004626D01*
X003574Y004524D01*
X003665Y004414D01*
X003745Y004295D01*
X003812Y004168D01*
X003867Y004036D01*
X003908Y003899D01*
X003936Y003758D01*
X003950Y003623D01*
X002571Y003623D01*
X002571Y003529D02*
X022099Y003529D01*
X022099Y003685D02*
X022256Y003685D01*
X022256Y003623D02*
X022256Y005002D01*
X022391Y004988D01*
X022532Y004960D01*
X022669Y004919D01*
X022801Y004864D01*
X022928Y004796D01*
X023047Y004717D01*
X023158Y004626D01*
X023259Y004524D01*
X023350Y004414D01*
X023430Y004295D01*
X023497Y004168D01*
X023552Y004036D01*
X023594Y003899D01*
X023621Y003758D01*
X023635Y003623D01*
X022256Y003623D01*
X022256Y003529D02*
X023867Y003529D01*
X023867Y003685D02*
X023629Y003685D01*
X023605Y003841D02*
X023867Y003841D01*
X023867Y003997D02*
X023564Y003997D01*
X023503Y004153D02*
X023867Y004153D01*
X023867Y004309D02*
X023420Y004309D01*
X023308Y004465D02*
X023867Y004465D01*
X023867Y004621D02*
X023721Y004621D01*
X023468Y004621D02*
X023446Y004621D01*
X023446Y004542D02*
X023446Y005009D01*
X022978Y005009D01*
X022978Y004983D01*
X022990Y004908D01*
X023013Y004837D01*
X023047Y004769D01*
X023092Y004708D01*
X023145Y004655D01*
X023206Y004611D01*
X023273Y004577D01*
X023345Y004553D01*
X023419Y004542D01*
X023446Y004542D01*
X023446Y004777D02*
X023468Y004777D01*
X023468Y004933D02*
X023446Y004933D01*
X023446Y005089D02*
X023468Y005089D01*
X023468Y005245D02*
X023446Y005245D01*
X023446Y005401D02*
X023468Y005401D01*
X023748Y005401D02*
X023867Y005401D01*
X023867Y005557D02*
X000917Y005557D01*
X000917Y005713D02*
X023867Y005713D01*
X023867Y005869D02*
X002130Y005869D01*
X002183Y005890D02*
X002323Y006030D01*
X002399Y006213D01*
X002399Y006411D01*
X002323Y006593D01*
X002183Y006733D01*
X002000Y006809D01*
X001803Y006809D01*
X001620Y006733D01*
X001480Y006593D01*
X001405Y006411D01*
X001405Y006213D01*
X001480Y006030D01*
X001620Y005890D01*
X001803Y005815D01*
X002000Y005815D01*
X002183Y005890D01*
X002317Y006025D02*
X023867Y006025D01*
X023867Y006181D02*
X002385Y006181D01*
X002399Y006337D02*
X023867Y006337D01*
X023867Y006493D02*
X002365Y006493D01*
X002267Y006649D02*
X004006Y006649D01*
X003953Y006671D02*
X004091Y006614D01*
X004240Y006614D01*
X004378Y006671D01*
X004484Y006776D01*
X004541Y006914D01*
X004541Y007063D01*
X004484Y007201D01*
X004378Y007307D01*
X004240Y007364D01*
X004091Y007364D01*
X003953Y007307D01*
X003847Y007201D01*
X003790Y007063D01*
X003790Y006914D01*
X003847Y006776D01*
X003953Y006671D01*
X003836Y006805D02*
X002010Y006805D01*
X002000Y006815D02*
X002183Y006890D01*
X002323Y007030D01*
X002399Y007213D01*
X002399Y007411D01*
X002323Y007593D01*
X002183Y007733D01*
X002000Y007809D01*
X001803Y007809D01*
X001620Y007733D01*
X001480Y007593D01*
X001405Y007411D01*
X001405Y007213D01*
X001480Y007030D01*
X001620Y006890D01*
X001803Y006815D01*
X002000Y006815D01*
X001793Y006805D02*
X000917Y006805D01*
X000917Y006961D02*
X001550Y006961D01*
X001445Y007117D02*
X000917Y007117D01*
X000917Y007272D02*
X001405Y007272D01*
X001412Y007428D02*
X000917Y007428D01*
X000917Y007584D02*
X001477Y007584D01*
X001638Y007740D02*
X000917Y007740D01*
X000917Y007896D02*
X001614Y007896D01*
X001620Y007890D02*
X001803Y007815D01*
X002000Y007815D01*
X002183Y007890D01*
X002323Y008030D01*
X002399Y008213D01*
X002399Y008411D01*
X002323Y008593D01*
X002183Y008733D01*
X002000Y008809D01*
X001803Y008809D01*
X001620Y008733D01*
X001480Y008593D01*
X001405Y008411D01*
X001405Y008213D01*
X001480Y008030D01*
X001620Y007890D01*
X001471Y008052D02*
X000917Y008052D01*
X000917Y008208D02*
X001407Y008208D01*
X001405Y008364D02*
X000917Y008364D01*
X000917Y008520D02*
X001450Y008520D01*
X001564Y008676D02*
X000917Y008676D01*
X000917Y008832D02*
X001761Y008832D01*
X001803Y008815D02*
X002000Y008815D01*
X002183Y008890D01*
X002323Y009030D01*
X002399Y009213D01*
X002399Y009411D01*
X002323Y009593D01*
X002183Y009733D01*
X002000Y009809D01*
X001803Y009809D01*
X001620Y009733D01*
X001480Y009593D01*
X001405Y009411D01*
X001405Y009213D01*
X001480Y009030D01*
X001620Y008890D01*
X001803Y008815D01*
X002043Y008832D02*
X004725Y008832D01*
X004725Y008772D02*
X004775Y008653D01*
X004867Y008561D01*
X004986Y008511D01*
X005116Y008511D01*
X005236Y008561D01*
X005328Y008653D01*
X005377Y008772D01*
X005377Y008902D01*
X005328Y009022D01*
X005236Y009114D01*
X005116Y009163D01*
X004986Y009163D01*
X004867Y009114D01*
X004775Y009022D01*
X004725Y008902D01*
X004725Y008772D01*
X004765Y008676D02*
X002240Y008676D01*
X002353Y008520D02*
X004964Y008520D01*
X005138Y008520D02*
X012656Y008520D01*
X012669Y008551D02*
X012619Y008432D01*
X012619Y008302D01*
X012669Y008182D01*
X012760Y008090D01*
X012880Y008041D01*
X013010Y008041D01*
X013130Y008090D01*
X013221Y008182D01*
X013271Y008302D01*
X013271Y008432D01*
X013221Y008551D01*
X013130Y008643D01*
X013010Y008693D01*
X012880Y008693D01*
X012760Y008643D01*
X012669Y008551D01*
X012619Y008364D02*
X002399Y008364D01*
X002397Y008208D02*
X006400Y008208D01*
X006441Y008250D02*
X006350Y008158D01*
X006300Y008038D01*
X006300Y007908D01*
X006350Y007788D01*
X006441Y007697D01*
X006561Y007647D01*
X006691Y007647D01*
X006811Y007697D01*
X006902Y007788D01*
X006952Y007908D01*
X006952Y008038D01*
X006902Y008158D01*
X006811Y008250D01*
X006691Y008299D01*
X006561Y008299D01*
X006441Y008250D01*
X006306Y008052D02*
X002332Y008052D01*
X002189Y007896D02*
X006305Y007896D01*
X006398Y007740D02*
X002165Y007740D01*
X002326Y007584D02*
X016355Y007584D01*
X016339Y007546D02*
X016339Y007416D01*
X016389Y007296D01*
X016481Y007205D01*
X016601Y007155D01*
X016730Y007155D01*
X016850Y007205D01*
X016942Y007296D01*
X016992Y007416D01*
X016992Y007546D01*
X016942Y007666D01*
X016850Y007757D01*
X016730Y007807D01*
X016601Y007807D01*
X016481Y007757D01*
X016389Y007666D01*
X016339Y007546D01*
X016339Y007428D02*
X006844Y007428D01*
X006811Y007462D02*
X006691Y007512D01*
X006561Y007512D01*
X006441Y007462D01*
X006350Y007370D01*
X006300Y007251D01*
X006300Y007121D01*
X006350Y007001D01*
X006441Y006909D01*
X006561Y006860D01*
X006691Y006860D01*
X006811Y006909D01*
X006902Y007001D01*
X006952Y007121D01*
X006952Y007251D01*
X006902Y007370D01*
X006811Y007462D01*
X006943Y007272D02*
X016413Y007272D01*
X016464Y007740D02*
X006855Y007740D01*
X006947Y007896D02*
X023867Y007896D01*
X023867Y007740D02*
X016867Y007740D01*
X016976Y007584D02*
X023867Y007584D01*
X023867Y007428D02*
X016992Y007428D01*
X016918Y007272D02*
X023867Y007272D01*
X023867Y007117D02*
X006950Y007117D01*
X006862Y006961D02*
X023867Y006961D01*
X023867Y006805D02*
X004495Y006805D01*
X004541Y006961D02*
X006390Y006961D01*
X006302Y007117D02*
X004519Y007117D01*
X004413Y007272D02*
X006309Y007272D01*
X006408Y007428D02*
X002391Y007428D01*
X002399Y007272D02*
X003918Y007272D01*
X003812Y007117D02*
X002359Y007117D01*
X002253Y006961D02*
X003790Y006961D01*
X004325Y006649D02*
X023867Y006649D01*
X023867Y008052D02*
X014967Y008052D01*
X014939Y008041D02*
X015059Y008090D01*
X015151Y008182D01*
X015200Y008302D01*
X015200Y008432D01*
X015151Y008551D01*
X015059Y008643D01*
X014939Y008693D01*
X014809Y008693D01*
X014689Y008643D01*
X014598Y008551D01*
X014548Y008432D01*
X014548Y008302D01*
X014598Y008182D01*
X014689Y008090D01*
X014809Y008041D01*
X014939Y008041D01*
X014781Y008052D02*
X013038Y008052D01*
X012852Y008052D02*
X006946Y008052D01*
X006852Y008208D02*
X012658Y008208D01*
X012840Y008676D02*
X011524Y008676D01*
X011535Y008681D02*
X011627Y008773D01*
X011677Y008892D01*
X011677Y009022D01*
X011627Y009142D01*
X011535Y009234D01*
X011471Y009261D01*
X011563Y009353D01*
X011576Y009334D01*
X011629Y009281D01*
X011690Y009237D01*
X011757Y009203D01*
X011829Y009179D01*
X011903Y009168D01*
X011930Y009168D01*
X011930Y009635D01*
X011952Y009635D01*
X011952Y009168D01*
X011979Y009168D01*
X012053Y009179D01*
X012125Y009203D01*
X012192Y009237D01*
X012253Y009281D01*
X012306Y009334D01*
X012350Y009395D01*
X012385Y009463D01*
X012408Y009534D01*
X012420Y009609D01*
X012420Y009635D01*
X011952Y009635D01*
X011952Y009658D01*
X011930Y009658D01*
X011930Y010125D01*
X011903Y010125D01*
X011829Y010113D01*
X011757Y010090D01*
X011690Y010056D01*
X011629Y010011D01*
X011576Y009958D01*
X011563Y009940D01*
X011435Y010068D01*
X011252Y010143D01*
X011055Y010143D01*
X010872Y010068D01*
X010760Y009955D01*
X010648Y010068D01*
X010465Y010143D01*
X010267Y010143D01*
X010085Y010068D01*
X009973Y009955D01*
X009860Y010068D01*
X009678Y010143D01*
X009480Y010143D01*
X009297Y010068D01*
X009185Y009955D01*
X009073Y010068D01*
X008890Y010143D01*
X008693Y010143D01*
X008510Y010068D01*
X008398Y009955D01*
X008285Y010068D01*
X008103Y010143D01*
X007905Y010143D01*
X007723Y010068D01*
X007583Y009928D01*
X007507Y009745D01*
X007507Y009698D01*
X007493Y009733D01*
X007401Y009824D01*
X007281Y009874D01*
X007152Y009874D01*
X007032Y009824D01*
X006940Y009733D01*
X006891Y009613D01*
X006891Y009483D01*
X006940Y009363D01*
X007032Y009271D01*
X007152Y009222D01*
X007281Y009222D01*
X007401Y009271D01*
X007493Y009363D01*
X007538Y009472D01*
X007583Y009365D01*
X007723Y009225D01*
X007905Y009149D01*
X008103Y009149D01*
X008285Y009225D01*
X008398Y009337D01*
X008510Y009225D01*
X008693Y009149D01*
X008890Y009149D01*
X009073Y009225D01*
X009185Y009337D01*
X009297Y009225D01*
X009480Y009149D01*
X009678Y009149D01*
X009860Y009225D01*
X009973Y009337D01*
X010085Y009225D01*
X010267Y009149D01*
X010465Y009149D01*
X010648Y009225D01*
X010760Y009337D01*
X010872Y009225D01*
X011055Y009149D01*
X011081Y009149D01*
X011074Y009142D01*
X011024Y009022D01*
X011024Y008892D01*
X011074Y008773D01*
X011166Y008681D01*
X011286Y008631D01*
X011415Y008631D01*
X011535Y008681D01*
X011652Y008832D02*
X016481Y008832D01*
X016487Y008847D02*
X016438Y008727D01*
X016438Y008597D01*
X016487Y008477D01*
X016579Y008386D01*
X016699Y008336D01*
X016829Y008336D01*
X016949Y008386D01*
X017040Y008477D01*
X017090Y008597D01*
X017090Y008727D01*
X017040Y008847D01*
X017028Y008859D01*
X017040Y008871D01*
X017090Y008991D01*
X017090Y009121D01*
X017040Y009240D01*
X016949Y009332D01*
X016829Y009382D01*
X016699Y009382D01*
X016579Y009332D01*
X016487Y009240D01*
X016438Y009121D01*
X016438Y008991D01*
X016487Y008871D01*
X016500Y008859D01*
X016487Y008847D01*
X016439Y008988D02*
X011677Y008988D01*
X011625Y009144D02*
X016448Y009144D01*
X016547Y009300D02*
X012272Y009300D01*
X012381Y009456D02*
X015132Y009456D01*
X015103Y009468D02*
X015223Y009419D01*
X015352Y009419D01*
X015472Y009468D01*
X015564Y009560D01*
X015614Y009680D01*
X015614Y009810D01*
X015564Y009929D01*
X015472Y010021D01*
X015427Y010040D01*
X015472Y010059D01*
X015564Y010151D01*
X015614Y010270D01*
X015614Y010400D01*
X015564Y010520D01*
X015472Y010612D01*
X015352Y010661D01*
X015223Y010661D01*
X015103Y010612D01*
X015011Y010520D01*
X014961Y010400D01*
X014961Y010270D01*
X015011Y010151D01*
X015103Y010059D01*
X015148Y010040D01*
X015103Y010021D01*
X015011Y009929D01*
X014961Y009810D01*
X014961Y009680D01*
X015011Y009560D01*
X015103Y009468D01*
X014989Y009612D02*
X012420Y009612D01*
X012420Y009658D02*
X012420Y009684D01*
X012408Y009758D01*
X012385Y009830D01*
X012350Y009897D01*
X012306Y009958D01*
X012253Y010011D01*
X012192Y010056D01*
X012125Y010090D01*
X012053Y010113D01*
X011979Y010125D01*
X011952Y010125D01*
X011952Y009658D01*
X012420Y009658D01*
X012405Y009768D02*
X014961Y009768D01*
X015009Y009924D02*
X012331Y009924D01*
X012144Y010080D02*
X015082Y010080D01*
X014976Y010236D02*
X007775Y010236D01*
X007788Y010249D02*
X007838Y010369D01*
X007838Y010404D01*
X007841Y010403D01*
X007970Y010403D01*
X008090Y010453D01*
X008182Y010544D01*
X008232Y010664D01*
X008232Y010794D01*
X008182Y010914D01*
X008090Y011005D01*
X007970Y011055D01*
X007841Y011055D01*
X007721Y011005D01*
X007629Y010914D01*
X007580Y010794D01*
X007580Y010759D01*
X007577Y010760D01*
X007447Y010760D01*
X007327Y010710D01*
X007235Y010618D01*
X007186Y010499D01*
X007186Y010369D01*
X007235Y010249D01*
X007327Y010157D01*
X007447Y010108D01*
X007577Y010108D01*
X007697Y010157D01*
X007788Y010249D01*
X007838Y010392D02*
X014961Y010392D01*
X015039Y010548D02*
X008184Y010548D01*
X008232Y010704D02*
X010878Y010704D01*
X010892Y010698D02*
X011022Y010698D01*
X011141Y010748D01*
X011233Y010840D01*
X011252Y010885D01*
X011271Y010840D01*
X011363Y010748D01*
X011482Y010698D01*
X011612Y010698D01*
X011732Y010748D01*
X011824Y010840D01*
X011873Y010959D01*
X011873Y011089D01*
X011824Y011209D01*
X011732Y011301D01*
X011612Y011350D01*
X011536Y011350D01*
X011578Y011452D01*
X011578Y011581D01*
X011528Y011701D01*
X011437Y011793D01*
X011317Y011842D01*
X011187Y011842D01*
X011067Y011793D01*
X010976Y011701D01*
X010957Y011656D01*
X010938Y011701D01*
X010846Y011793D01*
X010726Y011842D01*
X010597Y011842D01*
X010477Y011793D01*
X010385Y011701D01*
X010335Y011581D01*
X010335Y011452D01*
X010385Y011332D01*
X010477Y011240D01*
X010597Y011190D01*
X010673Y011190D01*
X010631Y011089D01*
X010631Y010959D01*
X010680Y010840D01*
X010772Y010748D01*
X010892Y010698D01*
X011036Y010704D02*
X011468Y010704D01*
X011626Y010704D02*
X016553Y010704D01*
X016566Y010737D02*
X016517Y010617D01*
X016517Y010487D01*
X016566Y010367D01*
X016658Y010275D01*
X016778Y010226D01*
X016907Y010226D01*
X017027Y010275D01*
X017119Y010367D01*
X017169Y010487D01*
X017169Y010617D01*
X017119Y010737D01*
X017027Y010828D01*
X016907Y010878D01*
X016778Y010878D01*
X016658Y010828D01*
X016566Y010737D01*
X016517Y010548D02*
X015536Y010548D01*
X015614Y010392D02*
X016556Y010392D01*
X016753Y010236D02*
X015599Y010236D01*
X015493Y010080D02*
X023867Y010080D01*
X023867Y009924D02*
X015566Y009924D01*
X015614Y009768D02*
X023867Y009768D01*
X023867Y009612D02*
X015586Y009612D01*
X015443Y009456D02*
X023867Y009456D01*
X023867Y009300D02*
X016981Y009300D01*
X017080Y009144D02*
X023867Y009144D01*
X023867Y008988D02*
X017089Y008988D01*
X017046Y008832D02*
X023867Y008832D01*
X023867Y008676D02*
X017090Y008676D01*
X017058Y008520D02*
X023867Y008520D01*
X023867Y008364D02*
X016897Y008364D01*
X016631Y008364D02*
X015200Y008364D01*
X015161Y008208D02*
X023867Y008208D01*
X023867Y010236D02*
X016932Y010236D01*
X017129Y010392D02*
X023867Y010392D01*
X023867Y010548D02*
X017169Y010548D01*
X017132Y010704D02*
X023867Y010704D01*
X023867Y010860D02*
X016951Y010860D01*
X016735Y010860D02*
X011832Y010860D01*
X011873Y011016D02*
X023867Y011016D01*
X023867Y011172D02*
X011839Y011172D01*
X011666Y011328D02*
X015620Y011328D01*
X015595Y011338D02*
X015715Y011289D01*
X015844Y011289D01*
X015964Y011338D01*
X016056Y011430D01*
X016106Y011550D01*
X016106Y011680D01*
X016056Y011800D01*
X015964Y011891D01*
X015844Y011941D01*
X015715Y011941D01*
X015595Y011891D01*
X015503Y011800D01*
X015454Y011680D01*
X015454Y011550D01*
X015503Y011430D01*
X015595Y011338D01*
X015481Y011484D02*
X011578Y011484D01*
X011554Y011640D02*
X012537Y011640D01*
X012544Y011634D02*
X012664Y011584D01*
X012793Y011584D01*
X012913Y011634D01*
X013005Y011725D01*
X013005Y011726D01*
X013017Y011708D01*
X013071Y011653D01*
X013135Y011611D01*
X013206Y011582D01*
X013281Y011567D01*
X013319Y011567D01*
X013319Y011955D01*
X013319Y011567D01*
X013357Y011567D01*
X013432Y011582D01*
X013503Y011611D01*
X013567Y011653D01*
X013621Y011708D01*
X013663Y011771D01*
X013693Y011842D01*
X013708Y011917D01*
X013708Y011955D01*
X013319Y011955D01*
X013319Y011955D01*
X013319Y011955D01*
X013708Y011955D01*
X013708Y011994D01*
X013693Y012069D01*
X013663Y012140D01*
X013629Y012190D01*
X013664Y012225D01*
X013726Y012374D01*
X013726Y012536D01*
X013664Y012686D01*
X013549Y012800D01*
X013400Y012862D01*
X013238Y012862D01*
X013089Y012800D01*
X012974Y012686D01*
X012912Y012536D01*
X012912Y012374D01*
X012974Y012225D01*
X013009Y012190D01*
X012974Y012140D01*
X012970Y012129D01*
X012913Y012187D01*
X012793Y012236D01*
X012664Y012236D01*
X012544Y012187D01*
X012452Y012095D01*
X012402Y011975D01*
X012402Y011845D01*
X012452Y011725D01*
X012544Y011634D01*
X012423Y011796D02*
X011429Y011796D01*
X011075Y011796D02*
X010839Y011796D01*
X010484Y011796D02*
X009559Y011796D01*
X009567Y011793D02*
X009447Y011842D01*
X009317Y011842D01*
X009197Y011793D01*
X009106Y011701D01*
X009056Y011581D01*
X009056Y011452D01*
X009106Y011332D01*
X009197Y011240D01*
X009317Y011190D01*
X009447Y011190D01*
X009567Y011240D01*
X009658Y011332D01*
X009708Y011452D01*
X009708Y011581D01*
X009658Y011701D01*
X009567Y011793D01*
X009684Y011640D02*
X010360Y011640D01*
X010335Y011484D02*
X009708Y011484D01*
X009655Y011328D02*
X010389Y011328D01*
X010665Y011172D02*
X002382Y011172D01*
X002399Y011213D02*
X002323Y011030D01*
X002183Y010890D01*
X002000Y010815D01*
X001803Y010815D01*
X001620Y010890D01*
X001480Y011030D01*
X001405Y011213D01*
X001405Y011411D01*
X001480Y011593D01*
X001620Y011733D01*
X001803Y011809D01*
X002000Y011809D01*
X002183Y011733D01*
X002323Y011593D01*
X002399Y011411D01*
X002399Y011213D01*
X002399Y011328D02*
X007928Y011328D01*
X007924Y011332D02*
X008016Y011240D01*
X008136Y011190D01*
X008266Y011190D01*
X008386Y011240D01*
X008477Y011332D01*
X008527Y011452D01*
X008527Y011581D01*
X008477Y011701D01*
X008416Y011763D01*
X008484Y011791D01*
X008576Y011883D01*
X008625Y012003D01*
X008625Y012009D01*
X008705Y011929D01*
X008825Y011879D01*
X008955Y011879D01*
X009075Y011929D01*
X009166Y012021D01*
X009216Y012141D01*
X009216Y012270D01*
X009166Y012390D01*
X009075Y012482D01*
X008955Y012531D01*
X008825Y012531D01*
X008705Y012482D01*
X008613Y012390D01*
X008564Y012270D01*
X008564Y012264D01*
X008484Y012344D01*
X008364Y012394D01*
X008234Y012394D01*
X008115Y012344D01*
X008023Y012252D01*
X007973Y012132D01*
X007973Y012003D01*
X008023Y011883D01*
X008085Y011821D01*
X008016Y011793D01*
X007924Y011701D01*
X007875Y011581D01*
X007875Y011452D01*
X007924Y011332D01*
X007875Y011484D02*
X002368Y011484D01*
X002276Y011640D02*
X007899Y011640D01*
X008024Y011796D02*
X002031Y011796D01*
X002000Y011815D02*
X002183Y011890D01*
X002323Y012030D01*
X002399Y012213D01*
X002399Y012411D01*
X002323Y012593D01*
X002183Y012733D01*
X002000Y012809D01*
X001803Y012809D01*
X001620Y012733D01*
X001480Y012593D01*
X001405Y012411D01*
X001405Y012213D01*
X001480Y012030D01*
X001620Y011890D01*
X001803Y011815D01*
X002000Y011815D01*
X001772Y011796D02*
X000917Y011796D01*
X000917Y011952D02*
X001559Y011952D01*
X001448Y012108D02*
X000917Y012108D01*
X000917Y012264D02*
X001405Y012264D01*
X001409Y012420D02*
X000917Y012420D01*
X000917Y012576D02*
X001473Y012576D01*
X001619Y012732D02*
X000917Y012732D01*
X000917Y012888D02*
X001627Y012888D01*
X001620Y012890D02*
X001803Y012815D01*
X002000Y012815D01*
X002183Y012890D01*
X002323Y013030D01*
X002399Y013213D01*
X002399Y013411D01*
X002323Y013593D01*
X002183Y013733D01*
X002000Y013809D01*
X001803Y013809D01*
X001620Y013733D01*
X001480Y013593D01*
X001405Y013411D01*
X001405Y013213D01*
X001480Y013030D01*
X001620Y012890D01*
X001475Y013044D02*
X000917Y013044D01*
X000917Y013200D02*
X001410Y013200D01*
X001405Y013356D02*
X000917Y013356D01*
X000917Y013512D02*
X001447Y013512D01*
X001555Y013668D02*
X000917Y013668D01*
X000917Y013824D02*
X006110Y013824D01*
X006146Y013860D02*
X006054Y013768D01*
X006005Y013648D01*
X006005Y013518D01*
X006054Y013399D01*
X006146Y013307D01*
X006266Y013257D01*
X006396Y013257D01*
X006515Y013307D01*
X006607Y013399D01*
X006626Y013444D01*
X006645Y013399D01*
X006737Y013307D01*
X006856Y013257D01*
X006986Y013257D01*
X007087Y013299D01*
X007087Y013223D01*
X007137Y013103D01*
X007229Y013012D01*
X007349Y012962D01*
X007478Y012962D01*
X007598Y013012D01*
X007690Y013103D01*
X007740Y013223D01*
X007740Y013353D01*
X007690Y013473D01*
X007598Y013564D01*
X007478Y013614D01*
X007349Y013614D01*
X007247Y013572D01*
X007247Y013648D01*
X007198Y013768D01*
X007106Y013860D01*
X006986Y013909D01*
X006856Y013909D01*
X006737Y013860D01*
X006645Y013768D01*
X006626Y013723D01*
X006607Y013768D01*
X006515Y013860D01*
X006396Y013909D01*
X006266Y013909D01*
X006146Y013860D01*
X006013Y013668D02*
X002248Y013668D01*
X002357Y013512D02*
X006008Y013512D01*
X005904Y013417D02*
X006023Y013368D01*
X006115Y013276D01*
X006165Y013156D01*
X006165Y013026D01*
X006115Y012907D01*
X006023Y012815D01*
X005904Y012765D01*
X005774Y012765D01*
X005654Y012815D01*
X005562Y012907D01*
X005513Y013026D01*
X005513Y013156D01*
X005562Y013276D01*
X005654Y013368D01*
X005774Y013417D01*
X005904Y013417D01*
X006035Y013356D02*
X006097Y013356D01*
X006147Y013200D02*
X007097Y013200D01*
X007197Y013044D02*
X006165Y013044D01*
X006096Y012888D02*
X022128Y012888D01*
X022138Y012901D02*
X022095Y012842D01*
X022062Y012777D01*
X022039Y012708D01*
X022028Y012636D01*
X022028Y012604D01*
X022487Y012604D01*
X022487Y012594D01*
X022028Y012594D01*
X022028Y012563D01*
X022039Y012490D01*
X022062Y012421D01*
X022095Y012356D01*
X022138Y012297D01*
X022190Y012245D01*
X022249Y012202D01*
X022314Y012169D01*
X022384Y012146D01*
X022456Y012135D01*
X022487Y012135D01*
X022487Y012594D01*
X022497Y012594D01*
X022497Y012135D01*
X022529Y012135D01*
X022601Y012146D01*
X022670Y012169D01*
X022735Y012202D01*
X022795Y012245D01*
X022846Y012297D01*
X022889Y012356D01*
X022922Y012421D01*
X022945Y012490D01*
X022956Y012563D01*
X022956Y012594D01*
X022497Y012594D01*
X022497Y012604D01*
X022487Y012604D01*
X022487Y013063D01*
X022456Y013063D01*
X022384Y013052D01*
X022314Y013029D01*
X022249Y012996D01*
X022190Y012953D01*
X022138Y012901D01*
X022047Y012732D02*
X018806Y012732D01*
X018776Y012762D02*
X018620Y012827D01*
X018451Y012827D01*
X018295Y012762D01*
X018176Y012643D01*
X018111Y012487D01*
X018111Y012318D01*
X018176Y012162D01*
X018295Y012042D01*
X018451Y011978D01*
X018620Y011978D01*
X018776Y012042D01*
X018895Y012162D01*
X018960Y012318D01*
X018960Y012487D01*
X018895Y012643D01*
X018776Y012762D01*
X018923Y012576D02*
X022028Y012576D01*
X022063Y012420D02*
X018960Y012420D01*
X018938Y012264D02*
X022171Y012264D01*
X022487Y012264D02*
X022497Y012264D01*
X022487Y012420D02*
X022497Y012420D01*
X022487Y012576D02*
X022497Y012576D01*
X022497Y012604D02*
X022956Y012604D01*
X022956Y012636D01*
X022945Y012708D01*
X022922Y012777D01*
X022889Y012842D01*
X022846Y012901D01*
X022795Y012953D01*
X022735Y012996D01*
X022670Y013029D01*
X022601Y013052D01*
X022529Y013063D01*
X022497Y013063D01*
X022497Y012604D01*
X022487Y012732D02*
X022497Y012732D01*
X022487Y012888D02*
X022497Y012888D01*
X022487Y013044D02*
X022497Y013044D01*
X022626Y013044D02*
X023867Y013044D01*
X023867Y013200D02*
X021903Y013200D01*
X021913Y013223D02*
X021863Y013103D01*
X021771Y013012D01*
X021652Y012962D01*
X021522Y012962D01*
X021402Y013012D01*
X021310Y013103D01*
X021261Y013223D01*
X021261Y013353D01*
X021310Y013473D01*
X021330Y013493D01*
X021304Y013504D01*
X021212Y013595D01*
X021162Y013715D01*
X021162Y013845D01*
X021212Y013965D01*
X021304Y014057D01*
X021423Y014106D01*
X021553Y014106D01*
X021673Y014057D01*
X021765Y013965D01*
X021814Y013845D01*
X021814Y013715D01*
X021765Y013595D01*
X021745Y013576D01*
X021771Y013564D01*
X021863Y013473D01*
X021913Y013353D01*
X021913Y013223D01*
X021912Y013356D02*
X023867Y013356D01*
X023867Y013512D02*
X021824Y013512D01*
X021795Y013668D02*
X023867Y013668D01*
X023867Y013824D02*
X021814Y013824D01*
X021750Y013980D02*
X023867Y013980D01*
X023867Y014136D02*
X022665Y014136D01*
X022670Y014137D02*
X022735Y014171D01*
X022795Y014214D01*
X022846Y014265D01*
X022889Y014324D01*
X022922Y014389D01*
X022945Y014459D01*
X022956Y014531D01*
X022956Y014563D01*
X022497Y014563D01*
X022497Y014573D01*
X022487Y014573D01*
X022487Y015032D01*
X022456Y015032D01*
X022384Y015020D01*
X022314Y014998D01*
X022249Y014965D01*
X022190Y014922D01*
X022138Y014870D01*
X022095Y014811D01*
X022062Y014746D01*
X022039Y014676D01*
X022028Y014604D01*
X022028Y014573D01*
X022487Y014573D01*
X022487Y014563D01*
X022028Y014563D01*
X022028Y014531D01*
X022039Y014459D01*
X022062Y014389D01*
X022095Y014324D01*
X022138Y014265D01*
X022190Y014214D01*
X022249Y014171D01*
X022314Y014137D01*
X022384Y014115D01*
X022456Y014103D01*
X022487Y014103D01*
X022487Y014563D01*
X022497Y014563D01*
X022497Y014103D01*
X022529Y014103D01*
X022601Y014115D01*
X022670Y014137D01*
X022497Y014136D02*
X022487Y014136D01*
X022487Y014292D02*
X022497Y014292D01*
X022487Y014448D02*
X022497Y014448D01*
X022497Y014573D02*
X022956Y014573D01*
X022956Y014604D01*
X022945Y014676D01*
X022922Y014746D01*
X022889Y014811D01*
X022846Y014870D01*
X022795Y014922D01*
X022735Y014965D01*
X022670Y014998D01*
X022601Y015020D01*
X022529Y015032D01*
X022497Y015032D01*
X022497Y014573D01*
X022497Y014604D02*
X022487Y014604D01*
X022487Y014760D02*
X022497Y014760D01*
X022487Y014916D02*
X022497Y014916D01*
X022801Y014916D02*
X023506Y014916D01*
X023506Y014912D02*
X022993Y014912D01*
X023006Y014830D01*
X023034Y014745D01*
X023074Y014666D01*
X023126Y014595D01*
X023189Y014532D01*
X023260Y014480D01*
X023339Y014440D01*
X023423Y014413D01*
X023506Y014399D01*
X023506Y014912D01*
X023506Y014760D02*
X023604Y014760D01*
X023604Y014604D02*
X023506Y014604D01*
X023506Y014448D02*
X023604Y014448D01*
X023786Y014448D02*
X023867Y014448D01*
X023867Y014292D02*
X022865Y014292D01*
X022941Y014448D02*
X023324Y014448D01*
X023120Y014604D02*
X022956Y014604D01*
X022915Y014760D02*
X023029Y014760D01*
X023003Y015072D02*
X019101Y015072D01*
X019101Y015073D02*
X019078Y015145D01*
X019043Y015212D01*
X018999Y015273D01*
X018946Y015326D01*
X018885Y015371D01*
X018818Y015405D01*
X018746Y015428D01*
X018672Y015440D01*
X018645Y015440D01*
X018645Y014973D01*
X018623Y014973D01*
X018623Y015440D01*
X018596Y015440D01*
X018522Y015428D01*
X018450Y015405D01*
X018383Y015371D01*
X018322Y015326D01*
X018269Y015273D01*
X018224Y015212D01*
X018190Y015145D01*
X018167Y015073D01*
X018155Y014999D01*
X018155Y014973D01*
X018623Y014973D01*
X018623Y014950D01*
X018155Y014950D01*
X018155Y014924D01*
X018167Y014849D01*
X018190Y014778D01*
X018224Y014710D01*
X018269Y014649D01*
X018322Y014596D01*
X018340Y014583D01*
X018213Y014455D01*
X018137Y014273D01*
X018137Y014075D01*
X018213Y013892D01*
X018353Y013753D01*
X018535Y013677D01*
X018733Y013677D01*
X018915Y013753D01*
X019055Y013892D01*
X019131Y014075D01*
X019131Y014273D01*
X019055Y014455D01*
X018928Y014583D01*
X018946Y014596D01*
X018999Y014649D01*
X019043Y014710D01*
X019078Y014778D01*
X019101Y014849D01*
X019113Y014924D01*
X019113Y014950D01*
X018645Y014950D01*
X018645Y014973D01*
X019113Y014973D01*
X019113Y014999D01*
X019101Y015073D01*
X019111Y014916D02*
X022184Y014916D01*
X022069Y014760D02*
X019068Y014760D01*
X018953Y014604D02*
X022028Y014604D01*
X022043Y014448D02*
X019058Y014448D01*
X019123Y014292D02*
X022119Y014292D01*
X022319Y014136D02*
X019131Y014136D01*
X019091Y013980D02*
X019750Y013980D01*
X019735Y013965D02*
X019686Y013845D01*
X019686Y013715D01*
X019735Y013595D01*
X019827Y013504D01*
X019947Y013454D01*
X020077Y013454D01*
X020197Y013504D01*
X020288Y013595D01*
X020338Y013715D01*
X020338Y013845D01*
X020288Y013965D01*
X020197Y014057D01*
X020077Y014106D01*
X019947Y014106D01*
X019827Y014057D01*
X019735Y013965D01*
X019686Y013824D02*
X018986Y013824D01*
X018645Y015072D02*
X018623Y015072D01*
X018623Y015228D02*
X018645Y015228D01*
X018645Y015383D02*
X018623Y015383D01*
X018408Y015383D02*
X016992Y015383D01*
X016992Y015420D02*
X016942Y015540D01*
X016850Y015631D01*
X016730Y015681D01*
X016601Y015681D01*
X016481Y015631D01*
X016389Y015540D01*
X016339Y015420D01*
X016339Y015290D01*
X016389Y015170D01*
X016469Y015090D01*
X016404Y015090D01*
X016284Y015041D01*
X016192Y014949D01*
X016143Y014829D01*
X016143Y014700D01*
X016192Y014580D01*
X016284Y014488D01*
X016404Y014438D01*
X016533Y014438D01*
X016653Y014488D01*
X016745Y014580D01*
X016772Y014646D01*
X016797Y014635D01*
X016832Y014635D01*
X016832Y014601D01*
X016881Y014481D01*
X016958Y014405D01*
X016930Y014337D01*
X016930Y014207D01*
X016980Y014088D01*
X017071Y013996D01*
X017191Y013946D01*
X017321Y013946D01*
X017441Y013996D01*
X017532Y014088D01*
X017582Y014207D01*
X017582Y014337D01*
X017532Y014457D01*
X017456Y014534D01*
X017484Y014601D01*
X017484Y014731D01*
X017434Y014851D01*
X017342Y014942D01*
X017222Y014992D01*
X017188Y014992D01*
X017188Y015026D01*
X017139Y015146D01*
X017047Y015238D01*
X016981Y015265D01*
X016992Y015290D01*
X016992Y015420D01*
X016942Y015539D02*
X023867Y015539D01*
X023867Y015695D02*
X016270Y015695D01*
X016253Y015737D02*
X016161Y015828D01*
X016041Y015878D01*
X015912Y015878D01*
X015792Y015828D01*
X015700Y015737D01*
X015650Y015617D01*
X015650Y015487D01*
X015700Y015367D01*
X015792Y015275D01*
X015912Y015226D01*
X016041Y015226D01*
X016161Y015275D01*
X016253Y015367D01*
X016303Y015487D01*
X016303Y015617D01*
X016253Y015737D01*
X016105Y015851D02*
X023867Y015851D01*
X023867Y016007D02*
X011477Y016007D01*
X011515Y016023D02*
X011607Y016115D01*
X011657Y016235D01*
X011657Y016365D01*
X011607Y016485D01*
X011515Y016576D01*
X011396Y016626D01*
X011266Y016626D01*
X011146Y016576D01*
X011054Y016485D01*
X011005Y016365D01*
X011005Y016235D01*
X011054Y016115D01*
X011146Y016023D01*
X011266Y015974D01*
X011396Y015974D01*
X011515Y016023D01*
X011627Y016163D02*
X023867Y016163D01*
X023867Y016319D02*
X011657Y016319D01*
X011611Y016475D02*
X023867Y016475D01*
X023867Y016631D02*
X009945Y016631D01*
X009954Y016622D02*
X009862Y016714D01*
X009742Y016764D01*
X009612Y016764D01*
X009493Y016714D01*
X009401Y016622D01*
X009351Y016503D01*
X009351Y016373D01*
X009401Y016253D01*
X009493Y016161D01*
X009612Y016112D01*
X009742Y016112D01*
X009862Y016161D01*
X009954Y016253D01*
X010003Y016373D01*
X010003Y016503D01*
X009954Y016622D01*
X010003Y016475D02*
X011051Y016475D01*
X011005Y016319D02*
X009981Y016319D01*
X009864Y016163D02*
X011034Y016163D01*
X011185Y016007D02*
X002272Y016007D01*
X002267Y016000D02*
X002311Y016061D01*
X002345Y016128D01*
X002369Y016200D01*
X002380Y016274D01*
X002380Y016290D01*
X001923Y016290D01*
X001923Y015833D01*
X001939Y015833D01*
X002014Y015845D01*
X002085Y015868D01*
X002153Y015902D01*
X002214Y015947D01*
X002267Y016000D01*
X002357Y016163D02*
X009490Y016163D01*
X009373Y016319D02*
X001923Y016319D01*
X001923Y016333D02*
X002380Y016333D01*
X002380Y016349D01*
X002369Y016424D01*
X002345Y016495D01*
X002311Y016563D01*
X002267Y016624D01*
X002214Y016677D01*
X002153Y016721D01*
X002085Y016755D01*
X002014Y016779D01*
X001939Y016790D01*
X001923Y016790D01*
X001923Y016333D01*
X001923Y016290D01*
X001880Y016290D01*
X001880Y015833D01*
X001864Y015833D01*
X001790Y015845D01*
X001718Y015868D01*
X001651Y015902D01*
X001590Y015947D01*
X001537Y016000D01*
X001492Y016061D01*
X001458Y016128D01*
X001435Y016200D01*
X001423Y016274D01*
X001423Y016290D01*
X001880Y016290D01*
X001880Y016333D01*
X001423Y016333D01*
X001423Y016349D01*
X001435Y016424D01*
X001458Y016495D01*
X001492Y016563D01*
X001537Y016624D01*
X001590Y016677D01*
X001651Y016721D01*
X001718Y016755D01*
X001790Y016779D01*
X001864Y016790D01*
X001880Y016790D01*
X001880Y016333D01*
X001923Y016333D01*
X001880Y016319D02*
X000917Y016319D01*
X000917Y016163D02*
X001446Y016163D01*
X001531Y016007D02*
X000917Y016007D01*
X000917Y015851D02*
X001769Y015851D01*
X001803Y015809D02*
X001620Y015733D01*
X001480Y015593D01*
X001405Y015411D01*
X001405Y015213D01*
X001480Y015030D01*
X001620Y014890D01*
X001803Y014815D01*
X002000Y014815D01*
X002183Y014890D01*
X002323Y015030D01*
X002399Y015213D01*
X002399Y015411D01*
X002323Y015593D01*
X002183Y015733D01*
X002000Y015809D01*
X001803Y015809D01*
X001880Y015851D02*
X001923Y015851D01*
X002034Y015851D02*
X015848Y015851D01*
X015683Y015695D02*
X002221Y015695D01*
X002345Y015539D02*
X014134Y015539D01*
X014119Y015533D02*
X014027Y015441D01*
X013977Y015321D01*
X013977Y015192D01*
X014027Y015072D01*
X014119Y014980D01*
X014238Y014930D01*
X014368Y014930D01*
X014488Y014980D01*
X014580Y015072D01*
X014629Y015192D01*
X014629Y015321D01*
X014580Y015441D01*
X014488Y015533D01*
X014368Y015583D01*
X014238Y015583D01*
X014119Y015533D01*
X014003Y015383D02*
X002399Y015383D01*
X002399Y015228D02*
X013977Y015228D01*
X014027Y015072D02*
X010816Y015072D01*
X010840Y015048D02*
X010748Y015139D01*
X010628Y015189D01*
X010498Y015189D01*
X010378Y015139D01*
X010287Y015048D01*
X010237Y014928D01*
X010237Y014798D01*
X010287Y014678D01*
X010378Y014586D01*
X010434Y014563D01*
X010434Y014503D01*
X010484Y014383D01*
X010575Y014291D01*
X010695Y014242D01*
X010729Y014242D01*
X010729Y014207D01*
X010779Y014088D01*
X010871Y013996D01*
X010990Y013946D01*
X011024Y013946D01*
X011024Y013912D01*
X011074Y013792D01*
X011166Y013701D01*
X011286Y013651D01*
X011415Y013651D01*
X011535Y013701D01*
X011627Y013792D01*
X011677Y013912D01*
X011677Y014042D01*
X011627Y014162D01*
X011535Y014253D01*
X011415Y014303D01*
X011381Y014303D01*
X011381Y014337D01*
X011332Y014457D01*
X011240Y014549D01*
X011120Y014598D01*
X011086Y014598D01*
X011086Y014632D01*
X011036Y014752D01*
X010945Y014844D01*
X010889Y014867D01*
X010889Y014928D01*
X010840Y015048D01*
X010889Y014916D02*
X016178Y014916D01*
X016143Y014760D02*
X014671Y014760D01*
X014678Y014752D02*
X014586Y014844D01*
X014467Y014894D01*
X014337Y014894D01*
X014217Y014844D01*
X014125Y014752D01*
X014076Y014632D01*
X014076Y014503D01*
X014125Y014383D01*
X014217Y014291D01*
X014337Y014242D01*
X014467Y014242D01*
X014586Y014291D01*
X014678Y014383D01*
X014728Y014503D01*
X014728Y014632D01*
X014678Y014752D01*
X014728Y014604D02*
X016182Y014604D01*
X016381Y014448D02*
X014705Y014448D01*
X014587Y014292D02*
X016930Y014292D01*
X016915Y014448D02*
X016556Y014448D01*
X016755Y014604D02*
X016832Y014604D01*
X016960Y014136D02*
X011638Y014136D01*
X011677Y013980D02*
X017110Y013980D01*
X017402Y013980D02*
X018177Y013980D01*
X018137Y014136D02*
X017552Y014136D01*
X017582Y014292D02*
X018145Y014292D01*
X018210Y014448D02*
X017536Y014448D01*
X017484Y014604D02*
X018315Y014604D01*
X018199Y014760D02*
X017472Y014760D01*
X017369Y014916D02*
X018156Y014916D01*
X018167Y015072D02*
X017170Y015072D01*
X017057Y015228D02*
X018236Y015228D01*
X018860Y015383D02*
X023182Y015383D01*
X023059Y015228D02*
X019032Y015228D01*
X018281Y013824D02*
X011640Y013824D01*
X011456Y013668D02*
X019706Y013668D01*
X019819Y013512D02*
X012474Y013512D01*
X012513Y013473D02*
X012421Y013564D01*
X012301Y013614D01*
X012171Y013614D01*
X012052Y013564D01*
X011960Y013473D01*
X011910Y013353D01*
X011910Y013223D01*
X011960Y013103D01*
X012052Y013012D01*
X012171Y012962D01*
X012301Y012962D01*
X012421Y013012D01*
X012513Y013103D01*
X012562Y013223D01*
X012562Y013353D01*
X012513Y013473D01*
X012561Y013356D02*
X021262Y013356D01*
X021270Y013200D02*
X012553Y013200D01*
X012453Y013044D02*
X021370Y013044D01*
X021296Y013512D02*
X020205Y013512D01*
X020318Y013668D02*
X021182Y013668D01*
X021162Y013824D02*
X020338Y013824D01*
X020274Y013980D02*
X021227Y013980D01*
X021804Y013044D02*
X022359Y013044D01*
X022856Y012888D02*
X023867Y012888D01*
X023867Y012732D02*
X023756Y012732D01*
X023604Y012732D02*
X023506Y012732D01*
X023355Y012732D02*
X022937Y012732D01*
X022956Y012576D02*
X023130Y012576D01*
X023033Y012420D02*
X022922Y012420D01*
X022995Y012264D02*
X022813Y012264D01*
X022993Y012156D02*
X023006Y012074D01*
X023034Y011989D01*
X023074Y011911D01*
X023126Y011839D01*
X023189Y011776D01*
X023260Y011724D01*
X023339Y011684D01*
X023423Y011657D01*
X023506Y011644D01*
X023506Y012156D01*
X022993Y012156D01*
X023001Y012108D02*
X018842Y012108D01*
X018230Y012108D02*
X013677Y012108D01*
X013680Y012264D02*
X018133Y012264D01*
X018111Y012420D02*
X013726Y012420D01*
X013709Y012576D02*
X018148Y012576D01*
X018265Y012732D02*
X013618Y012732D01*
X013708Y011952D02*
X023053Y011952D01*
X023169Y011796D02*
X016058Y011796D01*
X016106Y011640D02*
X023867Y011640D01*
X023867Y011484D02*
X016078Y011484D01*
X015939Y011328D02*
X023867Y011328D01*
X023604Y011796D02*
X023506Y011796D01*
X023506Y011952D02*
X023604Y011952D01*
X023604Y012108D02*
X023506Y012108D01*
X023506Y012264D02*
X023604Y012264D01*
X023604Y012420D02*
X023506Y012420D01*
X023506Y012576D02*
X023604Y012576D01*
X023604Y015072D02*
X023506Y015072D01*
X023506Y015228D02*
X023604Y015228D01*
X023604Y015383D02*
X023506Y015383D01*
X023867Y016787D02*
X001959Y016787D01*
X001923Y016787D02*
X001880Y016787D01*
X001844Y016787D02*
X000917Y016787D01*
X000917Y016631D02*
X001544Y016631D01*
X001451Y016475D02*
X000917Y016475D01*
X000917Y016943D02*
X001567Y016943D01*
X001620Y016890D02*
X001803Y016815D01*
X002000Y016815D01*
X002183Y016890D01*
X002323Y017030D01*
X002399Y017213D01*
X002399Y017411D01*
X002323Y017593D01*
X002183Y017733D01*
X002000Y017809D01*
X001803Y017809D01*
X001620Y017733D01*
X001480Y017593D01*
X001405Y017411D01*
X000917Y017411D01*
X000917Y017255D02*
X001405Y017255D01*
X001405Y017213D02*
X001480Y017030D01*
X001620Y016890D01*
X001452Y017099D02*
X000917Y017099D01*
X000917Y017567D02*
X001470Y017567D01*
X001405Y017411D02*
X001405Y017213D01*
X001611Y017723D02*
X000917Y017723D01*
X000917Y017879D02*
X006436Y017879D01*
X006461Y017854D02*
X006369Y017946D01*
X006320Y018066D01*
X006320Y018195D01*
X006354Y018278D01*
X006320Y018361D01*
X006320Y018491D01*
X006354Y018573D01*
X006320Y018656D01*
X006320Y018786D01*
X006369Y018906D01*
X006461Y018998D01*
X006546Y019033D01*
X006509Y019070D01*
X006459Y019190D01*
X006459Y019319D01*
X006509Y019439D01*
X000917Y019439D01*
X000917Y019595D02*
X014469Y019595D01*
X014469Y019652D02*
X014469Y019522D01*
X014519Y019403D01*
X014611Y019311D01*
X014731Y019261D01*
X014860Y019261D01*
X014980Y019311D01*
X015072Y019403D01*
X015121Y019522D01*
X015121Y019652D01*
X015072Y019772D01*
X014980Y019864D01*
X014860Y019913D01*
X014731Y019913D01*
X014611Y019864D01*
X014519Y019772D01*
X014469Y019652D01*
X014510Y019751D02*
X009712Y019751D01*
X009757Y019796D02*
X009806Y019916D01*
X009806Y020046D01*
X009757Y020166D01*
X009665Y020257D01*
X009545Y020307D01*
X009416Y020307D01*
X009296Y020257D01*
X009204Y020166D01*
X009154Y020046D01*
X009154Y019916D01*
X009204Y019796D01*
X009296Y019705D01*
X009416Y019655D01*
X009545Y019655D01*
X009665Y019705D01*
X009757Y019796D01*
X009803Y019907D02*
X011948Y019907D01*
X011953Y019901D02*
X012073Y019852D01*
X012203Y019852D01*
X012323Y019901D01*
X012414Y019993D01*
X012464Y020113D01*
X012464Y020243D01*
X012414Y020363D01*
X012323Y020454D01*
X012203Y020504D01*
X012073Y020504D01*
X011953Y020454D01*
X011861Y020363D01*
X011812Y020243D01*
X011812Y020113D01*
X011861Y019993D01*
X011953Y019901D01*
X011833Y020063D02*
X009799Y020063D01*
X009704Y020219D02*
X011812Y020219D01*
X011874Y020375D02*
X000917Y020375D01*
X000917Y020531D02*
X011225Y020531D01*
X011264Y020492D02*
X011384Y020442D01*
X011514Y020442D01*
X011634Y020492D01*
X011725Y020584D01*
X011775Y020704D01*
X011775Y020833D01*
X011725Y020953D01*
X011634Y021045D01*
X011514Y021094D01*
X011384Y021094D01*
X011264Y021045D01*
X011172Y020953D01*
X011123Y020833D01*
X011123Y020704D01*
X011172Y020584D01*
X011264Y020492D01*
X011130Y020687D02*
X000917Y020687D01*
X000917Y020843D02*
X011127Y020843D01*
X011218Y020999D02*
X007121Y020999D01*
X007106Y020984D02*
X007198Y021076D01*
X007247Y021196D01*
X007247Y021325D01*
X007198Y021445D01*
X007106Y021537D01*
X006986Y021587D01*
X006856Y021587D01*
X006737Y021537D01*
X006645Y021445D01*
X006608Y021355D01*
X006608Y021434D01*
X006551Y021571D01*
X006445Y021677D01*
X006307Y021734D01*
X006158Y021734D01*
X006020Y021677D01*
X005914Y021571D01*
X005857Y021434D01*
X005857Y021284D01*
X005914Y021146D01*
X006020Y021041D01*
X006158Y020984D01*
X006307Y020984D01*
X006445Y021041D01*
X006551Y021146D01*
X006595Y021254D01*
X006595Y021196D01*
X006645Y021076D01*
X006737Y020984D01*
X006856Y020934D01*
X006986Y020934D01*
X007106Y020984D01*
X007230Y021155D02*
X011724Y021155D01*
X011713Y021129D02*
X011713Y020999D01*
X011680Y020999D01*
X011713Y020999D02*
X011763Y020879D01*
X011855Y020787D01*
X011975Y020738D01*
X012104Y020738D01*
X012224Y020787D01*
X012316Y020879D01*
X012366Y020999D01*
X012366Y021129D01*
X012316Y021248D01*
X012224Y021340D01*
X012104Y021390D01*
X011975Y021390D01*
X011855Y021340D01*
X011763Y021248D01*
X011713Y021129D01*
X011825Y021311D02*
X008319Y021311D01*
X008287Y021279D02*
X008379Y021371D01*
X008429Y021491D01*
X008429Y021621D01*
X008379Y021740D01*
X008287Y021832D01*
X008167Y021882D01*
X008038Y021882D01*
X007918Y021832D01*
X007826Y021740D01*
X007776Y021621D01*
X007776Y021491D01*
X007826Y021371D01*
X007918Y021279D01*
X008038Y021230D01*
X008167Y021230D01*
X008287Y021279D01*
X008418Y021467D02*
X016392Y021467D01*
X016395Y021444D02*
X016419Y021372D01*
X016453Y021305D01*
X016497Y021244D01*
X016550Y021191D01*
X016611Y021146D01*
X016679Y021112D01*
X016750Y021089D01*
X016825Y021077D01*
X016851Y021077D01*
X016851Y021545D01*
X016384Y021545D01*
X016384Y021518D01*
X016395Y021444D01*
X016384Y021567D02*
X016851Y021567D01*
X016851Y021545D01*
X016874Y021545D01*
X016874Y021567D01*
X017341Y021567D01*
X017341Y021593D01*
X017329Y021668D01*
X017306Y021740D01*
X017272Y021807D01*
X017227Y021868D01*
X017174Y021921D01*
X017156Y021934D01*
X017284Y022062D01*
X017359Y022244D01*
X017359Y022442D01*
X017284Y022625D01*
X017171Y022737D01*
X017284Y022849D01*
X017359Y023032D01*
X017359Y023229D01*
X017284Y023412D01*
X017171Y023524D01*
X017284Y023637D01*
X017359Y023819D01*
X017359Y024017D01*
X017284Y024199D01*
X017171Y024312D01*
X017284Y024424D01*
X017359Y024607D01*
X017359Y024804D01*
X017284Y024987D01*
X017144Y025127D01*
X016961Y025202D01*
X016763Y025202D01*
X016581Y025127D01*
X016441Y024987D01*
X016365Y024804D01*
X016365Y024607D01*
X016441Y024424D01*
X016553Y024312D01*
X016441Y024199D01*
X016365Y024017D01*
X016365Y023819D01*
X016441Y023637D01*
X016553Y023524D01*
X016441Y023412D01*
X016365Y023229D01*
X016365Y023032D01*
X016441Y022849D01*
X016553Y022737D01*
X016441Y022625D01*
X016365Y022442D01*
X016365Y022244D01*
X016441Y022062D01*
X016569Y021934D01*
X016550Y021921D01*
X016497Y021868D01*
X016453Y021807D01*
X016419Y021740D01*
X016395Y021668D01*
X016384Y021593D01*
X016384Y021567D01*
X016388Y021623D02*
X008428Y021623D01*
X008341Y021779D02*
X010675Y021779D01*
X010680Y021765D02*
X010772Y021673D01*
X010892Y021623D01*
X011022Y021623D01*
X011141Y021673D01*
X011233Y021765D01*
X011283Y021885D01*
X011283Y022014D01*
X011233Y022134D01*
X011172Y022196D01*
X011233Y022257D01*
X011283Y022377D01*
X011283Y022506D01*
X011233Y022626D01*
X011141Y022718D01*
X011022Y022768D01*
X010892Y022768D01*
X010772Y022718D01*
X010680Y022626D01*
X010631Y022506D01*
X010631Y022377D01*
X010680Y022257D01*
X010742Y022196D01*
X010680Y022134D01*
X010631Y022014D01*
X010631Y021885D01*
X010680Y021765D01*
X010631Y021935D02*
X009485Y021935D01*
X009447Y021919D02*
X009567Y021968D01*
X009658Y022060D01*
X009708Y022180D01*
X009708Y022310D01*
X009680Y022377D01*
X009757Y022454D01*
X009806Y022574D01*
X009806Y022703D01*
X009757Y022823D01*
X009665Y022915D01*
X009545Y022965D01*
X009416Y022965D01*
X009296Y022915D01*
X009204Y022823D01*
X009154Y022703D01*
X009154Y022638D01*
X009075Y022718D01*
X008955Y022768D01*
X008825Y022768D01*
X008705Y022718D01*
X008613Y022626D01*
X008564Y022506D01*
X008564Y022377D01*
X008613Y022257D01*
X008705Y022165D01*
X008825Y022116D01*
X008955Y022116D01*
X009064Y022161D01*
X009106Y022060D01*
X009197Y021968D01*
X009317Y021919D01*
X009447Y021919D01*
X009279Y021935D02*
X003155Y021935D01*
X003142Y021902D02*
X003189Y022016D01*
X003225Y022135D01*
X003249Y022256D01*
X003260Y022363D01*
X002079Y022363D01*
X002079Y021182D01*
X002185Y021192D01*
X002307Y021217D01*
X002426Y021252D01*
X002540Y021300D01*
X002649Y021358D01*
X002752Y021427D01*
X002848Y021506D01*
X002936Y021593D01*
X003014Y021689D01*
X003083Y021792D01*
X003142Y021902D01*
X003074Y021779D02*
X007864Y021779D01*
X007777Y021623D02*
X006499Y021623D01*
X006594Y021467D02*
X006666Y021467D01*
X006612Y021155D02*
X006554Y021155D01*
X006722Y020999D02*
X006344Y020999D01*
X006121Y020999D02*
X000917Y020999D01*
X000917Y021155D02*
X005911Y021155D01*
X005857Y021311D02*
X002560Y021311D01*
X002801Y021467D02*
X005871Y021467D01*
X005965Y021623D02*
X002960Y021623D01*
X003212Y022091D02*
X009093Y022091D01*
X009078Y022715D02*
X009159Y022715D01*
X009251Y022871D02*
X007642Y022871D01*
X007598Y022915D02*
X007690Y022823D01*
X007740Y022703D01*
X007740Y022574D01*
X007690Y022454D01*
X007598Y022362D01*
X007478Y022312D01*
X007349Y022312D01*
X007229Y022362D01*
X007137Y022454D01*
X007118Y022499D01*
X007099Y022454D01*
X007008Y022362D01*
X006888Y022312D01*
X006758Y022312D01*
X006638Y022362D01*
X006547Y022454D01*
X006497Y022574D01*
X006497Y022703D01*
X006547Y022823D01*
X006638Y022915D01*
X006758Y022965D01*
X006888Y022965D01*
X007008Y022915D01*
X007099Y022823D01*
X007118Y022778D01*
X007137Y022823D01*
X007229Y022915D01*
X007349Y022965D01*
X007478Y022965D01*
X007598Y022915D01*
X007735Y022715D02*
X008702Y022715D01*
X008585Y022559D02*
X007733Y022559D01*
X007639Y022403D02*
X008564Y022403D01*
X008624Y022247D02*
X003247Y022247D01*
X003256Y022559D02*
X006503Y022559D01*
X006502Y022715D02*
X003232Y022715D01*
X003188Y022871D02*
X006594Y022871D01*
X006598Y022403D02*
X002079Y022403D01*
X002079Y022559D02*
X001921Y022559D01*
X001921Y022715D02*
X002079Y022715D01*
X002079Y022871D02*
X001921Y022871D01*
X001921Y023027D02*
X002079Y023027D01*
X002079Y023183D02*
X001921Y023183D01*
X001921Y023338D02*
X002079Y023338D01*
X002079Y023494D02*
X001921Y023494D01*
X001921Y023650D02*
X002079Y023650D01*
X002360Y023650D02*
X014076Y023650D01*
X014076Y023688D02*
X014076Y023558D01*
X014125Y023438D01*
X014217Y023346D01*
X014337Y023297D01*
X014467Y023297D01*
X014586Y023346D01*
X014678Y023438D01*
X014728Y023558D01*
X014728Y023688D01*
X014678Y023807D01*
X014586Y023899D01*
X014467Y023949D01*
X014337Y023949D01*
X014217Y023899D01*
X014125Y023807D01*
X014076Y023688D01*
X014125Y023806D02*
X012980Y023806D01*
X013005Y023832D02*
X013054Y023952D01*
X013054Y024081D01*
X013005Y024201D01*
X012913Y024293D01*
X012793Y024342D01*
X012764Y024342D01*
X012807Y024360D01*
X012827Y024380D01*
X012846Y024360D01*
X012996Y024299D01*
X013158Y024299D01*
X013307Y024360D01*
X013422Y024475D01*
X013484Y024624D01*
X013484Y024786D01*
X013422Y024936D01*
X013307Y025050D01*
X013158Y025112D01*
X012996Y025112D01*
X012846Y025050D01*
X012827Y025031D01*
X012807Y025050D01*
X012658Y025112D01*
X012496Y025112D01*
X012346Y025050D01*
X012232Y024936D01*
X012170Y024786D01*
X012170Y024624D01*
X012232Y024475D01*
X012346Y024360D01*
X012496Y024299D01*
X012558Y024299D01*
X012544Y024293D01*
X012452Y024201D01*
X012402Y024081D01*
X012402Y023952D01*
X012452Y023832D01*
X012544Y023740D01*
X012664Y023690D01*
X012793Y023690D01*
X012913Y023740D01*
X013005Y023832D01*
X013054Y023962D02*
X016365Y023962D01*
X016371Y023806D02*
X014678Y023806D01*
X014728Y023650D02*
X016435Y023650D01*
X016524Y023494D02*
X014701Y023494D01*
X014568Y023338D02*
X016411Y023338D01*
X016365Y023183D02*
X013054Y023183D01*
X013054Y023195D02*
X013005Y023315D01*
X012913Y023407D01*
X012793Y023457D01*
X012664Y023457D01*
X012544Y023407D01*
X012452Y023315D01*
X012402Y023195D01*
X012402Y023066D01*
X012452Y022946D01*
X012544Y022854D01*
X012664Y022805D01*
X012793Y022805D01*
X012913Y022854D01*
X013005Y022946D01*
X013054Y023066D01*
X013054Y023195D01*
X012982Y023338D02*
X014236Y023338D01*
X014102Y023494D02*
X002695Y023494D01*
X002887Y023338D02*
X012475Y023338D01*
X012402Y023183D02*
X003022Y023183D01*
X003118Y023027D02*
X012419Y023027D01*
X012527Y022871D02*
X009709Y022871D01*
X009802Y022715D02*
X010769Y022715D01*
X010652Y022559D02*
X009800Y022559D01*
X009706Y022403D02*
X010631Y022403D01*
X010691Y022247D02*
X009708Y022247D01*
X009671Y022091D02*
X010662Y022091D01*
X011223Y022247D02*
X012415Y022247D01*
X012402Y022278D02*
X012452Y022158D01*
X012544Y022067D01*
X012664Y022017D01*
X012793Y022017D01*
X012913Y022067D01*
X013005Y022158D01*
X013054Y022278D01*
X013054Y022408D01*
X013005Y022528D01*
X012913Y022620D01*
X012793Y022669D01*
X012664Y022669D01*
X012544Y022620D01*
X012452Y022528D01*
X012402Y022408D01*
X012402Y022278D01*
X012402Y022403D02*
X011283Y022403D01*
X011261Y022559D02*
X012483Y022559D01*
X012520Y022091D02*
X011251Y022091D01*
X011283Y021935D02*
X016568Y021935D01*
X016439Y021779D02*
X011239Y021779D01*
X011145Y022715D02*
X016531Y022715D01*
X016432Y022871D02*
X012930Y022871D01*
X013038Y023027D02*
X016368Y023027D01*
X016414Y022559D02*
X012974Y022559D01*
X013054Y022403D02*
X016365Y022403D01*
X016365Y022247D02*
X013041Y022247D01*
X012937Y022091D02*
X016429Y022091D01*
X016874Y021545D02*
X016874Y021077D01*
X016900Y021077D01*
X016974Y021089D01*
X017046Y021112D01*
X017113Y021146D01*
X017174Y021191D01*
X017227Y021244D01*
X017272Y021305D01*
X017306Y021372D01*
X017329Y021444D01*
X017341Y021518D01*
X017341Y021545D01*
X016874Y021545D01*
X016874Y021467D02*
X016851Y021467D01*
X016851Y021311D02*
X016874Y021311D01*
X016874Y021155D02*
X016851Y021155D01*
X016600Y021155D02*
X016390Y021155D01*
X016401Y021129D02*
X016351Y021248D01*
X016260Y021340D01*
X016140Y021390D01*
X016010Y021390D01*
X015890Y021340D01*
X015798Y021248D01*
X015749Y021129D01*
X015749Y020999D01*
X015798Y020879D01*
X015890Y020787D01*
X016010Y020738D01*
X016140Y020738D01*
X016260Y020787D01*
X016351Y020879D01*
X016401Y020999D01*
X016401Y021129D01*
X016401Y020999D02*
X019292Y020999D01*
X019342Y020879D01*
X019434Y020787D01*
X019553Y020738D01*
X019683Y020738D01*
X019803Y020787D01*
X019895Y020879D01*
X019944Y020999D01*
X023867Y020999D01*
X023867Y021155D02*
X022631Y021155D01*
X022651Y021174D02*
X022700Y021294D01*
X022700Y021424D01*
X022651Y021544D01*
X022559Y021635D01*
X022439Y021685D01*
X022309Y021685D01*
X022189Y021635D01*
X022098Y021544D01*
X022048Y021424D01*
X022048Y021294D01*
X022098Y021174D01*
X022189Y021082D01*
X022309Y021033D01*
X022439Y021033D01*
X022559Y021082D01*
X022651Y021174D01*
X022700Y021311D02*
X023867Y021311D01*
X023867Y021467D02*
X022682Y021467D01*
X022571Y021623D02*
X023867Y021623D01*
X023867Y021779D02*
X019132Y021779D01*
X019107Y021839D02*
X019015Y021931D01*
X018896Y021980D01*
X018766Y021980D01*
X018646Y021931D01*
X018554Y021839D01*
X018505Y021719D01*
X018505Y021589D01*
X018554Y021469D01*
X018646Y021378D01*
X018766Y021328D01*
X018896Y021328D01*
X019015Y021378D01*
X019107Y021469D01*
X019157Y021589D01*
X019157Y021719D01*
X019107Y021839D01*
X019006Y021935D02*
X023867Y021935D01*
X023867Y022091D02*
X022583Y022091D01*
X022559Y022067D02*
X022651Y022158D01*
X022700Y022278D01*
X022700Y022408D01*
X022651Y022528D01*
X022559Y022620D01*
X022513Y022638D01*
X022559Y022657D01*
X022651Y022749D01*
X022700Y022869D01*
X022700Y022999D01*
X022651Y023118D01*
X022559Y023210D01*
X022439Y023260D01*
X022309Y023260D01*
X022189Y023210D01*
X022098Y023118D01*
X022048Y022999D01*
X022048Y022869D01*
X022098Y022749D01*
X022189Y022657D01*
X022235Y022638D01*
X022189Y022620D01*
X022098Y022528D01*
X022048Y022408D01*
X022048Y022278D01*
X022098Y022158D01*
X022189Y022067D01*
X022309Y022017D01*
X022439Y022017D01*
X022559Y022067D01*
X022687Y022247D02*
X023867Y022247D01*
X023867Y022403D02*
X022700Y022403D01*
X022620Y022559D02*
X023867Y022559D01*
X023867Y022715D02*
X022616Y022715D01*
X022700Y022871D02*
X023867Y022871D01*
X023867Y023027D02*
X022689Y023027D01*
X022586Y023183D02*
X023867Y023183D01*
X023867Y023338D02*
X019148Y023338D01*
X019157Y023361D02*
X019107Y023241D01*
X019015Y023149D01*
X018896Y023100D01*
X018766Y023100D01*
X018646Y023149D01*
X018554Y023241D01*
X018505Y023361D01*
X018505Y023491D01*
X018554Y023611D01*
X018646Y023702D01*
X018766Y023752D01*
X018896Y023752D01*
X019015Y023702D01*
X019107Y023611D01*
X019157Y023491D01*
X019157Y023361D01*
X019155Y023494D02*
X023867Y023494D01*
X023867Y023650D02*
X019067Y023650D01*
X019049Y023183D02*
X022162Y023183D01*
X022060Y023027D02*
X017357Y023027D01*
X017359Y023183D02*
X018613Y023183D01*
X018514Y023338D02*
X017314Y023338D01*
X017201Y023494D02*
X018506Y023494D01*
X018594Y023650D02*
X017289Y023650D01*
X017354Y023806D02*
X022267Y023806D01*
X022309Y023789D02*
X022439Y023789D01*
X022559Y023838D01*
X022651Y023930D01*
X022700Y024050D01*
X022700Y024180D01*
X022651Y024300D01*
X022559Y024391D01*
X022513Y024410D01*
X022559Y024429D01*
X022651Y024521D01*
X022700Y024641D01*
X022700Y024770D01*
X022651Y024890D01*
X022559Y024982D01*
X022439Y025031D01*
X022309Y025031D01*
X022189Y024982D01*
X022098Y024890D01*
X022048Y024770D01*
X022048Y024641D01*
X022098Y024521D01*
X022189Y024429D01*
X022235Y024410D01*
X022189Y024391D01*
X022098Y024300D01*
X022048Y024180D01*
X022048Y024050D01*
X022098Y023930D01*
X022189Y023838D01*
X022309Y023789D01*
X022482Y023806D02*
X023867Y023806D01*
X023867Y023962D02*
X022664Y023962D01*
X022700Y024118D02*
X023867Y024118D01*
X023867Y024274D02*
X022661Y024274D01*
X022560Y024430D02*
X023867Y024430D01*
X023867Y024586D02*
X022678Y024586D01*
X022700Y024742D02*
X023867Y024742D01*
X023867Y024898D02*
X022642Y024898D01*
X022439Y025560D02*
X022559Y025610D01*
X022651Y025702D01*
X022700Y025822D01*
X022700Y025951D01*
X022651Y026071D01*
X022559Y026163D01*
X022513Y026182D01*
X022559Y026201D01*
X022651Y026292D01*
X022700Y026412D01*
X022700Y026542D01*
X022651Y026662D01*
X022559Y026753D01*
X022439Y026803D01*
X022309Y026803D01*
X022189Y026753D01*
X022098Y026662D01*
X022048Y026542D01*
X022048Y026412D01*
X022098Y026292D01*
X022189Y026201D01*
X022235Y026182D01*
X022189Y026163D01*
X022098Y026071D01*
X022048Y025951D01*
X022048Y025822D01*
X022098Y025702D01*
X022189Y025610D01*
X022309Y025560D01*
X022439Y025560D01*
X022627Y025678D02*
X023867Y025678D01*
X023867Y025522D02*
X019131Y025522D01*
X019107Y025579D02*
X019015Y025671D01*
X018896Y025720D01*
X018766Y025720D01*
X018646Y025671D01*
X018554Y025579D01*
X018505Y025459D01*
X018505Y025329D01*
X018554Y025210D01*
X006976Y025210D01*
X007001Y025185D02*
X006909Y025277D01*
X006789Y025327D01*
X006660Y025327D01*
X006540Y025277D01*
X006448Y025185D01*
X006398Y025066D01*
X006398Y024936D01*
X006448Y024816D01*
X006540Y024724D01*
X006660Y024675D01*
X006789Y024675D01*
X006909Y024724D01*
X007001Y024816D01*
X007051Y024936D01*
X007051Y025066D01*
X007001Y025185D01*
X007051Y025054D02*
X012356Y025054D01*
X012216Y024898D02*
X007035Y024898D01*
X006927Y024742D02*
X012170Y024742D01*
X012186Y024586D02*
X000917Y024586D01*
X000917Y024430D02*
X012277Y024430D01*
X012525Y024274D02*
X000917Y024274D01*
X000917Y024118D02*
X012418Y024118D01*
X012402Y023962D02*
X000917Y023962D01*
X000917Y023806D02*
X012477Y023806D01*
X013039Y024118D02*
X016408Y024118D01*
X016516Y024274D02*
X012932Y024274D01*
X013377Y024430D02*
X016438Y024430D01*
X016374Y024586D02*
X013468Y024586D01*
X013484Y024742D02*
X016365Y024742D01*
X016404Y024898D02*
X013437Y024898D01*
X013298Y025054D02*
X016509Y025054D01*
X017216Y025054D02*
X023867Y025054D01*
X023867Y025210D02*
X019107Y025210D01*
X019157Y025329D01*
X019157Y025459D01*
X019107Y025579D01*
X018998Y025678D02*
X022121Y025678D01*
X022048Y025834D02*
X011956Y025834D01*
X011929Y025807D02*
X012021Y025899D01*
X012070Y026018D01*
X012070Y026148D01*
X012021Y026268D01*
X012008Y026280D01*
X012021Y026292D01*
X012070Y026412D01*
X012070Y026542D01*
X012021Y026662D01*
X011929Y026753D01*
X011833Y026793D01*
X011922Y026883D01*
X011972Y027003D01*
X011972Y027132D01*
X011922Y027252D01*
X011830Y027344D01*
X011809Y027353D01*
X011830Y027362D01*
X011922Y027454D01*
X011972Y027574D01*
X011972Y027703D01*
X011922Y027823D01*
X011830Y027915D01*
X011711Y027965D01*
X011581Y027965D01*
X011461Y027915D01*
X011369Y027823D01*
X011320Y027703D01*
X011320Y027574D01*
X011369Y027454D01*
X011461Y027362D01*
X011483Y027353D01*
X011461Y027344D01*
X011369Y027252D01*
X011320Y027132D01*
X011320Y027003D01*
X011369Y026883D01*
X011461Y026791D01*
X011557Y026751D01*
X011468Y026662D01*
X011418Y026542D01*
X011418Y026412D01*
X011468Y026292D01*
X011480Y026280D01*
X011468Y026268D01*
X011418Y026148D01*
X011418Y026018D01*
X011468Y025899D01*
X011559Y025807D01*
X011679Y025757D01*
X011809Y025757D01*
X011929Y025807D01*
X012059Y025990D02*
X022064Y025990D01*
X022173Y026146D02*
X012070Y026146D01*
X012025Y026302D02*
X022094Y026302D01*
X022048Y026458D02*
X012070Y026458D01*
X012040Y026614D02*
X022078Y026614D01*
X022230Y026770D02*
X011889Y026770D01*
X011940Y026926D02*
X023867Y026926D01*
X023867Y026770D02*
X022519Y026770D01*
X022670Y026614D02*
X023867Y026614D01*
X023867Y026458D02*
X022700Y026458D01*
X022655Y026302D02*
X023867Y026302D01*
X023867Y026146D02*
X022576Y026146D01*
X022684Y025990D02*
X023867Y025990D01*
X023867Y025834D02*
X022700Y025834D01*
X022106Y024898D02*
X017320Y024898D01*
X017359Y024742D02*
X022048Y024742D01*
X022070Y024586D02*
X017351Y024586D01*
X017286Y024430D02*
X022188Y024430D01*
X022087Y024274D02*
X017209Y024274D01*
X017317Y024118D02*
X022048Y024118D01*
X022084Y023962D02*
X017359Y023962D01*
X017292Y022871D02*
X022048Y022871D01*
X022132Y022715D02*
X017194Y022715D01*
X017311Y022559D02*
X022128Y022559D01*
X022048Y022403D02*
X017359Y022403D01*
X017359Y022247D02*
X022061Y022247D01*
X022166Y022091D02*
X017295Y022091D01*
X017156Y021935D02*
X018656Y021935D01*
X018529Y021779D02*
X017286Y021779D01*
X017336Y021623D02*
X018505Y021623D01*
X018557Y021467D02*
X017333Y021467D01*
X017275Y021311D02*
X019404Y021311D01*
X019434Y021340D02*
X019342Y021248D01*
X019292Y021129D01*
X019292Y020999D01*
X019303Y021155D02*
X017125Y021155D01*
X017140Y020388D02*
X016978Y020388D01*
X016829Y020326D01*
X016714Y020211D01*
X016652Y020062D01*
X016652Y019900D01*
X016714Y019751D01*
X015080Y019751D01*
X015121Y019595D02*
X016409Y019595D01*
X016389Y019575D02*
X016339Y019455D01*
X016339Y019326D01*
X016389Y019206D01*
X016481Y019114D01*
X016601Y019064D01*
X016730Y019064D01*
X016850Y019114D01*
X016942Y019206D01*
X016992Y019326D01*
X016992Y019455D01*
X016942Y019575D01*
X016918Y019599D01*
X016978Y019574D01*
X017140Y019574D01*
X017290Y019636D01*
X017404Y019751D01*
X019267Y019751D01*
X019237Y019764D02*
X019356Y019714D01*
X019486Y019714D01*
X019606Y019764D01*
X019698Y019855D01*
X019747Y019975D01*
X019747Y020105D01*
X019698Y020225D01*
X019606Y020316D01*
X019486Y020366D01*
X019356Y020366D01*
X019237Y020316D01*
X019145Y020225D01*
X019095Y020105D01*
X019095Y019975D01*
X019145Y019855D01*
X019237Y019764D01*
X019124Y019907D02*
X017466Y019907D01*
X017466Y019900D02*
X017404Y019751D01*
X017466Y019900D02*
X017466Y020062D01*
X017404Y020211D01*
X017290Y020326D01*
X017140Y020388D01*
X017171Y020375D02*
X023867Y020375D01*
X023867Y020531D02*
X011673Y020531D01*
X011768Y020687D02*
X023867Y020687D01*
X023867Y020843D02*
X019858Y020843D01*
X019944Y020999D02*
X019944Y021129D01*
X019895Y021248D01*
X019803Y021340D01*
X019683Y021390D01*
X019553Y021390D01*
X019434Y021340D01*
X019157Y021623D02*
X022177Y021623D01*
X022066Y021467D02*
X019104Y021467D01*
X019378Y020843D02*
X016315Y020843D01*
X016289Y021311D02*
X016450Y021311D01*
X015861Y021311D02*
X012253Y021311D01*
X012355Y021155D02*
X015760Y021155D01*
X015749Y020999D02*
X012366Y020999D01*
X012280Y020843D02*
X015835Y020843D01*
X016722Y020219D02*
X012464Y020219D01*
X012443Y020063D02*
X016653Y020063D01*
X016652Y019907D02*
X014876Y019907D01*
X014715Y019907D02*
X012328Y019907D01*
X012402Y020375D02*
X016947Y020375D01*
X016714Y019751D02*
X016761Y019704D01*
X016730Y019716D01*
X016601Y019716D01*
X016481Y019667D01*
X016389Y019575D01*
X016339Y019439D02*
X015087Y019439D01*
X014913Y019283D02*
X016357Y019283D01*
X016468Y019127D02*
X011819Y019127D01*
X011863Y019083D02*
X011771Y019175D01*
X011652Y019224D01*
X011522Y019224D01*
X011402Y019175D01*
X011310Y019083D01*
X011261Y018963D01*
X011261Y018833D01*
X011310Y018714D01*
X011320Y018704D01*
X011280Y018609D01*
X011280Y018479D01*
X011330Y018359D01*
X011422Y018268D01*
X011542Y018218D01*
X011548Y018218D01*
X011527Y018197D01*
X011477Y018077D01*
X011477Y017948D01*
X011527Y017828D01*
X011619Y017736D01*
X011738Y017686D01*
X011868Y017686D01*
X011988Y017736D01*
X012080Y017828D01*
X012129Y017948D01*
X012129Y018077D01*
X012080Y018197D01*
X011988Y018289D01*
X011868Y018339D01*
X011862Y018339D01*
X011883Y018359D01*
X011932Y018479D01*
X011932Y018609D01*
X011883Y018729D01*
X011873Y018738D01*
X011913Y018833D01*
X011913Y018963D01*
X011863Y019083D01*
X011909Y018971D02*
X023867Y018971D01*
X023867Y018815D02*
X011905Y018815D01*
X011912Y018659D02*
X023867Y018659D01*
X023867Y018503D02*
X021656Y018503D01*
X021666Y018492D02*
X021575Y018584D01*
X021455Y018634D01*
X021325Y018634D01*
X021205Y018584D01*
X021113Y018492D01*
X021064Y018373D01*
X021064Y018243D01*
X021113Y018123D01*
X021175Y018062D01*
X021113Y018000D01*
X021064Y017880D01*
X021064Y017751D01*
X021113Y017631D01*
X021205Y017539D01*
X021325Y017490D01*
X021455Y017490D01*
X021575Y017539D01*
X021666Y017631D01*
X021716Y017751D01*
X021716Y017880D01*
X021666Y018000D01*
X021605Y018062D01*
X021666Y018123D01*
X021716Y018243D01*
X021716Y018373D01*
X021666Y018492D01*
X021716Y018347D02*
X023867Y018347D01*
X023867Y018191D02*
X021694Y018191D01*
X021631Y018035D02*
X023867Y018035D01*
X023867Y017879D02*
X021716Y017879D01*
X021704Y017723D02*
X023867Y017723D01*
X023867Y017567D02*
X021603Y017567D01*
X021177Y017567D02*
X019540Y017567D01*
X019508Y017600D02*
X019388Y017650D01*
X019258Y017650D01*
X019138Y017600D01*
X019047Y017508D01*
X018997Y017388D01*
X018997Y017259D01*
X019047Y017139D01*
X019138Y017047D01*
X019258Y016997D01*
X019388Y016997D01*
X019508Y017047D01*
X019599Y017139D01*
X019649Y017259D01*
X019649Y017388D01*
X019599Y017508D01*
X019508Y017600D01*
X019640Y017411D02*
X023867Y017411D01*
X023867Y017255D02*
X019648Y017255D01*
X019560Y017099D02*
X023867Y017099D01*
X023867Y016943D02*
X008394Y016943D01*
X008414Y016958D02*
X008353Y016914D01*
X008286Y016880D01*
X008215Y016857D01*
X008140Y016845D01*
X008114Y016845D01*
X008114Y017312D01*
X008114Y017335D01*
X008581Y017335D01*
X008581Y017361D01*
X008569Y017436D01*
X008546Y017507D01*
X008512Y017574D01*
X008468Y017635D01*
X008414Y017689D01*
X008353Y017733D01*
X008286Y017767D01*
X008215Y017790D01*
X008140Y017802D01*
X008114Y017802D01*
X008114Y017335D01*
X008091Y017335D01*
X008091Y017802D01*
X008065Y017802D01*
X007990Y017790D01*
X007919Y017767D01*
X007852Y017733D01*
X007791Y017689D01*
X007737Y017635D01*
X007724Y017617D01*
X007596Y017745D01*
X007414Y017820D01*
X007216Y017820D01*
X007034Y017745D01*
X006894Y017605D01*
X006818Y017422D01*
X006818Y017225D01*
X006894Y017042D01*
X007034Y016902D01*
X007216Y016827D01*
X007414Y016827D01*
X007596Y016902D01*
X007724Y017030D01*
X007737Y017012D01*
X007791Y016958D01*
X007852Y016914D01*
X007919Y016880D01*
X007990Y016857D01*
X008065Y016845D01*
X008091Y016845D01*
X008091Y017312D01*
X008114Y017312D01*
X008581Y017312D01*
X008581Y017286D01*
X008569Y017211D01*
X008546Y017140D01*
X008512Y017073D01*
X008468Y017012D01*
X008414Y016958D01*
X008526Y017099D02*
X019086Y017099D01*
X018998Y017255D02*
X008576Y017255D01*
X008573Y017411D02*
X019006Y017411D01*
X019106Y017567D02*
X011130Y017567D01*
X011122Y017559D02*
X011214Y017651D01*
X011263Y017770D01*
X011263Y017900D01*
X011214Y018020D01*
X011122Y018112D01*
X011002Y018161D01*
X010872Y018161D01*
X010752Y018112D01*
X010661Y018020D01*
X010611Y017900D01*
X010611Y017770D01*
X010661Y017651D01*
X010752Y017559D01*
X010872Y017509D01*
X011002Y017509D01*
X011122Y017559D01*
X011244Y017723D02*
X011650Y017723D01*
X011506Y017879D02*
X011263Y017879D01*
X011198Y018035D02*
X011477Y018035D01*
X011524Y018191D02*
X010829Y018191D01*
X010859Y018221D02*
X010767Y018130D01*
X010648Y018080D01*
X010518Y018080D01*
X010398Y018130D01*
X010306Y018221D01*
X010257Y018341D01*
X010257Y018471D01*
X010306Y018591D01*
X010398Y018683D01*
X010518Y018732D01*
X010648Y018732D01*
X010767Y018683D01*
X010859Y018591D01*
X010909Y018471D01*
X010909Y018341D01*
X010859Y018221D01*
X010909Y018347D02*
X011342Y018347D01*
X011280Y018503D02*
X010896Y018503D01*
X010791Y018659D02*
X011301Y018659D01*
X011268Y018815D02*
X007275Y018815D01*
X007287Y018786D02*
X007237Y018906D01*
X007145Y018998D01*
X007035Y019043D01*
X007062Y019070D01*
X007112Y019190D01*
X007112Y019319D01*
X007062Y019439D01*
X014504Y019439D01*
X014678Y019283D02*
X007112Y019283D01*
X007086Y019127D02*
X011354Y019127D01*
X011264Y018971D02*
X007172Y018971D01*
X007287Y018786D02*
X007287Y018656D01*
X007252Y018573D01*
X007287Y018491D01*
X007287Y018361D01*
X007252Y018278D01*
X007287Y018195D01*
X007287Y018066D01*
X007237Y017946D01*
X007145Y017854D01*
X007026Y017805D01*
X006896Y017805D01*
X006803Y017843D01*
X006711Y017805D01*
X006581Y017805D01*
X006461Y017854D01*
X006332Y018035D02*
X000917Y018035D01*
X000917Y018191D02*
X006320Y018191D01*
X006325Y018347D02*
X000917Y018347D01*
X000917Y018503D02*
X006325Y018503D01*
X006320Y018659D02*
X000917Y018659D01*
X000917Y018815D02*
X006332Y018815D01*
X006435Y018971D02*
X000917Y018971D01*
X000917Y019127D02*
X006485Y019127D01*
X006459Y019283D02*
X000917Y019283D01*
X000917Y019751D02*
X009249Y019751D01*
X009158Y019907D02*
X000917Y019907D01*
X000917Y020063D02*
X009161Y020063D01*
X009257Y020219D02*
X000917Y020219D01*
X000917Y021311D02*
X001440Y021311D01*
X001200Y021467D02*
X000917Y021467D01*
X000917Y021623D02*
X001040Y021623D01*
X000926Y021779D02*
X000917Y021779D01*
X000917Y023183D02*
X000978Y023183D01*
X000917Y023338D02*
X001113Y023338D01*
X001305Y023494D02*
X000917Y023494D01*
X000917Y023650D02*
X001640Y023650D01*
X001694Y024742D02*
X000917Y024742D01*
X000917Y024898D02*
X001323Y024898D01*
X001121Y025054D02*
X000917Y025054D01*
X000917Y025210D02*
X000970Y025210D01*
X000917Y026770D02*
X000976Y026770D01*
X000917Y026926D02*
X001132Y026926D01*
X001341Y027082D02*
X000917Y027082D01*
X000917Y027238D02*
X001733Y027238D01*
X002267Y027238D02*
X005863Y027238D01*
X005858Y027233D02*
X005808Y027113D01*
X005808Y026983D01*
X005858Y026863D01*
X005949Y026771D01*
X006069Y026722D01*
X006199Y026722D01*
X006311Y026768D01*
X006423Y026722D01*
X006553Y026722D01*
X006673Y026771D01*
X006765Y026863D01*
X006814Y026983D01*
X006814Y027113D01*
X006765Y027233D01*
X006673Y027324D01*
X006553Y027374D01*
X006423Y027374D01*
X006311Y027327D01*
X006199Y027374D01*
X006069Y027374D01*
X005949Y027324D01*
X005858Y027233D01*
X005808Y027082D02*
X002659Y027082D01*
X002868Y026926D02*
X005831Y026926D01*
X005953Y026770D02*
X003024Y026770D01*
X003114Y026614D02*
X007780Y026614D01*
X007767Y026627D02*
X007859Y026535D01*
X007979Y026486D01*
X008108Y026486D01*
X008228Y026535D01*
X008320Y026627D01*
X008369Y026747D01*
X008369Y026877D01*
X008320Y026996D01*
X008228Y027088D01*
X008108Y027138D01*
X007979Y027138D01*
X007859Y027088D01*
X007767Y026996D01*
X007717Y026877D01*
X007717Y026747D01*
X007767Y026627D01*
X007717Y026770D02*
X006670Y026770D01*
X006791Y026926D02*
X007738Y026926D01*
X007853Y027082D02*
X006814Y027082D01*
X006759Y027238D02*
X011363Y027238D01*
X011320Y027082D02*
X008234Y027082D01*
X008349Y026926D02*
X011351Y026926D01*
X011512Y026770D02*
X008369Y026770D01*
X008307Y026614D02*
X011448Y026614D01*
X011418Y026458D02*
X003198Y026458D01*
X003240Y026302D02*
X008962Y026302D01*
X008948Y026288D02*
X008898Y026168D01*
X008898Y026038D01*
X008948Y025918D01*
X009040Y025827D01*
X009160Y025777D01*
X009289Y025777D01*
X009409Y025827D01*
X009501Y025918D01*
X009551Y026038D01*
X009551Y026168D01*
X009501Y026288D01*
X009409Y026379D01*
X009289Y026429D01*
X009160Y026429D01*
X009040Y026379D01*
X008948Y026288D01*
X008898Y026146D02*
X003280Y026146D01*
X003280Y025990D02*
X008918Y025990D01*
X009032Y025834D02*
X003280Y025834D01*
X003243Y025678D02*
X018664Y025678D01*
X018531Y025522D02*
X003201Y025522D01*
X003120Y025366D02*
X018505Y025366D01*
X018554Y025210D02*
X018646Y025118D01*
X018766Y025068D01*
X018896Y025068D01*
X019015Y025118D01*
X019107Y025210D01*
X019157Y025366D02*
X023867Y025366D01*
X023867Y027082D02*
X019207Y027082D01*
X019206Y027080D02*
X019255Y027200D01*
X019255Y027329D01*
X019206Y027449D01*
X019114Y027541D01*
X018994Y027590D01*
X018864Y027590D01*
X018745Y027541D01*
X018653Y027449D01*
X018603Y027329D01*
X018603Y027200D01*
X018653Y027080D01*
X018745Y026988D01*
X018864Y026938D01*
X018994Y026938D01*
X019114Y026988D01*
X019206Y027080D01*
X019255Y027238D02*
X023867Y027238D01*
X023867Y027394D02*
X022571Y027394D01*
X022559Y027382D02*
X022651Y027473D01*
X022700Y027593D01*
X022700Y027723D01*
X022651Y027843D01*
X022559Y027935D01*
X022513Y027953D01*
X022559Y027972D01*
X022651Y028064D01*
X022700Y028184D01*
X022700Y028314D01*
X022651Y028433D01*
X022559Y028525D01*
X022439Y028575D01*
X022309Y028575D01*
X022189Y028525D01*
X022098Y028433D01*
X022048Y028314D01*
X022048Y028184D01*
X022098Y028064D01*
X022189Y027972D01*
X022235Y027953D01*
X022189Y027935D01*
X022098Y027843D01*
X022048Y027723D01*
X022048Y027593D01*
X022098Y027473D01*
X022189Y027382D01*
X022309Y027332D01*
X022439Y027332D01*
X022559Y027382D01*
X022682Y027550D02*
X023867Y027550D01*
X023867Y027706D02*
X022700Y027706D01*
X022631Y027862D02*
X023867Y027862D01*
X023867Y028018D02*
X022604Y028018D01*
X022696Y028174D02*
X023867Y028174D01*
X023867Y028330D02*
X022693Y028330D01*
X022598Y028486D02*
X023867Y028486D01*
X023867Y028642D02*
X019143Y028642D01*
X019157Y028676D02*
X019107Y028556D01*
X019015Y028464D01*
X018896Y028415D01*
X018766Y028415D01*
X018646Y028464D01*
X018554Y028556D01*
X018505Y028676D01*
X018505Y028806D01*
X018554Y028926D01*
X018646Y029017D01*
X018766Y029067D01*
X018896Y029067D01*
X019015Y029017D01*
X019107Y028926D01*
X019157Y028806D01*
X019157Y028676D01*
X019157Y028798D02*
X023867Y028798D01*
X023867Y028954D02*
X019079Y028954D01*
X019037Y028486D02*
X022150Y028486D01*
X022055Y028330D02*
X000917Y028330D01*
X000917Y028486D02*
X001681Y028486D01*
X001317Y028642D02*
X000917Y028642D01*
X000917Y028798D02*
X001118Y028798D01*
X000968Y028954D02*
X000917Y028954D01*
X000917Y028174D02*
X022052Y028174D01*
X022144Y028018D02*
X000917Y028018D01*
X000917Y027862D02*
X011408Y027862D01*
X011321Y027706D02*
X000917Y027706D01*
X000917Y027550D02*
X011329Y027550D01*
X011429Y027394D02*
X000917Y027394D01*
X002319Y028486D02*
X011440Y028486D01*
X011461Y028464D02*
X011581Y028415D01*
X011711Y028415D01*
X011830Y028464D01*
X011922Y028556D01*
X011972Y028676D01*
X011972Y028806D01*
X011922Y028926D01*
X011830Y029017D01*
X011711Y029067D01*
X011581Y029067D01*
X011461Y029017D01*
X011369Y028926D01*
X011320Y028806D01*
X011320Y028676D01*
X011369Y028556D01*
X011461Y028464D01*
X011334Y028642D02*
X009606Y028642D01*
X009619Y028655D02*
X009669Y028774D01*
X009669Y028904D01*
X009619Y029024D01*
X009587Y029056D01*
X009619Y029088D01*
X009669Y029207D01*
X009669Y029337D01*
X009619Y029457D01*
X009527Y029549D01*
X009407Y029598D01*
X009278Y029598D01*
X009158Y029549D01*
X009066Y029457D01*
X009017Y029337D01*
X009017Y029207D01*
X009066Y029088D01*
X009098Y029056D01*
X009066Y029024D01*
X009017Y028904D01*
X009017Y028774D01*
X009066Y028655D01*
X009158Y028563D01*
X009278Y028513D01*
X009407Y028513D01*
X009527Y028563D01*
X009619Y028655D01*
X009669Y028798D02*
X011320Y028798D01*
X011398Y028954D02*
X009648Y028954D01*
X009628Y029110D02*
X022295Y029110D01*
X022309Y029104D02*
X022439Y029104D01*
X022559Y029153D01*
X022651Y029245D01*
X022700Y029365D01*
X022700Y029495D01*
X022651Y029614D01*
X022559Y029706D01*
X022513Y029725D01*
X022559Y029744D01*
X022651Y029836D01*
X022700Y029955D01*
X022700Y030085D01*
X022651Y030205D01*
X022559Y030297D01*
X022439Y030346D01*
X022309Y030346D01*
X022189Y030297D01*
X022098Y030205D01*
X022048Y030085D01*
X022048Y029955D01*
X022098Y029836D01*
X022189Y029744D01*
X022235Y029725D01*
X022189Y029706D01*
X022098Y029614D01*
X022048Y029495D01*
X022048Y029365D01*
X022098Y029245D01*
X022189Y029153D01*
X022309Y029104D01*
X022454Y029110D02*
X023867Y029110D01*
X023867Y029266D02*
X022659Y029266D01*
X022700Y029422D02*
X023867Y029422D01*
X023867Y029578D02*
X022666Y029578D01*
X022534Y029734D02*
X023867Y029734D01*
X023867Y029890D02*
X022673Y029890D01*
X022700Y030046D02*
X023867Y030046D01*
X023867Y030202D02*
X022652Y030202D01*
X022096Y030202D02*
X018932Y030202D01*
X018896Y030186D02*
X019015Y030236D01*
X019107Y030328D01*
X019157Y030448D01*
X019157Y030577D01*
X019107Y030697D01*
X019015Y030789D01*
X018896Y030839D01*
X018766Y030839D01*
X018646Y030789D01*
X018554Y030697D01*
X018505Y030577D01*
X018505Y030448D01*
X018554Y030328D01*
X018646Y030236D01*
X018766Y030186D01*
X018896Y030186D01*
X018729Y030202D02*
X013302Y030202D01*
X013285Y030209D02*
X013156Y030209D01*
X013036Y030159D01*
X012944Y030067D01*
X012895Y029947D01*
X012895Y029818D01*
X012944Y029698D01*
X013036Y029606D01*
X013156Y029556D01*
X013285Y029556D01*
X013405Y029606D01*
X013497Y029698D01*
X013547Y029818D01*
X013547Y029947D01*
X013497Y030067D01*
X013405Y030159D01*
X013285Y030209D01*
X013139Y030202D02*
X003197Y030202D01*
X003239Y030046D02*
X012935Y030046D01*
X012895Y029890D02*
X003280Y029890D01*
X003280Y029734D02*
X012929Y029734D01*
X013104Y029578D02*
X009457Y029578D01*
X009228Y029578D02*
X003280Y029578D01*
X003243Y029422D02*
X004779Y029422D01*
X004775Y029418D02*
X004725Y029298D01*
X004725Y029168D01*
X004775Y029048D01*
X004867Y028957D01*
X004986Y028907D01*
X005116Y028907D01*
X005219Y028949D01*
X005321Y028907D01*
X005451Y028907D01*
X005571Y028957D01*
X005662Y029048D01*
X005712Y029168D01*
X005712Y029298D01*
X005662Y029418D01*
X005571Y029509D01*
X005451Y029559D01*
X005321Y029559D01*
X005219Y029517D01*
X005116Y029559D01*
X004986Y029559D01*
X004867Y029509D01*
X004775Y029418D01*
X004725Y029266D02*
X003202Y029266D01*
X003122Y029110D02*
X004749Y029110D01*
X004873Y028954D02*
X003032Y028954D01*
X002882Y028798D02*
X009017Y028798D01*
X009037Y028954D02*
X005564Y028954D01*
X005688Y029110D02*
X009057Y029110D01*
X009017Y029266D02*
X005712Y029266D01*
X005658Y029422D02*
X009052Y029422D01*
X009634Y029422D02*
X022048Y029422D01*
X022082Y029578D02*
X013337Y029578D01*
X013512Y029734D02*
X022214Y029734D01*
X022075Y029890D02*
X013547Y029890D01*
X013506Y030046D02*
X022048Y030046D01*
X022089Y029266D02*
X009669Y029266D01*
X009079Y028642D02*
X002683Y028642D01*
X003112Y030358D02*
X018542Y030358D01*
X018505Y030514D02*
X003021Y030514D01*
X002865Y030670D02*
X018543Y030670D01*
X018735Y030826D02*
X002653Y030826D01*
X002255Y030982D02*
X022133Y030982D01*
X022098Y031017D02*
X022189Y030925D01*
X022309Y030875D01*
X022439Y030875D01*
X022559Y030925D01*
X022651Y031017D01*
X022700Y031137D01*
X022700Y031266D01*
X022651Y031386D01*
X022559Y031478D01*
X022513Y031497D01*
X022559Y031516D01*
X022651Y031607D01*
X022700Y031727D01*
X022700Y031857D01*
X022651Y031977D01*
X022559Y032068D01*
X022439Y032118D01*
X022309Y032118D01*
X022189Y032068D01*
X022098Y031977D01*
X022048Y031857D01*
X022048Y031727D01*
X022098Y031607D01*
X022189Y031516D01*
X022235Y031497D01*
X022189Y031478D01*
X022098Y031386D01*
X022048Y031266D01*
X022048Y031137D01*
X022098Y031017D01*
X022048Y031138D02*
X010598Y031138D01*
X010559Y031121D02*
X010679Y031171D01*
X010771Y031263D01*
X010820Y031383D01*
X010820Y031512D01*
X010771Y031632D01*
X010679Y031724D01*
X010559Y031774D01*
X010429Y031774D01*
X010309Y031724D01*
X010218Y031632D01*
X010168Y031512D01*
X010168Y031383D01*
X010218Y031263D01*
X010309Y031171D01*
X010429Y031121D01*
X010559Y031121D01*
X010391Y031138D02*
X000917Y031138D01*
X000917Y031294D02*
X010205Y031294D01*
X010168Y031449D02*
X000917Y031449D01*
X000917Y031605D02*
X010207Y031605D01*
X010400Y031761D02*
X000917Y031761D01*
X000917Y031917D02*
X010477Y031917D01*
X010484Y031903D02*
X010575Y031811D01*
X010695Y031761D01*
X010825Y031761D01*
X010945Y031811D01*
X011036Y031903D01*
X011086Y032022D01*
X011086Y032152D01*
X011036Y032272D01*
X010945Y032364D01*
X010825Y032413D01*
X010695Y032413D01*
X010575Y032364D01*
X010484Y032272D01*
X010434Y032152D01*
X010434Y032022D01*
X010484Y031903D01*
X010588Y031761D02*
X010694Y031761D01*
X010825Y031761D02*
X022048Y031761D01*
X022073Y031917D02*
X011043Y031917D01*
X011086Y032073D02*
X018580Y032073D01*
X018554Y032099D02*
X018646Y032008D01*
X018766Y031958D01*
X018896Y031958D01*
X019015Y032008D01*
X019107Y032099D01*
X019157Y032219D01*
X019157Y032349D01*
X019107Y032469D01*
X019015Y032561D01*
X018896Y032610D01*
X018766Y032610D01*
X018646Y032561D01*
X018554Y032469D01*
X018505Y032349D01*
X018505Y032219D01*
X018554Y032099D01*
X018505Y032229D02*
X011054Y032229D01*
X010892Y032385D02*
X018520Y032385D01*
X018627Y032541D02*
X013447Y032541D01*
X013405Y032500D02*
X013497Y032592D01*
X013547Y032711D01*
X013547Y032841D01*
X013497Y032961D01*
X013405Y033053D01*
X013285Y033102D01*
X013156Y033102D01*
X013036Y033053D01*
X012944Y032961D01*
X012895Y032841D01*
X012895Y032711D01*
X012944Y032592D01*
X013036Y032500D01*
X013156Y032450D01*
X013285Y032450D01*
X013405Y032500D01*
X013541Y032697D02*
X022189Y032697D01*
X022309Y032647D01*
X022439Y032647D01*
X022559Y032697D01*
X022651Y032788D01*
X022700Y032908D01*
X022700Y033038D01*
X022651Y033158D01*
X022559Y033250D01*
X022513Y033268D01*
X022559Y033287D01*
X022651Y033379D01*
X022700Y033499D01*
X022700Y033629D01*
X022651Y033748D01*
X022559Y033840D01*
X022439Y033890D01*
X022309Y033890D01*
X022189Y033840D01*
X022098Y033748D01*
X022048Y033629D01*
X022048Y033499D01*
X022098Y033379D01*
X022189Y033287D01*
X022235Y033268D01*
X022189Y033250D01*
X022098Y033158D01*
X022048Y033038D01*
X022048Y032908D01*
X022098Y032788D01*
X022189Y032697D01*
X022071Y032853D02*
X013542Y032853D01*
X013449Y033009D02*
X022048Y033009D01*
X022105Y033165D02*
X003889Y033165D01*
X003901Y033009D02*
X012992Y033009D01*
X012900Y032853D02*
X003818Y032853D01*
X003868Y033321D02*
X011033Y033321D01*
X011067Y033287D02*
X011187Y033238D01*
X011317Y033238D01*
X011437Y033287D01*
X011528Y033379D01*
X011578Y033499D01*
X011578Y033629D01*
X011528Y033748D01*
X011437Y033840D01*
X011317Y033890D01*
X011241Y033890D01*
X011283Y033991D01*
X011283Y034121D01*
X011233Y034240D01*
X011141Y034332D01*
X011022Y034382D01*
X010892Y034382D01*
X010809Y034348D01*
X010726Y034382D01*
X010597Y034382D01*
X010514Y034348D01*
X010431Y034382D01*
X010301Y034382D01*
X010182Y034332D01*
X010090Y034240D01*
X010040Y034121D01*
X010040Y033991D01*
X010090Y033871D01*
X010182Y033779D01*
X010198Y033773D01*
X010198Y033735D01*
X010247Y033615D01*
X010339Y033523D01*
X010459Y033474D01*
X010589Y033474D01*
X010671Y033508D01*
X010754Y033474D01*
X010884Y033474D01*
X010929Y033492D01*
X010976Y033379D01*
X011067Y033287D01*
X010935Y033477D02*
X010892Y033477D01*
X010746Y033477D02*
X010597Y033477D01*
X010451Y033477D02*
X003901Y033477D01*
X003858Y033633D02*
X005308Y033633D01*
X005267Y033674D02*
X005359Y033582D01*
X005479Y033533D01*
X005608Y033533D01*
X005728Y033582D01*
X005820Y033674D01*
X005869Y033794D01*
X005869Y033924D01*
X005820Y034044D01*
X005728Y034135D01*
X005608Y034185D01*
X005479Y034185D01*
X005359Y034135D01*
X005267Y034044D01*
X005217Y033924D01*
X005217Y033794D01*
X005267Y033674D01*
X005219Y033789D02*
X003645Y033789D01*
X003505Y033789D02*
X003150Y033789D01*
X003208Y033633D02*
X003292Y033633D01*
X003249Y033477D02*
X003245Y033477D01*
X003282Y033321D02*
X002079Y033321D01*
X002079Y033165D02*
X001921Y033165D01*
X001921Y033009D02*
X002079Y033009D01*
X002079Y032853D02*
X001921Y032853D01*
X001921Y032697D02*
X002079Y032697D01*
X002079Y032541D02*
X001921Y032541D01*
X001921Y032385D02*
X002079Y032385D01*
X002079Y032229D02*
X001921Y032229D01*
X001921Y032073D02*
X002079Y032073D01*
X002406Y032073D02*
X010434Y032073D01*
X010466Y032229D02*
X002716Y032229D01*
X002901Y032385D02*
X010628Y032385D01*
X010782Y031605D02*
X022100Y031605D01*
X022161Y031449D02*
X010820Y031449D01*
X010783Y031294D02*
X022059Y031294D01*
X022587Y031449D02*
X023867Y031449D01*
X023867Y031294D02*
X022689Y031294D01*
X022700Y031138D02*
X023867Y031138D01*
X023867Y030982D02*
X022615Y030982D01*
X022649Y031605D02*
X023867Y031605D01*
X023867Y031761D02*
X022700Y031761D01*
X022675Y031917D02*
X023867Y031917D01*
X023867Y032073D02*
X022547Y032073D01*
X022559Y032697D02*
X023867Y032697D01*
X023867Y032541D02*
X019035Y032541D01*
X019142Y032385D02*
X023867Y032385D01*
X023867Y032229D02*
X019157Y032229D01*
X019081Y032073D02*
X022201Y032073D01*
X022677Y032853D02*
X023867Y032853D01*
X023867Y033009D02*
X022700Y033009D01*
X022643Y033165D02*
X023867Y033165D01*
X023867Y033321D02*
X022593Y033321D01*
X022691Y033477D02*
X023867Y033477D01*
X023867Y033633D02*
X022698Y033633D01*
X022610Y033789D02*
X023867Y033789D01*
X023867Y033945D02*
X019138Y033945D01*
X019157Y033991D02*
X019107Y033871D01*
X019015Y033779D01*
X018896Y033730D01*
X018766Y033730D01*
X018646Y033779D01*
X018554Y033871D01*
X018505Y033991D01*
X018505Y034121D01*
X018554Y034240D01*
X018646Y034332D01*
X018766Y034382D01*
X018896Y034382D01*
X019015Y034332D01*
X019107Y034240D01*
X019157Y034121D01*
X019157Y033991D01*
X019157Y034101D02*
X023867Y034101D01*
X023867Y034257D02*
X019091Y034257D01*
X019025Y033789D02*
X022139Y033789D01*
X022050Y033633D02*
X013151Y033633D01*
X013153Y033629D02*
X013108Y033738D01*
X013208Y033779D01*
X013300Y033871D01*
X013350Y033991D01*
X013350Y034121D01*
X013300Y034240D01*
X013208Y034332D01*
X013089Y034382D01*
X012959Y034382D01*
X012839Y034332D01*
X012747Y034240D01*
X012698Y034121D01*
X012698Y033991D01*
X012743Y033882D01*
X012642Y033840D01*
X012550Y033748D01*
X012501Y033629D01*
X012501Y033499D01*
X012550Y033379D01*
X012642Y033287D01*
X012762Y033238D01*
X012892Y033238D01*
X013012Y033287D01*
X013103Y033379D01*
X013153Y033499D01*
X013153Y033629D01*
X013144Y033477D02*
X022057Y033477D01*
X022155Y033321D02*
X013046Y033321D01*
X013218Y033789D02*
X014207Y033789D01*
X014217Y033779D02*
X014337Y033730D01*
X014467Y033730D01*
X014586Y033779D01*
X014678Y033871D01*
X014728Y033991D01*
X014728Y034121D01*
X014684Y034226D01*
X014766Y034226D01*
X014886Y034275D01*
X014977Y034367D01*
X015027Y034487D01*
X015027Y034617D01*
X014977Y034737D01*
X014886Y034828D01*
X014766Y034878D01*
X014636Y034878D01*
X014516Y034828D01*
X014424Y034737D01*
X014375Y034617D01*
X014375Y034487D01*
X014418Y034382D01*
X014337Y034382D01*
X014217Y034332D01*
X014212Y034327D01*
X014236Y034385D01*
X014236Y034514D01*
X014186Y034634D01*
X014094Y034726D01*
X013974Y034776D01*
X013845Y034776D01*
X013725Y034726D01*
X013633Y034634D01*
X013583Y034514D01*
X013583Y034385D01*
X013633Y034265D01*
X013725Y034173D01*
X013845Y034123D01*
X013974Y034123D01*
X014094Y034173D01*
X014099Y034178D01*
X014076Y034121D01*
X014076Y033991D01*
X014125Y033871D01*
X014217Y033779D01*
X014095Y033945D02*
X013331Y033945D01*
X013350Y034101D02*
X014076Y034101D01*
X014236Y034413D02*
X014405Y034413D01*
X014375Y034569D02*
X014213Y034569D01*
X014095Y034725D02*
X014420Y034725D01*
X014728Y034101D02*
X018505Y034101D01*
X018524Y033945D02*
X014709Y033945D01*
X014596Y033789D02*
X018636Y033789D01*
X018571Y034257D02*
X014841Y034257D01*
X014996Y034413D02*
X023867Y034413D01*
X023867Y034569D02*
X022654Y034569D01*
X022651Y034560D02*
X022700Y034680D01*
X022700Y034810D01*
X022651Y034929D01*
X022559Y035021D01*
X022513Y035040D01*
X022559Y035059D01*
X022651Y035151D01*
X022700Y035270D01*
X022700Y035400D01*
X022651Y035520D01*
X022559Y035612D01*
X022439Y035661D01*
X022309Y035661D01*
X022189Y035612D01*
X022098Y035520D01*
X022048Y035400D01*
X022048Y035270D01*
X022098Y035151D01*
X022189Y035059D01*
X022235Y035040D01*
X022189Y035021D01*
X022098Y034929D01*
X022048Y034810D01*
X022048Y034680D01*
X022098Y034560D01*
X022189Y034468D01*
X022309Y034419D01*
X022439Y034419D01*
X022559Y034468D01*
X022651Y034560D01*
X022700Y034725D02*
X023867Y034725D01*
X023867Y034881D02*
X022671Y034881D01*
X022521Y035037D02*
X023867Y035037D01*
X023867Y035193D02*
X022668Y035193D01*
X022700Y035349D02*
X023867Y035349D01*
X023867Y035505D02*
X022657Y035505D01*
X022440Y035661D02*
X023867Y035661D01*
X023867Y035817D02*
X019206Y035817D01*
X019216Y035794D02*
X019166Y035914D01*
X019075Y036005D01*
X018955Y036055D01*
X018825Y036055D01*
X018705Y036005D01*
X018613Y035914D01*
X018564Y035794D01*
X018564Y035664D01*
X018613Y035544D01*
X018705Y035453D01*
X018825Y035403D01*
X018955Y035403D01*
X019075Y035453D01*
X019166Y035544D01*
X019216Y035664D01*
X019216Y035794D01*
X019215Y035661D02*
X022308Y035661D01*
X022091Y035505D02*
X019127Y035505D01*
X019107Y035973D02*
X023867Y035973D01*
X023867Y036129D02*
X003083Y036129D01*
X003173Y036285D02*
X022145Y036285D01*
X022189Y036240D02*
X022309Y036190D01*
X022439Y036190D01*
X022559Y036240D01*
X022651Y036332D01*
X022700Y036452D01*
X022700Y036581D01*
X022651Y036701D01*
X022559Y036793D01*
X022513Y036812D01*
X022559Y036831D01*
X022651Y036922D01*
X022700Y037042D01*
X022700Y037172D01*
X022651Y037292D01*
X022559Y037383D01*
X022439Y037433D01*
X022309Y037433D01*
X022189Y037383D01*
X022098Y037292D01*
X022048Y037172D01*
X022048Y037042D01*
X022098Y036922D01*
X022189Y036831D01*
X022235Y036812D01*
X022189Y036793D01*
X022098Y036701D01*
X022048Y036581D01*
X022048Y036452D01*
X022098Y036332D01*
X022189Y036240D01*
X022052Y036441D02*
X003225Y036441D01*
X003267Y036597D02*
X022054Y036597D01*
X022149Y036753D02*
X003280Y036753D01*
X003280Y036909D02*
X022111Y036909D01*
X022048Y037065D02*
X003257Y037065D01*
X003215Y037221D02*
X022068Y037221D01*
X022183Y037377D02*
X019070Y037377D01*
X019107Y037414D02*
X019157Y037534D01*
X019157Y037664D01*
X019107Y037784D01*
X019015Y037876D01*
X018896Y037925D01*
X018766Y037925D01*
X018646Y037876D01*
X018554Y037784D01*
X018505Y037664D01*
X018505Y037534D01*
X018554Y037414D01*
X018646Y037323D01*
X018766Y037273D01*
X018896Y037273D01*
X019015Y037323D01*
X019107Y037414D01*
X019156Y037533D02*
X023867Y037533D01*
X023867Y037689D02*
X019147Y037689D01*
X019046Y037845D02*
X023867Y037845D01*
X023867Y038001D02*
X022532Y038001D01*
X022559Y038012D02*
X022651Y038103D01*
X022700Y038223D01*
X022700Y038353D01*
X022651Y038473D01*
X022559Y038564D01*
X022513Y038583D01*
X022559Y038602D01*
X022651Y038694D01*
X022700Y038814D01*
X022700Y038943D01*
X022651Y039063D01*
X022559Y039155D01*
X022439Y039205D01*
X022309Y039205D01*
X022189Y039155D01*
X022098Y039063D01*
X022048Y038943D01*
X022048Y038814D01*
X022098Y038694D01*
X022189Y038602D01*
X022235Y038583D01*
X022189Y038564D01*
X022098Y038473D01*
X022048Y038353D01*
X022048Y038223D01*
X022098Y038103D01*
X022189Y038012D01*
X022309Y037962D01*
X022439Y037962D01*
X022559Y038012D01*
X022673Y038157D02*
X023867Y038157D01*
X023867Y038313D02*
X022700Y038313D01*
X022652Y038469D02*
X023867Y038469D01*
X023867Y038625D02*
X022581Y038625D01*
X022686Y038781D02*
X023867Y038781D01*
X023867Y038937D02*
X022700Y038937D01*
X022621Y039093D02*
X023867Y039093D01*
X023867Y039249D02*
X019133Y039249D01*
X019157Y039306D02*
X019107Y039186D01*
X019015Y039094D01*
X018896Y039045D01*
X018766Y039045D01*
X018646Y039094D01*
X018554Y039186D01*
X018505Y039306D01*
X018505Y039436D01*
X018554Y039555D01*
X018646Y039647D01*
X018766Y039697D01*
X018896Y039697D01*
X019015Y039647D01*
X019107Y039555D01*
X019157Y039436D01*
X019157Y039306D01*
X019157Y039404D02*
X023867Y039404D01*
X023867Y039560D02*
X019102Y039560D01*
X019011Y039093D02*
X022127Y039093D01*
X022048Y038937D02*
X000917Y038937D01*
X000917Y039093D02*
X018650Y039093D01*
X018528Y039249D02*
X002606Y039249D01*
X002830Y039404D02*
X018505Y039404D01*
X018559Y039560D02*
X002980Y039560D01*
X003089Y039716D02*
X023867Y039716D01*
X023867Y039872D02*
X022648Y039872D01*
X022651Y039875D02*
X022700Y039995D01*
X022700Y040125D01*
X022651Y040244D01*
X022559Y040336D01*
X022439Y040386D01*
X022309Y040386D01*
X022189Y040336D01*
X022098Y040244D01*
X022048Y040125D01*
X022048Y039995D01*
X022098Y039875D01*
X022189Y039783D01*
X022309Y039734D01*
X022439Y039734D01*
X022559Y039783D01*
X022651Y039875D01*
X022700Y040028D02*
X023867Y040028D01*
X023867Y040184D02*
X022675Y040184D01*
X022549Y040340D02*
X023867Y040340D01*
X023867Y040496D02*
X022583Y040496D01*
X022559Y040472D02*
X022651Y040564D01*
X022700Y040684D01*
X022700Y040814D01*
X022651Y040933D01*
X022559Y041025D01*
X022439Y041075D01*
X022309Y041075D01*
X022189Y041025D01*
X022098Y040933D01*
X022048Y040814D01*
X022048Y040684D01*
X022098Y040564D01*
X022189Y040472D01*
X022309Y040423D01*
X022439Y040423D01*
X022559Y040472D01*
X022687Y040652D02*
X023867Y040652D01*
X023867Y040808D02*
X022700Y040808D01*
X022620Y040964D02*
X023867Y040964D01*
X023867Y041120D02*
X019216Y041120D01*
X019216Y041129D02*
X019166Y041248D01*
X019075Y041340D01*
X018955Y041390D01*
X018825Y041390D01*
X018705Y041340D01*
X018613Y041248D01*
X018564Y041129D01*
X018564Y040999D01*
X018613Y040879D01*
X018705Y040787D01*
X018825Y040738D01*
X018955Y040738D01*
X019075Y040787D01*
X019166Y040879D01*
X019216Y040999D01*
X019216Y041129D01*
X019202Y040964D02*
X022129Y040964D01*
X022048Y040808D02*
X019096Y040808D01*
X018684Y040808D02*
X003178Y040808D01*
X003189Y040780D02*
X003142Y040895D01*
X003083Y041004D01*
X003014Y041107D01*
X002936Y041203D01*
X002848Y041291D01*
X002752Y041369D01*
X002649Y041438D01*
X002540Y041497D01*
X002426Y041544D01*
X002307Y041580D01*
X002185Y041604D01*
X002079Y041615D01*
X002079Y040434D01*
X003260Y040434D01*
X003249Y040540D01*
X003225Y040662D01*
X003189Y040780D01*
X003227Y040652D02*
X022061Y040652D01*
X022165Y040496D02*
X003254Y040496D01*
X003251Y040184D02*
X022073Y040184D01*
X022048Y040028D02*
X003219Y040028D01*
X003166Y039872D02*
X022100Y039872D01*
X022200Y040340D02*
X002079Y040340D01*
X002079Y040184D02*
X001921Y040184D01*
X001921Y040028D02*
X002079Y040028D01*
X002079Y039872D02*
X001921Y039872D01*
X001921Y039716D02*
X002079Y039716D01*
X002079Y039560D02*
X001921Y039560D01*
X001921Y039404D02*
X002079Y039404D01*
X002079Y039249D02*
X001921Y039249D01*
X001394Y039249D02*
X000917Y039249D01*
X000917Y039404D02*
X001170Y039404D01*
X001020Y039560D02*
X000917Y039560D01*
X000917Y038781D02*
X005161Y038781D01*
X005182Y038801D02*
X005090Y038709D01*
X005040Y038589D01*
X005040Y038459D01*
X005070Y038386D01*
X005040Y038314D01*
X005040Y038184D01*
X005070Y038111D01*
X005040Y038038D01*
X005040Y037908D01*
X005090Y037788D01*
X005182Y037697D01*
X005301Y037647D01*
X005431Y037647D01*
X005551Y037697D01*
X005602Y037748D01*
X005654Y037697D01*
X005774Y037647D01*
X005904Y037647D01*
X006023Y037697D01*
X006115Y037788D01*
X006165Y037908D01*
X006165Y038038D01*
X006135Y038111D01*
X006165Y038184D01*
X006165Y038314D01*
X006135Y038386D01*
X006165Y038459D01*
X006165Y038589D01*
X006115Y038709D01*
X006023Y038801D01*
X005904Y038850D01*
X005774Y038850D01*
X005654Y038801D01*
X005602Y038749D01*
X005551Y038801D01*
X005431Y038850D01*
X005301Y038850D01*
X005182Y038801D01*
X005055Y038625D02*
X000917Y038625D01*
X000917Y038469D02*
X005040Y038469D01*
X005040Y038313D02*
X000917Y038313D01*
X000917Y038157D02*
X005051Y038157D01*
X005040Y038001D02*
X002500Y038001D01*
X002770Y037845D02*
X005066Y037845D01*
X005201Y037689D02*
X002933Y037689D01*
X003061Y037533D02*
X010420Y037533D01*
X010444Y037473D02*
X010536Y037382D01*
X010656Y037332D01*
X010785Y037332D01*
X010905Y037382D01*
X010997Y037473D01*
X011047Y037593D01*
X011047Y037723D01*
X010997Y037843D01*
X010905Y037935D01*
X010785Y037984D01*
X010656Y037984D01*
X010536Y037935D01*
X010444Y037843D01*
X010395Y037723D01*
X010395Y037593D01*
X010444Y037473D01*
X010548Y037377D02*
X003151Y037377D01*
X002971Y035973D02*
X018673Y035973D01*
X018573Y035817D02*
X002815Y035817D01*
X002566Y035661D02*
X018565Y035661D01*
X018653Y035505D02*
X000917Y035505D01*
X000917Y035661D02*
X001434Y035661D01*
X001185Y035817D02*
X000917Y035817D01*
X000917Y035973D02*
X001029Y035973D01*
X000917Y035349D02*
X002977Y035349D01*
X003018Y035366D02*
X002898Y035316D01*
X002806Y035225D01*
X002757Y035105D01*
X002757Y034975D01*
X002806Y034855D01*
X002898Y034764D01*
X003018Y034714D01*
X003148Y034714D01*
X003267Y034764D01*
X003359Y034855D01*
X003409Y034975D01*
X003409Y035105D01*
X003359Y035225D01*
X003267Y035316D01*
X003148Y035366D01*
X003018Y035366D01*
X003189Y035349D02*
X022048Y035349D01*
X022080Y035193D02*
X003372Y035193D01*
X003409Y035037D02*
X022228Y035037D01*
X022078Y034881D02*
X003370Y034881D01*
X003174Y034725D02*
X013724Y034725D01*
X013606Y034569D02*
X000917Y034569D01*
X000917Y034413D02*
X001468Y034413D01*
X001217Y034257D02*
X000917Y034257D01*
X000917Y034101D02*
X001052Y034101D01*
X000935Y033945D02*
X000917Y033945D01*
X000917Y034725D02*
X002991Y034725D01*
X002796Y034881D02*
X000917Y034881D01*
X000917Y035037D02*
X002757Y035037D01*
X002793Y035193D02*
X000917Y035193D01*
X001921Y034413D02*
X002079Y034413D01*
X002079Y034257D02*
X001921Y034257D01*
X001921Y034101D02*
X002079Y034101D01*
X002079Y033945D02*
X001921Y033945D01*
X001921Y033789D02*
X002079Y033789D01*
X002079Y033633D02*
X001921Y033633D01*
X001921Y033477D02*
X002079Y033477D01*
X002533Y034413D02*
X007310Y034413D01*
X007327Y034431D02*
X007235Y034339D01*
X007186Y034219D01*
X007186Y034089D01*
X007235Y033969D01*
X007327Y033878D01*
X007447Y033828D01*
X007577Y033828D01*
X007697Y033878D01*
X007788Y033969D01*
X007838Y034089D01*
X007838Y034219D01*
X007788Y034339D01*
X007697Y034431D01*
X007577Y034480D01*
X007447Y034480D01*
X007327Y034431D01*
X007202Y034257D02*
X002784Y034257D01*
X002948Y034101D02*
X005325Y034101D01*
X005226Y033945D02*
X003065Y033945D01*
X003257Y033165D02*
X003261Y033165D01*
X003249Y033009D02*
X003235Y033009D01*
X003192Y032853D02*
X003332Y032853D01*
X003125Y032697D02*
X012900Y032697D01*
X012994Y032541D02*
X003031Y032541D01*
X001594Y032073D02*
X000917Y032073D01*
X000917Y032229D02*
X001285Y032229D01*
X001099Y032385D02*
X000917Y032385D01*
X000917Y032541D02*
X000969Y032541D01*
X000917Y030982D02*
X001746Y030982D01*
X001347Y030826D02*
X000917Y030826D01*
X000917Y030670D02*
X001135Y030670D01*
X000979Y030514D02*
X000917Y030514D01*
X003030Y025210D02*
X006473Y025210D01*
X006398Y025054D02*
X002879Y025054D01*
X002677Y024898D02*
X006414Y024898D01*
X006522Y024742D02*
X002306Y024742D01*
X002079Y022247D02*
X001921Y022247D01*
X001921Y022091D02*
X002079Y022091D01*
X002079Y021935D02*
X001921Y021935D01*
X001921Y021779D02*
X002079Y021779D01*
X002079Y021623D02*
X001921Y021623D01*
X001921Y021467D02*
X002079Y021467D01*
X002079Y021311D02*
X001921Y021311D01*
X002193Y017723D02*
X007012Y017723D01*
X006878Y017567D02*
X002334Y017567D01*
X002398Y017411D02*
X006818Y017411D01*
X006818Y017255D02*
X002399Y017255D01*
X002351Y017099D02*
X006870Y017099D01*
X006993Y016943D02*
X002236Y016943D01*
X002259Y016631D02*
X009410Y016631D01*
X009351Y016475D02*
X002352Y016475D01*
X001923Y016475D02*
X001880Y016475D01*
X001880Y016631D02*
X001923Y016631D01*
X001923Y016163D02*
X001880Y016163D01*
X001880Y016007D02*
X001923Y016007D01*
X001583Y015695D02*
X000917Y015695D01*
X000917Y015539D02*
X001458Y015539D01*
X001405Y015383D02*
X000917Y015383D01*
X000917Y015228D02*
X001405Y015228D01*
X001463Y015072D02*
X000917Y015072D01*
X000917Y014916D02*
X001595Y014916D01*
X001718Y014755D02*
X001651Y014721D01*
X001590Y014677D01*
X001537Y014624D01*
X001492Y014563D01*
X001458Y014495D01*
X001435Y014424D01*
X001423Y014349D01*
X001423Y014333D01*
X001880Y014333D01*
X001880Y014290D01*
X001923Y014290D01*
X001923Y013833D01*
X001939Y013833D01*
X002014Y013845D01*
X002085Y013868D01*
X002153Y013902D01*
X002214Y013947D01*
X002267Y014000D01*
X002311Y014061D01*
X002345Y014128D01*
X002369Y014200D01*
X002380Y014274D01*
X002380Y014290D01*
X001923Y014290D01*
X001923Y014333D01*
X002380Y014333D01*
X002380Y014349D01*
X002369Y014424D01*
X002345Y014495D01*
X002311Y014563D01*
X002267Y014624D01*
X002214Y014677D01*
X002153Y014721D01*
X002085Y014755D01*
X002014Y014779D01*
X001939Y014790D01*
X001923Y014790D01*
X001923Y014333D01*
X001880Y014333D01*
X001880Y014790D01*
X001864Y014790D01*
X001790Y014779D01*
X001718Y014755D01*
X001731Y014760D02*
X000917Y014760D01*
X000917Y014604D02*
X001522Y014604D01*
X001442Y014448D02*
X000917Y014448D01*
X000917Y014292D02*
X001880Y014292D01*
X001880Y014290D02*
X001423Y014290D01*
X001423Y014274D01*
X001435Y014200D01*
X001458Y014128D01*
X001492Y014061D01*
X001537Y014000D01*
X001590Y013947D01*
X001651Y013902D01*
X001718Y013868D01*
X001790Y013845D01*
X001864Y013833D01*
X001880Y013833D01*
X001880Y014290D01*
X001923Y014292D02*
X007169Y014292D01*
X007137Y014260D02*
X007087Y014140D01*
X007087Y014011D01*
X007137Y013891D01*
X007229Y013799D01*
X007349Y013749D01*
X007478Y013749D01*
X007598Y013799D01*
X007690Y013891D01*
X007740Y014011D01*
X007740Y014140D01*
X007690Y014260D01*
X007598Y014352D01*
X007478Y014402D01*
X007349Y014402D01*
X007229Y014352D01*
X007137Y014260D01*
X007087Y014136D02*
X002348Y014136D01*
X002247Y013980D02*
X007100Y013980D01*
X007142Y013824D02*
X007204Y013824D01*
X007239Y013668D02*
X011245Y013668D01*
X011264Y013564D02*
X011172Y013473D01*
X011123Y013353D01*
X011123Y013223D01*
X011172Y013103D01*
X011264Y013012D01*
X011384Y012962D01*
X011514Y012962D01*
X011634Y013012D01*
X011725Y013103D01*
X011775Y013223D01*
X011775Y013353D01*
X011725Y013473D01*
X011634Y013564D01*
X011514Y013614D01*
X011384Y013614D01*
X011264Y013564D01*
X011211Y013512D02*
X007651Y013512D01*
X007738Y013356D02*
X011124Y013356D01*
X011133Y013200D02*
X007730Y013200D01*
X007630Y013044D02*
X011232Y013044D01*
X011666Y013044D02*
X012019Y013044D01*
X011920Y013200D02*
X011765Y013200D01*
X011774Y013356D02*
X011911Y013356D01*
X011999Y013512D02*
X011686Y013512D01*
X011443Y014292D02*
X014217Y014292D01*
X014098Y014448D02*
X011336Y014448D01*
X011086Y014604D02*
X014076Y014604D01*
X014133Y014760D02*
X011029Y014760D01*
X010457Y014448D02*
X002361Y014448D01*
X002281Y014604D02*
X010361Y014604D01*
X010253Y014760D02*
X002072Y014760D01*
X001923Y014760D02*
X001880Y014760D01*
X001880Y014604D02*
X001923Y014604D01*
X001923Y014448D02*
X001880Y014448D01*
X001880Y014136D02*
X001923Y014136D01*
X001923Y013980D02*
X001880Y013980D01*
X001557Y013980D02*
X000917Y013980D01*
X000917Y014136D02*
X001455Y014136D01*
X002208Y014916D02*
X010237Y014916D01*
X010311Y015072D02*
X002340Y015072D01*
X002399Y013356D02*
X005642Y013356D01*
X005531Y013200D02*
X002393Y013200D01*
X002328Y013044D02*
X005513Y013044D01*
X005581Y012888D02*
X002177Y012888D01*
X002184Y012732D02*
X013020Y012732D01*
X012929Y012576D02*
X002330Y012576D01*
X002395Y012420D02*
X008643Y012420D01*
X008604Y011952D02*
X008682Y011952D01*
X008489Y011796D02*
X009205Y011796D01*
X009098Y011952D02*
X012402Y011952D01*
X012465Y012108D02*
X009202Y012108D01*
X009216Y012264D02*
X012958Y012264D01*
X012912Y012420D02*
X009136Y012420D01*
X009080Y011640D02*
X008503Y011640D01*
X008527Y011484D02*
X009056Y011484D01*
X009109Y011328D02*
X008474Y011328D01*
X008065Y011016D02*
X010631Y011016D01*
X010672Y010860D02*
X008204Y010860D01*
X008255Y010080D02*
X008540Y010080D01*
X009042Y010080D02*
X009328Y010080D01*
X009830Y010080D02*
X010115Y010080D01*
X010617Y010080D02*
X010903Y010080D01*
X011242Y010860D02*
X011262Y010860D01*
X011405Y010080D02*
X011738Y010080D01*
X011930Y010080D02*
X011952Y010080D01*
X011952Y009924D02*
X011930Y009924D01*
X011930Y009768D02*
X011952Y009768D01*
X011952Y009612D02*
X011930Y009612D01*
X011930Y009456D02*
X011952Y009456D01*
X011952Y009300D02*
X011930Y009300D01*
X011610Y009300D02*
X011510Y009300D01*
X011076Y009144D02*
X005162Y009144D01*
X004940Y009144D02*
X002370Y009144D01*
X002399Y009300D02*
X007003Y009300D01*
X006902Y009456D02*
X002380Y009456D01*
X002304Y009612D02*
X006101Y009612D01*
X006146Y009567D02*
X006266Y009517D01*
X006396Y009517D01*
X006515Y009567D01*
X006607Y009658D01*
X006657Y009778D01*
X006657Y009908D01*
X006607Y010028D01*
X006515Y010120D01*
X006396Y010169D01*
X006266Y010169D01*
X006146Y010120D01*
X006054Y010028D01*
X006005Y009908D01*
X006005Y009778D01*
X006054Y009658D01*
X006146Y009567D01*
X006009Y009768D02*
X002098Y009768D01*
X002000Y009815D02*
X002183Y009890D01*
X002323Y010030D01*
X002399Y010213D01*
X002399Y010411D01*
X002323Y010593D01*
X002183Y010733D01*
X002000Y010809D01*
X001803Y010809D01*
X001620Y010733D01*
X001480Y010593D01*
X001405Y010411D01*
X001405Y010213D01*
X001480Y010030D01*
X001620Y009890D01*
X001803Y009815D01*
X002000Y009815D01*
X002217Y009924D02*
X006011Y009924D01*
X006107Y010080D02*
X002344Y010080D01*
X002399Y010236D02*
X007248Y010236D01*
X007186Y010392D02*
X002399Y010392D01*
X002342Y010548D02*
X007206Y010548D01*
X007321Y010704D02*
X002212Y010704D01*
X002110Y010860D02*
X007607Y010860D01*
X007747Y011016D02*
X002309Y011016D01*
X001694Y010860D02*
X000917Y010860D01*
X000917Y010704D02*
X001591Y010704D01*
X001462Y010548D02*
X000917Y010548D01*
X000917Y010392D02*
X001405Y010392D01*
X001405Y010236D02*
X000917Y010236D01*
X000917Y010080D02*
X001460Y010080D01*
X001587Y009924D02*
X000917Y009924D01*
X000917Y009768D02*
X001705Y009768D01*
X001500Y009612D02*
X000917Y009612D01*
X000917Y009456D02*
X001424Y009456D01*
X001405Y009300D02*
X000917Y009300D01*
X000917Y009144D02*
X001433Y009144D01*
X001522Y008988D02*
X000917Y008988D01*
X002281Y008988D02*
X004761Y008988D01*
X005342Y008988D02*
X011024Y008988D01*
X011049Y008832D02*
X005377Y008832D01*
X005338Y008676D02*
X011177Y008676D01*
X010797Y009300D02*
X010723Y009300D01*
X010010Y009300D02*
X009935Y009300D01*
X009222Y009300D02*
X009148Y009300D01*
X008435Y009300D02*
X008361Y009300D01*
X007647Y009300D02*
X007430Y009300D01*
X007532Y009456D02*
X007545Y009456D01*
X007517Y009768D02*
X007457Y009768D01*
X007581Y009924D02*
X006650Y009924D01*
X006653Y009768D02*
X006976Y009768D01*
X006891Y009612D02*
X006561Y009612D01*
X006555Y010080D02*
X007753Y010080D01*
X007994Y011952D02*
X002245Y011952D01*
X002355Y012108D02*
X007973Y012108D01*
X008034Y012264D02*
X002399Y012264D01*
X001527Y011640D02*
X000917Y011640D01*
X000917Y011484D02*
X001435Y011484D01*
X001405Y011328D02*
X000917Y011328D01*
X000917Y011172D02*
X001422Y011172D01*
X001495Y011016D02*
X000917Y011016D01*
X000917Y006649D02*
X001536Y006649D01*
X001439Y006493D02*
X000917Y006493D01*
X000917Y006337D02*
X001405Y006337D01*
X001418Y006181D02*
X000917Y006181D01*
X000917Y006025D02*
X001486Y006025D01*
X001673Y005869D02*
X000917Y005869D01*
X000917Y005401D02*
X023166Y005401D01*
X023034Y005245D02*
X013794Y005245D01*
X013840Y005226D02*
X013630Y005313D01*
X013402Y005313D01*
X013192Y005226D01*
X013031Y005065D01*
X012944Y004855D01*
X012944Y004627D01*
X013031Y004417D01*
X013192Y004256D01*
X013402Y004169D01*
X013630Y004169D01*
X013840Y004256D01*
X014001Y004417D01*
X014088Y004627D01*
X014088Y004855D01*
X014001Y005065D01*
X013840Y005226D01*
X013977Y005089D02*
X022983Y005089D01*
X022986Y004933D02*
X022622Y004933D01*
X022256Y004933D02*
X022099Y004933D01*
X022099Y004777D02*
X022256Y004777D01*
X022256Y004621D02*
X022099Y004621D01*
X022099Y004465D02*
X022256Y004465D01*
X022256Y004309D02*
X022099Y004309D01*
X022099Y004153D02*
X022256Y004153D01*
X022256Y003997D02*
X022099Y003997D01*
X022099Y003841D02*
X022256Y003841D01*
X022957Y004777D02*
X023044Y004777D01*
X023163Y004621D02*
X023192Y004621D01*
X023626Y003373D02*
X023867Y003373D01*
X023867Y003217D02*
X023599Y003217D01*
X023555Y003061D02*
X023867Y003061D01*
X023867Y002905D02*
X023489Y002905D01*
X023400Y002749D02*
X023867Y002749D01*
X023867Y002593D02*
X023283Y002593D01*
X023127Y002437D02*
X023867Y002437D01*
X021732Y004933D02*
X014055Y004933D01*
X014088Y004777D02*
X021398Y004777D01*
X021192Y004621D02*
X014085Y004621D01*
X014020Y004465D02*
X021047Y004465D01*
X020935Y004309D02*
X013893Y004309D01*
X013848Y003217D02*
X018985Y003217D01*
X019005Y003264D02*
X018948Y003126D01*
X018948Y002977D01*
X019005Y002839D01*
X019110Y002734D01*
X019248Y002677D01*
X019398Y002677D01*
X019536Y002734D01*
X019641Y002839D01*
X019698Y002977D01*
X019698Y003126D01*
X019641Y003264D01*
X019536Y003370D01*
X019398Y003427D01*
X019248Y003427D01*
X019110Y003370D01*
X019005Y003264D01*
X019118Y003373D02*
X004966Y003373D01*
X004976Y003363D02*
X004870Y003468D01*
X004732Y003526D01*
X004583Y003526D01*
X004445Y003468D01*
X004339Y003363D01*
X004282Y003225D01*
X004282Y003076D01*
X004339Y002938D01*
X004445Y002832D01*
X004583Y002775D01*
X004732Y002775D01*
X004870Y002832D01*
X004976Y002938D01*
X005033Y003076D01*
X005033Y003225D01*
X004976Y003363D01*
X005033Y003217D02*
X013183Y003217D01*
X013030Y003061D02*
X005027Y003061D01*
X004943Y002905D02*
X012965Y002905D01*
X012944Y002749D02*
X003715Y002749D01*
X003804Y002905D02*
X004372Y002905D01*
X004288Y003061D02*
X003870Y003061D01*
X003914Y003217D02*
X004282Y003217D01*
X004350Y003373D02*
X003941Y003373D01*
X003944Y003685D02*
X020726Y003685D01*
X020749Y003841D02*
X003920Y003841D01*
X003879Y003997D02*
X020791Y003997D01*
X020851Y004153D02*
X003818Y004153D01*
X003735Y004309D02*
X013139Y004309D01*
X013011Y004465D02*
X003623Y004465D01*
X003478Y004621D02*
X012947Y004621D01*
X012944Y004777D02*
X003272Y004777D01*
X002937Y004933D02*
X012976Y004933D01*
X013055Y005089D02*
X000917Y005089D01*
X000917Y005245D02*
X013238Y005245D01*
X014002Y003061D02*
X018948Y003061D01*
X018978Y002905D02*
X014067Y002905D01*
X014088Y002749D02*
X019095Y002749D01*
X019551Y002749D02*
X020955Y002749D01*
X020865Y002905D02*
X019668Y002905D01*
X019698Y003061D02*
X020800Y003061D01*
X020755Y003217D02*
X019661Y003217D01*
X019528Y003373D02*
X020729Y003373D01*
X021071Y002593D02*
X014074Y002593D01*
X014009Y002437D02*
X021227Y002437D01*
X016470Y008520D02*
X015163Y008520D01*
X014979Y008676D02*
X016438Y008676D01*
X014769Y008676D02*
X013050Y008676D01*
X013234Y008520D02*
X014585Y008520D01*
X014548Y008364D02*
X013271Y008364D01*
X013232Y008208D02*
X014587Y008208D01*
X015454Y011640D02*
X013547Y011640D01*
X013674Y011796D02*
X015502Y011796D01*
X016358Y015072D02*
X014579Y015072D01*
X014629Y015228D02*
X015907Y015228D01*
X016046Y015228D02*
X016365Y015228D01*
X016339Y015383D02*
X016260Y015383D01*
X016303Y015539D02*
X016389Y015539D01*
X015693Y015383D02*
X014604Y015383D01*
X014472Y015539D02*
X015650Y015539D01*
X014959Y017588D02*
X015078Y017638D01*
X015170Y017729D01*
X015220Y017849D01*
X015220Y017979D01*
X015170Y018099D01*
X015078Y018190D01*
X014959Y018240D01*
X014829Y018240D01*
X014709Y018190D01*
X014617Y018099D01*
X014568Y017979D01*
X014568Y017849D01*
X014617Y017729D01*
X014709Y017638D01*
X014829Y017588D01*
X014959Y017588D01*
X015164Y017723D02*
X021075Y017723D01*
X021064Y017879D02*
X015220Y017879D01*
X015197Y018035D02*
X021148Y018035D01*
X021085Y018191D02*
X015077Y018191D01*
X014711Y018191D02*
X013401Y018191D01*
X013399Y018197D02*
X013307Y018289D01*
X013187Y018339D01*
X013057Y018339D01*
X012937Y018289D01*
X012846Y018197D01*
X012796Y018077D01*
X012796Y017948D01*
X012846Y017828D01*
X012937Y017736D01*
X013057Y017686D01*
X013187Y017686D01*
X013307Y017736D01*
X013399Y017828D01*
X013448Y017948D01*
X013448Y018077D01*
X013399Y018197D01*
X013448Y018035D02*
X014591Y018035D01*
X014568Y017879D02*
X013420Y017879D01*
X013276Y017723D02*
X014624Y017723D01*
X012968Y017723D02*
X011957Y017723D01*
X012101Y017879D02*
X012824Y017879D01*
X012796Y018035D02*
X012129Y018035D01*
X012082Y018191D02*
X012843Y018191D01*
X011932Y018503D02*
X021124Y018503D01*
X021064Y018347D02*
X011871Y018347D01*
X010676Y018035D02*
X007274Y018035D01*
X007287Y018191D02*
X010337Y018191D01*
X010257Y018347D02*
X007281Y018347D01*
X007282Y018503D02*
X010270Y018503D01*
X010375Y018659D02*
X007287Y018659D01*
X007170Y017879D02*
X010611Y017879D01*
X010631Y017723D02*
X008367Y017723D01*
X008516Y017567D02*
X010744Y017567D01*
X010575Y014292D02*
X007658Y014292D01*
X007740Y014136D02*
X010759Y014136D01*
X010910Y013980D02*
X007727Y013980D01*
X007623Y013824D02*
X011061Y013824D01*
X012919Y011640D02*
X013091Y011640D01*
X013319Y011640D02*
X013319Y011640D01*
X013319Y011796D02*
X013319Y011796D01*
X013319Y011952D02*
X013319Y011952D01*
X016863Y019127D02*
X023867Y019127D01*
X023867Y019283D02*
X016974Y019283D01*
X016992Y019439D02*
X023867Y019439D01*
X023867Y019595D02*
X017190Y019595D01*
X016928Y019595D02*
X016922Y019595D01*
X017466Y020063D02*
X019095Y020063D01*
X019143Y020219D02*
X017397Y020219D01*
X019575Y019751D02*
X023867Y019751D01*
X023867Y019907D02*
X019719Y019907D01*
X019747Y020063D02*
X023867Y020063D01*
X023867Y020219D02*
X019700Y020219D01*
X019933Y021155D02*
X022117Y021155D01*
X022048Y021311D02*
X019832Y021311D01*
X018652Y027082D02*
X011972Y027082D01*
X011928Y027238D02*
X018603Y027238D01*
X018630Y027394D02*
X011862Y027394D01*
X011962Y027550D02*
X018767Y027550D01*
X019092Y027550D02*
X022066Y027550D01*
X022048Y027706D02*
X011971Y027706D01*
X011883Y027862D02*
X022117Y027862D01*
X022177Y027394D02*
X019228Y027394D01*
X018625Y028486D02*
X011852Y028486D01*
X011958Y028642D02*
X018519Y028642D01*
X018505Y028798D02*
X011972Y028798D01*
X011894Y028954D02*
X018583Y028954D01*
X019120Y030358D02*
X023867Y030358D01*
X023867Y030514D02*
X019157Y030514D01*
X019119Y030670D02*
X023867Y030670D01*
X023867Y030826D02*
X018927Y030826D01*
X022094Y034569D02*
X015027Y034569D01*
X014982Y034725D02*
X022048Y034725D01*
X022604Y036285D02*
X023867Y036285D01*
X023867Y036441D02*
X022696Y036441D01*
X022694Y036597D02*
X023867Y036597D01*
X023867Y036753D02*
X022599Y036753D01*
X022637Y036909D02*
X023867Y036909D01*
X023867Y037065D02*
X022700Y037065D01*
X022680Y037221D02*
X023867Y037221D01*
X023867Y037377D02*
X022565Y037377D01*
X022216Y038001D02*
X006165Y038001D01*
X006153Y038157D02*
X022076Y038157D01*
X022048Y038313D02*
X006165Y038313D01*
X006165Y038469D02*
X022096Y038469D01*
X022167Y038625D02*
X006150Y038625D01*
X006044Y038781D02*
X022062Y038781D01*
X022309Y041505D02*
X022189Y041555D01*
X022098Y041647D01*
X022048Y041767D01*
X022048Y041896D01*
X022098Y042016D01*
X022189Y042108D01*
X022309Y042157D01*
X022439Y042157D01*
X022559Y042108D01*
X022651Y042016D01*
X022700Y041896D01*
X022700Y041767D01*
X022651Y041647D01*
X022559Y041555D01*
X022439Y041505D01*
X022309Y041505D01*
X022156Y041588D02*
X002266Y041588D01*
X002079Y041588D02*
X001921Y041588D01*
X001921Y041432D02*
X002079Y041432D01*
X002079Y041276D02*
X001921Y041276D01*
X001921Y041120D02*
X002079Y041120D01*
X002079Y040964D02*
X001921Y040964D01*
X001921Y040808D02*
X002079Y040808D01*
X002079Y040652D02*
X001921Y040652D01*
X001921Y040496D02*
X002079Y040496D01*
X002658Y041432D02*
X023867Y041432D01*
X023867Y041276D02*
X019138Y041276D01*
X018641Y041276D02*
X002863Y041276D01*
X003004Y041120D02*
X018564Y041120D01*
X018578Y040964D02*
X003105Y040964D01*
X002847Y042285D02*
X002706Y042257D01*
X002571Y042244D01*
X002571Y043623D01*
X003950Y043623D01*
X003936Y043487D01*
X003908Y043347D01*
X003867Y043210D01*
X003812Y043077D01*
X003745Y042951D01*
X003665Y042832D01*
X003574Y042721D01*
X003473Y042620D01*
X003362Y042529D01*
X003243Y042449D01*
X003116Y042382D01*
X002984Y042327D01*
X002847Y042285D01*
X003084Y042368D02*
X021586Y042368D01*
X021553Y042382D02*
X021685Y042327D01*
X021822Y042285D01*
X021963Y042257D01*
X022099Y042244D01*
X022099Y043623D01*
X020720Y043623D01*
X020733Y043487D01*
X020761Y043347D01*
X020803Y043210D01*
X020857Y043077D01*
X020925Y042951D01*
X021005Y042832D01*
X021095Y042721D01*
X021197Y042620D01*
X021308Y042529D01*
X021427Y042449D01*
X021553Y042382D01*
X021314Y042524D02*
X003355Y042524D01*
X003533Y042680D02*
X021136Y042680D01*
X021002Y042836D02*
X003668Y042836D01*
X003767Y042992D02*
X020903Y042992D01*
X020828Y043148D02*
X003841Y043148D01*
X003896Y043304D02*
X020774Y043304D01*
X020738Y043460D02*
X019075Y043460D01*
X019116Y043477D02*
X019256Y043617D01*
X019332Y043799D01*
X019332Y043997D01*
X019256Y044180D01*
X019116Y044319D01*
X018934Y044395D01*
X018736Y044395D01*
X018553Y044319D01*
X018414Y044180D01*
X018338Y043997D01*
X018338Y043799D01*
X018414Y043617D01*
X018553Y043477D01*
X018736Y043401D01*
X018934Y043401D01*
X019116Y043477D01*
X019255Y043616D02*
X020720Y043616D01*
X020735Y043928D02*
X019332Y043928D01*
X019320Y043772D02*
X022099Y043772D01*
X022099Y043616D02*
X022256Y043616D01*
X022256Y043623D02*
X022256Y042244D01*
X022391Y042257D01*
X022532Y042285D01*
X022669Y042327D01*
X022801Y042382D01*
X022928Y042449D01*
X023047Y042529D01*
X023158Y042620D01*
X023259Y042721D01*
X023350Y042832D01*
X023430Y042951D01*
X023497Y043077D01*
X023552Y043210D01*
X023594Y043347D01*
X023621Y043487D01*
X023635Y043623D01*
X022256Y043623D01*
X022256Y043772D02*
X023867Y043772D01*
X023867Y043928D02*
X023619Y043928D01*
X023585Y044084D02*
X023867Y044084D01*
X023867Y044240D02*
X023533Y044240D01*
X023460Y044396D02*
X023867Y044396D01*
X023867Y044552D02*
X023363Y044552D01*
X023233Y044708D02*
X023867Y044708D01*
X023867Y044864D02*
X023060Y044864D01*
X023634Y043616D02*
X023867Y043616D01*
X023867Y043460D02*
X023616Y043460D01*
X023581Y043304D02*
X023867Y043304D01*
X023867Y043148D02*
X023526Y043148D01*
X023452Y042992D02*
X023867Y042992D01*
X023867Y042836D02*
X023353Y042836D01*
X023218Y042680D02*
X023867Y042680D01*
X023867Y042524D02*
X023040Y042524D01*
X022769Y042368D02*
X023867Y042368D01*
X023867Y042212D02*
X000917Y042212D01*
X000917Y042056D02*
X022138Y042056D01*
X022050Y041900D02*
X000917Y041900D01*
X000917Y041744D02*
X022057Y041744D01*
X022099Y042368D02*
X022256Y042368D01*
X022256Y042524D02*
X022099Y042524D01*
X022099Y042680D02*
X022256Y042680D01*
X022256Y042836D02*
X022099Y042836D01*
X022099Y042992D02*
X022256Y042992D01*
X022256Y043148D02*
X022099Y043148D01*
X022099Y043304D02*
X022256Y043304D01*
X022256Y043460D02*
X022099Y043460D01*
X022610Y042056D02*
X023867Y042056D01*
X023867Y041900D02*
X022699Y041900D01*
X022691Y041744D02*
X023867Y041744D01*
X023867Y041588D02*
X022592Y041588D01*
X020769Y044084D02*
X019296Y044084D01*
X019196Y044240D02*
X020822Y044240D01*
X020895Y044396D02*
X004547Y044396D01*
X004625Y044552D02*
X020992Y044552D01*
X021121Y044708D02*
X004644Y044708D01*
X004611Y044864D02*
X021295Y044864D01*
X018474Y044240D02*
X018196Y044240D01*
X018256Y044180D02*
X018116Y044319D01*
X017934Y044395D01*
X017736Y044395D01*
X017553Y044319D01*
X017414Y044180D01*
X017338Y043997D01*
X017338Y043799D01*
X017414Y043617D01*
X017553Y043477D01*
X017736Y043401D01*
X017934Y043401D01*
X018116Y043477D01*
X018256Y043617D01*
X018332Y043799D01*
X018332Y043997D01*
X018256Y044180D01*
X018296Y044084D02*
X018374Y044084D01*
X018338Y043928D02*
X018332Y043928D01*
X018320Y043772D02*
X018349Y043772D01*
X018414Y043616D02*
X018255Y043616D01*
X018075Y043460D02*
X018595Y043460D01*
X017595Y043460D02*
X017075Y043460D01*
X017116Y043477D02*
X017256Y043617D01*
X017332Y043799D01*
X017332Y043997D01*
X017256Y044180D01*
X017116Y044319D01*
X016934Y044395D01*
X016736Y044395D01*
X016553Y044319D01*
X016414Y044180D01*
X016338Y043997D01*
X016338Y043799D01*
X016414Y043617D01*
X016553Y043477D01*
X016736Y043401D01*
X016934Y043401D01*
X017116Y043477D01*
X017255Y043616D02*
X017414Y043616D01*
X017349Y043772D02*
X017320Y043772D01*
X017332Y043928D02*
X017338Y043928D01*
X017374Y044084D02*
X017296Y044084D01*
X017196Y044240D02*
X017474Y044240D01*
X016595Y043460D02*
X016075Y043460D01*
X016116Y043477D02*
X016256Y043617D01*
X016332Y043799D01*
X016332Y043997D01*
X016256Y044180D01*
X016116Y044319D01*
X015934Y044395D01*
X015736Y044395D01*
X015553Y044319D01*
X015414Y044180D01*
X015338Y043997D01*
X015338Y043799D01*
X015414Y043617D01*
X015553Y043477D01*
X015736Y043401D01*
X015934Y043401D01*
X016116Y043477D01*
X016255Y043616D02*
X016414Y043616D01*
X016349Y043772D02*
X016320Y043772D01*
X016332Y043928D02*
X016338Y043928D01*
X016374Y044084D02*
X016296Y044084D01*
X016196Y044240D02*
X016474Y044240D01*
X015595Y043460D02*
X015075Y043460D01*
X015116Y043477D02*
X015256Y043617D01*
X015332Y043799D01*
X015332Y043997D01*
X015256Y044180D01*
X015116Y044319D01*
X014934Y044395D01*
X014736Y044395D01*
X014553Y044319D01*
X014414Y044180D01*
X014338Y043997D01*
X014338Y043799D01*
X014414Y043617D01*
X014553Y043477D01*
X014736Y043401D01*
X014934Y043401D01*
X015116Y043477D01*
X015255Y043616D02*
X015414Y043616D01*
X015349Y043772D02*
X015320Y043772D01*
X015332Y043928D02*
X015338Y043928D01*
X015374Y044084D02*
X015296Y044084D01*
X015196Y044240D02*
X015474Y044240D01*
X014595Y043460D02*
X014075Y043460D01*
X014116Y043477D02*
X014256Y043617D01*
X014332Y043799D01*
X014332Y043997D01*
X014256Y044180D01*
X014116Y044319D01*
X013934Y044395D01*
X013736Y044395D01*
X013553Y044319D01*
X013414Y044180D01*
X013338Y043997D01*
X013338Y043799D01*
X013414Y043617D01*
X013553Y043477D01*
X013736Y043401D01*
X013934Y043401D01*
X014116Y043477D01*
X014255Y043616D02*
X014414Y043616D01*
X014349Y043772D02*
X014320Y043772D01*
X014332Y043928D02*
X014338Y043928D01*
X014374Y044084D02*
X014296Y044084D01*
X014196Y044240D02*
X014474Y044240D01*
X013474Y044240D02*
X013196Y044240D01*
X013256Y044180D02*
X013116Y044319D01*
X012934Y044395D01*
X012736Y044395D01*
X012553Y044319D01*
X012414Y044180D01*
X012338Y043997D01*
X012338Y043799D01*
X012414Y043617D01*
X012553Y043477D01*
X012736Y043401D01*
X012934Y043401D01*
X013116Y043477D01*
X013256Y043617D01*
X013332Y043799D01*
X013332Y043997D01*
X013256Y044180D01*
X013296Y044084D02*
X013374Y044084D01*
X013338Y043928D02*
X013332Y043928D01*
X013320Y043772D02*
X013349Y043772D01*
X013414Y043616D02*
X013255Y043616D01*
X013075Y043460D02*
X013595Y043460D01*
X012595Y043460D02*
X012075Y043460D01*
X012116Y043477D02*
X012256Y043617D01*
X012332Y043799D01*
X012332Y043997D01*
X012256Y044180D01*
X012116Y044319D01*
X011934Y044395D01*
X011736Y044395D01*
X011553Y044319D01*
X011414Y044180D01*
X011338Y043997D01*
X011338Y043799D01*
X011414Y043617D01*
X011553Y043477D01*
X011736Y043401D01*
X011934Y043401D01*
X012116Y043477D01*
X012255Y043616D02*
X012414Y043616D01*
X012349Y043772D02*
X012320Y043772D01*
X012332Y043928D02*
X012338Y043928D01*
X012374Y044084D02*
X012296Y044084D01*
X012196Y044240D02*
X012474Y044240D01*
X011474Y044240D02*
X011196Y044240D01*
X011256Y044180D02*
X011116Y044319D01*
X010934Y044395D01*
X010736Y044395D01*
X010553Y044319D01*
X010414Y044180D01*
X010338Y043997D01*
X010338Y043799D01*
X010414Y043617D01*
X010553Y043477D01*
X010736Y043401D01*
X010934Y043401D01*
X011116Y043477D01*
X011256Y043617D01*
X011332Y043799D01*
X011332Y043997D01*
X011256Y044180D01*
X011296Y044084D02*
X011374Y044084D01*
X011338Y043928D02*
X011332Y043928D01*
X011320Y043772D02*
X011349Y043772D01*
X011414Y043616D02*
X011255Y043616D01*
X011075Y043460D02*
X011595Y043460D01*
X010595Y043460D02*
X010075Y043460D01*
X010116Y043477D02*
X009934Y043401D01*
X009736Y043401D01*
X009553Y043477D01*
X009414Y043617D01*
X009338Y043799D01*
X009338Y043997D01*
X009414Y044180D01*
X009553Y044319D01*
X009736Y044395D01*
X009934Y044395D01*
X010116Y044319D01*
X010256Y044180D01*
X010332Y043997D01*
X010332Y043799D01*
X010256Y043617D01*
X010116Y043477D01*
X010255Y043616D02*
X010414Y043616D01*
X010349Y043772D02*
X010320Y043772D01*
X010332Y043928D02*
X010338Y043928D01*
X010374Y044084D02*
X010296Y044084D01*
X010196Y044240D02*
X010474Y044240D01*
X009595Y043460D02*
X009075Y043460D01*
X009116Y043477D02*
X009256Y043617D01*
X009332Y043799D01*
X009332Y043997D01*
X009256Y044180D01*
X009116Y044319D01*
X008934Y044395D01*
X008736Y044395D01*
X008553Y044319D01*
X008414Y044180D01*
X008338Y043997D01*
X008338Y043799D01*
X008414Y043617D01*
X008553Y043477D01*
X008736Y043401D01*
X008934Y043401D01*
X009116Y043477D01*
X009255Y043616D02*
X009414Y043616D01*
X009349Y043772D02*
X009320Y043772D01*
X009332Y043928D02*
X009338Y043928D01*
X009374Y044084D02*
X009296Y044084D01*
X009196Y044240D02*
X009474Y044240D01*
X008595Y043460D02*
X008075Y043460D01*
X008116Y043477D02*
X008256Y043617D01*
X008332Y043799D01*
X008332Y043997D01*
X008256Y044180D01*
X008116Y044319D01*
X007934Y044395D01*
X007736Y044395D01*
X007553Y044319D01*
X007414Y044180D01*
X007338Y043997D01*
X007338Y043799D01*
X007414Y043617D01*
X007553Y043477D01*
X007736Y043401D01*
X007934Y043401D01*
X008116Y043477D01*
X008255Y043616D02*
X008414Y043616D01*
X008349Y043772D02*
X008320Y043772D01*
X008332Y043928D02*
X008338Y043928D01*
X008374Y044084D02*
X008296Y044084D01*
X008196Y044240D02*
X008474Y044240D01*
X007595Y043460D02*
X007075Y043460D01*
X007116Y043477D02*
X007256Y043617D01*
X007332Y043799D01*
X007332Y043997D01*
X007256Y044180D01*
X007116Y044319D01*
X006934Y044395D01*
X006736Y044395D01*
X006553Y044319D01*
X006414Y044180D01*
X006338Y043997D01*
X006338Y043799D01*
X006414Y043617D01*
X006553Y043477D01*
X006736Y043401D01*
X006934Y043401D01*
X007116Y043477D01*
X007255Y043616D02*
X007414Y043616D01*
X007349Y043772D02*
X007320Y043772D01*
X007332Y043928D02*
X007338Y043928D01*
X007374Y044084D02*
X007296Y044084D01*
X007196Y044240D02*
X007474Y044240D01*
X006474Y044240D02*
X006196Y044240D01*
X006256Y044180D02*
X006116Y044319D01*
X005934Y044395D01*
X005736Y044395D01*
X005553Y044319D01*
X005414Y044180D01*
X005338Y043997D01*
X005338Y043799D01*
X005414Y043617D01*
X005553Y043477D01*
X005736Y043401D01*
X005934Y043401D01*
X006116Y043477D01*
X006256Y043617D01*
X006332Y043799D01*
X006332Y043997D01*
X006256Y044180D01*
X006296Y044084D02*
X006374Y044084D01*
X006338Y043928D02*
X006332Y043928D01*
X006320Y043772D02*
X006349Y043772D01*
X006414Y043616D02*
X006255Y043616D01*
X006075Y043460D02*
X006595Y043460D01*
X005595Y043460D02*
X003931Y043460D01*
X003949Y043616D02*
X005414Y043616D01*
X005349Y043772D02*
X002571Y043772D01*
X002571Y043616D02*
X002413Y043616D01*
X002413Y043772D02*
X000917Y043772D01*
X000917Y043928D02*
X001050Y043928D01*
X001084Y044084D02*
X000917Y044084D01*
X000917Y044240D02*
X001137Y044240D01*
X001210Y044396D02*
X000917Y044396D01*
X000917Y044552D02*
X001307Y044552D01*
X001436Y044708D02*
X000917Y044708D01*
X000917Y044864D02*
X001610Y044864D01*
X001035Y043616D02*
X000917Y043616D01*
X000917Y043460D02*
X001053Y043460D01*
X001089Y043304D02*
X000917Y043304D01*
X000917Y043148D02*
X001143Y043148D01*
X001218Y042992D02*
X000917Y042992D01*
X000917Y042836D02*
X001317Y042836D01*
X001451Y042680D02*
X000917Y042680D01*
X000917Y042524D02*
X001629Y042524D01*
X001900Y042368D02*
X000917Y042368D01*
X000917Y041588D02*
X001734Y041588D01*
X001342Y041432D02*
X000917Y041432D01*
X000917Y041276D02*
X001137Y041276D01*
X000996Y041120D02*
X000917Y041120D01*
X002413Y042368D02*
X002571Y042368D01*
X002571Y042524D02*
X002413Y042524D01*
X002413Y042680D02*
X002571Y042680D01*
X002571Y042836D02*
X002413Y042836D01*
X002413Y042992D02*
X002571Y042992D01*
X002571Y043148D02*
X002413Y043148D01*
X002413Y043304D02*
X002571Y043304D01*
X002571Y043460D02*
X002413Y043460D01*
X003548Y044708D02*
X003687Y044708D01*
X003687Y044674D02*
X003687Y044648D01*
X003698Y044574D01*
X003722Y044502D01*
X003756Y044435D01*
X003800Y044374D01*
X003854Y044321D01*
X003915Y044276D01*
X003982Y044242D01*
X004053Y044219D01*
X004128Y044207D01*
X004154Y044207D01*
X004154Y044674D01*
X003687Y044674D01*
X003678Y044552D02*
X003706Y044552D01*
X003775Y044396D02*
X003784Y044396D01*
X003848Y044240D02*
X003988Y044240D01*
X004154Y044240D02*
X004177Y044240D01*
X004177Y044396D02*
X004154Y044396D01*
X004154Y044552D02*
X004177Y044552D01*
X004343Y044240D02*
X005474Y044240D01*
X005374Y044084D02*
X003900Y044084D01*
X003934Y043928D02*
X005338Y043928D01*
X003720Y044864D02*
X003375Y044864D01*
X005571Y038781D02*
X005634Y038781D01*
X006138Y037845D02*
X010446Y037845D01*
X010395Y037689D02*
X006004Y037689D01*
X005673Y037689D02*
X005532Y037689D01*
X005762Y034101D02*
X007186Y034101D01*
X007260Y033945D02*
X005861Y033945D01*
X005867Y033789D02*
X010172Y033789D01*
X010240Y033633D02*
X005779Y033633D01*
X007714Y034413D02*
X008688Y034413D01*
X008705Y034431D02*
X008613Y034339D01*
X008564Y034219D01*
X008564Y034089D01*
X008613Y033969D01*
X008705Y033878D01*
X008825Y033828D01*
X008955Y033828D01*
X009075Y033878D01*
X009166Y033969D01*
X009216Y034089D01*
X009216Y034219D01*
X009166Y034339D01*
X009075Y034431D01*
X008955Y034480D01*
X008825Y034480D01*
X008705Y034431D01*
X008580Y034257D02*
X007822Y034257D01*
X007838Y034101D02*
X008564Y034101D01*
X008638Y033945D02*
X007764Y033945D01*
X009142Y033945D02*
X010059Y033945D01*
X010040Y034101D02*
X009216Y034101D01*
X009200Y034257D02*
X010106Y034257D01*
X009092Y034413D02*
X013583Y034413D01*
X013641Y034257D02*
X013283Y034257D01*
X012764Y034257D02*
X011217Y034257D01*
X011283Y034101D02*
X012698Y034101D01*
X012717Y033945D02*
X011264Y033945D01*
X011488Y033789D02*
X012591Y033789D01*
X012503Y033633D02*
X011576Y033633D01*
X011569Y033477D02*
X012510Y033477D01*
X012608Y033321D02*
X011471Y033321D01*
X010893Y037377D02*
X018592Y037377D01*
X018505Y037533D02*
X011022Y037533D01*
X011047Y037689D02*
X018515Y037689D01*
X018615Y037845D02*
X010995Y037845D01*
X011464Y026302D02*
X009487Y026302D01*
X009551Y026146D02*
X011418Y026146D01*
X011430Y025990D02*
X009531Y025990D01*
X009417Y025834D02*
X011532Y025834D01*
X012798Y025054D02*
X012856Y025054D01*
X011799Y020843D02*
X011771Y020843D01*
X008114Y017723D02*
X008091Y017723D01*
X008091Y017567D02*
X008114Y017567D01*
X008114Y017411D02*
X008091Y017411D01*
X008091Y017255D02*
X008114Y017255D01*
X008114Y017099D02*
X008091Y017099D01*
X008091Y016943D02*
X008114Y016943D01*
X007811Y016943D02*
X007638Y016943D01*
X007618Y017723D02*
X007838Y017723D01*
X007062Y019439D02*
X006970Y019531D01*
X006850Y019581D01*
X006721Y019581D01*
X006601Y019531D01*
X006509Y019439D01*
X007247Y021311D02*
X007886Y021311D01*
X007786Y021467D02*
X007176Y021467D01*
X007188Y022403D02*
X007048Y022403D01*
X007052Y022871D02*
X007184Y022871D01*
X006701Y013824D02*
X006552Y013824D01*
X006564Y013356D02*
X006688Y013356D01*
X002571Y004933D02*
X002413Y004933D01*
X002413Y004777D02*
X002571Y004777D01*
X002571Y004621D02*
X002413Y004621D01*
X002413Y004465D02*
X002571Y004465D01*
X002571Y004309D02*
X002413Y004309D01*
X002413Y004153D02*
X002571Y004153D01*
X002571Y003997D02*
X002413Y003997D01*
X002413Y003841D02*
X002571Y003841D01*
X002047Y004933D02*
X000917Y004933D01*
X000917Y004777D02*
X001712Y004777D01*
X001507Y004621D02*
X000917Y004621D01*
X000917Y004465D02*
X001361Y004465D01*
X001249Y004309D02*
X000917Y004309D01*
X000917Y004153D02*
X001166Y004153D01*
X001106Y003997D02*
X000917Y003997D01*
X000917Y003841D02*
X001064Y003841D01*
X001041Y003685D02*
X000917Y003685D01*
X003442Y002437D02*
X013023Y002437D01*
X012958Y002593D02*
X003598Y002593D01*
X000939Y037533D02*
X000917Y037533D01*
X000917Y037689D02*
X001068Y037689D01*
X000917Y037845D02*
X001230Y037845D01*
X001500Y038001D02*
X000917Y038001D01*
D19*
X006232Y021359D03*
X004165Y006989D03*
X004658Y003150D03*
X019323Y003052D03*
D20*
X018536Y012402D03*
M02*
